<?xml version="1.0" standalone="no"?>
<!DOCTYPE svg PUBLIC "-//W3C//DTD SVG 20010904//EN"
 "http://www.w3.org/TR/2001/REC-SVG-20010904/DTD/svg10.dtd">
<svg version="1.0" xmlns="http://www.w3.org/2000/svg"
 width="700.000000pt" height="700.000000pt" viewBox="0 0 700.000000 700.000000"
 preserveAspectRatio="xMidYMid meet">
<metadata>
Created by potrace 1.11, written by Peter Selinger 2001-2013
</metadata>
<g transform="translate(0.000000,700.000000) scale(0.100000,-0.100000)"
fill="#000000" stroke="none">
<path d="M6020 5240 c-123 -22 -247 -94 -333 -193 -49 -56 -112 -168 -122
-214 -2 -10 -8 -37 -13 -60 -10 -44 -9 -166 2 -223 l7 -35 -519 -518 -518
-518 -45 10 c-46 10 -187 9 -229 -3 -23 -6 -61 29 -398 367 l-374 374 11 38
c5 21 9 79 7 129 -8 249 -163 454 -406 536 -95 33 -248 33 -349 0 -184 -59
-351 -234 -387 -405 -1 -5 -6 -28 -11 -50 -10 -46 -10 -138 1 -207 l7 -47
-663 -661 -663 -662 -35 7 c-47 9 -166 10 -216 2 -22 -3 -67 -16 -100 -28
-234 -87 -387 -313 -379 -561 4 -158 58 -281 172 -396 144 -144 339 -200 541
-155 210 47 393 234 436 445 12 59 13 146 3 255 -2 17 148 172 658 683 l660
661 35 -7 c51 -11 179 -12 227 -2 l42 9 371 -371 c360 -361 371 -372 365 -403
-72 -363 199 -698 565 -700 117 -1 204 23 317 87 109 61 216 211 253 355 17
65 20 183 5 253 l-7 37 518 516 519 516 50 -7 c127 -19 238 -4 351 50 127 60
229 165 283 291 94 225 47 469 -124 640 -138 138 -328 199 -515 165z"/>
</g>
</svg>
