<?xml version="1.0" standalone="no"?>
<!DOCTYPE svg PUBLIC "-//W3C//DTD SVG 20010904//EN"
 "http://www.w3.org/TR/2001/REC-SVG-20010904/DTD/svg10.dtd">
<svg version="1.0" xmlns="http://www.w3.org/2000/svg"
 width="700.000000pt" height="700.000000pt" viewBox="0 0 700.000000 700.000000"
 preserveAspectRatio="xMidYMid meet">
<metadata>
Created by potrace 1.11, written by Peter Selinger 2001-2013
</metadata>
<g transform="translate(0.000000,700.000000) scale(0.100000,-0.100000)"
fill="#000000" stroke="none">
<path d="M4033 5299 c-48 -62 -63 -89 -63 -114 0 -52 -7 -62 -40 -57 -28 4
-29 3 -27 -37 2 -41 1 -42 -58 -77 -33 -19 -69 -39 -81 -45 -11 -6 -26 -26
-33 -45 -7 -19 -38 -65 -70 -102 -31 -37 -62 -80 -70 -96 -7 -17 -32 -48 -57
-70 -24 -22 -44 -44 -44 -50 0 -48 -28 -93 -103 -170 -45 -46 -98 -105 -117
-132 -48 -67 -90 -160 -90 -201 0 -24 -10 -47 -32 -75 -18 -22 -38 -56 -44
-76 l-10 -37 -13 50 c-12 49 -13 50 -29 28 -9 -11 -34 -53 -55 -92 -30 -57
-42 -71 -61 -71 -12 0 -25 -3 -28 -6 -8 -7 36 -54 50 -54 20 0 49 -49 68 -113
l18 -65 91 -53 90 -54 70 -138 c60 -118 82 -150 160 -234 49 -53 113 -134 141
-179 29 -45 83 -124 121 -176 118 -158 117 -131 10 -204 -51 -35 -108 -78
-127 -96 -19 -18 -65 -48 -102 -66 -40 -20 -70 -41 -73 -53 -9 -28 -36 -36
-104 -29 -53 5 -65 11 -108 50 -26 25 -67 54 -90 64 -23 10 -40 22 -38 26 3 4
23 10 45 14 l41 6 -37 46 c-20 24 -44 44 -53 42 -26 -4 -63 22 -57 38 9 23
-33 113 -79 170 -23 28 -57 77 -75 110 -36 63 -110 154 -175 215 -22 20 -57
71 -78 112 -28 54 -62 97 -124 158 -109 108 -129 135 -113 154 9 11 5 20 -24
45 -19 17 -38 40 -41 51 -4 10 -15 19 -25 19 -22 0 -52 40 -71 95 -7 22 -21
47 -30 55 -9 8 -32 38 -50 66 -19 28 -64 77 -101 109 -64 55 -80 81 -104 163
-2 6 -7 12 -12 12 -8 0 -108 -194 -159 -308 -17 -40 -28 -52 -39 -48 -51 20
-60 18 -85 -18 -13 -20 -28 -36 -32 -36 -4 0 -3 -9 3 -19 14 -27 15 -27 -33
-49 -34 -16 -51 -34 -83 -89 -23 -37 -44 -79 -47 -93 -4 -14 -28 -40 -54 -59
-57 -40 -118 -113 -119 -142 -1 -12 -37 -57 -83 -103 -63 -63 -81 -88 -81
-109 0 -43 -17 -65 -59 -78 -31 -9 -42 -20 -60 -55 -11 -25 -24 -68 -27 -97
-6 -47 -23 -99 -24 -71 0 8 -9 8 -34 0 -28 -8 -45 -28 -100 -116 -67 -106 -87
-133 -155 -205 -57 -60 -66 -80 -101 -210 -18 -66 -44 -140 -56 -165 l-24 -45
0 77 c0 42 -4 79 -9 82 -8 5 -128 -171 -124 -183 1 -3 25 -10 53 -16 l52 -10
-26 -24 c-26 -24 -26 -24 -26 -3 0 28 -4 27 -65 -3 -27 -13 -56 -25 -62 -25
-7 0 -13 -4 -13 -8 0 -4 -21 -37 -47 -72 -39 -54 -47 -73 -48 -110 l0 -45 -49
-16 c-58 -18 -77 -43 -24 -32 33 7 57 8 173 4 112 -3 225 9 225 25 0 18 15 18
45 -2 20 -13 40 -15 107 -9 142 11 276 5 423 -20 34 -6 50 -2 97 24 31 17 63
31 72 31 8 0 38 -14 66 -30 53 -31 83 -33 165 -10 17 5 50 14 74 20 l43 11
-22 24 c-12 13 -19 28 -16 33 3 5 -8 15 -25 22 -30 13 -52 46 -42 63 7 12 91
47 112 47 29 0 69 -37 76 -70 8 -36 6 -35 80 -10 l59 20 27 -26 c36 -35 28
-47 -25 -39 -51 9 -40 -4 22 -27 l47 -16 -82 4 c-48 2 -85 0 -88 -6 -3 -6 6
-10 22 -11 192 -8 215 -10 281 -33 39 -13 73 -21 76 -18 4 3 6 15 6 27 l0 23
66 -20 66 -21 59 28 c67 32 81 29 141 -31 38 -39 59 -41 174 -19 46 9 82 11
88 6 6 -5 24 -7 39 -4 24 5 28 10 24 30 -8 42 25 48 81 13 27 -16 57 -30 67
-30 10 0 89 16 174 36 l155 36 16 -23 c42 -64 44 -65 86 -46 22 9 52 21 67 27
27 10 27 10 12 41 -16 30 -15 32 10 70 36 51 50 62 73 55 14 -5 17 -13 14 -36
-4 -28 -2 -30 26 -30 l31 0 -14 -47 c-8 -27 -15 -51 -15 -54 0 -4 28 -12 63
-19 34 -7 71 -14 82 -16 11 -2 32 1 47 7 23 9 35 8 71 -9 44 -21 44 -21 106
-2 53 17 80 19 190 13 127 -6 128 -5 167 21 21 14 43 26 48 26 6 0 27 -16 47
-36 l36 -36 79 16 c44 9 113 18 154 22 l75 6 45 65 c79 115 157 217 185 243
l27 25 44 -50 c24 -27 44 -55 44 -61 0 -7 -14 -40 -31 -74 l-31 -62 -46 7
c-26 3 -64 9 -84 12 -21 3 -38 1 -38 -4 0 -5 -8 -18 -18 -29 -25 -27 -56 -74
-51 -78 2 -2 31 -7 65 -11 50 -5 63 -3 75 11 17 21 85 64 100 64 7 0 43 -18
81 -40 39 -22 72 -40 74 -40 3 0 3 27 0 60 -2 33 -1 60 3 60 4 0 34 -27 67
-60 45 -46 66 -60 89 -60 17 0 47 -4 68 -9 38 -9 83 3 157 44 24 13 31 11 92
-25 37 -21 75 -37 85 -35 10 2 43 4 73 5 53 1 56 2 90 47 58 78 65 83 120 83
l50 0 22 -50 c12 -27 27 -50 32 -50 6 0 34 6 63 14 49 13 53 13 106 -14 48
-24 63 -27 133 -24 100 5 183 23 209 46 24 23 82 18 229 -18 61 -15 103 -21
109 -15 8 8 -168 233 -190 243 -4 1 -23 21 -42 43 -18 22 -55 63 -80 90 -121
130 -145 158 -128 152 34 -12 16 12 -25 35 -42 23 -42 23 -46 88 -4 63 -5 66
-56 115 -51 48 -154 172 -188 225 -8 14 -26 37 -39 51 -120 131 -156 184 -246
360 -22 43 -26 46 -65 47 -70 3 -73 6 -93 87 -11 42 -27 83 -37 92 -22 19 -24
6 -7 -42 10 -28 9 -37 -16 -78 -15 -26 -30 -49 -35 -52 -4 -2 -26 3 -49 13
-39 16 -41 19 -41 59 0 42 1 43 60 73 33 17 60 35 60 41 0 5 -8 22 -19 37 -10
15 -39 62 -65 105 -26 42 -52 77 -57 77 -5 0 -10 -18 -10 -40 -1 -22 -3 -44
-4 -50 -1 -5 -3 -23 -4 -40 -1 -24 -8 -33 -37 -45 -45 -19 -39 -19 -66 8 -57
56 -61 63 -44 94 8 15 36 51 61 78 l47 50 -23 73 c-12 39 -27 72 -32 72 -5 0
-20 -9 -34 -20 -25 -19 -26 -19 -52 -1 -60 44 -82 78 -105 162 l-21 83 -77 24
-77 23 31 45 c30 45 30 45 11 67 -11 12 -32 36 -47 53 -25 29 -29 30 -78 24
-42 -6 -54 -4 -70 12 -37 37 -39 61 -12 148 14 45 23 85 20 88 -9 9 -13 2 -38
-83 -24 -79 -25 -80 -60 -83 -31 -3 -36 0 -42 23 -6 22 -12 26 -34 23 -26 -3
-27 -2 -30 55 -2 34 3 79 12 105 9 26 18 82 22 124 5 76 5 78 -20 89 -14 7
-26 16 -26 20 0 4 -12 9 -27 11 -22 2 -30 10 -37 35 -9 30 -11 31 -65 31 -107
-1 -117 1 -152 33 -19 17 -44 39 -57 49 -23 18 -23 20 -6 52 9 18 30 52 46 76
l30 43 -54 59 c-33 36 -60 57 -70 55 -11 -2 -35 16 -62 48 -47 53 -75 103 -96
175 -7 23 -18 42 -24 42 -6 -1 -39 -37 -73 -81z m77 25 c0 -8 -4 -12 -10 -9
-5 3 -10 10 -10 16 0 5 5 9 10 9 6 0 10 -7 10 -16z m-18 -41 c31 -28 27 -31
-60 -48 -25 -4 -24 -2 17 48 17 21 20 21 43 0z m55 -93 c7 -23 15 -52 19 -63
6 -19 3 -19 -57 -14 -35 3 -65 6 -66 7 -7 1 -44 83 -39 87 7 7 109 31 121 29
5 -2 15 -22 22 -46z m72 -78 c-26 -4 -25 -5 -34 38 l-7 35 31 -35 c30 -33 30
-35 10 -38z m-209 17 c0 -5 -4 -9 -8 -9 -5 0 -9 7 -9 15 0 8 4 12 9 9 4 -3 8
-9 8 -15z m-72 -64 c-3 -3 -9 2 -12 12 -6 14 -5 15 5 6 7 -7 10 -15 7 -18z
m422 -36 c0 -3 -13 -4 -30 -1 -28 4 -41 28 -24 45 7 6 53 -32 54 -44z m-170 9
c0 -4 -12 -2 -26 4 -23 11 -24 13 -7 19 16 6 32 -5 33 -23z m-45 -18 c3 -5 2
-10 -4 -10 -5 0 -13 5 -16 10 -3 6 -2 10 4 10 5 0 13 -4 16 -10z m6 -60 c-25
-21 -44 -18 -34 5 3 8 17 15 32 15 l26 -1 -24 -19z m194 -27 c-15 -27 -34 -55
-42 -64 -12 -15 -5 -24 67 -88 44 -39 84 -71 89 -71 9 0 32 -101 25 -111 -7
-13 -130 -29 -175 -24 -79 10 -83 13 -103 57 -25 59 -28 94 -14 157 11 49 16
56 50 70 30 13 38 21 38 42 0 21 10 33 43 53 23 14 44 25 45 26 2 0 -8 -21
-23 -47z m-493 5 c-7 -7 -12 -8 -12 -2 0 6 3 14 7 17 3 4 9 5 12 2 2 -3 -1
-11 -7 -17z m338 17 c0 -2 -10 -9 -22 -15 -22 -11 -22 -10 -4 4 21 17 26 19
26 11z m-310 -50 c-7 -9 -15 -13 -17 -11 -7 7 7 26 19 26 6 0 6 -6 -2 -15z
m137 -104 c3 -49 2 -51 -25 -52 -15 0 -41 -2 -59 -5 -29 -3 -36 1 -63 40 -16
25 -30 48 -30 52 0 4 18 25 41 46 l41 38 46 -34 c44 -32 47 -37 49 -85z m-197
99 c0 -5 -4 -10 -10 -10 -5 0 -10 5 -10 10 0 6 5 10 10 10 6 0 10 -4 10 -10z
m-20 -72 c-1 -14 -24 -48 -32 -48 -4 0 -3 47 1 58 4 9 31 0 31 -10z m-66 -52
c6 -25 5 -28 -11 -21 -10 4 -26 10 -35 12 -24 7 -23 17 5 36 25 17 32 13 41
-27z m120 4 l26 -40 -50 0 c-27 0 -50 3 -50 6 0 8 40 74 44 74 2 0 15 -18 30
-40z m303 18 c-3 -8 -6 -5 -6 6 -1 11 2 17 5 13 3 -3 4 -12 1 -19z m-433 -77
c3 -4 -4 -17 -15 -27 -17 -16 -22 -16 -29 -4 -16 26 -11 40 14 40 14 0 27 -4
30 -9z m269 -13 c-18 -18 -24 -19 -37 -8 -25 20 -19 30 21 30 l37 0 -21 -22z
m57 13 c0 -5 -7 -12 -16 -15 -14 -5 -15 -4 -4 9 14 17 20 19 20 6z m-410 -25
c14 -18 14 -19 -8 -7 -12 7 -20 17 -16 22 3 6 7 9 8 7 1 -2 8 -12 16 -22z
m230 19 c0 -16 -38 -22 -60 -9 -24 13 -24 13 18 14 23 0 42 -2 42 -5z m-90
-56 c0 -5 -15 -7 -32 -5 -18 3 -37 5 -42 5 -4 1 2 12 15 26 l24 25 18 -21 c9
-12 17 -25 17 -30z m153 37 c23 -18 22 -21 -13 -24 -32 -2 -33 -2 -24 22 7 19
14 20 37 2z m-237 -108 c18 -35 31 -64 29 -66 -3 -4 -41 -10 -84 -14 -31 -3
-39 2 -73 47 -21 28 -38 52 -38 55 0 3 16 22 35 42 l36 37 32 -19 c21 -12 43
-42 63 -82z m457 79 c25 -19 29 -32 39 -113 l12 -90 -32 -67 c-17 -37 -35 -67
-39 -67 -4 0 -30 13 -58 28 -39 21 -51 33 -53 55 -4 31 -3 31 -36 16 -17 -8
-26 -21 -28 -43 -3 -29 -6 -31 -56 -39 -29 -5 -59 -6 -66 -4 -8 3 -16 32 -20
71 -6 61 -4 70 28 133 37 74 43 78 166 120 83 28 109 28 143 0z m364 -29 c-3
-8 -6 -5 -6 6 -1 11 2 17 5 13 3 -3 4 -12 1 -19z m-610 6 c-3 -3 -12 -4 -19
-1 -8 3 -5 6 6 6 11 1 17 -2 13 -5z m-129 -19 c3 -2 -4 -23 -15 -47 l-20 -42
-22 41 c-29 59 -28 65 16 58 20 -3 39 -7 41 -10z m67 -15 c3 -5 -3 -26 -14
-47 l-20 -38 -1 48 c0 34 4 47 14 47 8 0 18 -4 21 -10z m-57 -85 c-2 -18 -7
-22 -17 -16 -11 7 -11 14 0 47 11 30 15 33 17 16 2 -12 2 -33 0 -47z m-237 14
c8 -16 6 -17 -21 -8 -33 12 -32 11 -24 33 5 13 9 14 21 5 8 -7 18 -20 24 -30z
m971 -80 c7 -5 23 -9 35 -9 23 0 29 -12 38 -75 4 -22 8 -48 11 -57 6 -19 -28
-58 -51 -58 -8 0 -18 -1 -22 -2 -5 -1 -23 -5 -40 -9 -23 -5 -33 -3 -33 5 0 7
-42 34 -92 61 -82 44 -96 55 -115 95 -27 55 -27 56 -5 63 9 3 69 23 132 46
l115 40 7 -46 c4 -25 13 -50 20 -54z m-125 85 c-3 -3 -12 -4 -19 -1 -8 3 -5 6
6 6 11 1 17 -2 13 -5z m-154 -29 c-7 -21 -13 -19 -13 6 0 11 4 18 10 14 5 -3
7 -12 3 -20z m-634 -84 c17 -61 12 -69 -49 -77 -44 -6 -45 -5 -77 40 l-33 46
22 44 21 44 51 -22 c48 -21 52 -26 65 -75z m1054 48 c-10 -4 -26 -8 -36 -8
-14 -1 -15 2 -5 18 10 16 16 17 36 8 22 -10 22 -12 5 -18z m-943 -13 c0 -6 -8
-29 -18 -50 l-18 -40 -32 53 -32 52 50 -2 c28 -2 50 -7 50 -13z m31 -29 c-10
-9 -11 -8 -5 6 3 10 9 15 12 12 3 -3 0 -11 -7 -18z m939 19 c0 -3 -4 -16 -10
-31 l-10 -26 -31 23 c-30 23 -30 23 -7 29 28 8 58 11 58 5z m-448 -68 c6 -14
5 -16 -7 -12 -8 4 -15 18 -14 33 0 15 3 20 6 11 3 -8 10 -23 15 -32z m-778 -7
c-7 -7 -34 21 -28 31 3 5 12 1 19 -9 7 -10 12 -20 9 -22z m196 -4 c0 -16 -18
3 -23 25 -6 22 -5 22 8 4 8 -11 15 -24 15 -29z m1000 8 c0 -2 -7 -11 -16 -20
-20 -19 -34 -6 -34 33 0 22 1 22 25 6 14 -9 25 -18 25 -19z m-870 13 c0 -7 3
-23 6 -35 6 -21 4 -22 -26 -13 -45 13 -46 17 -19 39 28 24 39 26 39 9z m-329
-46 l22 -19 -33 -6 c-39 -8 -44 -5 -35 22 8 26 16 26 46 3z m627 -48 c-40 -14
-45 -12 -50 25 l-4 29 43 -21 44 -22 -33 -11z m582 10 c0 -28 -4 -43 -10 -39
-6 3 -7 17 -4 31 4 14 2 24 -2 23 -23 -4 -26 2 -8 16 10 8 20 15 22 15 1 0 2
-21 2 -46z m-1069 22 c-7 -8 -21 -12 -34 -8 -20 6 -20 7 8 13 17 4 32 7 34 8
2 0 -2 -5 -8 -13z m136 -7 c29 -11 24 -19 -23 -33 -19 -6 -21 -3 -16 19 5 29
3 28 39 14z m-374 -20 c6 -10 3 -25 -12 -49 l-21 -35 0 53 c0 54 12 65 33 31z
m555 -4 c-16 -19 -25 -22 -39 -14 -26 13 -24 17 14 28 48 14 49 13 25 -14z
m-428 -5 c-11 -21 -19 -24 -44 -14 -25 9 -19 22 12 27 15 2 31 5 35 6 4 0 3
-8 -3 -19z m60 -11 c0 -5 -4 -9 -10 -9 -5 0 -10 7 -10 16 0 8 5 12 10 9 6 -3
10 -10 10 -16z m394 -3 c-6 -15 -24 -23 -24 -11 0 8 24 34 28 30 1 -1 0 -10
-4 -19z m65 10 c9 -11 6 -15 -14 -18 -28 -6 -27 -6 -19 16 8 20 18 20 33 2z
m-697 -41 c-3 -37 -7 -44 -17 -35 -13 11 -8 40 11 71 9 15 9 11 6 -36z m582
-57 c14 -33 26 -65 26 -73 0 -11 -98 -65 -119 -65 -6 0 -102 180 -105 197 0 4
26 15 59 24 58 15 61 15 87 -4 15 -11 38 -46 52 -79z m225 72 c-13 -35 -16
-36 -41 -13 -19 17 -18 18 14 29 18 7 34 13 35 13 1 1 -3 -12 -8 -29z m114 5
c-7 -21 -13 -19 -13 6 0 11 4 18 10 14 5 -3 7 -12 3 -20z m-36 -7 c-3 -8 -6
-5 -6 6 -1 11 2 17 5 13 3 -3 4 -12 1 -19z m-926 -11 c-10 -9 -11 -8 -5 6 3
10 9 15 12 12 3 -3 0 -11 -7 -18z m179 -31 l50 -53 62 14 62 14 40 -28 c31
-22 42 -37 47 -65 l5 -35 -93 -27 c-51 -15 -125 -45 -163 -67 -101 -57 -132
-46 -99 37 16 39 11 90 -12 136 l-19 37 27 46 c16 25 31 45 35 45 4 0 30 -24
58 -54z m15 34 c3 -5 1 -10 -4 -10 -6 0 -11 5 -11 10 0 6 2 10 4 10 3 0 8 -4
11 -10z m815 -5 c0 -8 -4 -15 -10 -15 -5 0 -10 7 -10 15 0 8 5 15 10 15 6 0
10 -7 10 -15z m-255 -12 c-2 -10 -4 -24 -4 -30 -1 -10 -7 -10 -26 -1 -31 14
-31 22 -2 36 31 15 36 14 32 -5z m154 -5 c12 -16 10 -18 -19 -18 -32 0 -33 0
-15 20 10 11 19 19 19 18 1 -2 8 -11 15 -20z m546 12 c-3 -5 -10 -10 -16 -10
-5 0 -9 5 -9 10 0 6 7 10 16 10 8 0 12 -4 9 -10z m-649 -21 c19 -21 19 -21 0
-18 -11 2 -20 12 -22 22 -3 22 -1 22 22 -4z m590 9 c9 -15 14 -58 6 -58 -15 0
-50 44 -45 56 6 17 29 18 39 2z m-1069 -4 c-3 -3 -12 -4 -19 -1 -8 3 -5 6 6 6
11 1 17 -2 13 -5z m86 -16 c8 -28 2 -34 -17 -19 -8 7 -12 19 -9 27 8 21 20 17
26 -8z m247 -9 c0 -6 -4 -7 -10 -4 -5 3 -10 11 -10 16 0 6 5 7 10 4 6 -3 10
-11 10 -16z m618 -16 c34 -14 45 -34 63 -110 8 -40 49 -98 127 -182 20 -20 4
-26 -106 -40 -90 -11 -112 -9 -112 9 0 5 -23 62 -50 127 l-51 117 22 53 c23
58 28 59 107 26z m282 3 c0 -9 -7 -12 -20 -9 -31 8 -34 23 -6 23 16 0 26 -6
26 -14z m-1560 -6 c0 -5 -5 -10 -11 -10 -5 0 -7 5 -4 10 3 6 8 10 11 10 2 0 4
-4 4 -10z m718 -3 c8 -10 6 -16 -9 -25 -17 -11 -19 -9 -19 13 0 27 12 32 28
12z m165 3 c19 0 -16 -20 -35 -20 -12 0 -15 5 -11 16 3 8 12 13 20 10 8 -3 20
-6 26 -6z m-73 -4 c0 -3 -4 -8 -10 -11 -5 -3 -10 -1 -10 4 0 6 5 11 10 11 6 0
10 -2 10 -4z m240 -4 c0 -12 -46 -32 -54 -24 -4 3 4 12 16 19 27 15 38 16 38
5z m491 -17 c27 -14 30 -14 35 0 5 13 10 11 23 -12 15 -24 23 -27 62 -25 38 1
41 0 22 -9 -12 -6 -24 -19 -27 -28 -2 -9 -25 -61 -50 -116 -60 -132 -67 -132
-193 19 -18 22 -33 44 -33 51 0 6 16 24 35 39 19 15 44 43 56 62 23 39 29 40
70 19z m-611 -3 c0 -4 -15 -8 -32 -9 -27 -2 -29 0 -13 7 26 11 45 12 45 2z
m-2 -50 c3 -20 1 -21 -24 -12 -41 16 -48 22 -34 30 24 15 55 6 58 -18z m52 9
c0 -5 -6 -14 -14 -20 -12 -10 -13 -8 -9 8 5 21 23 30 23 12z m45 -23 c6 -4 -3
-8 -19 -8 -24 0 -27 2 -16 15 7 9 16 12 19 8 3 -4 11 -11 16 -15z m705 7 c0
-8 -4 -15 -9 -15 -13 0 -22 16 -14 24 11 11 23 6 23 -9z m-887 -2 c-7 -2 -19
-2 -25 0 -7 3 -2 5 12 5 14 0 19 -2 13 -5z m931 -12 c17 -19 17 -19 -3 -14
-12 3 -21 12 -21 19 0 18 4 18 24 -5z m-1151 -31 c-18 -31 -28 -35 -59 -23
-14 5 -8 11 27 29 24 12 45 22 47 23 2 1 -5 -12 -15 -29z m267 -15 c19 -31 20
-39 9 -72 -6 -21 -13 -41 -16 -45 -5 -9 -136 40 -145 55 -12 19 -10 24 23 62
25 29 38 35 69 35 33 0 41 -5 60 -35z m230 5 c0 -32 -3 -34 -82 -59 -31 -10
-42 -9 -68 4 -34 17 -34 19 -20 46 9 16 22 19 73 19 34 0 69 5 77 10 20 13 20
14 20 -20z m-2474 -28 c-11 -10 -15 4 -8 28 l7 25 3 -23 c2 -13 1 -26 -2 -30z
m2288 40 c2 -4 1 -14 -4 -21 -6 -11 -10 -9 -19 8 -10 17 -9 21 3 21 8 0 17 -4
20 -8z m776 -2 c0 -5 -2 -10 -4 -10 -3 0 -8 5 -11 10 -3 6 -1 10 4 10 6 0 11
-4 11 -10z m-1040 -20 c0 -5 -8 -10 -17 -10 -15 0 -16 2 -3 10 19 12 20 12 20
0z m500 -30 c0 -13 -1 -13 -10 0 -5 8 -10 22 -10 30 0 13 1 13 10 0 5 -8 10
-22 10 -30z m605 13 c-21 -15 -30 -10 -22 11 4 10 13 13 23 9 15 -6 15 -7 -1
-20z m-1726 -20 c-7 -10 -15 -20 -16 -22 -2 -2 -3 5 -3 17 0 14 6 22 16 22 14
0 15 -3 3 -17z m201 -57 l-22 -21 18 35 c10 21 19 30 22 21 2 -7 -6 -23 -18
-35z m190 19 c-7 -9 -15 -13 -18 -10 -3 2 1 11 8 20 7 9 15 13 18 10 3 -2 -1
-11 -8 -20z m194 17 c2 -4 -4 -13 -14 -20 -20 -12 -36 0 -25 18 7 12 32 13 39
2z m336 -14 c0 -6 -6 -5 -15 2 -8 7 -15 14 -15 16 0 2 7 1 15 -2 8 -4 15 -11
15 -16z m-1065 2 c-3 -5 -12 -7 -20 -3 -21 7 -19 13 6 13 11 0 18 -4 14 -10z
m68 -9 c-3 -13 -10 -18 -20 -14 -14 5 -13 8 3 20 23 17 23 17 17 -6z m242 -20
c-17 -35 -18 -35 -47 -20 -19 10 -18 12 18 34 22 13 40 22 42 20 2 -2 -4 -17
-13 -34z m-416 -9 c9 -31 10 -31 -72 -91 -13 -9 -7 9 20 57 21 39 39 69 41 68
1 -2 7 -17 11 -34z m689 -27 c1 -56 1 -57 -21 -42 -12 7 -32 20 -45 28 l-22
14 37 31 c21 18 41 30 44 29 3 -2 6 -29 7 -60z m599 38 l-10 -22 -28 20 c-16
11 -29 21 -29 22 0 1 17 2 39 2 36 0 38 -1 28 -22z m-1197 -15 c0 -4 -9 -12
-20 -18 -18 -10 -20 -8 -18 18 2 26 4 28 20 18 10 -6 18 -14 18 -18z m1027 10
c-3 -8 -6 -5 -6 6 -1 11 2 17 5 13 3 -3 4 -12 1 -19z m-127 -10 c0 -5 -9 -4
-20 2 -11 6 -20 12 -20 14 0 2 9 2 20 -1 11 -3 20 -9 20 -15z m193 7 c-3 -9
-8 -14 -10 -11 -3 3 -2 9 2 15 9 16 15 13 8 -4z m647 -20 c-21 -26 -31 -16
-13 11 9 15 19 21 21 15 2 -6 -2 -18 -8 -26z m-580 1 c0 -2 -9 -2 -20 1 -11 3
-20 9 -20 15 0 5 9 4 20 -2 11 -6 20 -12 20 -14z m-516 -2 c3 -9 -1 -25 -9
-37 -14 -21 -15 -20 -15 16 0 38 13 50 24 21z m1316 5 c26 -10 29 -13 16 -21
-10 -6 -24 -3 -41 8 -41 27 -30 32 25 13z m-1507 -6 c-7 -2 -19 -2 -25 0 -7 3
-2 5 12 5 14 0 19 -2 13 -5z m807 -7 c0 -22 -19 -29 -36 -15 -14 12 -14 14 3
20 27 11 33 10 33 -5z m-316 -7 c2 -2 -11 -11 -29 -20 -33 -15 -33 -15 -38 8
-4 21 -1 23 30 19 18 -2 35 -5 37 -7z m976 -11 c0 -6 -6 -5 -15 2 -8 7 -15 14
-15 16 0 2 7 1 15 -2 8 -4 15 -11 15 -16z m-1080 -7 c0 -15 -5 -18 -21 -14
-21 6 -21 7 -4 20 24 17 25 17 25 -6z m-1944 -5 c1 0 5 -11 8 -23 10 -31 -2
-28 -44 8 l-35 31 35 -7 c19 -4 36 -8 36 -9z m1338 5 c6 -9 -68 -31 -107 -31
-14 0 -30 6 -36 14 -10 12 -6 15 26 18 90 7 112 7 117 -1z m302 -39 c-45 -4
-47 -3 -40 25 l6 21 36 -21 37 -22 -39 -3z m534 7 c0 -3 -16 -20 -35 -39 l-35
-34 0 50 c0 28 3 53 6 56 6 7 64 -23 64 -33z m680 26 c0 -9 -6 -12 -15 -9 -8
4 -12 10 -9 15 8 14 24 10 24 -6z m290 -55 c7 -33 11 -62 9 -65 -3 -2 -18 -6
-34 -9 -17 -3 -45 -8 -63 -11 l-34 -6 4 57 c3 55 4 57 47 80 24 13 47 21 51
19 4 -2 13 -32 20 -65z m-1567 39 c-4 -15 -9 -17 -17 -9 -8 8 -7 13 4 20 8 5
16 10 17 10 0 0 -1 -9 -4 -21z m512 4 c-2 -10 -4 -35 -4 -56 l-1 -37 -35 22
-35 23 35 33 c40 37 44 39 40 15z m210 -21 c6 -21 5 -21 -19 -11 -21 10 -23
14 -13 30 13 20 21 15 32 -19z m39 7 c-8 -13 -24 -1 -24 18 0 13 3 13 15 3 8
-7 12 -16 9 -21z m46 21 c0 -5 -5 -10 -11 -10 -5 0 -7 5 -4 10 3 6 8 10 11 10
2 0 4 -4 4 -10z m54 -6 c9 -22 8 -24 -9 -24 -8 0 -15 9 -15 20 0 24 15 27 24
4z m-418 -20 c-30 -21 -45 -16 -16 6 14 10 27 16 30 13 3 -2 -4 -11 -14 -19z
m-2166 -3 c16 -30 12 -36 -10 -16 -21 19 -26 35 -10 35 5 0 14 -9 20 -19z
m1250 9 c0 -5 -4 -10 -10 -10 -5 0 -10 5 -10 10 0 6 5 10 10 10 6 0 10 -4 10
-10z m810 -30 c0 -4 -11 -17 -26 -31 l-25 -23 2 41 c3 39 4 40 26 30 13 -5 23
-13 23 -17z m460 9 c0 -5 -7 -9 -15 -9 -15 0 -20 12 -9 23 8 8 24 -1 24 -14z
m-1000 7 c0 -3 -4 -8 -10 -11 -5 -3 -10 -1 -10 4 0 6 5 11 10 11 6 0 10 -2 10
-4z m1166 -33 c-19 -16 -32 -21 -39 -14 -11 11 -2 45 10 38 5 -3 17 -1 28 3
32 12 32 0 1 -27z m77 -13 c-4 -4 -26 -11 -48 -14 l-40 -7 40 36 c39 35 39 35
47 14 5 -12 5 -26 1 -29z m-2870 3 c-3 -19 -11 -33 -19 -33 -18 0 -18 4 2 41
19 37 23 35 17 -8z m137 -30 l42 -48 -33 -8 c-43 -11 -112 -78 -156 -152 -20
-33 -38 -62 -39 -64 -2 -2 -26 2 -54 9 -65 15 -74 34 -62 115 7 41 6 65 -1 77
-9 14 -8 21 6 35 16 16 17 16 17 -12 0 -33 29 -115 40 -115 4 0 26 24 48 53
22 28 48 62 59 74 11 12 28 40 38 62 21 48 32 45 95 -26z m2310 57 c-20 -13
-33 -13 -25 0 3 6 14 10 23 10 15 0 15 -2 2 -10z m798 -7 c-4 -22 -22 -20 -26
1 -2 10 3 16 13 16 10 0 15 -7 13 -17z m-1276 -53 c6 -50 5 -59 -21 -95 -16
-22 -47 -50 -69 -63 l-41 -23 -35 47 -36 47 33 59 c23 42 39 60 57 64 14 3 36
10 50 14 46 16 55 8 62 -50z m-1712 -4 c0 -13 -39 35 -40 48 0 5 9 -1 20 -14
11 -13 20 -28 20 -34z m75 44 c3 -5 2 -10 -4 -10 -5 0 -13 5 -16 10 -3 6 -2
10 4 10 5 0 13 -4 16 -10z m1032 -31 c-10 -41 -17 -40 -31 8 -6 20 -1 25 35
32 4 0 2 -17 -4 -40z m70 -1 c-6 -23 -12 -36 -15 -28 -2 8 -7 27 -12 43 -8 24
-7 27 14 27 23 0 23 -2 13 -42z m50 -51 c-21 -5 -41 -7 -43 -4 -2 2 1 19 7 38
6 19 13 40 15 48 3 9 15 -2 33 -30 l28 -44 -40 -8z m46 58 c-5 -13 -7 -13 -19
2 -19 26 -17 35 6 23 11 -6 17 -16 13 -25z m675 20 c-2 -1 -14 -8 -28 -15 -25
-13 -25 -13 -6 8 10 12 23 19 28 16 5 -3 8 -7 6 -9z m-1014 -16 c-3 -5 -10 -7
-15 -3 -5 3 -7 10 -3 15 3 5 10 7 15 3 5 -3 7 -10 3 -15z m124 -16 c10 -31 10
-32 -8 -20 -25 15 -34 38 -18 48 7 4 13 7 14 6 0 -1 6 -16 12 -34z m685 -4
c-8 -29 -13 -23 -13 14 0 22 3 28 9 18 5 -7 6 -22 4 -32z m420 10 c-11 -12
-27 -19 -34 -17 -9 3 -3 11 16 21 40 22 43 21 18 -4z m91 12 c3 -5 -1 -14 -9
-21 -13 -10 -15 -9 -15 9 0 21 14 28 24 12z m-742 -23 c-7 -7 -12 -8 -12 -2 0
6 3 14 7 17 3 4 9 5 12 2 2 -3 -1 -11 -7 -17z m498 12 c0 -5 -2 -10 -4 -10 -3
0 -8 5 -11 10 -3 6 -1 10 4 10 6 0 11 -4 11 -10z m190 -10 c0 -11 -7 -20 -15
-20 -13 0 -13 3 -3 20 7 11 14 20 15 20 2 0 3 -9 3 -20z m-1056 -12 c10 -38 7
-48 -14 -48 -11 0 -20 6 -20 13 0 23 12 57 20 57 4 0 10 -10 14 -22z m816 18
c0 -2 -9 -6 -20 -9 -11 -3 -18 -1 -14 4 5 9 34 13 34 5z m661 -9 c-1 -4 -1
-23 -1 -42 0 -19 -3 -35 -7 -35 -5 0 -28 19 -53 41 -25 22 -40 38 -35 36 6 -3
26 -2 45 3 39 9 52 8 51 -3z m-1590 -23 c22 -25 22 -26 3 -16 -12 6 -24 18
-28 27 -8 21 -3 19 25 -11z m736 -6 c-15 -9 -19 -4 -11 16 5 14 9 15 15 5 5
-8 3 -17 -4 -21z m-1643 -25 c-2 -26 -6 -48 -7 -49 -1 -2 -25 -9 -52 -15 -28
-7 -58 -19 -67 -27 -10 -8 -25 -11 -38 -7 -17 5 -30 -1 -55 -25 -40 -39 -58
-32 -50 17 13 84 13 84 59 79 34 -5 55 1 121 33 44 22 83 40 87 40 4 1 5 -20
2 -46z m1844 15 c3 -15 0 -16 -30 -6 -50 16 -55 26 -12 25 28 -2 40 -7 42 -19z
m57 12 c3 -5 2 -10 -4 -10 -5 0 -13 5 -16 10 -3 6 -2 10 4 10 5 0 13 -4 16
-10z m846 -29 c42 -37 44 -41 43 -89 -3 -93 -60 -145 -127 -117 -24 10 -41 31
-72 88 l-39 75 24 21 c29 24 100 61 116 61 6 0 31 -17 55 -39z m-396 -2 c21
-39 14 -46 -24 -23 -29 17 -29 19 -14 36 21 23 20 23 38 -13z m-2765 18 c0 -2
-12 -19 -26 -38 -22 -29 -25 -30 -19 -9 7 24 45 63 45 47z m2250 -36 c0 -7
-63 -51 -72 -51 -3 0 -8 12 -11 28 -3 15 -9 35 -12 44 -6 16 -3 16 44 0 28 -9
51 -18 51 -21z m100 29 c0 -5 -8 -10 -17 -10 -15 0 -16 2 -3 10 19 12 20 12
20 0z m528 -37 c11 -11 8 -13 -16 -13 -25 0 -32 6 -41 31 l-11 31 28 -18 c15
-10 33 -24 40 -31z m542 37 c0 -5 -7 -7 -15 -4 -8 4 -15 8 -15 10 0 2 7 4 15
4 8 0 15 -4 15 -10z m-2971 -42 c1 -5 -3 -8 -9 -8 -5 0 -10 12 -9 28 0 24 1
25 9 7 5 -11 9 -23 9 -27z m2926 27 l30 -7 -40 -18 c-54 -25 -55 -25 -55 11 0
24 4 29 18 26 9 -3 31 -8 47 -12z m-2075 -47 c0 -4 -4 -9 -8 -12 -5 -3 -14 11
-20 32 l-11 37 19 -25 c11 -14 20 -28 20 -32z m44 43 c3 -5 0 -11 -8 -14 -8
-3 -17 1 -20 9 -6 15 19 20 28 5z m736 -1 c0 -5 -4 -10 -9 -10 -6 0 -13 5 -16
10 -3 6 1 10 9 10 9 0 16 -4 16 -10z m1374 -76 c9 -37 15 -69 12 -71 -2 -2
-24 -7 -48 -9 -23 -3 -53 -7 -66 -9 -25 -4 -28 0 -36 61 l-6 40 58 26 c31 15
60 27 63 27 4 1 14 -29 23 -65z m-1956 31 c-3 -3 -9 2 -12 12 -6 14 -5 15 5 6
7 -7 10 -15 7 -18z m547 15 c3 -5 -1 -10 -10 -10 -9 0 -13 5 -10 10 3 6 8 10
10 10 2 0 7 -4 10 -10z m690 -3 c16 -13 15 -14 -13 -9 -18 2 -32 8 -32 13 0
13 24 11 45 -4z m-2602 -24 c-8 -52 -11 -55 -34 -43 -21 12 -21 12 7 41 15 16
29 29 29 29 1 0 0 -12 -2 -27z m1872 8 c-3 -6 -11 -11 -17 -11 -6 0 -6 6 2 15
14 17 26 13 15 -4z m1530 -30 c-17 -17 -29 -9 -40 28 l-7 23 31 -18 c27 -16
29 -20 16 -33z m-3693 -36 l-8 -39 -24 39 c-14 22 -19 40 -13 42 5 2 19 10 29
18 17 12 19 12 22 -3 1 -9 -1 -35 -6 -57z m1918 67 c0 -13 -12 -22 -22 -16
-10 6 -1 24 13 24 5 0 9 -4 9 -8z m490 3 c0 -2 -10 -9 -22 -15 -22 -11 -22
-10 -4 4 21 17 26 19 26 11z m30 -5 c0 -5 -5 -10 -11 -10 -5 0 -7 5 -4 10 3 6
8 10 11 10 2 0 4 -4 4 -10z m-571 -41 c8 -25 8 -29 -2 -22 -6 5 -25 19 -41 31
l-29 22 31 0 c25 0 32 -6 41 -31z m335 17 c-21 -15 -30 -14 -19 3 3 6 14 11
23 11 13 0 13 -2 -4 -14z m476 6 c0 -5 -7 -9 -15 -9 -8 0 -12 4 -9 9 3 4 9 8
15 8 5 0 9 -4 9 -8z m396 -17 c2 -12 -2 -13 -18 -4 -16 9 -18 13 -7 20 15 9
22 5 25 -16z m-2519 9 c-3 -3 -12 -4 -19 -1 -8 3 -5 6 6 6 11 1 17 -2 13 -5z
m1138 -13 c-3 -6 -11 -8 -17 -5 -6 4 -5 9 3 15 16 10 23 4 14 -10z m135 -18
c28 -21 50 -41 50 -45 0 -5 -12 -27 -27 -50 -16 -23 -32 -66 -38 -97 -9 -50
-14 -58 -45 -72 l-35 -17 -11 31 c-6 18 -27 59 -47 91 -27 45 -34 64 -26 77 8
17 12 17 61 3 28 -9 62 -20 75 -25 31 -12 33 -11 33 4 0 6 -25 29 -56 51 l-55
38 32 24 c18 13 34 24 36 24 2 0 26 -17 53 -37z m123 -3 c-7 -8 -22 24 -16 34
4 5 10 1 13 -10 4 -10 6 -21 3 -24z m281 25 c-4 -8 -11 -15 -16 -15 -6 0 -5 6
2 15 7 8 14 15 16 15 2 0 1 -7 -2 -15z m576 5 c0 -5 -7 -10 -15 -10 -8 0 -15
5 -15 10 0 6 7 10 15 10 8 0 15 -4 15 -10z m843 -43 c-7 -11 -9 -7 -17 28 l-6
30 14 -25 c8 -14 12 -28 9 -33z m-1654 21 c12 -15 11 -18 -3 -18 -10 0 -16 8
-16 22 0 12 1 19 3 17 1 -2 9 -12 16 -21z m171 18 c0 -11 -19 -15 -25 -6 -3 5
1 10 9 10 9 0 16 -2 16 -4z m270 0 c0 -2 -7 -6 -15 -10 -8 -3 -15 -1 -15 4 0
6 7 10 15 10 8 0 15 -2 15 -4z m1374 -12 c3 -8 2 -12 -4 -9 -6 3 -10 10 -10
16 0 14 7 11 14 -7z m-3271 -4 c8 0 8 -3 1 -10 -12 -12 -44 -3 -44 12 0 6 7 7
16 4 9 -3 21 -6 27 -6z m2252 -15 c44 -13 98 -26 120 -27 36 -4 42 -8 67 -53
34 -62 34 -71 3 -88 -14 -7 -38 -31 -53 -54 -15 -22 -42 -57 -60 -77 l-33 -38
-45 37 c-28 24 -47 48 -51 67 -5 28 -8 29 -40 23 -19 -3 -40 -8 -46 -11 -7 -2
-30 13 -51 35 -34 35 -38 45 -42 100 -3 60 -2 61 32 84 45 31 99 32 199 2z
m345 9 c0 -2 -9 -4 -21 -4 -11 0 -18 4 -14 10 5 8 35 3 35 -6z m320 -11 c0
-19 -3 -24 -10 -17 -6 6 -8 18 -4 27 9 24 14 21 14 -10z m-3532 11 c-4 -3 -2
-18 2 -34 9 -30 -1 -40 -41 -40 -18 0 -17 3 7 40 15 22 29 40 32 40 3 0 3 -3
0 -6z m2202 2 c0 -9 -30 -14 -35 -6 -4 6 3 10 14 10 12 0 21 -2 21 -4z m1603
-16 c4 -17 2 -18 -14 -9 -11 5 -17 14 -14 20 10 15 22 10 28 -11z m-3479 -9
c16 -17 15 -19 -14 -31 -38 -16 -44 -10 -29 24 14 31 20 32 43 7z m1681 10 c3
-5 1 -12 -5 -16 -5 -3 -10 1 -10 9 0 18 6 21 15 7z m1085 5 c0 -3 -4 -8 -10
-11 -5 -3 -10 -1 -10 4 0 6 5 11 10 11 6 0 10 -2 10 -4z m-3040 -48 c0 -18
-23 -2 -32 22 -9 23 -8 23 12 5 11 -10 20 -22 20 -27z m501 16 c17 -42 12 -47
-38 -39 -27 4 -54 8 -60 8 -19 1 -16 10 10 27 49 33 76 34 88 4z m3329 11 c10
-12 10 -15 -4 -15 -9 0 -16 7 -16 15 0 8 2 15 4 15 2 0 9 -7 16 -15z m-3290
-35 c0 -13 -1 -13 -10 0 -5 8 -10 22 -10 30 0 13 1 13 10 0 5 -8 10 -22 10
-30z m1653 17 c15 -12 27 -27 27 -32 -1 -16 -87 -75 -108 -75 -15 0 -23 13
-35 60 -16 66 -15 68 49 69 29 1 49 -6 67 -22z m893 -3 c-3 -9 -6 -20 -6 -25
0 -14 -22 -11 -42 8 -27 24 -22 33 18 33 29 0 35 -3 30 -16z m624 6 c0 -5 -2
-10 -4 -10 -3 0 -8 5 -11 10 -3 6 -1 10 4 10 6 0 11 -4 11 -10z m-1670 -4 c0
-3 -4 -8 -10 -11 -5 -3 -10 -1 -10 4 0 6 5 11 10 11 6 0 10 -2 10 -4z m-410
-16 c0 -5 -7 -7 -15 -4 -8 4 -15 8 -15 10 0 2 7 4 15 4 8 0 15 -4 15 -10z
m370 -15 c0 -14 -1 -25 -3 -25 -2 0 -14 11 -27 25 l-23 25 26 0 c22 0 27 -5
27 -25z m-31 -22 c41 -35 42 -38 39 -90 -2 -29 0 -53 4 -53 13 0 109 60 170
107 l58 44 20 -33 c14 -23 20 -51 20 -90 l0 -57 -76 -50 c-42 -28 -80 -51 -84
-51 -5 0 -21 -5 -35 -10 -23 -9 -25 -13 -15 -25 10 -12 9 -15 -6 -15 -57 0
-213 60 -215 82 0 7 -2 24 -4 38 -8 49 16 158 43 199 15 23 29 41 33 41 3 0
25 -16 48 -37z m1661 31 c0 -3 -14 -23 -32 -44 l-32 -38 -23 33 c-13 19 -23
36 -23 39 0 3 19 7 43 9 23 2 48 4 55 5 6 1 12 -1 12 -4z m-3350 -19 c-7 -8
-17 -12 -22 -9 -6 4 -5 10 3 15 22 14 33 10 19 -6z m477 9 c-3 -3 -12 -4 -19
-1 -8 3 -5 6 6 6 11 1 17 -2 13 -5z m1303 -15 c0 -6 -4 -7 -10 -4 -5 3 -10 11
-10 16 0 6 5 7 10 4 6 -3 10 -11 10 -16z m325 11 c3 -6 -1 -7 -9 -4 -18 7 -21
14 -7 14 6 0 13 -4 16 -10z m182 -10 c1 -11 -2 -20 -8 -20 -10 0 -12 23 -2 33
9 9 9 10 10 -13z m488 -30 c-6 -9 -12 -6 -21 11 -20 36 -17 46 7 22 13 -12 18
-26 14 -33z m42 18 c-3 -7 -5 -2 -5 12 0 14 2 19 5 13 2 -7 2 -19 0 -25z m614
22 c22 -12 26 -40 6 -40 -8 0 -19 11 -25 25 -13 28 -10 30 19 15z m-3261 -102
c9 -15 6 -15 -28 -6 -20 6 -44 14 -53 19 -21 11 -29 51 -16 75 9 15 14 12 49
-27 21 -24 43 -52 48 -61z m28 82 c1 0 9 0 19 0 14 0 14 -2 -2 -20 -23 -26
-26 -25 -66 9 l-34 30 40 -9 c22 -5 41 -9 43 -10z m1997 10 c3 -5 1 -10 -4
-10 -6 0 -11 5 -11 10 0 6 2 10 4 10 3 0 8 -4 11 -10z m1185 -30 c0 -38 -2
-40 -29 -40 -17 0 -32 3 -35 8 -5 8 44 71 57 72 4 0 7 -18 7 -40z m-1370 14
c0 -14 -3 -14 -15 -4 -8 7 -15 14 -15 16 0 2 7 4 15 4 8 0 15 -7 15 -16z
m1234 -10 c3 -8 2 -12 -4 -9 -6 3 -10 10 -10 16 0 14 7 11 14 -7z m-1184 -4
c0 -5 -5 -10 -11 -10 -5 0 -7 5 -4 10 3 6 8 10 11 10 2 0 4 -4 4 -10z m-1790
-21 c0 -5 -7 -9 -15 -9 -15 0 -20 12 -9 23 8 8 24 -1 24 -14z m105 12 c3 -5 1
-12 -5 -16 -5 -3 -10 1 -10 9 0 18 6 21 15 7z m1764 -22 c3 -24 3 -24 -18 -5
-11 10 -18 23 -15 28 10 16 29 2 33 -23z m1268 9 c-3 -8 -6 -5 -6 6 -1 11 2
17 5 13 3 -3 4 -12 1 -19z m-1303 -23 c19 -30 18 -30 -29 -8 -24 12 -31 19
-23 25 22 13 35 9 52 -17z m76 15 c0 -5 -4 -10 -10 -10 -5 0 -10 5 -10 10 0 6
5 10 10 10 6 0 10 -4 10 -10z m-407 -42 c-20 -22 -32 -15 -26 16 4 21 8 23 24
13 17 -10 17 -13 2 -29z m1208 14 l8 -22 -29 22 c-36 26 -37 30 -9 26 12 -2
26 -13 30 -26z m35 13 c11 -27 -2 -37 -14 -11 -7 16 -8 26 -1 26 5 0 12 -7 15
-15z m-225 -32 c-10 -17 -10 -16 -11 3 0 23 13 41 18 25 2 -6 -1 -18 -7 -28z
m98 25 c0 -7 -4 -22 -9 -33 -7 -17 -9 -15 -9 13 -1 17 4 32 9 32 6 0 10 -6 9
-12z m70 -28 c39 -25 42 -30 25 -36 -10 -4 -34 -13 -53 -21 -19 -7 -36 -12
-38 -10 -5 6 9 97 16 97 3 0 26 -13 50 -30z m762 -26 l29 -51 -25 5 c-30 5
-36 14 -45 64 -10 51 4 45 41 -18z m-1631 27 l42 -18 -33 -12 c-18 -6 -33 -10
-34 -9 -6 8 -25 47 -25 52 0 9 4 8 50 -13z m951 -4 c-10 -9 -11 -8 -5 6 3 10
9 15 12 12 3 -3 0 -11 -7 -18z m225 -3 c-5 -14 -9 -15 -19 -5 -9 9 -9 14 3 21
18 11 24 6 16 -16z m-3661 6 c3 -6 -4 -10 -17 -10 -18 0 -20 2 -8 10 19 12 18
12 25 0z m524 -4 l45 -13 -34 -11 c-45 -16 -47 -16 -52 13 -3 14 -5 25 -4 25
0 0 21 -6 45 -14z m2719 -26 c8 -35 8 -40 -7 -40 -35 0 -45 16 -31 49 17 41
26 39 38 -9z m-2453 20 c3 -5 2 -10 -4 -10 -5 0 -13 5 -16 10 -3 6 -2 10 4 10
5 0 13 -4 16 -10z m1644 -17 c9 -18 9 -23 -1 -23 -8 0 -15 12 -16 27 -2 29 0
29 17 -4z m1291 7 c0 -5 -4 -12 -10 -15 -5 -3 -10 -4 -10 -1 0 2 -3 12 -6 20
-5 12 -2 15 10 10 9 -3 16 -10 16 -14z m150 -15 l24 -25 -32 11 c-32 11 -38
19 -25 32 9 9 6 10 33 -18z m-3173 1 c3 -3 0 -12 -7 -20 -11 -14 -15 -13 -36
2 -13 9 -24 20 -24 24 0 8 59 2 67 -6z m2921 -16 l11 -30 -30 15 c-24 13 -27
18 -17 30 19 21 25 18 36 -15z m-3632 1 c-4 -6 -14 -7 -23 -4 -15 6 -14 7 3
13 22 9 29 6 20 -9z m634 -31 c18 -27 34 -50 37 -50 3 0 11 7 18 16 10 15 15
13 41 -21 l28 -38 -34 -29 c-75 -64 -72 -63 -134 -24 -53 34 -76 71 -76 126 0
12 44 47 86 69 1 1 16 -21 34 -49z m148 28 c-13 -20 -68 -39 -68 -24 0 22 28
46 54 46 27 0 28 -1 14 -22z m1907 12 c-3 -5 -15 -10 -26 -10 -11 0 -17 5 -14
10 3 6 15 10 26 10 11 0 17 -4 14 -10z m445 0 c0 -5 -2 -10 -4 -10 -3 0 -8 5
-11 10 -3 6 -1 10 4 10 6 0 11 -4 11 -10z m528 -15 c-3 -3 -9 2 -12 12 -6 14
-5 15 5 6 7 -7 10 -15 7 -18z m-3613 5 c3 -5 4 -10 1 -10 -2 0 -12 -3 -20 -6
-12 -5 -15 -2 -10 10 7 18 20 21 29 6z m835 -10 c9 -18 8 -20 -15 -20 -23 0
-24 2 -13 20 7 11 14 20 15 20 1 0 7 -9 13 -20z m144 -9 c-2 -3 -12 3 -22 13
-16 17 -16 18 5 5 12 -7 20 -15 17 -18z m1841 19 c3 -5 1 -10 -4 -10 -6 0 -11
5 -11 10 0 6 2 10 4 10 3 0 8 -4 11 -10z m-2507 -12 c13 -13 17 -74 5 -81 -5
-3 -31 -12 -60 -20 l-52 -16 -48 43 -47 43 63 -10 63 -10 26 31 c29 36 33 37
50 20z m600 -9 c-20 -13 -28 -11 -22 5 3 8 12 12 21 9 12 -5 12 -7 1 -14z
m2448 -51 c-3 -59 -7 -74 -26 -88 -20 -15 -26 -15 -86 4 -70 22 -71 24 -32 82
17 25 100 69 140 73 5 1 6 -31 4 -71z m144 63 c0 -6 -4 -13 -10 -16 -5 -3 -10
1 -10 9 0 9 5 16 10 16 6 0 10 -4 10 -9z m320 -7 c0 -2 -9 -4 -20 -4 -11 0
-20 4 -20 9 0 5 9 7 20 4 11 -3 20 -7 20 -9z m-3901 -3 c8 -5 9 -11 3 -15 -5
-3 -15 1 -22 9 -14 16 -3 20 19 6z m121 -1 c13 -8 13 -10 -2 -10 -9 0 -25 -3
-35 -7 -16 -6 -16 -5 -4 10 16 20 20 20 41 7z m135 0 c3 -5 1 -10 -4 -10 -6 0
-11 5 -11 10 0 6 2 10 4 10 3 0 8 -4 11 -10z m2455 -12 c0 -9 -3 -23 -6 -31
-5 -14 -8 -13 -26 1 -11 9 -24 24 -28 33 -8 14 -4 16 25 15 26 -1 35 -6 35
-18z m-2005 3 c3 -5 1 -12 -4 -15 -5 -3 -11 1 -15 9 -6 16 9 21 19 6z m1248
-11 c-6 -21 -18 -26 -28 -11 -4 7 17 28 32 31 0 0 -1 -9 -4 -20z m1687 5 c23
-13 23 -14 5 -15 -11 -1 -33 -4 -48 -6 -26 -4 -27 -3 -15 16 15 23 24 24 58 5z
m-999 -12 c13 -15 12 -15 -8 -4 -24 12 -29 21 -14 21 5 0 15 -7 22 -17z m473
8 c3 -5 -1 -11 -9 -14 -9 -4 -12 -1 -8 9 6 16 10 17 17 5z m-2664 -11 c0 -5
-2 -10 -4 -10 -3 0 -8 5 -11 10 -3 6 -1 10 4 10 6 0 11 -4 11 -10z m340 0 c0
-5 -5 -10 -11 -10 -5 0 -7 5 -4 10 3 6 8 10 11 10 2 0 4 -4 4 -10z m230 -5 c0
-13 -4 -14 -20 -5 -11 6 -20 13 -20 15 0 3 9 5 20 5 11 0 20 -7 20 -15z m65 1
c26 -14 27 -14 6 -25 -17 -9 -22 -8 -31 8 -18 35 -15 37 25 17z m1838 -46 l15
-60 -55 2 c-30 1 -57 6 -59 10 -7 11 17 92 30 100 6 4 21 8 32 8 18 0 24 -10
37 -60z m1015 54 c31 -6 31 -7 16 -35 -8 -16 -16 -29 -17 -29 -2 0 -18 16 -37
35 -30 31 -32 35 -13 35 11 0 34 -3 51 -6z m-3058 -14 c-19 -13 -30 -13 -30 0
0 6 10 10 23 10 18 0 19 -2 7 -10z m1616 -17 c-2 -16 -5 -37 -6 -48 -1 -14 -7
-9 -20 20 -14 29 -16 42 -7 47 25 16 38 8 33 -19z m784 20 c0 -2 -8 -15 -17
-30 -16 -23 -17 -24 -24 -7 -13 33 -10 42 16 42 14 0 25 -2 25 -5z m538 -23
c-2 -26 -4 -28 -17 -16 -12 12 -12 18 -1 30 18 22 21 20 18 -14z m-2835 -39
l35 -60 -43 -35 c-47 -39 -97 -53 -113 -33 -19 22 -52 116 -46 131 5 13 94 54
120 55 7 1 28 -26 47 -58z m1575 41 l22 -17 -38 -38 -37 -37 3 43 c6 73 11 79
50 49z m91 -10 c-14 -5 -39 6 -39 17 0 5 11 4 25 -2 13 -7 20 -14 14 -15z
m321 3 c23 -24 23 -25 5 -45 -19 -21 -19 -21 -32 22 -15 52 -15 48 -5 48 5 0
19 -11 32 -25z m244 9 c10 -27 -3 -30 -26 -6 l-22 22 21 0 c11 0 24 -7 27 -16z
m251 7 c3 -5 2 -12 -3 -15 -5 -3 -9 1 -9 9 0 17 3 19 12 6z m215 -10 c0 -17
-4 -18 -42 -8 l-43 11 30 7 c49 11 55 10 55 -10z m230 -35 c0 -2 -8 -7 -17
-10 -19 -8 -33 9 -33 41 0 22 0 22 25 -3 14 -14 25 -26 25 -28z m-4010 40 c0
-2 -9 -6 -20 -9 -11 -3 -18 -1 -14 4 5 9 34 13 34 5z m3230 -33 l-1 -38 -19
24 c-25 29 -25 38 -2 44 9 3 18 5 20 6 1 0 2 -16 2 -36z m-3207 -16 l-6 -37
-28 17 c-16 10 -29 20 -29 23 0 6 63 39 67 36 1 -1 0 -19 -4 -39z m97 22 c-9
-16 -14 -18 -26 -8 -21 17 -17 29 11 29 23 0 24 -2 15 -21z m470 5 c0 -8 -5
-12 -10 -9 -6 4 -8 11 -5 16 9 14 15 11 15 -7z m651 -5 c10 -19 9 -20 -13 -14
-32 10 -35 15 -18 25 19 12 18 13 31 -11z m1243 -4 c-16 -25 -34 -29 -41 -9
-2 6 7 16 19 22 36 17 40 14 22 -13z m82 -40 c14 -34 14 -35 -8 -35 -41 0 -48
11 -35 58 12 45 15 44 43 -23z m728 36 l28 -29 -30 -16 c-41 -21 -41 -21 -37
22 5 64 2 62 39 23z m-3044 15 c0 -11 -19 -15 -25 -6 -3 5 1 10 9 10 9 0 16
-2 16 -4z m3487 -13 l65 -16 29 -61 c16 -33 25 -63 21 -67 -4 -3 -22 -11 -41
-17 -28 -10 -41 -8 -85 10 -28 12 -56 25 -62 30 -15 11 -19 138 -4 138 6 0 40
-7 77 -17z m-3677 -43 c-20 -12 -24 -5 -15 27 l7 28 11 -23 c8 -18 8 -25 -3
-32z m160 20 c0 -5 -9 -6 -20 -3 -20 5 -25 15 -13 26 7 8 33 -11 33 -23z
m2953 11 c4 -17 2 -18 -13 -8 -10 6 -16 15 -14 19 9 14 22 9 27 -11z m460 -25
c2 -20 2 -36 0 -36 -1 0 -9 13 -17 29 -11 21 -12 31 -4 39 15 15 18 11 21 -32z
m-3133 24 c0 -5 -10 -10 -22 -9 -22 0 -22 1 -3 9 11 5 21 9 23 9 1 1 2 -3 2
-9z m2003 -18 c-3 -12 -9 -22 -14 -22 -12 0 -11 7 2 32 13 25 20 19 12 -10z
m216 -28 l20 -52 -32 9 c-18 4 -45 11 -61 14 l-29 6 38 39 c21 22 40 39 41 37
1 -1 11 -25 23 -53z m61 24 c0 -5 -5 -18 -11 -30 -11 -20 -11 -20 -23 3 -28
54 -27 58 5 47 16 -5 29 -14 29 -20z m-1545 6 c19 -5 45 -46 45 -71 0 -2 -16
-3 -36 -1 -32 3 -38 7 -50 43 -17 50 -17 48 2 41 9 -3 26 -9 39 -12z m1155 -9
c0 -9 -6 -12 -15 -9 -8 4 -12 10 -9 15 8 14 24 10 24 -6z m810 -72 c0 -5 -82
-45 -85 -41 -1 2 -14 21 -28 44 l-25 41 26 21 27 20 43 -41 c23 -23 42 -42 42
-44z m410 32 c0 -5 -10 0 -21 12 -13 12 -18 26 -14 33 6 9 12 6 21 -11 7 -13
13 -28 14 -34z m-795 35 c3 -5 1 -10 -4 -10 -6 0 -11 5 -11 10 0 6 2 10 4 10
3 0 8 -4 11 -10z m1073 0 c15 0 15 -16 -1 -53 l-12 -29 -23 47 -23 48 23 -7
c13 -3 29 -6 36 -6z m-3396 -25 c-5 -29 -6 -29 -34 -14 -21 11 -21 12 8 24 16
8 30 14 30 14 1 1 -1 -10 -4 -24z m2973 -16 c2 -3 -11 -13 -30 -24 -40 -21
-39 -21 -59 27 l-16 36 50 -17 c28 -10 52 -20 55 -22z m575 20 c0 -11 -4 -18
-10 -14 -5 3 -7 12 -3 20 7 21 13 19 13 -6z m-4113 5 c-3 -3 -12 -4 -19 -1 -8
3 -5 6 6 6 11 1 17 -2 13 -5z m923 -34 c-20 -40 -33 -49 -45 -30 -5 7 50 68
63 70 1 0 -7 -18 -18 -40z m1530 14 c0 -20 -7 -17 -20 6 -9 16 -8 18 5 14 8
-4 15 -12 15 -20z m975 -4 c8 -16 15 -31 15 -33 0 -3 -20 3 -45 12 l-45 16 22
17 c31 24 35 23 53 -12z m234 -4 c10 -12 6 -13 -29 -4 -32 8 -38 13 -29 24 12
15 36 7 58 -20z m591 -7 c0 -36 -2 -39 -15 -25 -12 12 -13 20 -3 40 15 35 18
33 18 -15z m-3980 27 c0 -2 -7 -7 -16 -10 -8 -3 -12 -2 -9 4 6 10 25 14 25 6z
m37 -16 c1 -15 -4 -20 -24 -20 -25 0 -26 0 -8 20 10 11 21 20 24 20 4 0 7 -9
8 -20z m292 -1 c-16 -10 -23 -4 -14 10 3 6 11 8 17 5 6 -4 5 -9 -3 -15z m403
-50 c2 -7 -9 -13 -24 -14 -25 -2 -27 1 -22 24 15 67 16 68 30 34 8 -18 15 -38
16 -44z m2071 62 l28 -1 -33 -40 -32 -41 -18 33 c-24 45 -23 59 5 54 12 -3 35
-5 50 -5z m-2673 -5 c0 -3 -4 -8 -10 -11 -5 -3 -10 -1 -10 4 0 6 5 11 10 11 6
0 10 -2 10 -4z m410 -33 c0 -7 -39 17 -46 28 -3 6 5 3 20 -6 14 -10 26 -19 26
-22z m1477 31 c-3 -3 -12 -4 -19 -1 -8 3 -5 6 6 6 11 1 17 -2 13 -5z m142 -48
c0 -12 -6 -38 -12 -59 -11 -35 -14 -37 -31 -24 -17 13 -18 18 -6 68 7 30 15
58 18 63 8 13 32 -25 31 -48z m535 27 c-1 -16 -2 -45 -3 -66 l-1 -39 -42 33
c-24 18 -47 36 -52 40 -7 6 75 57 95 59 3 0 5 -12 3 -27z m1476 15 c0 -7 3
-23 6 -35 6 -20 3 -23 -25 -23 -36 0 -37 2 -14 41 18 30 33 38 33 17z m-4380
-11 c0 7 42 -19 71 -44 l28 -25 -32 -49 c-30 -46 -34 -49 -77 -49 -53 0 -62 5
-83 46 -16 32 -13 113 5 125 5 3 27 3 49 -1 21 -4 39 -6 39 -3z m290 3 c0 -5
-5 -10 -11 -10 -5 0 -7 5 -4 10 3 6 8 10 11 10 2 0 4 -4 4 -10z m360 0 c12 -8
11 -10 -7 -10 -12 0 -25 5 -28 10 -8 13 15 13 35 0z m-774 -32 c-1 -17 -7 -33
-12 -35 -10 -3 -50 25 -43 30 9 7 54 37 55 37 2 0 1 -14 0 -32z m593 7 c9 -4
1 -15 -24 -35 -21 -17 -39 -30 -41 -30 -2 0 -4 20 -4 45 0 44 0 44 28 34 15
-5 33 -12 41 -14z m2091 21 c0 -2 -7 -6 -15 -10 -8 -3 -15 -1 -15 4 0 6 7 10
15 10 8 0 15 -2 15 -4z m514 -48 c6 -26 4 -28 -28 -28 l-34 0 21 39 c22 41 29
39 41 -11z m558 -29 c-1 -25 -6 -56 -10 -71 l-7 -26 -47 31 c-45 30 -46 33
-50 85 -2 29 -2 55 0 57 2 1 29 -5 60 -14 l57 -18 -3 -44z m-3266 45 c-5 -14
-9 -15 -19 -5 -9 9 -9 14 3 21 18 11 24 6 16 -16z m509 -4 c-4 -12 -9 -19 -12
-17 -3 3 -2 15 2 27 4 12 9 19 12 17 3 -3 2 -15 -2 -27z m305 0 c0 -4 -9 -18
-20 -31 l-20 -24 4 30 c2 17 5 36 5 44 1 11 4 11 16 1 8 -7 15 -16 15 -20z
m1127 13 c-3 -10 -8 -30 -11 -45 -7 -29 -21 -34 -46 -18 -13 8 -9 15 20 44 41
41 43 42 37 19z m160 11 c-3 -3 -12 -4 -19 -1 -8 3 -5 6 6 6 11 1 17 -2 13 -5z
m193 -66 c0 -10 1 -10 -54 8 l-47 16 22 24 23 24 27 -32 c16 -18 28 -36 29
-40z m48 57 c37 -8 40 -15 12 -40 -20 -18 -21 -18 -50 15 -35 39 -36 43 -12
36 9 -2 32 -7 50 -11z m238 -62 c-12 -29 -26 -10 -26 35 l1 47 15 -34 c8 -19
12 -41 10 -48z m-2288 60 l53 -6 -4 -89 c-2 -48 -6 -90 -8 -92 -2 -2 -31 -10
-64 -16 -54 -11 -64 -10 -105 8 -25 12 -63 39 -85 62 l-40 42 40 35 c69 61
103 70 213 56z m468 -30 c-3 -21 -5 -41 -6 -46 0 -9 -40 15 -40 24 0 8 40 59
47 59 2 0 2 -17 -1 -37z m1134 33 c0 -8 -31 -36 -41 -36 -17 0 -9 17 14 28 27
13 27 13 27 8z m1198 -16 c-13 -21 -28 -27 -28 -10 0 5 8 14 18 19 23 14 24
14 10 -9z m-120 -2 l50 -11 -15 -32 c-11 -23 -27 -36 -54 -45 -22 -7 -41 -11
-43 -9 -2 2 -9 28 -14 57 -11 60 -10 60 76 40z m162 -25 c0 -34 -1 -36 -16
-21 -13 12 -14 20 -5 37 16 30 21 26 21 -16z m-2420 23 c0 -2 -8 -10 -17 -17
-16 -13 -17 -12 -4 4 13 16 21 21 21 13z m175 -14 c-3 -3 -11 0 -18 7 -9 10
-8 11 6 5 10 -3 15 -9 12 -12z m1251 -6 c1 -1 5 -11 8 -23 10 -32 -2 -29 -49
12 l-40 34 40 -11 c22 -7 41 -12 41 -12z m604 -11 c0 -5 -5 -3 -10 5 -5 8 -10
20 -10 25 0 6 5 3 10 -5 5 -8 10 -19 10 -25z m-2360 18 c0 -5 -5 -15 -10 -23
-8 -12 -10 -11 -10 8 0 12 5 22 10 22 6 0 10 -3 10 -7z m2108 -46 l33 -26 -45
-21 c-25 -11 -47 -20 -50 -20 -4 0 -6 28 -6 62 0 57 1 60 18 46 9 -8 32 -26
50 -41z m1187 43 c3 -5 -1 -10 -9 -10 -9 0 -16 5 -16 10 0 6 4 10 9 10 6 0 13
-4 16 -10z m105 0 c12 -8 11 -10 -7 -10 -13 0 -23 5 -23 10 0 13 11 13 30 0z
m-2933 -17 c2 -6 -10 -16 -27 -21 -31 -11 -33 -7 -7 26 11 14 29 12 34 -5z
m1238 -14 l40 -30 -45 5 c-25 2 -51 5 -57 5 -10 1 -10 7 -1 26 6 14 14 25 17
25 3 0 24 -14 46 -31z m794 -41 c1 -4 -10 -2 -24 4 -28 13 -30 20 -13 48 12
19 13 18 25 -12 6 -18 12 -36 12 -40z m-3438 19 c-15 -15 -24 -2 -16 24 7 20
8 21 17 5 7 -12 7 -21 -1 -29z m37 18 c-3 -3 -9 2 -12 12 -6 14 -5 15 5 6 7
-7 10 -15 7 -18z m2921 -35 l1 -24 -21 20 c-18 19 -19 24 -8 43 13 19 14 19
21 3 3 -9 7 -28 7 -42z m415 45 c-4 -8 -11 -15 -16 -15 -6 0 -5 6 2 15 7 8 14
15 16 15 2 0 1 -7 -2 -15z m1063 9 c-3 -3 -12 -4 -19 -1 -8 3 -5 6 6 6 11 1
17 -2 13 -5z m143 -3 c0 -18 -17 -20 -36 -6 -18 14 -18 14 9 15 15 0 27 -4 27
-9z m87 3 c-3 -3 -12 -4 -19 -1 -8 3 -5 6 6 6 11 1 17 -2 13 -5z m-3450 -26
c7 -8 14 -35 15 -62 3 -53 4 -53 -79 -69 -31 -6 -33 -5 -60 56 -15 34 -27 64
-25 67 1 3 17 10 35 17 37 14 95 9 114 -9z m1608 -3 l30 -12 -44 -12 c-23 -7
-44 -11 -46 -9 -2 2 -7 16 -11 32 -6 26 -5 28 17 21 13 -4 38 -13 54 -20z
m775 15 c0 -5 -4 -10 -10 -10 -5 0 -10 5 -10 10 0 6 5 10 10 10 6 0 10 -4 10
-10z m333 0 c7 -1 1 -7 -13 -14 -28 -16 -42 -12 -33 10 3 8 12 13 20 10 8 -3
20 -6 26 -6z m310 0 c13 0 17 -9 17 -39 0 -22 -4 -42 -9 -45 -5 -3 -29 1 -55
10 -43 15 -46 18 -46 51 0 36 0 36 38 29 20 -3 45 -6 55 -6z m261 -30 c24 -61
22 -66 -39 -77 l-55 -10 0 53 c0 48 2 53 28 62 44 16 49 14 66 -28z m-3994 26
c0 -3 -4 -8 -10 -11 -5 -3 -10 -1 -10 4 0 6 5 11 10 11 6 0 10 -2 10 -4z
m3838 -23 c-7 -16 -20 -41 -30 -58 -10 -16 -18 -41 -18 -55 -1 -24 -1 -24 -12
-5 -12 20 -14 117 -3 135 3 5 22 10 40 10 34 0 34 -1 23 -27z m-4038 -16 c0
-29 -3 -33 -31 -35 l-30 -2 27 35 c14 19 28 35 30 35 2 0 4 -15 4 -33z m697
27 c-3 -3 -12 -4 -19 -1 -8 3 -5 6 6 6 11 1 17 -2 13 -5z m3543 -37 c0 -26
-15 -12 -25 23 -7 22 -6 23 9 11 9 -7 16 -23 16 -34z m-4493 11 c-3 -8 -6 -5
-6 6 -1 11 2 17 5 13 3 -3 4 -12 1 -19z m1241 -9 c-6 -17 -22 -12 -30 10 -7
19 -5 20 13 11 11 -6 19 -16 17 -21z m102 11 c-6 -11 -16 -17 -25 -14 -28 11
-15 27 28 33 4 0 3 -8 -3 -19z m223 -5 l18 -25 -26 12 c-14 6 -25 17 -25 25 0
20 13 15 33 -12z m1657 5 c0 -5 -7 -7 -15 -4 -8 4 -12 10 -9 15 6 11 24 2 24
-11z m1380 16 c0 -3 -4 -8 -10 -11 -5 -3 -10 -1 -10 4 0 6 5 11 10 11 6 0 10
-2 10 -4z m-4627 -20 c4 -10 0 -12 -15 -8 -15 4 -17 7 -6 13 17 11 15 11 21
-5z m332 5 c3 -5 1 -12 -5 -16 -5 -3 -10 1 -10 9 0 18 6 21 15 7z m709 -50
c14 -32 26 -61 26 -64 0 -3 -24 -11 -54 -18 -50 -11 -55 -10 -87 12 -19 13
-36 25 -37 26 -2 1 -5 18 -7 37 -3 35 -2 36 43 50 80 25 86 23 116 -43z m1399
19 c7 -28 2 -25 -24 11 -21 30 -21 31 -2 20 11 -5 23 -20 26 -31z m1207 30 c0
-8 -49 -90 -54 -90 -1 0 -2 23 -3 50 -1 49 0 50 28 50 16 0 29 -5 29 -10z
m171 -13 c-10 -9 -11 -8 -5 6 3 10 9 15 12 12 3 -3 0 -11 -7 -18z m84 13 c-3
-5 -14 -10 -23 -10 -15 0 -15 2 -2 10 20 13 33 13 25 0z m31 -27 c-11 -11 -19
6 -11 24 8 17 8 17 12 0 3 -10 2 -21 -1 -24z m60 26 c3 -6 2 -15 -4 -21 -6 -6
-11 -2 -15 11 -5 22 7 29 19 10z m368 -4 c-4 -8 -8 -15 -10 -15 -2 0 -4 7 -4
15 0 8 4 15 10 15 5 0 7 -7 4 -15z m-3785 -37 c17 -15 31 -30 31 -35 0 -4 -21
-23 -45 -41 l-44 -34 -35 21 c-43 27 -42 63 3 103 34 31 38 30 90 -14z m2014
35 c-7 -2 -21 -2 -30 0 -10 3 -4 5 12 5 17 0 24 -2 18 -5z m617 -9 c0 -2 -9
-4 -20 -4 -11 0 -20 4 -20 9 0 5 9 7 20 4 11 -3 20 -7 20 -9z m367 -34 c2 -28
-1 -50 -5 -49 -4 0 -18 14 -31 31 l-24 30 24 19 c13 10 26 19 29 19 3 0 6 -23
7 -50z m155 -63 c-19 -27 -41 -51 -47 -53 -7 -3 -29 5 -49 17 l-37 21 22 37
c12 20 29 48 37 62 l16 27 46 -31 47 -31 -35 -49z m986 88 c-3 -3 -9 2 -12 12
-6 14 -5 15 5 6 7 -7 10 -15 7 -18z m-4653 5 c3 -5 1 -10 -4 -10 -6 0 -11 5
-11 10 0 6 2 10 4 10 3 0 8 -4 11 -10z m3275 6 c0 -2 -7 -7 -16 -10 -8 -3 -12
-2 -9 4 6 10 25 14 25 6z m160 -6 c0 -5 -8 -10 -17 -10 -15 0 -16 2 -3 10 19
12 20 12 20 0z m-2163 -8 c7 -5 9 -13 4 -21 -7 -11 -11 -9 -20 8 -12 21 -6 27
16 13z m-1343 -71 c9 -11 5 -12 -24 -6 -48 10 -56 19 -41 51 l12 26 21 -28
c12 -16 26 -35 32 -43z m24 54 c2 -2 2 -15 0 -29 -3 -25 -3 -25 -26 10 l-23
36 23 -7 c13 -4 24 -9 26 -10z m2597 -5 c-10 -11 -22 -17 -26 -14 -15 9 -10
22 9 27 33 9 35 7 17 -13z m660 -3 c27 -14 95 -69 95 -76 0 -3 -14 -21 -31
-40 l-31 -34 -57 16 c-61 17 -160 75 -161 93 0 6 9 23 20 37 20 25 25 26 83
20 34 -3 71 -10 82 -16z m1075 -3 c0 -8 -7 -14 -15 -14 -17 0 -18 2 -9 24 7
18 24 12 24 -10z m-4460 12 c0 -3 -4 -8 -10 -11 -5 -3 -10 -1 -10 4 0 6 5 11
10 11 6 0 10 -2 10 -4z m1383 -11 c-3 -9 -8 -14 -10 -11 -3 3 -2 9 2 15 9 16
15 13 8 -4z m312 5 c3 -5 -1 -10 -9 -10 -9 0 -16 5 -16 10 0 6 4 10 9 10 6 0
13 -4 16 -10z m905 -5 c0 -8 -2 -15 -4 -15 -2 0 -6 7 -10 15 -3 8 -1 15 4 15
6 0 10 -7 10 -15z m215 -22 c10 -21 22 -46 27 -55 7 -14 -1 -22 -41 -43 -28
-14 -52 -25 -55 -25 -2 0 -7 12 -10 26 -5 18 2 42 21 80 15 30 30 54 34 54 4
0 15 -17 24 -37z m648 15 c8 -29 6 -30 -25 -4 l-28 22 24 2 c17 1 25 -5 29
-20z m57 15 c-1 -5 -6 -18 -13 -30 l-13 -23 -11 30 c-11 28 -10 30 13 30 13 0
24 -3 24 -7z m440 -9 c0 -8 -5 -12 -10 -9 -6 4 -8 11 -5 16 9 14 15 11 15 -7z
m80 6 c13 -8 13 -10 -2 -10 -9 0 -20 5 -23 10 -8 13 5 13 25 0z m231 0 c6 0 7
-4 4 -10 -10 -16 -45 -12 -45 6 0 11 5 14 16 10 9 -3 20 -6 25 -6z m-3856 -10
c4 -6 -5 -9 -19 -8 -15 1 -26 6 -26 10 0 12 38 10 45 -2z m992 -12 c-3 -8 -6
-5 -6 6 -1 11 2 17 5 13 3 -3 4 -12 1 -19z m1338 -8 c-16 -31 -35 -40 -35 -16
0 11 34 43 48 45 1 1 -4 -12 -13 -29z m-2567 8 c-2 -6 -10 -14 -16 -16 -7 -2
-10 2 -6 12 7 18 28 22 22 4z m218 -16 c51 -16 58 -21 70 -55 l13 -38 -56 -36
-56 -36 -70 13 c-75 13 -117 42 -117 78 0 33 29 90 47 94 33 7 111 -2 169 -20z
m3154 19 c0 -5 -7 -11 -14 -14 -10 -4 -13 -1 -9 9 6 15 23 19 23 5z m53 -18
c5 -26 4 -26 -9 -9 -7 10 -11 23 -8 27 8 14 11 11 17 -18z m-2019 3 c27 -11
38 -25 59 -79 35 -87 36 -115 7 -176 l-23 -51 -35 53 c-19 28 -36 53 -37 55
-1 2 -27 -22 -56 -53 l-54 -56 -43 32 c-47 34 -62 62 -62 112 0 56 130 175
193 177 10 0 33 -6 51 -14z m160 3 c2 -2 -5 -24 -16 -49 l-19 -45 -20 44 c-10
24 -19 46 -19 50 0 7 67 7 74 0z m1926 -41 c0 -13 -40 -9 -41 5 0 6 -2 20 -4
31 -3 16 -1 15 21 -5 13 -12 24 -26 24 -31z m674 25 c10 -24 2 -25 -44 -4 -43
19 -43 19 -14 23 37 5 51 0 58 -19z m240 15 c-19 -31 -29 -36 -52 -25 -23 11
-23 11 15 23 21 7 39 12 41 13 2 1 0 -5 -4 -11z m-1479 -8 c3 -5 1 -10 -4 -10
-6 0 -11 5 -11 10 0 6 2 10 4 10 3 0 8 -4 11 -10z m1517 -12 c-7 -7 -12 -8
-12 -2 0 14 12 26 19 19 2 -3 -1 -11 -7 -17z m165 16 c-3 -3 -12 -4 -19 -1 -8
3 -5 6 6 6 11 1 17 -2 13 -5z m-2997 -51 c0 -13 -48 -49 -55 -41 -3 2 3 23 12
46 14 38 17 40 29 24 7 -9 14 -23 14 -29z m1794 22 c11 -16 12 -23 4 -21 -7 3
-26 7 -42 11 -27 6 -27 7 -10 20 26 19 29 19 48 -10z m1281 15 c4 -6 -11 -10
-37 -9 -33 0 -38 2 -23 9 28 12 53 12 60 0z m-4141 -38 c-5 -24 -12 -32 -29
-32 -37 0 -38 13 -3 41 18 15 34 26 36 25 1 -2 -1 -17 -4 -34z m64 15 c11 -8
9 -13 -10 -23 -33 -19 -38 -17 -38 9 0 39 12 42 48 14z m526 -4 c-12 -52 -17
-53 -58 -22 -22 16 -33 29 -25 30 24 1 63 9 68 14 13 14 21 2 15 -22z m2560
-7 c-24 -18 -29 -14 -12 13 8 13 16 17 22 11 6 -6 3 -15 -10 -24z m405 23 c34
-12 42 -29 14 -30 -10 0 -30 -3 -45 -5 -22 -4 -28 -1 -28 14 0 34 11 38 59 21z
m-4214 -9 c16 -7 13 -9 -17 -9 -21 -1 -38 4 -38 9 0 12 27 12 55 0z m953 -95
c-28 -27 -55 -26 -88 2 l-32 27 43 39 43 39 24 -47 c20 -40 21 -50 10 -60z
m342 95 c0 -5 -4 -10 -10 -10 -5 0 -10 5 -10 10 0 6 5 10 10 10 6 0 10 -4 10
-10z m3070 6 c0 -3 -4 -8 -10 -11 -5 -3 -10 -1 -10 4 0 6 5 11 10 11 6 0 10
-2 10 -4z m-3521 -25 c-23 -19 -39 -19 -39 -1 0 5 8 11 18 13 37 10 43 6 21
-12z m144 -27 c-7 -20 -10 -18 -28 17 l-16 30 25 -16 c14 -10 23 -22 19 -31z
m3791 36 l39 0 -7 -62 c-3 -34 -10 -66 -14 -70 -5 -5 -47 -1 -94 8 l-86 17 24
55 c13 30 24 57 24 59 0 3 17 2 38 -1 20 -3 55 -5 76 -6z m-1834 -16 c0 -2
-12 -4 -26 -4 -14 0 -23 4 -20 9 6 8 46 4 46 -5z m192 -29 c19 -51 15 -54 -26
-21 -24 20 -27 26 -17 45 17 31 25 26 43 -24z m88 -13 c3 -2 -6 -13 -20 -24
l-25 -20 -17 39 c-26 60 -22 69 20 37 20 -15 39 -29 42 -32z m1180 48 c12 -8
9 -10 -13 -10 -16 0 -26 4 -22 10 8 12 16 12 35 0z m-4345 -27 c-8 -33 -2 -28
-49 -47 -43 -18 -50 -15 -60 26 -7 29 -2 32 69 41 17 2 34 5 39 6 4 0 5 -11 1
-26z m1065 12 c0 -16 -12 -18 -48 -8 -18 4 -20 8 -10 14 22 14 58 10 58 -6z
m-1240 -15 c-6 -11 -13 -20 -16 -20 -2 0 0 9 6 20 6 11 13 20 16 20 2 0 0 -9
-6 -20z m590 16 c0 -2 -7 -6 -15 -10 -8 -3 -15 -1 -15 4 0 6 7 10 15 10 8 0
15 -2 15 -4z m298 -11 c-2 -1 -16 -5 -33 -9 l-30 -6 25 14 c14 8 28 12 33 9 5
-3 7 -6 5 -8z m403 -1 c12 -14 11 -16 -5 -13 -11 2 -21 10 -24 17 -5 17 13 15
29 -4z m2284 -34 l25 -50 -50 20 c-28 11 -53 20 -56 20 -2 0 5 14 18 30 12 17
25 30 30 30 4 0 19 -22 33 -50z m59 -5 c-11 -37 -20 -35 -42 10 l-21 44 34
-17 c27 -13 33 -21 29 -37z m16 46 c0 -5 -9 -7 -20 -4 -11 3 -20 7 -20 9 0 2
9 4 20 4 11 0 20 -4 20 -9z m50 -1 c0 -5 -2 -10 -4 -10 -3 0 -8 5 -11 10 -3 6
-1 10 4 10 6 0 11 -4 11 -10z m114 -29 c6 -9 -63 -76 -70 -69 -2 3 -1 27 3 56
l6 51 28 -14 c15 -8 30 -19 33 -24z m592 2 c-8 -22 -11 -60 -9 -91 5 -51 5
-52 -28 -66 -19 -8 -37 -12 -41 -10 -4 2 -21 30 -38 62 -24 43 -30 65 -25 89
5 28 11 33 43 38 20 4 42 8 47 10 6 2 22 4 37 4 27 1 27 1 14 -36z m310 21
c-3 -9 -6 -23 -6 -32 0 -12 -6 -10 -25 8 -24 22 -24 25 -8 31 31 13 46 10 39
-7z m-1992 -2 c10 -16 46 -112 42 -112 -4 0 -63 80 -80 108 -5 8 -1 12 13 12
11 0 22 -4 25 -8z m255 -53 c26 -70 26 -90 0 -174 -11 -37 -18 -69 -16 -71 3
-3 48 -17 101 -31 110 -30 105 -21 83 -148 -12 -69 -13 -70 -49 -79 -19 -5
-42 -7 -50 -4 -8 3 -25 32 -37 64 -21 52 -32 65 -89 104 -70 48 -77 61 -86
150 -3 25 -12 70 -20 100 -24 82 -23 85 44 119 84 41 95 38 119 -30z m127 48
c2 -2 -10 -25 -27 -52 l-31 -48 -28 48 c-16 27 -27 52 -25 55 4 6 104 4 111
-3z m616 -59 c-15 -15 -25 41 -10 60 11 13 13 11 16 -18 2 -18 -1 -37 -6 -42z
m208 57 c0 -10 -10 -15 -27 -15 -26 0 -26 1 -7 15 25 19 34 19 34 0z m-2760
-23 c-17 -6 -42 7 -35 18 4 6 13 5 26 -3 10 -6 15 -13 9 -15z m3358 19 c13 -1
17 -41 4 -41 -5 0 -19 11 -31 24 -20 22 -21 24 -5 21 11 -2 25 -4 32 -4z m122
-1 c0 -5 -2 -10 -4 -10 -3 0 -8 5 -11 10 -3 6 -1 10 4 10 6 0 11 -4 11 -10z
m-1502 -62 l22 -58 -48 7 c-26 3 -48 7 -50 8 -2 2 9 25 25 53 15 28 28 50 29
49 1 -1 11 -28 22 -59z m23 55 c6 -59 7 -57 -8 -38 -15 22 -17 45 -3 45 6 0
10 -3 11 -7z m910 -20 c-8 -15 -10 -15 -11 -2 0 17 10 32 18 25 2 -3 -1 -13
-7 -23z m929 -35 c0 -5 -7 -8 -15 -8 -8 0 -15 9 -15 19 0 11 -3 28 -6 38 -3
10 3 5 15 -12 11 -16 21 -33 21 -37z m-4970 33 c14 -27 13 -28 -15 -33 -32 -6
-40 5 -23 32 16 25 24 25 38 1z m4090 -2 c0 -5 -7 -9 -15 -9 -15 0 -20 12 -9
23 8 8 24 -1 24 -14z m328 1 c11 -18 10 -20 -12 -20 -19 0 -23 4 -19 20 3 11
8 20 12 20 3 0 12 -9 19 -20z m-3900 -10 c-14 -22 -24 -19 -15 5 4 8 11 15 17
15 6 0 6 -7 -2 -20z m57 14 c15 -6 50 -62 43 -69 -8 -8 -99 -11 -104 -3 -5 7
32 78 41 78 2 0 11 -3 20 -6z m303 -71 l3 -72 -57 -29 -56 -29 49 -36 c40 -29
49 -42 51 -69 1 -19 4 -44 7 -56 3 -19 0 -22 -23 -18 -15 3 -63 7 -107 11
l-80 6 -57 59 c-31 33 -61 60 -67 60 -11 0 -28 48 -37 108 l-7 42 74 0 c83 0
129 23 150 73 12 28 13 28 83 25 l71 -3 3 -72z m2352 29 c0 -7 -63 -42 -75
-42 -3 0 -5 20 -5 45 l0 45 40 -20 c22 -11 40 -24 40 -28z m163 38 c9 0 17 -4
17 -8 0 -10 -61 -94 -65 -90 -2 2 -6 27 -10 57 -7 53 -6 54 17 48 12 -4 31 -7
41 -7z m1074 -29 c-5 -2 -13 3 -18 10 -15 24 -10 30 9 12 10 -10 14 -20 9 -22z
m143 24 c37 -19 37 -23 3 -21 -26 1 -42 11 -43 29 0 10 7 9 40 -8z m312 -16
c3 -20 0 -33 -9 -36 -19 -8 -21 -3 -16 35 7 41 19 41 25 1z m-1605 -34 c3 -25
3 -45 1 -45 -2 0 -14 13 -26 30 -21 28 -21 31 -5 49 21 26 25 22 30 -34z
m-3187 27 c0 -15 -6 -18 -30 -14 -36 5 -37 10 -7 22 32 13 37 12 37 -8z m352
-11 c-3 -20 -8 -28 -18 -24 -19 7 -18 23 4 39 9 7 17 14 18 14 0 0 -1 -13 -4
-29z m798 14 c0 -8 -4 -15 -10 -15 -5 0 -10 7 -10 15 0 8 5 15 10 15 6 0 10
-7 10 -15z m2371 -14 l17 -29 -31 9 c-18 5 -33 9 -35 9 -1 0 3 9 10 20 17 26
20 25 39 -9z m173 -24 l16 -38 -53 6 c-28 4 -54 9 -56 11 -3 2 11 20 29 39 37
38 41 37 64 -18z m731 43 c3 -5 1 -10 -4 -10 -6 0 -11 5 -11 10 0 6 2 10 4 10
3 0 8 -4 11 -10z m-3620 -10 c3 -5 1 -10 -4 -10 -6 0 -11 5 -11 10 0 6 2 10 4
10 3 0 8 -4 11 -10z m195 6 c0 -2 -7 -6 -15 -10 -8 -3 -15 -1 -15 4 0 6 7 10
15 10 8 0 15 -2 15 -4z m2387 -20 c33 -13 83 -29 110 -36 l49 -13 -6 -46 c-3
-25 -7 -49 -8 -53 -1 -5 -2 -16 -2 -26 0 -10 -8 -27 -19 -38 -10 -11 -28 -49
-40 -85 -20 -62 -24 -66 -76 -92 -63 -31 -71 -32 -90 -14 -7 7 -27 25 -44 40
-37 30 -34 41 22 95 l34 33 -19 57 c-17 51 -18 64 -7 130 7 39 18 72 24 72 6
0 38 -11 72 -24z m-2447 -4 c0 -4 -9 -8 -21 -9 -17 -2 -18 1 -9 12 12 14 30
12 30 -3z m174 -14 c-10 -16 -34 -7 -34 12 0 17 3 19 19 8 11 -7 17 -16 15
-20z m2816 28 c0 -3 -4 -8 -10 -11 -5 -3 -10 -1 -10 4 0 6 5 11 10 11 6 0 10
-2 10 -4z m130 -6 c0 -5 -7 -10 -15 -10 -8 0 -15 5 -15 10 0 6 7 10 15 10 8 0
15 -4 15 -10z m-3040 -20 c-6 -11 -16 -17 -22 -14 -7 5 -5 12 7 21 25 18 28
17 15 -7z m2978 -19 l9 -39 -26 11 c-65 29 -72 34 -59 44 15 12 38 21 54 22 6
1 16 -17 22 -38z m284 -13 c-27 -18 -27 -18 -33 10 -8 39 -2 43 31 24 l29 -17
-27 -17z m33 42 c3 -6 -1 -7 -9 -4 -18 7 -21 14 -7 14 6 0 13 -4 16 -10z m187
-12 c-19 -19 -24 -21 -32 -8 -12 19 -7 25 27 28 l28 2 -23 -22z m125 2 c37 -9
44 -16 54 -48 10 -34 8 -44 -18 -97 -22 -47 -38 -64 -77 -88 -27 -15 -57 -29
-65 -29 -25 -1 -100 12 -127 22 l-23 9 18 54 c15 43 35 70 92 126 44 42 80 69
89 67 8 -3 34 -10 57 -16z m-3437 -5 c0 -8 -4 -15 -9 -15 -13 0 -22 16 -14 24
11 11 23 6 23 -9z m2081 -33 c-9 -33 -15 -39 -31 -35 -19 5 -18 7 8 43 15 21
28 37 30 35 2 -2 -2 -21 -7 -43z m1169 38 c0 -5 -2 -10 -4 -10 -3 0 -8 5 -11
10 -3 6 -1 10 4 10 6 0 11 -4 11 -10z m-4610 -15 c-27 -14 -36 -13 -25 4 3 6
16 11 28 11 21 -1 21 -1 -3 -15z m110 -16 c34 -36 36 -42 15 -66 -8 -10 -21
-26 -28 -37 -15 -20 -37 -17 -75 12 l-22 17 35 53 c20 28 38 52 40 52 3 0 18
-14 35 -31z m3176 -14 l2 -44 -39 20 c-22 11 -39 23 -39 27 0 7 55 40 70 41 3
1 6 -19 6 -44z m917 8 c-6 -14 -8 -14 -14 3 -12 30 -10 37 5 24 8 -6 12 -19 9
-27z m-4185 -9 c-15 -26 -23 -32 -29 -22 -6 9 0 20 19 35 15 13 28 23 29 23 1
0 -7 -16 -19 -36z m132 26 c8 -5 11 -12 7 -16 -4 -4 -15 0 -24 9 -18 18 -8 23
17 7z m250 -20 c0 -16 -2 -30 -4 -30 -3 0 -14 14 -26 30 l-21 30 25 0 c22 0
26 -4 26 -30z m4720 -51 c0 -4 -22 -21 -49 -38 l-49 -30 9 32 c5 18 9 52 9 76
l0 45 40 -39 c22 -21 40 -42 40 -46z m-5210 31 c-26 -16 -30 -9 -21 40 1 2 9
-4 19 -13 15 -16 15 -19 2 -27z m457 -2 c21 -24 68 -59 105 -78 l66 -34 -15
-31 c-9 -16 -32 -55 -52 -85 -19 -30 -45 -80 -57 -110 -17 -44 -25 -54 -42
-53 -12 0 -35 1 -51 2 -26 1 -31 7 -54 69 l-26 67 40 35 40 35 -51 38 c-31 23
-59 55 -72 83 -20 40 -21 46 -7 60 19 18 84 43 116 44 13 0 36 -17 60 -42z
m123 36 c0 -8 -32 -33 -43 -34 -4 0 -2 9 5 20 12 19 38 28 38 14z m612 -10
c32 -9 58 -22 59 -28 0 -6 2 -24 3 -40 1 -18 -8 -43 -26 -67 -22 -31 -37 -39
-81 -50 -49 -10 -59 -10 -93 7 -41 20 -41 23 -30 99 2 16 89 95 105 95 3 0 31
-7 63 -16z m2236 -9 l22 -25 -26 -10 c-14 -6 -26 -10 -27 -10 -1 0 -2 16 -3
35 -1 42 5 43 34 10z m937 14 c11 -17 -1 -21 -15 -4 -8 9 -8 15 -2 15 6 0 14
-5 17 -11z m322 5 c-3 -3 -12 -4 -19 -1 -8 3 -5 6 6 6 11 1 17 -2 13 -5z m303
-9 c0 -1 -6 -8 -14 -14 -11 -9 -15 -7 -19 8 -3 14 0 17 14 14 11 -3 19 -7 19
-8z m-3581 -24 c-15 -5 -22 6 -14 19 6 9 10 9 16 -1 5 -8 4 -15 -2 -18z m591
25 c0 -3 -4 -8 -10 -11 -5 -3 -10 -1 -10 4 0 6 5 11 10 11 6 0 10 -2 10 -4z
m2220 -23 c14 -7 23 -13 20 -14 -42 -8 -70 -8 -70 0 0 5 -3 17 -6 25 -7 17 6
15 56 -11z m-3596 -57 c4 -21 4 -37 -1 -35 -46 20 -93 45 -93 51 0 4 17 19 37
33 42 28 43 27 57 -49z m1223 47 c-3 -16 -9 -36 -12 -45 -6 -14 -2 -18 14 -18
13 0 21 -6 21 -16 0 -11 -5 -14 -16 -10 -9 3 -24 6 -35 6 -23 0 -24 17 -3 70
18 46 39 54 31 13z m1387 2 c-9 -22 -36 -26 -50 -8 -20 26 -17 29 20 25 24 -3
33 -8 30 -17z m132 -46 c3 -6 3 -26 0 -45 -6 -27 -15 -38 -47 -55 -22 -11 -45
-19 -51 -17 -6 2 -20 28 -33 58 l-22 55 29 31 30 32 44 -25 c24 -14 47 -29 50
-34z m598 50 c3 -2 -3 -14 -12 -26 l-17 -22 -35 31 -35 30 48 -5 c26 -2 49 -6
51 -8z m136 1 c0 -5 -4 -10 -10 -10 -5 0 -10 5 -10 10 0 6 5 10 10 10 6 0 10
-4 10 -10z m47 -12 c-3 -8 -6 -5 -6 6 -1 11 2 17 5 13 3 -3 4 -12 1 -19z m208
6 c19 -14 19 -15 -10 -10 -16 2 -31 5 -33 5 -6 2 9 21 16 21 4 0 16 -8 27 -16z
m-452 -45 c17 -16 17 -17 -14 -28 -47 -16 -49 -15 -49 36 l0 46 22 -19 c12
-10 31 -26 41 -35z m1122 41 c3 -5 1 -10 -4 -10 -6 0 -11 5 -11 10 0 6 2 10 4
10 3 0 8 -4 11 -10z m-5107 -29 c-7 -11 -19 -23 -26 -26 -8 -3 -4 8 8 26 24
33 39 34 18 0z m117 19 c-3 -5 -14 -10 -23 -10 -15 0 -15 2 -2 10 20 13 33 13
25 0z m1682 -41 c23 -44 37 -55 90 -81 l62 -29 42 21 c28 15 45 18 51 12 17
-17 -23 -100 -75 -156 -26 -28 -63 -76 -82 -107 l-35 -56 -65 15 c-65 16 -66
16 -61 46 2 17 8 53 12 80 8 55 15 54 -84 18 -32 -12 -84 -20 -133 -21 -50 -1
-94 -8 -115 -18 -18 -9 -35 -15 -38 -12 -2 2 -6 28 -10 58 l-7 53 68 -7 c133
-14 255 -4 318 28 22 10 42 21 44 23 2 1 -11 18 -28 36 -17 18 -31 37 -31 41
0 10 41 107 46 107 1 0 15 -23 31 -51z m1453 21 c8 -15 2 -22 -40 -44 l-51
-27 26 50 c26 52 45 58 65 21z m1417 24 c-3 -3 -12 -4 -19 -1 -8 3 -5 6 6 6
11 1 17 -2 13 -5z m-3152 -14 c8 -13 -25 -13 -45 0 -12 8 -9 10 12 10 15 0 30
-4 33 -10z m104 -26 c2 -2 -5 -4 -16 -4 -12 0 -23 7 -27 15 -5 13 -2 14 17 4
12 -6 24 -13 26 -15z m461 17 c0 -12 -26 -32 -33 -25 -9 10 4 34 19 34 8 0 14
-4 14 -9z m2221 -14 c-18 -19 -23 -20 -31 -7 -12 19 -7 25 25 27 l27 1 -21
-21z m159 7 c2 -3 -5 -7 -17 -10 -17 -5 -22 -16 -26 -67 -6 -67 -4 -142 8
-253 l7 -71 -31 -13 c-28 -11 -34 -11 -54 7 -12 11 -32 29 -45 40 -22 19 -23
28 -20 95 l4 73 33 -3 34 -4 -7 62 c-5 40 -3 80 5 111 l13 49 45 -6 c25 -3 48
-8 51 -10z m180 6 c8 -5 11 -12 7 -16 -4 -4 -15 0 -24 9 -18 18 -8 23 17 7z
m-4301 -57 c1 -8 -11 -13 -29 -13 -36 0 -36 3 -8 43 l22 31 7 -24 c4 -14 7
-31 8 -37z m743 17 c-5 -45 -7 -47 -42 -20 -27 21 -27 21 15 43 17 9 30 16 30
17 0 0 -1 -18 -3 -40z m386 19 c-20 -13 -38 -11 -32 5 3 8 13 12 25 9 16 -5
18 -8 7 -14z m249 -9 c-9 -23 -14 -27 -25 -17 -12 9 -10 14 8 29 29 24 30 23
17 -12z m2458 -6 c-8 -20 -15 -38 -15 -40 0 -2 -4 -4 -8 -4 -4 0 -14 15 -22
33 -7 17 -15 35 -18 40 -2 4 15 7 37 7 l41 0 -15 -36z m345 21 c-7 -8 -22 -15
-34 -15 -20 1 -20 2 4 15 33 19 46 19 30 0z m43 -5 c-3 -11 -12 -20 -19 -20
-12 0 -12 4 -2 20 7 11 16 20 19 20 4 0 5 -9 2 -20z m522 -2 c38 -25 38 -33 2
-79 -17 -22 -28 -27 -47 -23 -14 3 -28 9 -33 13 -7 7 30 111 39 111 3 0 20
-10 39 -22z m-845 -23 c0 -5 -14 -18 -31 -28 -28 -15 -31 -15 -25 -1 3 9 9 26
12 39 5 21 9 22 25 12 10 -6 19 -16 19 -22z m94 8 c-9 -37 -11 -38 -29 -23
-14 12 -14 15 2 31 26 26 34 23 27 -8z m-715 -27 c1 -6 -5 -1 -13 9 -8 11 -12
24 -8 29 5 9 20 -17 21 -38z m478 7 c-11 -10 -26 8 -20 23 5 15 7 14 15 -1 6
-9 7 -19 5 -22z m-4007 11 c0 -8 -4 -12 -10 -9 -5 3 -10 10 -10 16 0 5 5 9 10
9 6 0 10 -7 10 -16z m60 -8 c0 -18 -5 -24 -19 -23 -17 1 -18 3 -4 24 19 29 23
29 23 -1z m1240 20 c0 -3 -4 -8 -10 -11 -5 -3 -10 -1 -10 4 0 6 5 11 10 11 6
0 10 -2 10 -4z m108 -23 c-16 -16 -48 -12 -48 6 0 9 49 20 59 13 3 -1 -2 -10
-11 -19z m120 6 c-19 -13 -28 -11 -28 5 0 9 7 12 21 9 16 -4 17 -8 7 -14z
m1682 -26 c11 -25 19 -48 17 -49 -2 -2 -33 5 -70 15 -37 10 -69 16 -72 13 -3
-3 -5 -2 -5 1 0 8 90 66 102 67 4 0 16 -21 28 -47z m2028 20 c10 -16 24 -38
31 -50 l11 -22 -72 25 c-39 13 -73 26 -76 28 -4 4 67 45 80 46 4 0 15 -12 26
-27z m-5122 -11 c-15 -14 -36 -9 -36 9 0 17 3 18 21 9 11 -7 18 -14 15 -18z
m3314 24 c0 -3 -4 -8 -10 -11 -5 -3 -10 -1 -10 4 0 6 5 11 10 11 6 0 10 -2 10
-4z m-557 -28 c-3 -13 -9 -40 -14 -60 l-10 -38 -59 0 c-33 0 -60 3 -60 8 1 6
138 112 146 112 1 0 0 -10 -3 -22z m1050 2 c5 -21 -14 -27 -48 -13 -15 5 -14
8 6 19 32 18 36 17 42 -6z m-2493 -5 c0 -8 -4 -15 -10 -15 -5 0 -7 7 -4 15 4
8 8 15 10 15 2 0 4 -7 4 -15z m35 6 c3 -5 1 -12 -5 -16 -5 -3 -10 1 -10 9 0
18 6 21 15 7z m-130 -11 c3 -5 2 -10 -4 -10 -5 0 -13 5 -16 10 -3 6 -2 10 4
10 5 0 13 -4 16 -10z m2836 -12 c0 -13 3 -35 5 -50 l5 -27 -46 25 c-25 14 -45
28 -45 30 0 6 63 44 73 44 4 0 7 -10 8 -22z m35 -34 l-15 -29 -1 45 c0 41 1
43 16 28 14 -14 14 -18 0 -44z m864 51 c0 -2 -10 -10 -22 -16 -21 -11 -22 -11
-9 4 13 16 31 23 31 12z m-2160 -40 c0 -19 -4 -35 -10 -35 -5 0 -8 10 -6 23 3
12 5 28 5 35 2 28 11 9 11 -23z m609 4 c-22 -14 -29 -11 -29 11 0 18 3 19 21
9 17 -9 19 -13 8 -20z m-3654 11 c-3 -5 -12 -10 -18 -10 -7 0 -6 4 3 10 19 12
23 12 15 0z m195 0 c0 -5 -4 -10 -10 -10 -5 0 -10 5 -10 10 0 6 5 10 10 10 6
0 10 -4 10 -10z m40 6 c0 -3 -4 -8 -10 -11 -5 -3 -10 -1 -10 4 0 6 5 11 10 11
6 0 10 -2 10 -4z m570 -11 c0 -2 -7 -5 -15 -9 -9 -3 -15 0 -15 9 0 9 6 12 15
9 8 -4 15 -7 15 -9z m610 8 c0 -5 -5 -15 -10 -23 -8 -12 -10 -11 -10 8 0 12 5
22 10 22 6 0 10 -3 10 -7z m837 1 c-3 -3 -12 -4 -19 -1 -8 3 -5 6 6 6 11 1 17
-2 13 -5z m3002 -33 l31 -39 -48 -35 -48 -34 -27 38 c-15 20 -27 40 -27 43 0
4 78 63 87 66 1 0 15 -18 32 -39z m-4899 9 c0 -4 -7 -10 -15 -13 -16 -7 -29 8
-20 23 6 10 35 2 35 -10z m1115 11 c18 -7 15 -11 -23 -30 l-43 -22 16 31 c17
32 19 33 50 21z m2072 3 c-3 -3 -12 -4 -19 -1 -8 3 -5 6 6 6 11 1 17 -2 13 -5z
m1802 -47 c-28 -7 -36 -5 -63 23 l-31 31 63 -23 64 -23 -33 -8z m-3116 36 c3
-5 -7 -17 -21 -27 -14 -11 -23 -15 -20 -10 3 5 8 17 11 27 7 18 22 23 30 10z
m1753 -55 l31 -62 -40 -22 c-38 -20 -43 -20 -79 -6 -28 11 -37 20 -33 31 4 9
11 35 18 58 10 38 32 60 62 62 6 1 24 -27 41 -61z m84 52 c0 -13 -20 -13 -40
0 -12 8 -9 10 13 10 15 0 27 -4 27 -10z m-3796 -15 c-4 -8 -10 -12 -15 -9 -11
6 -2 24 11 24 5 0 7 -7 4 -15z m924 -26 c-8 -6 -18 -2 -25 8 -21 27 -15 35 13
17 19 -13 22 -19 12 -25z m179 19 c-3 -8 -6 -5 -6 6 -1 11 2 17 5 13 3 -3 4
-12 1 -19z m175 -10 c-5 -21 -6 -21 -12 -2 -8 21 -3 37 10 29 4 -3 6 -15 2
-27z m611 -6 c-3 -28 2 -49 18 -76 l22 -38 -54 27 c-30 15 -56 29 -58 31 -4 3
67 94 73 94 2 0 1 -17 -1 -38z m1858 21 c33 -20 33 -20 16 -51 -13 -22 -13
-21 -35 23 -24 50 -23 52 19 28z m94 8 c3 -5 1 -12 -4 -15 -5 -3 -11 1 -15 9
-6 16 9 21 19 6z m489 -5 c37 -16 51 -44 62 -133 7 -59 9 -58 -68 -42 -59 13
-107 45 -107 71 -2 36 23 107 38 111 29 8 42 7 75 -7z m-3290 -10 c-3 -8 -13
-12 -25 -9 -16 5 -18 8 -7 14 20 13 38 11 32 -5z m211 -25 c7 -23 6 -23 -46
-17 -30 3 -56 6 -59 6 -3 0 15 11 40 24 48 25 54 24 65 -13z m56 12 c-8 -15
-10 -15 -11 -2 0 17 10 32 18 25 2 -3 -1 -13 -7 -23z m719 17 c8 -5 11 -10 5
-11 -38 -3 -72 -12 -85 -21 -8 -6 -2 1 13 16 30 28 43 31 67 16z m1940 -6 l25
-15 -25 7 c-14 3 -29 10 -34 15 -16 14 6 10 34 -7z m140 -14 c0 -20 -5 -30
-15 -30 -18 0 -20 31 -3 48 17 17 18 16 18 -18z m629 -24 c-6 -25 -13 -46 -16
-46 -8 0 -57 49 -53 53 13 12 75 46 77 43 2 -2 -1 -24 -8 -50z m54 36 c16 -17
15 -20 -14 -48 l-31 -29 7 30 c10 45 16 65 19 65 2 0 10 -8 19 -18z m-4201 -9
c31 -37 31 -44 2 -40 -22 3 -28 9 -29 30 -2 31 6 34 27 10z m2619 -6 c-10 -9
-11 -8 -5 6 3 10 9 15 12 12 3 -3 0 -11 -7 -18z m1006 1 c-3 -8 -6 -5 -6 6 -1
11 2 17 5 13 3 -3 4 -12 1 -19z m-4561 -15 c-4 -10 -25 -31 -49 -48 l-42 -30
45 52 c45 53 57 59 46 26z m560 12 c-8 -8 -16 -15 -19 -15 -2 0 -4 7 -4 15 0
8 9 15 19 15 17 0 18 -2 4 -15z m318 -9 c-3 -9 -10 -16 -15 -16 -6 0 -5 9 1
21 13 24 24 20 14 -5z m359 -1 c4 -8 2 -17 -3 -20 -6 -4 -10 3 -10 14 0 25 6
27 13 6z m112 -3 c-3 -3 -11 0 -18 7 -9 10 -8 11 6 5 10 -3 15 -9 12 -12z
m2859 6 c-3 -7 -15 -21 -28 -30 -22 -16 -23 -16 -18 7 4 21 14 29 44 34 4 0 5
-5 2 -11z m126 -7 c50 -17 55 -21 54 -47 -1 -16 -2 -50 -3 -75 l-1 -46 -35 2
c-20 2 -52 -2 -72 -8 -35 -11 -36 -10 -79 38 -24 28 -44 53 -44 56 0 13 95 99
110 99 8 0 40 -9 70 -19z m-3830 -1 c0 -5 -5 -10 -11 -10 -5 0 -7 5 -4 10 3 6
8 10 11 10 2 0 4 -4 4 -10z m3107 4 c-3 -3 -12 -4 -19 -1 -8 3 -5 6 6 6 11 1
17 -2 13 -5z m1331 -3 c10 -6 8 -10 -10 -14 -14 -4 -29 -1 -38 8 -13 13 -11
15 10 15 14 0 31 -4 38 -9z m569 -26 c-3 -20 -7 -39 -10 -42 -3 -3 -24 10 -46
28 -44 37 -41 44 20 47 l41 3 -5 -36z m-2351 -2 c-7 -7 -26 7 -26 19 0 6 6 6
15 -2 9 -7 13 -15 11 -17z m2087 -78 c-12 -51 -6 -108 18 -183 12 -39 21 -73
18 -76 -2 -2 -47 -22 -99 -44 l-95 -41 -12 52 c-7 29 -12 64 -13 78 0 15 -9
47 -20 72 l-21 46 30 59 c17 34 50 77 77 101 l48 42 38 -38 c34 -33 38 -41 31
-68z m-5225 70 c-6 -14 -13 -23 -15 -21 -5 5 15 46 22 46 3 0 -1 -11 -7 -25z
m2333 -5 c16 -16 29 -32 29 -35 0 -5 -81 -28 -85 -23 -14 16 -35 71 -30 78 13
20 58 10 86 -20z m718 -1 c19 -55 12 -63 -20 -23 -17 22 -38 42 -47 46 -11 4
-4 7 20 7 32 1 37 -3 47 -30z m171 -21 c0 -20 -27 -5 -44 23 l-19 32 32 -24
c17 -12 31 -26 31 -31z m1790 11 c0 -5 -10 -5 -22 0 -25 9 -32 11 -50 11 -8 1
-5 7 6 15 16 12 22 12 42 -2 13 -8 24 -19 24 -24z m339 -47 c-3 -1 -25 5 -48
15 l-42 18 43 28 43 28 5 -43 c3 -24 2 -44 -1 -46z m103 6 c-4 -3 -23 -8 -42
-10 l-35 -3 -3 49 -3 48 45 -38 c24 -22 41 -42 38 -46z m-4018 41 c3 -17 6
-42 6 -56 0 -24 -1 -23 -37 11 -21 20 -42 36 -48 36 -9 1 52 36 66 39 4 1 9
-13 13 -30z m-520 12 c3 -5 -1 -11 -9 -15 -9 -3 -15 0 -15 9 0 16 16 20 24 6z
m1485 -30 c-6 -2 -21 7 -33 19 l-21 23 33 -19 c18 -10 28 -20 21 -23z m-2444
-26 c-7 -31 -14 -58 -16 -60 -3 -2 -14 12 -27 30 l-22 34 37 26 c21 14 38 25
39 25 1 0 -4 -25 -11 -55z m495 50 c0 -7 -30 -13 -34 -7 -3 4 4 9 15 9 10 1
19 0 19 -2z m570 -3 c0 -5 -9 -17 -20 -27 -20 -18 -20 -17 -20 8 0 20 5 27 20
27 11 0 20 -4 20 -8z m1919 -1 c11 -7 9 -11 -8 -20 -18 -10 -21 -9 -21 9 0 22
7 25 29 11z m557 -25 c3 -22 -1 -20 -21 10 -16 25 -16 25 1 16 10 -5 19 -17
20 -26z m2054 3 c0 -5 -9 -9 -20 -9 -22 0 -23 1 -14 24 5 13 9 14 20 5 8 -6
14 -15 14 -20z m-5530 4 c0 -10 -10 -29 -21 -43 l-20 -25 16 39 c8 21 15 40
15 42 0 2 2 4 5 4 3 0 5 -8 5 -17z m453 -11 c-4 -18 -8 -20 -20 -10 -13 10
-13 14 3 25 22 16 25 13 17 -15z m487 -1 c0 -29 -1 -30 -31 -19 l-31 11 29 18
c15 10 29 19 31 19 1 0 2 -13 2 -29z m155 5 c49 -22 55 -28 55 -55 0 -37 14
-47 32 -24 7 10 23 26 35 37 22 18 23 18 77 -14 31 -17 58 -35 60 -39 3 -4 0
-26 -6 -48 -9 -38 -15 -43 -79 -73 -66 -30 -71 -31 -126 -20 -32 6 -65 13 -73
16 -14 3 -100 132 -100 148 0 9 59 96 65 96 3 0 29 -11 60 -24z m65 7 c0 -9
-7 -9 -30 -2 -16 6 -30 13 -30 15 0 2 14 3 30 2 17 -1 30 -8 30 -15z m1011
-13 c33 -17 59 -35 57 -39 -2 -5 -22 -25 -46 -45 -42 -34 -44 -35 -68 -19 -22
14 -25 22 -20 57 3 23 5 49 5 59 1 22 1 22 72 -13z m609 12 c0 -15 -24 -32
-44 -32 -20 1 -20 1 3 20 24 21 41 26 41 12z m158 -33 c-15 -29 -23 -37 -29
-27 -14 22 -10 32 19 50 15 9 28 17 29 17 2 1 -7 -17 -19 -40z m92 -29 c4 -30
-1 -36 -31 -38 -16 -1 -36 -3 -42 -5 -14 -2 -12 13 9 70 l16 43 23 -28 c13
-15 24 -34 25 -42z m77 53 c3 -9 -8 -10 -35 -4 -2 1 0 6 3 12 8 12 27 7 32 -8z
m349 -25 c17 -33 17 -33 -12 -42 -20 -6 -22 -3 -21 38 1 49 9 50 33 4z m264
-25 c0 -2 -17 -3 -38 -3 -36 0 -38 1 -40 36 l-3 36 41 -33 c22 -18 40 -34 40
-36z m1262 54 c10 -2 20 -6 23 -9 7 -7 -42 -108 -52 -108 -3 0 -23 5 -44 11
-38 12 -38 12 -32 53 3 23 6 47 6 55 0 13 18 12 99 -2z m-4782 -34 c0 -18 -1
-36 -2 -40 -4 -11 -98 -11 -105 0 -3 4 -2 24 2 43 6 35 6 35 56 33 48 -3 49
-3 49 -36z m1133 1 l18 -36 -38 23 c-51 30 -50 29 -33 39 25 16 36 11 53 -26z
m461 -11 c-4 -27 -7 -54 -7 -60 0 -7 -1 -13 -2 -13 -5 0 -55 77 -55 83 0 5 46
30 68 36 1 1 0 -20 -4 -46z m282 20 c-2 -16 -5 -34 -5 -42 -1 -11 -6 -10 -21
4 l-20 18 22 24 c27 29 30 29 24 -4z m1438 18 c3 -5 -1 -14 -9 -21 -13 -10
-15 -9 -15 9 0 21 14 28 24 12z m1351 -8 c-2 -10 -4 -22 -5 -28 -1 -5 -5 -1
-9 10 -9 21 -5 35 9 35 4 0 7 -8 5 -17z m-1615 -48 c0 -5 -10 0 -21 12 -13 12
-18 26 -14 33 6 9 12 6 21 -11 7 -13 13 -28 14 -34z m674 35 c40 -17 51 -18
88 -7 68 20 82 16 127 -38 l41 -49 -32 -33 c-44 -46 -113 -66 -194 -59 -62 5
-67 4 -119 -30 -61 -41 -101 -41 -109 -1 -23 110 -4 154 89 204 33 18 61 33
62 33 1 0 22 -9 47 -20z m-3680 4 c12 -5 13 -10 5 -26 -9 -17 -13 -18 -20 -7
-9 15 -12 39 -5 39 2 0 11 -3 20 -6z m182 -9 c17 -16 14 -18 -10 -9 -9 3 -16
10 -16 15 0 13 9 11 26 -6z m4401 -7 c-3 -8 -6 -5 -6 6 -1 11 2 17 5 13 3 -3
4 -12 1 -19z m-4318 -14 c9 -20 9 -25 0 -22 -14 5 -32 48 -20 48 4 0 13 -12
20 -26z m880 2 c18 -19 20 -24 7 -29 -10 -4 -20 4 -30 23 -18 36 -8 39 23 6z
m1734 3 c-6 -6 -17 -8 -24 -3 -9 5 -8 9 7 14 23 9 31 3 17 -11z m2127 6 c10
-13 9 -15 -8 -15 -15 0 -20 5 -16 15 4 8 7 15 9 15 1 0 8 -7 15 -15z m-5380
-5 c0 -5 -2 -10 -4 -10 -3 0 -8 5 -11 10 -3 6 -1 10 4 10 6 0 11 -4 11 -10z
m930 6 c0 -15 -14 -35 -21 -30 -15 9 -10 34 6 34 8 0 15 -2 15 -4z m843 -18
c-20 -19 -24 -20 -55 -7 l-33 14 50 6 c28 3 52 7 55 7 2 1 -5 -8 -17 -20z
m700 15 c-7 -2 -19 -2 -25 0 -7 3 -2 5 12 5 14 0 19 -2 13 -5z m396 -22 c10
-6 3 -9 -23 -9 -20 0 -36 1 -36 3 0 2 3 10 6 19 6 16 13 14 53 -13z m801 19
c0 -5 -8 -10 -17 -10 -15 0 -16 2 -3 10 19 12 20 12 20 0z m1952 -17 c31 -29
35 -43 15 -43 -12 0 -188 -198 -195 -220 -8 -23 19 -7 48 28 36 41 26 16 -14
-37 -14 -19 -24 -36 -23 -38 2 -1 44 -5 93 -8 49 -3 112 -7 140 -10 l52 -6 7
38 c4 21 9 49 12 63 7 39 19 43 19 7 1 -17 3 -68 5 -112 l4 -80 -63 -14 c-60
-14 -66 -13 -175 14 -129 32 -187 53 -187 67 0 5 10 32 22 60 l21 50 -25 79
c-30 89 -31 87 49 108 23 6 68 27 100 45 32 19 60 35 62 35 3 1 18 -11 33 -26z
m37 18 c7 -5 12 -14 9 -21 -2 -7 -10 -4 -22 9 -19 21 -12 28 13 12z m-5524
-39 c-2 -21 -18 -63 -36 -93 -42 -70 -111 -158 -124 -158 -5 0 -23 16 -39 35
-25 30 -27 39 -20 66 l9 31 36 -31 c40 -35 49 -39 49 -19 0 20 65 149 91 180
31 36 38 34 34 -11z m3088 6 c-5 -10 -33 10 -33 23 0 5 9 4 19 -3 11 -7 17
-16 14 -20z m-2225 -14 l21 -31 -42 4 c-23 3 -43 6 -45 8 -1 1 7 14 19 29 12
15 22 26 23 24 2 -2 12 -17 24 -34z m1458 24 c3 -4 3 -12 -1 -18 -7 -12 -35 4
-35 20 0 9 26 7 36 -2z m2484 -3 c12 -15 4 -16 -38 -6 -7 2 10 21 17 21 5 0
14 -7 21 -15z m-4934 -22 c-7 -7 -26 7 -26 19 0 6 6 6 15 -2 9 -7 13 -15 11
-17z m441 -18 c7 -21 11 -40 9 -43 -3 -2 -24 9 -46 26 l-41 30 23 16 c30 21
39 17 55 -29z m1158 35 c-3 -5 -12 -10 -18 -10 -7 0 -6 4 3 10 19 12 23 12 15
0z m31 -47 c-3 -3 -12 0 -21 7 -14 12 -14 15 2 33 18 19 18 19 21 -8 2 -15 1
-29 -2 -32z m544 16 c0 -9 -61 -41 -67 -35 -2 2 4 20 13 40 17 34 19 35 36 19
10 -9 18 -20 18 -24z m213 19 c3 -13 9 -33 12 -46 7 -20 5 -22 -16 -18 -13 3
-42 8 -63 11 l-40 7 40 33 c46 40 60 43 67 13z m916 -7 c-15 -5 -22 6 -14 19
6 9 10 9 16 -1 5 -8 4 -15 -2 -18z m-2679 3 c0 -2 -9 -4 -21 -4 -11 0 -18 4
-14 10 5 8 35 3 35 -6z m220 1 c10 -12 10 -15 -4 -15 -9 0 -16 7 -16 15 0 8 2
15 4 15 2 0 9 -7 16 -15z m850 -36 c0 -5 -9 -9 -20 -9 -16 0 -20 7 -20 33 l1
32 19 -24 c11 -13 20 -27 20 -32z m20 41 c8 -5 11 -12 7 -16 -4 -4 -15 0 -24
9 -18 18 -8 23 17 7z m1660 -15 c0 -12 -29 -3 -34 10 -4 13 -2 14 14 5 11 -6
20 -13 20 -15z m1381 3 c46 -24 40 -31 -34 -41 -36 -5 -37 -4 -31 22 7 29 13
41 19 41 3 0 23 -10 46 -22z m-4244 -1 l21 -12 -23 -27 c-25 -29 -35 -22 -35
28 0 27 5 29 37 11z m1916 -28 c-7 -7 -12 -3 -15 16 -5 25 -4 25 10 11 12 -11
13 -19 5 -27z m287 31 c-20 -13 -47 -13 -55 0 -4 6 9 10 32 10 28 0 34 -3 23
-10z m176 -2 c2 -3 -9 -16 -24 -30 -20 -20 -34 -25 -54 -21 -29 5 -37 30 -18
49 10 10 86 11 96 2z m938 -3 c-7 -16 -24 -21 -24 -6 0 8 7 13 27 20 1 1 0 -6
-3 -14z m1531 6 c3 -5 1 -12 -5 -16 -5 -3 -10 1 -10 9 0 18 6 21 15 7z m-5035
-10 c14 -1 65 -119 56 -128 -2 -2 -16 -6 -32 -9 -16 -2 -34 -6 -40 -8 -12 -5
-124 81 -124 94 0 5 4 19 9 32 9 25 20 26 131 19z m1514 -7 c4 -10 1 -14 -6
-12 -15 5 -23 28 -10 28 5 0 13 -7 16 -16z m916 9 c-1 -5 -7 -19 -14 -32 -13
-23 -14 -23 -24 -5 -8 14 -6 21 6 31 19 14 32 16 32 6z m199 -19 c-13 -16 -22
-12 -25 10 -1 9 5 12 17 9 15 -4 17 -8 8 -19z m711 -9 l33 -34 -36 -44 -36
-44 -55 10 c-31 6 -56 13 -56 16 0 3 6 28 13 55 11 43 18 51 47 62 50 18 53
17 90 -21z m20 25 c0 -5 -2 -10 -4 -10 -3 0 -8 5 -11 10 -3 6 -1 10 4 10 6 0
11 -4 11 -10z m-3672 -21 c-19 -13 -28 -11 -28 5 0 9 7 12 21 9 16 -4 17 -8 7
-14z m627 -26 c-10 -56 -18 -57 -47 -8 l-28 45 41 0 41 0 -7 -37z m109 25 c-3
-4 -11 -5 -19 -1 -21 7 -19 12 4 10 11 0 18 -5 15 -9z m2566 -29 c47 -40 48
-42 65 -132 9 -51 18 -102 21 -114 4 -23 -4 -28 -67 -38 -39 -6 -89 8 -89 25
0 6 18 38 40 72 23 33 39 62 37 65 -2 2 -36 28 -75 57 -77 57 -78 61 -17 94
29 17 32 16 85 -29z m1119 19 c-13 -25 -93 -124 -122 -150 -10 -9 -17 -18 -16
-20 1 -2 -3 -19 -10 -39 -10 -32 -15 -36 -39 -31 -38 7 -47 16 -62 62 -12 36
-11 42 5 60 9 10 32 24 49 30 20 6 45 28 64 54 31 45 40 49 120 54 20 2 22 0
11 -20z m597 7 c36 -15 36 -15 31 -66 -3 -29 -9 -55 -14 -60 -23 -22 -242 -39
-270 -21 -22 14 -83 106 -75 113 4 4 27 10 52 14 24 4 47 8 50 10 3 1 27 6 55
10 27 3 51 8 54 11 10 10 84 3 117 -11z m644 1 c0 -7 -9 -16 -21 -19 -20 -5
-20 -5 -3 14 20 23 24 23 24 5z m-5710 -10 c0 -8 -7 -16 -15 -20 -12 -4 -13
-2 -2 14 14 24 17 25 17 6z m490 -50 c0 -2 -11 -11 -25 -20 -24 -16 -24 -15
-45 30 -11 26 -20 48 -20 51 0 2 20 -10 45 -27 25 -17 45 -32 45 -34z m124 16
l27 -44 -33 7 c-18 4 -44 12 -57 17 l-24 9 28 29 c16 16 29 29 30 27 1 -1 14
-22 29 -45z m125 31 l21 -18 -36 -24 -37 -23 6 23 c4 13 7 32 7 42 0 9 4 17 9
17 5 0 18 -8 30 -17z m913 -43 c17 -15 17 -18 0 -50 -9 -19 -21 -35 -27 -37
-5 -1 -31 16 -58 40 l-47 42 26 33 26 32 31 -22 c18 -12 40 -30 49 -38z m676
-8 c29 -31 55 -65 58 -76 4 -11 22 -40 40 -66 39 -55 41 -63 16 -88 -16 -16
-28 -18 -91 -11 -115 12 -136 23 -170 82 -33 59 -65 157 -54 168 5 4 28 19 53
33 60 34 84 28 148 -42z m787 22 c-54 -22 -95 -21 -95 1 0 9 15 22 32 30 28
11 37 11 63 -3 l30 -15 -30 -13z m65 34 c0 -4 -6 -8 -14 -8 -8 0 -17 4 -20 8
-2 4 4 8 15 8 10 0 19 -4 19 -8z m240 8 c0 -11 -19 -15 -25 -6 -3 5 1 10 9 10
9 0 16 -2 16 -4z m-3368 -46 c-17 -39 -17 -39 -22 -12 -4 20 -1 30 15 39 11 7
21 12 22 13 1 0 -6 -18 -15 -40z m2558 19 c0 -6 -4 -7 -10 -4 -5 3 -10 11 -10
16 0 6 5 7 10 4 6 -3 10 -11 10 -16z m64 -4 c-19 -29 -29 -27 -19 4 3 12 13
21 21 21 12 0 12 -4 -2 -25z m100 -45 c67 -102 58 -120 -18 -35 -54 59 -62 72
-52 87 6 10 14 18 17 18 3 0 27 -31 53 -70z m-1744 45 c-10 -12 -16 -13 -26
-4 -20 16 -18 19 12 19 22 0 25 -2 14 -15z m2506 -11 c-7 -36 -12 -39 -26 -14
-10 18 -9 24 1 31 23 15 30 10 25 -17z m1019 16 c3 -5 1 -10 -4 -10 -6 0 -11
5 -11 10 0 6 2 10 4 10 3 0 8 -4 11 -10z m-2126 -17 c3 -2 -4 -12 -15 -23 -19
-19 -19 -18 -53 11 l-33 31 48 -8 c27 -3 51 -8 53 -11z m-2417 -22 c4 -26 2
-29 -13 -20 -27 14 -31 27 -12 38 10 6 19 11 19 11 1 0 4 -13 6 -29z m939 -3
c10 -18 8 -19 -13 -13 -30 10 -30 9 -22 29 7 19 19 13 35 -16z m1549 22 c0 -5
-2 -10 -4 -10 -3 0 -8 5 -11 10 -3 6 -1 10 4 10 6 0 11 -4 11 -10z m484 -157
c-9 -18 -20 -33 -23 -33 -5 0 -47 106 -54 137 -1 3 18 19 43 33 l45 26 3 -65
c3 -48 -1 -75 -14 -98z m821 156 c11 -17 0 -20 -21 -4 -17 13 -17 14 -2 15 9
0 20 -5 23 -11z m-3580 -39 l15 -28 -40 15 c-38 15 -39 17 -24 34 20 22 29 18
49 -21z m2575 20 c6 -11 8 -20 6 -20 -3 0 -10 9 -16 20 -6 11 -8 20 -6 20 3 0
10 -9 16 -20z m1897 -17 c-11 -10 -26 8 -20 23 5 15 7 14 15 -1 6 -9 7 -19 5
-22z m1033 15 c0 -10 1 -20 2 -23 6 -15 13 -113 7 -110 -7 5 -89 141 -89 148
0 3 18 4 40 4 32 -1 40 -5 40 -19z m46 0 c-3 -13 -6 -36 -6 -52 0 -43 -10 -26
-16 28 -5 39 -3 46 11 46 13 0 16 -6 11 -22z m-4996 -2 c0 -8 3 -22 6 -31 5
-13 1 -15 -22 -11 -16 2 -36 5 -44 5 -10 1 -5 10 15 26 35 28 45 31 45 11z
m220 4 c0 -5 -4 -10 -10 -10 -5 0 -10 5 -10 10 0 6 5 10 10 10 6 0 10 -4 10
-10z m1590 -5 c10 -13 9 -15 -8 -15 -15 0 -20 5 -16 15 4 8 7 15 9 15 1 0 8
-7 15 -15z m113 -7 c9 -13 34 -43 56 -67 42 -47 45 -73 5 -47 -37 25 -52 18
-20 -9 25 -20 28 -26 17 -39 -21 -25 -33 -19 -73 33 -39 51 -48 93 -28 132 14
25 24 24 43 -3z m467 1 c0 -15 -4 -19 -16 -15 -9 3 -21 6 -27 6 -13 1 22 30
35 30 4 0 8 -9 8 -21z m81 -16 c27 -20 49 -38 49 -39 0 -1 -25 6 -55 14 -47
13 -55 19 -55 39 0 12 3 23 6 23 4 0 29 -17 55 -37z m554 -21 c-7 -8 -85 -14
-85 -7 0 3 7 20 16 37 l16 30 29 -28 c16 -15 27 -30 24 -32z m-2640 38 c3 -5
1 -10 -4 -10 -6 0 -11 5 -11 10 0 6 2 10 4 10 3 0 8 -4 11 -10z m1305 -3 c0
-8 -6 -14 -14 -14 -8 0 -12 6 -9 14 3 7 9 13 14 13 5 0 9 -6 9 -13z m2670 -1
c0 -7 -6 -19 -14 -25 -11 -9 -12 -6 -8 14 5 26 22 35 22 11z m544 -69 c26 -44
45 -81 43 -83 -6 -6 -147 18 -147 25 0 3 9 31 20 61 12 30 23 61 26 69 6 17 1
22 58 -72z m268 -134 c-23 -47 -28 -52 -66 -56 -23 -2 -44 -1 -48 2 -3 3 -9
67 -12 141 l-6 135 78 -85 79 -85 -25 -52z m-5656 160 c-9 -10 -35 6 -47 28
l-11 22 31 -23 c18 -12 30 -24 27 -27z m314 -2 c-30 -15 -32 -14 -51 9 -10 14
-19 28 -19 31 0 3 23 -1 51 -10 l50 -16 -31 -14z m2249 40 c9 -6 10 -14 4 -25
-8 -15 -11 -14 -21 9 -12 26 -7 31 17 16z m590 -10 c0 -3 -4 -15 -9 -26 -7
-16 -9 -17 -9 -3 -1 9 -4 24 -7 32 -5 12 -2 15 10 10 9 -3 16 -9 15 -13z
m1301 -6 c14 -19 14 -19 -2 -6 -10 7 -18 18 -18 24 0 6 1 8 3 6 1 -2 9 -13 17
-24z m-4255 -6 c-4 -5 -13 -9 -22 -9 -13 0 -13 3 -3 15 13 15 35 11 25 -6z
m988 -42 c-6 -11 -14 -12 -33 -5 l-25 9 30 25 c29 23 30 23 33 4 2 -11 0 -26
-5 -33z m100 -2 c1 -5 -8 -11 -20 -13 -13 -2 -23 -2 -23 0 0 2 -4 18 -10 37
l-9 33 30 -24 c17 -12 31 -27 32 -33z m1916 46 c15 -10 11 -16 -32 -50 -17
-13 -18 -12 -11 15 11 47 16 52 43 35z m1111 -18 c0 -26 -1 -26 -15 -7 -19 25
-19 34 0 34 10 0 15 -10 15 -27z m-1980 -3 c0 -13 -5 -18 -15 -14 -12 5 -13
10 -4 20 15 19 19 18 19 -6z m533 7 c3 -8 2 -19 -2 -26 -6 -9 -13 -5 -25 13
-16 25 -16 26 3 26 10 0 21 -6 24 -13z m891 -9 c3 -13 6 -25 6 -28 0 -3 -21
-4 -46 -2 l-45 4 33 24 c41 29 44 29 52 2z m487 -51 c-4 -22 -12 -42 -18 -44
-12 -4 -63 42 -63 57 0 4 17 19 37 33 44 32 53 22 44 -46z m134 53 c-10 -11
-22 -20 -27 -20 -5 0 -4 9 2 20 6 11 18 20 27 20 14 0 14 -2 -2 -20z m-4823
-66 l3 -71 -44 9 c-24 4 -46 9 -47 11 -2 1 15 31 38 65 22 34 42 61 44 60 1
-2 4 -35 6 -74z m330 64 c71 -15 80 -23 76 -72 l-3 -40 -67 -14 c-63 -12 -70
-12 -117 9 l-51 21 46 54 c26 30 50 54 54 54 5 0 32 -5 62 -12z m348 2 c0 -5
-2 -10 -4 -10 -3 0 -8 5 -11 10 -3 6 -1 10 4 10 6 0 11 -4 11 -10z m470 -46
l23 -56 -29 -27 c-38 -34 -110 -91 -117 -91 -3 0 -3 8 -1 18 3 10 -13 36 -41
67 -24 28 -45 54 -45 58 0 5 -17 6 -37 3 -42 -7 -236 -16 -231 -11 2 2 37 21
79 43 48 25 86 38 105 37 16 -2 43 -3 59 -4 27 -1 31 -5 33 -33 3 -41 8 -45
31 -24 18 16 129 75 142 76 4 0 17 -25 29 -56z m30 13 c0 -35 -3 -34 -18 10
-9 26 -8 31 4 26 8 -3 14 -18 14 -36z m174 28 c4 -10 -1 -15 -16 -15 -17 0
-18 2 -8 15 7 8 14 15 15 15 2 0 5 -7 9 -15z m51 -3 c-3 -3 -11 0 -18 7 -9 10
-8 11 6 5 10 -3 15 -9 12 -12z m160 8 c-3 -5 -11 -10 -16 -10 -6 0 -7 5 -4 10
3 6 11 10 16 10 6 0 7 -4 4 -10z m1859 -21 c3 -3 -17 -6 -44 -8 -43 -2 -50 1
-50 17 0 17 4 18 45 8 24 -7 46 -14 49 -17z m-2879 11 c-3 -5 -14 -10 -23 -10
-15 0 -15 2 -2 10 20 13 33 13 25 0z m45 -11 c0 -5 -7 -9 -15 -9 -9 0 -12 6
-9 15 6 15 24 11 24 -6z m2480 -45 c22 -66 23 -79 5 -66 -24 17 -46 74 -40
102 4 17 8 30 9 30 2 0 13 -30 26 -66z m1810 40 c18 -45 19 -45 -54 -29 l-30
6 30 24 c37 31 42 31 54 -1z m-3650 -15 c-17 -31 -30 -32 -30 -1 0 25 3 29 20
25 15 -4 17 -9 10 -24z m720 21 c-8 -5 -19 -10 -25 -10 -5 0 -3 5 5 10 8 5 20
10 25 10 6 0 3 -5 -5 -10z m795 0 c3 -5 -1 -10 -10 -10 -9 0 -13 5 -10 10 3 6
8 10 10 10 2 0 7 -4 10 -10z m519 -5 c3 -9 0 -15 -8 -15 -7 0 -13 7 -13 15 0
8 4 15 8 15 4 0 9 -7 13 -15z m455 1 c10 -12 8 -17 -8 -26 -19 -9 -21 -8 -21
15 0 28 12 32 29 11z m293 -38 c15 -28 27 -53 25 -54 -1 -2 -32 -6 -69 -9
l-66 -7 -17 46 c-10 26 -16 49 -13 52 5 4 76 20 103 23 6 0 22 -22 37 -51z
m738 13 c0 -3 -9 -12 -20 -19 -19 -11 -20 -10 -20 24 0 36 0 37 20 19 11 -10
20 -21 20 -24z m173 25 c14 -11 15 -15 4 -25 -11 -8 -16 -5 -25 14 -13 28 -6
31 21 11z m401 -41 l6 -30 -20 24 c-21 24 -25 43 -13 55 8 8 18 -9 27 -49z
m389 15 c-9 -22 -22 -40 -30 -40 -9 0 -5 13 13 40 15 22 28 40 30 40 1 0 -5
-18 -13 -40z m-4046 8 c-3 -8 -6 -5 -6 6 -1 11 2 17 5 13 3 -3 4 -12 1 -19z
m1543 9 c0 -8 -7 -14 -15 -14 -11 0 -12 4 -4 14 6 7 13 13 15 13 2 0 4 -6 4
-13z m460 7 c0 -21 -22 -42 -40 -37 -19 5 -19 6 3 24 22 18 37 24 37 13z m97
0 c-3 -3 -12 -4 -19 -1 -8 3 -5 6 6 6 11 1 17 -2 13 -5z m-3656 -80 c-14 -6
-38 -14 -53 -17 l-27 -7 25 51 26 51 28 -33 28 -34 -27 -11z m339 66 c0 -5 -2
-10 -4 -10 -3 0 -8 5 -11 10 -3 6 -1 10 4 10 6 0 11 -4 11 -10z m996 -6 c-3
-9 -6 -21 -6 -27 0 -6 -6 -2 -14 8 -16 22 -12 35 11 35 10 0 13 -6 9 -16z m74
12 c0 -3 -4 -8 -10 -11 -5 -3 -10 -1 -10 4 0 6 5 11 10 11 6 0 10 -2 10 -4z
m2549 -27 c-13 -25 -16 -24 -21 5 -4 19 -1 22 13 19 15 -4 16 -9 8 -24z m1106
21 c-3 -5 -14 -10 -23 -9 -14 0 -13 2 3 9 27 11 27 11 20 0z m65 3 c-1 -20
-18 -33 -34 -27 -17 6 -16 8 5 20 29 16 29 16 29 7z m-4740 -7 c0 -3 -4 -8
-10 -11 -5 -3 -10 -1 -10 4 0 6 5 11 10 11 6 0 10 -2 10 -4z m106 -23 c-7 -7
-26 7 -26 19 0 6 6 6 15 -2 9 -7 13 -15 11 -17z m791 -33 c45 -75 43 -102 -11
-157 -42 -42 -46 -44 -95 -42 -28 2 -55 5 -60 9 -6 3 -18 34 -27 69 l-16 63
34 41 c60 75 61 76 102 74 37 -2 42 -6 73 -57z m1256 25 c-20 -41 -27 -41 -54
3 l-21 32 46 0 46 0 -17 -35z m1697 5 c12 -23 12 -24 -3 -11 -10 7 -17 20 -17
29 0 18 3 16 20 -18z m-3766 -12 c17 -13 14 -16 -37 -35 l-55 -20 21 43 c21
45 25 45 71 12z m1026 22 c12 -7 11 -12 -5 -30 -18 -20 -20 -20 -26 -3 -17 41
-3 55 31 33z m383 3 c3 -5 0 -20 -6 -35 l-12 -27 -32 29 c-26 24 -29 30 -15
33 29 8 61 7 65 0z m768 -10 c-13 -24 -40 -59 -41 -53 0 3 -4 20 -9 38 -10 32
-9 32 25 32 30 0 33 -2 25 -17z m647 -18 c-38 -35 -58 -44 -58 -25 0 6 0 13
-1 17 0 5 72 39 91 42 3 0 -12 -15 -32 -34z m794 26 c4 -1 0 -16 -9 -35 l-16
-34 -26 31 c-14 18 -30 36 -36 40 -5 4 10 6 35 3 25 -3 48 -5 52 -5z m783 -1
c17 -7 14 -9 -13 -9 -20 -1 -31 3 -27 9 7 12 13 12 40 0z m82 4 c-3 -3 -12 -4
-19 -1 -8 3 -5 6 6 6 11 1 17 -2 13 -5z m-2907 -50 c30 -8 56 -16 58 -18 2 -2
-8 -13 -22 -24 -15 -11 -26 -27 -26 -35 0 -8 -7 -20 -16 -28 -11 -9 -14 -22
-9 -47 6 -31 4 -33 -14 -27 -12 3 -33 8 -48 11 -39 7 -39 8 -62 80 -14 43 -20
77 -15 99 l6 33 46 -14 c26 -8 72 -22 102 -30z m700 -36 c0 -4 -28 -8 -61 -8
-61 0 -61 0 -47 23 8 12 21 33 28 47 l13 24 33 -39 c19 -21 34 -42 34 -47z
m1270 41 l22 -30 -34 6 c-42 8 -48 15 -37 43 10 27 20 23 49 -19z m1160 26 c7
-9 11 -18 8 -20 -9 -10 -38 7 -38 21 0 18 14 18 30 -1z m-4797 -15 c-3 -12 -8
-19 -11 -16 -5 6 5 36 12 36 2 0 2 -9 -1 -20z m1036 -4 l23 -24 -36 8 c-20 4
-36 5 -36 2 0 -3 -3 -2 -7 1 -5 5 18 30 33 37 0 0 11 -11 23 -24z m1163 -6 c5
-35 -3 -44 -31 -35 -19 6 -19 7 -3 35 21 38 29 38 34 0z m2197 14 c2 -2 -11
-22 -29 -44 -18 -23 -36 -38 -40 -33 -4 4 -14 27 -24 51 l-16 43 52 -7 c29 -4
55 -8 57 -10z m640 -6 c-17 -34 -19 -34 -19 -5 0 18 5 27 15 27 13 0 14 -4 4
-22z m-3344 2 c3 -6 -1 -7 -9 -4 -18 7 -21 14 -7 14 6 0 13 -4 16 -10z m1004
-7 c-7 -10 -15 -20 -16 -22 -2 -2 -3 5 -3 17 0 14 6 22 16 22 14 0 15 -3 3
-17z m56 7 c3 -5 -8 -16 -26 -25 l-31 -17 18 26 c21 27 30 31 39 16z m395 0
c0 -5 -2 -10 -4 -10 -3 0 -8 5 -11 10 -3 6 -1 10 4 10 6 0 11 -4 11 -10z m79
7 c-2 -1 -12 -9 -21 -16 -15 -12 -18 -11 -18 3 0 10 8 16 22 16 12 0 19 -1 17
-3z m76 -47 c19 -37 22 -52 13 -55 -29 -11 -112 -34 -114 -32 -1 1 -5 21 -9
44 -6 40 -5 42 37 67 24 14 44 26 45 26 2 0 14 -23 28 -50z m-175 0 c-14 -27
-17 -25 -22 9 -4 26 -2 29 14 20 15 -8 16 -14 8 -29z m1410 34 c0 -9 -54 -84
-61 -84 -6 0 -39 73 -39 85 0 3 23 5 50 5 28 0 50 -3 50 -6z m219 -59 l18 -60
-23 -25 c-19 -21 -24 -38 -26 -100 l-3 -75 -61 -3 -60 -3 -16 57 c-33 116 3
252 69 264 74 14 82 10 102 -55z m231 53 c-1 -31 -17 -41 -56 -33 l-39 7 40
19 c49 22 55 22 55 7z m-4650 -12 c-7 -10 -21 -11 -46 -6 -53 12 -51 18 6 18
42 1 49 -2 40 -12z m823 -7 c4 -15 2 -19 -10 -15 -8 3 -19 6 -25 6 -6 0 -6 6
2 15 17 21 27 19 33 -6z m2691 12 c3 -5 -1 -12 -10 -15 -25 -10 -34 -7 -34 9
0 16 35 21 44 6z m586 -37 c11 -26 20 -48 20 -49 0 -2 -15 -2 -32 0 -18 2 -43
4 -56 4 -17 1 -21 5 -15 15 9 15 57 76 60 76 1 0 11 -21 23 -46z m-4253 6 c28
-16 54 -34 57 -39 4 -5 -12 -24 -34 -41 -33 -26 -47 -31 -72 -26 -29 6 -128
73 -128 87 0 6 95 46 115 48 6 0 33 -13 62 -29z m2273 26 c0 -2 -7 -7 -16 -10
-8 -3 -12 -2 -9 4 6 10 25 14 25 6z m193 -16 c-3 -11 -9 -20 -14 -20 -10 0
-12 24 -2 33 13 13 21 7 16 -13z m157 5 c0 -8 -2 -15 -4 -15 -2 0 -6 7 -10 15
-3 8 -1 15 4 15 6 0 10 -7 10 -15z m954 0 c3 -9 0 -15 -9 -15 -9 0 -12 6 -9
15 4 8 7 15 9 15 2 0 5 -7 9 -15z m508 -9 c3 -16 1 -23 -7 -19 -7 2 -11 13 -8
24 7 25 10 24 15 -5z m541 -43 l-17 -26 -13 29 c-7 16 -12 37 -13 47 0 17 2
17 30 -3 29 -21 29 -22 13 -47z m-5202 33 c-13 -14 -29 -22 -37 -19 -22 8 -16
18 19 30 17 5 34 11 36 12 3 0 -6 -10 -18 -23z m147 -11 c1 -1 -7 -10 -17 -19
-19 -17 -20 -17 -35 13 -9 16 -16 33 -16 36 0 4 56 -20 68 -30z m515 21 c15
-4 25 -11 22 -16 -6 -10 -62 6 -71 21 -3 5 1 7 8 5 7 -3 26 -7 41 -10z m727 4
c13 -8 13 -10 -2 -10 -9 0 -20 5 -23 10 -8 13 5 13 25 0z m432 -1 c21 -11 21
-12 -3 -25 -34 -19 -37 -17 -31 11 5 29 6 29 34 14z m1356 -18 c15 -22 15 -23
-14 -18 -16 3 -37 8 -48 13 -17 7 -17 8 5 20 30 16 38 14 57 -15z m1769 -25
c-3 -8 -17 -16 -31 -18 l-25 -5 27 38 c23 32 27 35 30 18 2 -11 1 -26 -1 -33z
m-4612 34 c4 -6 -6 -10 -22 -10 -22 0 -25 2 -13 10 19 12 27 12 35 0z m520
-18 c-7 -8 -35 7 -35 18 0 6 7 6 20 -2 10 -7 17 -14 15 -16z m2919 20 c2 -4
-4 -13 -14 -20 -16 -10 -18 -8 -17 8 1 20 21 27 31 12z m193 -48 c20 -71 0
-215 -30 -227 -9 -3 -12 12 -12 56 l0 61 -42 4 c-34 3 -49 -2 -78 -24 -20 -15
-38 -25 -40 -22 -2 2 -7 31 -11 63 -3 33 -8 63 -10 67 -5 8 53 58 69 59 36 2
102 11 105 14 2 2 11 2 20 1 10 -2 21 -21 29 -52z m2124 9 c24 -27 56 -61 69
-76 l25 -29 -30 7 c-26 6 -142 53 -154 62 -6 4 31 83 38 83 4 0 27 -21 52 -47z
m-6041 12 c0 -16 -6 -25 -15 -25 -18 0 -19 4 -3 30 16 26 18 25 18 -5z m1391
-25 l-19 -32 -18 26 c-19 30 -12 43 26 48 33 4 35 -3 11 -42z m2609 40 c8 -5
11 -10 5 -10 -5 0 -17 5 -25 10 -8 5 -10 10 -5 10 6 0 17 -5 25 -10z m230 -21
c0 -32 0 -32 -49 0 l-24 15 24 7 c43 12 49 10 49 -22z m48 1 c-12 -16 -23 -30
-24 -30 -1 0 -4 14 -6 30 -4 27 -2 30 24 30 l29 0 -23 -30z m-2821 5 c10 -8
27 -21 38 -29 26 -19 20 -23 -40 -31 -28 -4 -54 -9 -58 -12 -5 -3 -4 4 2 15 6
11 15 32 21 46 11 30 14 31 37 11z m2053 -16 c0 -28 -2 -30 -17 -18 -10 7 -20
15 -22 16 -6 4 20 33 30 33 5 0 9 -14 9 -31z m-3470 -11 c0 -5 -4 -8 -10 -8
-5 0 -10 10 -10 23 0 18 2 19 10 7 5 -8 10 -18 10 -22z m100 22 c-20 -13 -33
-13 -25 0 3 6 14 10 23 10 15 0 15 -2 2 -10z m130 0 c0 -14 -28 -26 -106 -44
-39 -8 -91 -27 -115 -41 -55 -31 -115 -33 -170 -4 -23 11 -47 18 -53 16 -7 -3
-19 -2 -26 3 -9 6 -4 16 21 39 41 37 43 37 56 9 7 -16 32 -31 77 -47 61 -21
69 -22 84 -8 26 24 132 70 177 78 22 3 43 7 48 8 4 0 7 -3 7 -9z m1540 0 c0
-5 -8 -10 -17 -10 -15 0 -16 2 -3 10 19 12 20 12 20 0z m675 0 c-3 -5 -11 -10
-16 -10 -6 0 -7 5 -4 10 3 6 11 10 16 10 6 0 7 -4 4 -10z m225 -53 c-19 -57
-29 -60 -93 -34 -27 12 -33 20 -35 50 l-3 36 63 3 c88 4 87 5 68 -55z m95 42
c11 -17 -13 -17 -30 1 -16 18 -16 18 4 13 12 -3 24 -9 26 -14z m94 -3 c7 -9 9
-29 5 -55 -6 -40 -17 -49 -40 -33 -15 9 -23 91 -9 96 19 8 33 6 44 -8z m171 4
c0 -5 -4 -10 -9 -10 -6 0 -13 5 -16 10 -3 6 1 10 9 10 9 0 16 -4 16 -10z m887
-9 c7 -10 9 -22 6 -25 -12 -12 -21 -6 -25 19 -6 30 3 32 19 6z m236 -18 l27
-21 -35 -21 c-19 -11 -35 -17 -36 -13 0 4 -3 27 -5 51 -4 36 -3 43 8 35 7 -6
25 -20 41 -31z m1058 16 c27 -12 49 -26 49 -31 0 -5 -13 -31 -28 -58 l-28 -49
-48 48 -48 49 23 31 c12 17 24 31 27 31 2 0 26 -10 53 -21z m-4946 1 c-3 -5
-11 -10 -16 -10 -6 0 -7 5 -4 10 3 6 11 10 16 10 6 0 7 -4 4 -10z m2252 -5 c9
-24 -1 -27 -15 -5 -8 13 -8 20 -2 20 6 0 13 -7 17 -15z m223 -25 c0 -4 -8 -18
-18 -30 -18 -23 -18 -23 -18 23 1 43 2 45 18 30 10 -9 18 -19 18 -23z m1340 3
l0 -36 -26 24 c-23 22 -24 24 -8 36 28 20 34 16 34 -24z m-3749 11 c12 -14 11
-16 -5 -13 -11 2 -21 10 -24 17 -5 17 13 15 29 -4z m959 1 c10 -12 10 -15 -4
-15 -9 0 -16 7 -16 15 0 8 2 15 4 15 2 0 9 -7 16 -15z m1086 -8 c1 -1 -10 -27
-24 -57 -34 -68 -66 -78 -87 -28 -14 36 -26 94 -19 101 4 4 125 -11 130 -16z
m109 3 c18 -20 18 -20 -13 -9 -18 6 -29 15 -26 20 8 14 19 11 39 -11z m-2781
-5 c-7 -16 -44 -21 -44 -6 0 8 16 16 42 20 4 0 5 -6 2 -14z m2056 0 c0 -9 -6
-12 -15 -9 -8 4 -15 10 -15 15 0 5 7 9 15 9 8 0 15 -7 15 -15z m1302 -1 c-22
-15 -42 -12 -42 7 0 5 15 9 32 9 32 0 32 0 10 -16z m292 4 c-8 -13 -45 -55
-116 -133 -21 -22 -38 -34 -38 -27 0 7 18 32 40 56 22 24 40 52 40 62 0 34 22
51 63 53 12 1 16 -3 11 -11z m1503 -8 c-5 -31 -15 -35 -38 -14 l-21 19 28 6
c16 4 30 7 31 8 2 0 2 -8 0 -19z m500 14 c-3 -3 -12 -4 -19 -1 -8 3 -5 6 6 6
11 1 17 -2 13 -5z m-4795 -34 c-3 -23 -9 -30 -26 -30 -35 0 -37 10 -8 36 35
31 39 30 34 -6z m58 21 c0 -5 -7 -14 -15 -21 -13 -10 -15 -9 -15 9 0 12 6 21
15 21 8 0 15 -4 15 -9z m275 -1 c-3 -5 -14 -10 -23 -10 -15 0 -15 2 -2 10 20
13 33 13 25 0z m1109 -5 c-4 -8 -8 -15 -10 -15 -2 0 -4 7 -4 15 0 8 4 15 10
15 5 0 7 -7 4 -15z m497 -26 c20 -8 29 -23 46 -79 l20 -70 -21 -5 c-88 -20
-115 -25 -147 -25 -53 0 -66 20 -36 56 18 21 26 47 31 96 l8 68 36 -16 c20 -9
49 -20 63 -25z m434 -17 c6 -21 4 -23 -21 -20 -29 3 -29 3 -25 65 1 16 3 16
20 -2 10 -11 22 -30 26 -43z m315 48 c0 -5 -5 -10 -11 -10 -5 0 -7 5 -4 10 3
6 8 10 11 10 2 0 4 -4 4 -10z m200 -5 c13 -16 6 -50 -9 -41 -11 7 -21 56 -11
56 4 0 13 -7 20 -15z m1242 3 c-17 -8 -26 -8 -34 0 -9 9 -4 12 23 11 32 0 33
-1 11 -11z m-4552 -28 c-40 -34 -43 -35 -60 -15 -10 12 -10 16 1 19 8 2 28 9
44 14 49 17 52 14 15 -18z m90 -12 c0 -4 -6 -8 -12 -9 -7 0 -29 -2 -48 -4
l-35 -4 35 30 c32 27 36 28 47 12 7 -9 13 -20 13 -25z m3153 -30 c-2 -39 -5
-73 -7 -75 -2 -3 -26 -10 -53 -17 l-50 -13 56 88 c30 49 55 89 56 89 1 0 0
-32 -2 -72z m-2708 42 c18 -20 17 -20 -25 -20 -43 0 -43 0 -24 19 24 25 27 25
49 1z m892 14 c-3 -3 -12 -4 -19 -1 -8 3 -5 6 6 6 11 1 17 -2 13 -5z m257 -10
c3 -8 2 -12 -4 -9 -6 3 -10 10 -10 16 0 14 7 11 14 -7z m346 6 c-20 -13 -43
-13 -35 0 3 6 16 10 28 10 18 0 19 -2 7 -10z m930 0 c0 -5 -7 -10 -16 -10 -8
0 -12 5 -9 10 3 6 10 10 16 10 5 0 9 -4 9 -10z m323 -81 c5 -78 3 -86 -36
-105 l-30 -16 21 29 c17 24 22 47 23 108 2 90 16 81 22 -16z m150 70 c-12 -13
-26 -18 -33 -14 -9 6 -6 12 11 21 36 20 46 17 22 -7z m47 -15 c-10 -43 -13
-46 -34 -38 -21 8 -20 16 7 47 30 35 36 33 27 -9z m365 26 c3 -5 1 -10 -4 -10
-6 0 -11 5 -11 10 0 6 2 10 4 10 3 0 8 -4 11 -10z m553 -10 c-7 -11 -15 -15
-17 -9 -2 6 3 15 10 20 20 12 21 11 7 -11z m202 15 c0 -3 -9 -14 -19 -24 -14
-14 -22 -16 -30 -8 -21 21 -16 25 42 36 4 0 7 -1 7 -4z m85 -25 c3 -6 0 -10
-7 -11 -7 0 -21 -2 -31 -4 -13 -2 -17 1 -13 12 3 8 6 19 6 24 0 11 35 -6 45
-21z m585 21 c0 -5 -15 -20 -34 -35 -36 -27 -46 -22 -46 25 0 16 7 19 40 19
22 0 40 -4 40 -9z m457 -26 c-6 -19 -13 -35 -17 -35 -10 0 -40 57 -33 64 3 3
19 6 34 6 26 0 27 -1 16 -35z m106 3 c20 -10 18 -13 -32 -30 -30 -10 -56 -16
-59 -14 -2 3 1 20 8 40 10 32 13 34 36 26 14 -6 35 -15 47 -22z m-4737 -4
c-30 -21 -44 -16 -17 7 13 11 27 17 30 13 3 -3 -3 -12 -13 -20z m64 22 c0 -2
-7 -6 -15 -10 -8 -3 -15 -1 -15 4 0 6 7 10 15 10 8 0 15 -2 15 -4z m160 -17
c-9 -15 -15 -18 -23 -10 -6 6 -19 11 -29 11 -36 0 -17 16 23 18 38 3 40 2 29
-19z m187 -1 c-3 -8 -6 -5 -6 6 -1 11 2 17 5 13 3 -3 4 -12 1 -19z m1127 -9
c-3 -5 -17 -9 -31 -9 -25 0 -26 0 -8 20 14 15 21 17 31 9 8 -6 11 -15 8 -20z
m1826 23 c0 -5 -11 -14 -25 -20 -26 -12 -33 -4 -13 16 14 14 38 16 38 4z
m-4960 -23 c7 -11 10 -22 8 -23 -12 -7 -80 -36 -84 -36 -8 0 50 80 58 80 4 0
12 -9 18 -21z m865 -13 l60 -13 3 -51 c3 -50 -4 -62 -23 -43 -20 19 -135 72
-144 67 -5 -4 -17 -26 -27 -51 -9 -25 -20 -45 -24 -45 -3 0 -14 16 -24 36 -19
40 -21 35 42 106 21 23 28 25 51 16 14 -5 53 -15 86 -22z m1058 19 c-3 -9 -8
-14 -10 -11 -3 3 -2 9 2 15 9 16 15 13 8 -4z m487 -6 c0 -5 -10 -9 -21 -9 -18
0 -19 2 -9 15 12 15 30 12 30 -6z m1914 6 c3 -8 2 -15 -3 -15 -5 0 -14 7 -21
15 -10 12 -10 15 3 15 8 0 17 -7 21 -15z m99 -17 c-9 -15 -23 -8 -23 12 0 17
2 19 14 8 8 -7 12 -16 9 -20z m1068 1 c31 -29 32 -31 9 -24 -67 21 -73 25 -60
40 16 19 12 20 51 -16z m358 -11 c22 -24 37 -46 33 -49 -4 -4 -33 -10 -65 -14
l-57 -6 20 51 c11 28 20 53 20 55 0 11 11 3 49 -37z m255 18 c-14 -22 -19 -23
-40 -14 -26 12 -22 23 11 31 43 10 46 8 29 -17z m38 -34 c-33 -5 -36 2 -16 33
l17 27 12 -29 c11 -26 10 -28 -13 -31z m-5952 22 c0 -15 -25 -27 -77 -37 -42
-8 -35 12 14 40 38 22 63 21 63 -3z m240 6 c0 -5 -7 -7 -15 -4 -8 4 -12 10 -9
15 6 11 24 2 24 -11z m1306 -7 l34 -28 -43 -12 c-23 -6 -64 -20 -90 -29 l-49
-17 -24 28 c-13 16 -21 32 -17 36 9 9 122 47 141 48 7 1 29 -11 48 -26z m250
-30 c-3 -4 -18 -1 -33 6 l-27 13 24 18 c25 19 25 19 34 -6 4 -14 5 -28 2 -31z
m78 39 c15 -18 15 -19 -10 -31 -32 -14 -34 -13 -27 22 6 32 14 34 37 9z m501
9 c7 -12 -12 -24 -25 -16 -11 7 -4 25 10 25 5 0 11 -4 15 -9z m1939 -26 c-13
-20 -19 -23 -25 -13 -6 8 -1 19 12 31 29 23 35 15 13 -18z m346 19 c0 -8 -5
-12 -10 -9 -6 4 -8 11 -5 16 9 14 15 11 15 -7z m194 -88 c-4 -30 -14 -49 -37
-69 l-31 -27 -53 52 c-29 29 -53 60 -53 70 0 11 20 28 58 47 l57 29 32 -30
c28 -27 31 -36 27 -72z m582 72 c-2 -21 -9 -34 -20 -36 -9 -2 -16 0 -16 3 0 8
33 65 37 65 2 0 1 -15 -1 -32z m332 26 l23 -7 -28 -17 c-31 -19 -38 -18 -53
11 -9 16 -7 19 12 19 13 0 33 -3 46 -6z m-3225 -36 c-3 -16 -9 -28 -14 -28
-12 0 -11 4 3 35 14 31 18 29 11 -7z m1277 7 c0 -14 -4 -25 -10 -25 -11 0 -14
33 -3 43 11 11 13 8 13 -18z m-2220 5 c8 -5 11 -10 5 -10 -5 0 -17 5 -25 10
-8 5 -10 10 -5 10 6 0 17 -5 25 -10z m419 -43 l8 -47 -38 31 c-22 17 -39 32
-39 35 0 4 54 33 57 30 2 -2 7 -24 12 -49z m91 22 c0 -3 -13 -23 -29 -43 -32
-40 -33 -39 -46 35 l-7 37 41 -11 c23 -6 41 -14 41 -18z m690 -3 c0 -2 -6 -6
-14 -9 -9 -4 -21 5 -31 19 l-16 25 30 -16 c17 -8 31 -17 31 -19z m1324 15 c15
-16 15 -19 1 -31 -19 -15 -24 -11 -31 24 -5 31 6 33 30 7z m1434 -6 c-6 -13
-15 -22 -20 -19 -5 3 -2 15 8 25 23 25 26 24 12 -6z m322 -10 c0 -2 -16 -13
-36 -24 l-35 -21 6 22 c4 13 9 31 11 40 5 16 7 16 30 2 13 -9 24 -18 24 -19z
m-5486 13 c-4 -7 -19 -31 -32 -52 l-24 -39 -24 39 c-13 21 -24 42 -24 46 0 6
34 13 88 16 16 2 21 -2 16 -10z m506 3 c0 -13 -21 -27 -62 -40 -50 -16 -61
-34 -15 -26 32 6 35 5 50 -32 8 -21 12 -39 9 -40 -4 -1 -32 3 -62 10 l-55 12
-3 54 c-3 37 0 56 10 62 17 11 128 11 128 0z m2338 -81 c13 -14 30 -38 39 -55
l16 -30 -29 25 c-16 14 -46 42 -67 63 -32 30 -46 37 -78 37 -24 0 -38 4 -34
10 3 6 14 10 25 10 10 0 21 7 24 17 6 14 12 11 43 -18 21 -19 48 -45 61 -59z
m2562 61 c-4 -16 -6 -32 -2 -35 3 -3 1 -6 -5 -6 -6 0 -16 7 -23 15 -10 12 -8
18 11 35 13 10 25 19 26 20 1 0 -2 -13 -7 -29z m360 20 c0 -6 -10 -22 -23 -37
-22 -26 -24 -26 -53 -11 l-29 15 30 11 c17 6 39 15 50 20 26 12 25 12 25 2z
m95 -1 c-3 -5 -13 -10 -21 -10 -8 0 -14 5 -14 10 0 6 9 10 21 10 11 0 17 -4
14 -10z m-6155 -15 c-7 -8 -17 -12 -23 -8 -6 4 -3 9 9 14 27 11 28 11 14 -6z
m54 0 c4 -10 -1 -15 -16 -15 -17 0 -18 2 -8 15 7 8 14 15 15 15 2 0 5 -7 9
-15z m76 11 c0 -2 -9 -6 -20 -9 -11 -3 -18 -1 -14 4 5 9 34 13 34 5z m2134 -4
c2 -4 1 -13 -3 -20 -4 -8 -11 -5 -19 8 -10 16 -10 20 2 20 8 0 17 -4 20 -8z
m556 -7 c-14 -16 -40 -20 -40 -6 0 10 17 19 39 20 11 1 11 -2 1 -14z m2040 0
c-7 -8 -18 -15 -24 -15 -6 0 -2 7 8 15 25 19 32 19 16 0z m369 -66 c1 -6 -76
-29 -93 -29 -3 0 -6 25 -6 55 l0 55 49 -37 c28 -21 50 -41 50 -44z m877 52
c-12 -19 -24 -12 -19 10 4 13 9 17 15 11 6 -6 7 -15 4 -21z m-5941 -34 c4 -26
4 -47 0 -47 -4 0 -22 16 -41 35 l-34 35 33 14 c17 7 33 13 34 12 1 -1 5 -23 8
-49z m152 38 c0 -8 -9 -23 -19 -32 -18 -16 -18 -16 -12 3 7 17 24 44 29 44 1
0 2 -7 2 -15z m827 6 c3 -5 -3 -11 -14 -14 -13 -3 -20 0 -20 9 0 15 26 19 34
5z m518 -29 l28 -25 -22 -36 c-12 -20 -24 -39 -28 -44 -13 -16 -140 33 -176
68 -41 40 -41 40 68 59 81 14 91 13 130 -22z m465 32 c-3 -3 -12 -4 -19 -1 -8
3 -5 6 6 6 11 1 17 -2 13 -5z m533 -36 c0 -4 -4 -8 -10 -8 -5 0 -10 4 -10 9 0
5 -3 18 -6 28 -5 16 -4 16 10 -1 9 -11 16 -23 16 -28z m1200 32 c-20 -13 -33
-13 -25 0 3 6 14 10 23 10 15 0 15 -2 2 -10z m111 -53 c-13 -13 -14 5 -3 43
l7 25 3 -29 c2 -16 -1 -33 -7 -39z m-4282 13 c-27 -52 -36 -56 -59 -28 l-18
23 41 22 c57 30 60 29 36 -17z m2606 30 c3 -5 1 -10 -4 -10 -6 0 -11 5 -11 10
0 6 2 10 4 10 3 0 8 -4 11 -10z m2960 -20 c12 -20 -12 -16 -40 6 l-30 24 33
-11 c17 -6 34 -15 37 -19z m920 13 c-2 -10 -4 -29 -5 -43 l-2 -25 -10 28 c-10
29 -5 57 11 57 5 0 8 -8 6 -17z m-6445 -13 c0 -10 -9 -24 -20 -30 -19 -10 -19
-10 -2 20 20 35 22 36 22 10z m160 -16 l0 -35 -30 17 -29 18 27 18 c15 10 28
18 30 18 1 0 2 -16 2 -36z m58 -13 c-12 -14 -26 -30 -30 -35 -5 -6 -8 11 -8
36 l0 47 31 -11 30 -10 -23 -27z m906 41 c3 -5 -4 -23 -15 -41 l-20 -33 -20
26 c-17 22 -19 29 -9 41 13 16 56 20 64 7z m2966 -1 c0 -4 -19 -21 -42 -36
l-43 -27 35 35 c35 36 50 45 50 28z m39 -38 c-26 -61 -30 -64 -28 -22 2 20 11
41 23 51 12 10 22 18 23 18 1 0 -7 -21 -18 -47z m1051 21 c0 -14 -4 -23 -9
-20 -5 3 -7 15 -4 26 7 28 13 25 13 -6z m876 -71 c-5 -5 -65 38 -65 47 -1 3
14 14 32 26 l32 21 3 -45 c2 -24 1 -46 -2 -49z m104 53 c0 -2 -18 -15 -40 -30
l-40 -26 0 50 0 50 40 -20 c22 -11 40 -22 40 -24z m0 34 c0 -5 -7 -7 -15 -4
-8 4 -15 8 -15 10 0 2 7 4 15 4 8 0 15 -4 15 -10z m364 -55 c26 -34 40 -61 33
-63 -7 -1 -32 4 -57 11 -35 10 -45 18 -43 33 1 10 3 34 5 52 1 18 5 31 10 30
4 -2 27 -30 52 -63z m-6039 -16 c-14 -22 -30 -6 -32 33 l-2 41 20 -32 c11 -18
17 -36 14 -42z m1555 61 c0 -5 -7 -10 -16 -10 -8 0 -12 5 -9 10 3 6 10 10 16
10 5 0 9 -4 9 -10z m3172 -20 c3 -16 1 -30 -4 -30 -4 0 -8 14 -8 30 0 17 2 30
4 30 2 0 6 -13 8 -30z m-4885 6 c-3 -8 -11 -32 -18 -55 -8 -27 -18 -41 -29
-41 -14 0 -17 8 -15 43 2 54 7 62 40 65 20 1 26 -2 22 -12z m461 -27 c4 -40
-5 -35 -18 10 -7 24 -6 31 3 28 7 -2 13 -19 15 -38z m1398 -13 c-6 -22 -26
-15 -40 13 -22 42 -20 46 13 19 17 -13 29 -27 27 -32z m124 35 c0 -19 -17 -38
-25 -29 -7 7 7 48 16 48 5 0 9 -9 9 -19z m270 -2 c0 -6 -4 -7 -10 -4 -5 3 -10
11 -10 16 0 6 5 7 10 4 6 -3 10 -11 10 -16z m3836 -46 c-4 -4 -43 12 -55 23
-2 2 4 13 15 25 l19 21 13 -32 c7 -18 11 -34 8 -37z m-5826 48 c0 -5 -7 -12
-16 -15 -14 -5 -15 -4 -4 9 14 17 20 19 20 6z m1496 -16 c0 -25 -7 -31 -19
-19 -5 6 9 44 16 44 2 0 3 -11 3 -25z m537 -5 c4 -17 3 -19 -9 -9 -8 6 -14 18
-14 26 0 20 16 8 23 -17z m1512 -59 l-27 -26 17 40 c10 22 20 49 24 60 5 16 7
12 9 -14 3 -26 -3 -40 -23 -60z m283 60 c-7 -12 -16 -21 -20 -21 -10 0 3 33
16 42 17 11 18 2 4 -21z m1504 18 c27 -9 38 -19 43 -38 3 -14 8 -34 11 -43 5
-17 2 -16 -39 1 -42 18 -49 19 -102 5 -32 -8 -58 -14 -59 -12 -8 15 -35 78
-33 79 1 0 22 3 47 6 25 3 46 6 47 7 8 7 54 4 85 -5z m-5676 -36 c-3 -21 -5
-39 -6 -41 0 -1 -9 2 -20 8 -21 11 -21 11 2 40 13 16 24 29 26 29 2 1 1 -16
-2 -36z m165 -15 c8 -14 6 -18 -9 -18 -13 0 -22 11 -30 36 -11 36 -11 36 10
18 11 -11 24 -27 29 -36z m354 -7 l13 -51 -26 6 c-41 10 -42 11 -25 60 8 25
17 43 20 41 2 -3 10 -28 18 -56z m114 21 l23 -16 -47 -23 c-26 -14 -49 -22
-52 -20 -2 3 -1 26 2 51 8 50 9 50 74 8z m741 13 c-12 -15 -30 -12 -30 5 0 8
31 19 39 13 2 -1 -2 -9 -9 -18z m88 -4 c15 -21 14 -22 -14 -17 -16 2 -32 5
-37 5 -4 1 -2 10 5 21 15 24 26 22 46 -9z m556 14 c-4 -8 -11 -15 -16 -15 -6
0 -5 6 2 15 7 8 14 15 16 15 2 0 1 -7 -2 -15z m171 6 c3 -5 1 -12 -5 -16 -5
-3 -10 1 -10 9 0 18 6 21 15 7z m848 2 c3 -5 -3 -16 -13 -26 -17 -17 -17 -17
-13 8 5 24 17 33 26 18z m217 -3 c0 -5 -2 -10 -4 -10 -3 0 -8 5 -11 10 -3 6
-1 10 4 10 6 0 11 -4 11 -10z m582 -42 c-2 -29 -5 -54 -6 -55 0 0 -16 11 -34
26 l-33 28 38 26 c21 14 38 26 39 26 0 1 -1 -23 -4 -51z m-3719 -20 c-4 -8
-43 -11 -43 -4 0 1 5 18 11 36 l12 33 12 -29 c7 -16 10 -32 8 -36z m807 25 c0
-7 -6 -13 -14 -13 -11 0 -15 24 -7 50 2 9 21 -24 21 -37z m953 17 c3 -11 1
-20 -4 -20 -5 0 -9 9 -9 20 0 11 2 20 4 20 2 0 6 -9 9 -20z m425 -28 l11 -33
-32 18 c-18 10 -34 19 -36 20 -2 2 4 12 14 23 21 23 28 19 43 -28z m45 -8 c8
-42 -20 -27 -31 17 -10 39 -9 40 8 24 10 -9 20 -27 23 -41z m2005 44 c38 -3
40 -10 7 -32 -32 -21 -30 -21 -56 15 -20 29 -21 31 -3 25 10 -3 34 -7 52 -8z
m-4700 -39 c-17 -11 -27 -2 -25 21 1 18 2 18 19 3 14 -12 15 -18 6 -24z m112
37 c0 -2 -7 -7 -16 -10 -8 -3 -12 -2 -9 4 6 10 25 14 25 6z m80 -17 c11 -19
10 -20 -9 -9 -22 11 -29 30 -11 30 5 0 14 -9 20 -21z m70 -26 c0 -17 -32 2
-49 29 -12 20 -12 20 18 2 17 -10 31 -24 31 -31z m1834 39 c3 -5 -9 -16 -26
-26 l-30 -18 17 26 c18 27 30 32 39 18z m2339 -7 c-3 -9 -8 -14 -10 -11 -3 3
-2 9 2 15 9 16 15 13 8 -4z m458 -11 c14 -38 6 -39 -42 -11 -33 20 -38 26 -23
30 41 10 55 6 65 -19z m1416 0 c13 -20 12 -24 -16 -44 -28 -19 -34 -20 -67 -8
l-36 13 39 32 c42 37 59 38 80 7z m-2872 -4 c18 -19 17 -20 -6 -21 -13 0 -34
-2 -47 -5 -17 -3 -21 -1 -16 8 26 43 43 47 69 18z m520 10 c3 -5 1 -10 -4 -10
-6 0 -11 5 -11 10 0 6 2 10 4 10 3 0 8 -4 11 -10z m1705 -9 c-11 -21 -30 -37
-30 -25 0 8 30 44 37 44 2 0 -1 -9 -7 -19z m-4983 3 c-3 -3 -12 -4 -19 -1 -8
3 -5 6 6 6 11 1 17 -2 13 -5z m547 -9 c-4 -8 -10 -12 -15 -9 -11 6 -2 24 11
24 5 0 7 -7 4 -15z m106 -6 c0 -5 -2 -9 -4 -9 -2 0 -11 -3 -19 -6 -12 -4 -14
0 -10 15 5 19 33 19 33 0z m2458 1 c-15 -23 -35 -33 -43 -20 -3 5 7 16 22 24
36 19 35 20 21 -4z m842 -12 c0 -4 -6 -5 -14 -2 -8 3 -12 12 -9 21 5 12 7 12
14 1 5 -7 9 -16 9 -20z m1506 1 c3 -6 1 -16 -5 -22 -13 -13 -26 -2 -36 31 -6
21 -5 23 13 13 12 -6 24 -16 28 -22z m334 21 c13 -9 13 -10 0 -10 -8 0 -22 5
-30 10 -13 9 -13 10 0 10 8 0 22 -5 30 -10z m-6347 -19 c4 -16 1 -17 -25 -7
-24 9 -26 12 -11 18 27 10 30 9 36 -11z m4460 4 c-3 -9 -8 -14 -10 -11 -3 3
-2 9 2 15 9 16 15 13 8 -4z m-3958 -4 c3 -6 -3 -9 -14 -8 -11 0 -17 5 -15 9 7
11 22 10 29 -1z m3253 -15 c3 -14 -3 -16 -33 -14 l-37 2 23 18 c25 21 43 19
47 -6z m-3688 4 c12 -8 11 -10 -7 -10 -13 0 -23 5 -23 10 0 13 11 13 30 0z
m5272 -16 c-4 -22 -6 -23 -31 -9 -57 31 -58 34 -10 33 42 0 45 -2 41 -24z
m124 -1 c-10 -10 -19 5 -10 18 6 11 8 11 12 0 2 -7 1 -15 -2 -18z m-5547 3 c9
-11 6 -12 -15 -8 -19 3 -22 7 -12 13 16 11 14 11 27 -5z m1101 4 c24 -15 7
-19 -20 -5 -15 8 -19 14 -10 14 8 1 22 -3 30 -9z m1230 -9 c0 -5 -9 -11 -20
-14 -22 -6 -26 3 -8 21 11 11 28 7 28 -7z m3135 10 c3 -5 1 -12 -5 -16 -5 -3
-10 1 -10 9 0 18 6 21 15 7z m-5400 -11 c3 -5 -1 -10 -9 -10 -8 0 -18 5 -21
10 -3 6 1 10 9 10 8 0 18 -4 21 -10z m3361 2 c-5 -8 -66 -4 -66 4 0 2 16 4 36
4 19 0 33 -4 30 -8z m809 -2 c-3 -5 -12 -10 -18 -10 -7 0 -6 4 3 10 19 12 23
12 15 0z m860 1 c3 -6 -3 -9 -14 -8 -11 0 -17 5 -15 9 7 11 22 10 29 -1z m414
-22 c-15 -9 -32 -2 -24 11 3 5 13 6 21 3 12 -4 13 -8 3 -14z m634 14 c-7 -2
-19 -2 -25 0 -7 3 -2 5 12 5 14 0 19 -2 13 -5z"/>
</g>
</svg>
