<?xml version="1.0" standalone="no"?>
<!DOCTYPE svg PUBLIC "-//W3C//DTD SVG 20010904//EN"
 "http://www.w3.org/TR/2001/REC-SVG-20010904/DTD/svg10.dtd">
<svg version="1.0" xmlns="http://www.w3.org/2000/svg"
 width="700.000000pt" height="700.000000pt" viewBox="0 0 700.000000 700.000000"
 preserveAspectRatio="xMidYMid meet">
<metadata>
Created by potrace 1.11, written by Peter Selinger 2001-2013
</metadata>
<g transform="translate(0.000000,700.000000) scale(0.100000,-0.100000)"
fill="#000000" stroke="none">
<path d="M4014 5158 c-38 -51 -74 -99 -81 -108 -7 -8 -148 -197 -315 -420
-166 -223 -306 -409 -311 -415 -14 -18 -202 -269 -260 -347 l-57 -78 212 -282
c116 -156 237 -317 268 -358 31 -41 82 -109 113 -150 31 -41 60 -79 65 -85 4
-5 41 -55 81 -110 41 -55 78 -105 83 -111 6 -8 -65 -66 -221 -183 -127 -94
-234 -171 -238 -171 -4 1 -51 59 -103 131 -52 72 -103 140 -112 152 -10 12
-78 103 -152 202 -74 99 -139 185 -143 190 -4 6 -183 244 -397 530 -214 286
-394 525 -399 530 -6 7 -11 6 -14 -3 -3 -7 -10 -18 -17 -25 -11 -12 -506 -670
-536 -714 -8 -12 -62 -83 -120 -159 -58 -76 -112 -148 -120 -160 -8 -12 -35
-48 -60 -80 -25 -32 -52 -68 -60 -80 -8 -12 -62 -84 -120 -160 -58 -76 -112
-148 -120 -160 -20 -29 -109 -148 -136 -182 -12 -15 -94 -124 -182 -242 -89
-118 -165 -220 -169 -225 -30 -38 -93 -125 -93 -130 0 -3 1440 -5 3200 -5
1760 0 3200 2 3200 5 0 4 -2587 3460 -2614 3492 -2 2 -34 -39 -72 -89z"/>
</g>
</svg>
