<svg version="1" xmlns="http://www.w3.org/2000/svg" width="933.333" height="933.333" viewBox="0 0 700.000000 700.000000"><path d="M381.9 210.3c-14.5 19.3-26.9 35.8-27.6 36.7-.6.8-2.7 3.5-4.5 6-1.9 2.5-7.4 9.9-12.4 16.5s-12.4 16.5-16.5 22-7.6 10.2-7.9 10.5c-.3.3-3.6 4.6-7.3 9.7l-6.7 9.2 29.7 39.8c16.4 21.9 30 40 30.4 40.3.6.6 20.2 27 21.3 28.8 1.1 1.7-1.8 4.3-20.4 18.2-26.1 19.5-24.2 18.3-26.1 16.3-.9-1-22.8-29.9-48.5-64.3-44.1-59-77.2-103.1-80.3-106.8-.9-1.1-1.5-1.3-1.8-.5-.3.9-10 13.8-14.1 18.8-.4.5-20.3 27.1-44.2 59-23.8 31.9-52.6 70.4-64 85.5-11.3 15.1-25.2 33.6-30.8 41-5.6 7.4-10.5 13.9-10.9 14.5-3.5 4.3-8.3 11.5-8.3 12.3 0 .8 91.6 1.1 319.5 1.1 247.2 0 319.4-.3 318.8-1.2-.4-.7-25.3-34.1-55.3-74.2-30-40.2-62.3-83.4-71.7-96-9.5-12.7-17.6-23.5-18-24-.5-.6-4.2-5.5-8.3-11-4.1-5.5-7.8-10.5-8.2-11-1.2-1.4-6-7.8-8.3-11-4.9-6.8-63.7-85.2-64.8-86.5-.7-.8-2.3-3.1-3.7-5-1.3-1.9-2.7-3.7-3-4-.3-.3-3.9-5-8-10.5s-8.4-11.2-9.6-12.7l-2.2-2.7-26.3 35.2z"/></svg>