<svg height="700pt" preserveAspectRatio="xMidYMid meet" viewBox="0 0 700 700" width="700pt" xmlns="http://www.w3.org/2000/svg"><path d="m4033 5299c-48-62-63-89-63-114 0-52-7-62-40-57-28 4-29 3-27-37 2-41 1-42-58-77-33-19-69-39-81-45-11-6-26-26-33-45s-38-65-70-102c-31-37-62-80-70-96-7-17-32-48-57-70-24-22-44-44-44-50 0-48-28-93-103-170-45-46-98-105-117-132-48-67-90-160-90-201 0-24-10-47-32-75-18-22-38-56-44-76l-10-37-13 50c-12 49-13 50-29 28-9-11-34-53-55-92-30-57-42-71-61-71-12 0-25-3-28-6-8-7 36-54 50-54 20 0 49-49 68-113l18-65 91-53 90-54 70-138c60-118 82-150 160-234 49-53 113-134 141-179 29-45 83-124 121-176 118-158 117-131 10-204-51-35-108-78-127-96s-65-48-102-66c-40-20-70-41-73-53-9-28-36-36-104-29-53 5-65 11-108 50-26 25-67 54-90 64s-40 22-38 26c3 4 23 10 45 14l41 6-37 46c-20 24-44 44-53 42-26-4-63 22-57 38 9 23-33 113-79 170-23 28-57 77-75 110-36 63-110 154-175 215-22 20-57 71-78 112-28 54-62 97-124 158-109 108-129 135-113 154 9 11 5 20-24 45-19 17-38 40-41 51-4 10-15 19-25 19-22 0-52 40-71 95-7 22-21 47-30 55s-32 38-50 66c-19 28-64 77-101 109-64 55-80 81-104 163-2 6-7 12-12 12-8 0-108-194-159-308-17-40-28-52-39-48-51 20-60 18-85-18-13-20-28-36-32-36s-3-9 3-19c14-27 15-27-33-49-34-16-51-34-83-89-23-37-44-79-47-93-4-14-28-40-54-59-57-40-118-113-119-142-1-12-37-57-83-103-63-63-81-88-81-109 0-43-17-65-59-78-31-9-42-20-60-55-11-25-24-68-27-97-6-47-23-99-24-71 0 8-9 8-34 0-28-8-45-28-100-116-67-106-87-133-155-205-57-60-66-80-101-210-18-66-44-140-56-165l-24-45v77c0 42-4 79-9 82-8 5-128-171-124-183 1-3 25-10 53-16l52-10-26-24c-26-24-26-24-26-3 0 28-4 27-65-3-27-13-56-25-62-25-7 0-13-4-13-8s-21-37-47-72c-39-54-47-73-48-110v-45l-49-16c-58-18-77-43-24-32 33 7 57 8 173 4 112-3 225 9 225 25 0 18 15 18 45-2 20-13 40-15 107-9 142 11 276 5 423-20 34-6 50-2 97 24 31 17 63 31 72 31 8 0 38-14 66-30 53-31 83-33 165-10 17 5 50 14 74 20l43 11-22 24c-12 13-19 28-16 33s-8 15-25 22c-30 13-52 46-42 63 7 12 91 47 112 47 29 0 69-37 76-70 8-36 6-35 80-10l59 20 27-26c36-35 28-47-25-39-51 9-40-4 22-27l47-16-82 4c-48 2-85 0-88-6s6-10 22-11c192-8 215-10 281-33 39-13 73-21 76-18 4 3 6 15 6 27v23l66-20 66-21 59 28c67 32 81 29 141-31 38-39 59-41 174-19 46 9 82 11 88 6s24-7 39-4c24 5 28 10 24 30-8 42 25 48 81 13 27-16 57-30 67-30s89 16 174 36l155 36 16-23c42-64 44-65 86-46 22 9 52 21 67 27 27 10 27 10 12 41-16 30-15 32 10 70 36 51 50 62 73 55 14-5 17-13 14-36-4-28-2-30 26-30h31l-14-47c-8-27-15-51-15-54 0-4 28-12 63-19 34-7 71-14 82-16s32 1 47 7c23 9 35 8 71-9 44-21 44-21 106-2 53 17 80 19 190 13 127-6 128-5 167 21 21 14 43 26 48 26 6 0 27-16 47-36l36-36 79 16c44 9 113 18 154 22l75 6 45 65c79 115 157 217 185 243l27 25 44-50c24-27 44-55 44-61 0-7-14-40-31-74l-31-62-46 7c-26 3-64 9-84 12-21 3-38 1-38-4s-8-18-18-29c-25-27-56-74-51-78 2-2 31-7 65-11 50-5 63-3 75 11 17 21 85 64 100 64 7 0 43-18 81-40 39-22 72-40 74-40 3 0 3 27 0 60-2 33-1 60 3 60s34-27 67-60c45-46 66-60 89-60 17 0 47-4 68-9 38-9 83 3 157 44 24 13 31 11 92-25 37-21 75-37 85-35s43 4 73 5c53 1 56 2 90 47 58 78 65 83 120 83h50l22-50c12-27 27-50 32-50 6 0 34 6 63 14 49 13 53 13 106-14 48-24 63-27 133-24 100 5 183 23 209 46 24 23 82 18 229-18 61-15 103-21 109-15 8 8-168 233-190 243-4 1-23 21-42 43-18 22-55 63-80 90-121 130-145 158-128 152 34-12 16 12-25 35-42 23-42 23-46 88-4 63-5 66-56 115-51 48-154 172-188 225-8 14-26 37-39 51-120 131-156 184-246 360-22 43-26 46-65 47-70 3-73 6-93 87-11 42-27 83-37 92-22 19-24 6-7-42 10-28 9-37-16-78-15-26-30-49-35-52-4-2-26 3-49 13-39 16-41 19-41 59 0 42 1 43 60 73 33 17 60 35 60 41 0 5-8 22-19 37-10 15-39 62-65 105-26 42-52 77-57 77s-10-18-10-40c-1-22-3-44-4-50-1-5-3-23-4-40-1-24-8-33-37-45-45-19-39-19-66 8-57 56-61 63-44 94 8 15 36 51 61 78l47 50-23 73c-12 39-27 72-32 72s-20-9-34-20c-25-19-26-19-52-1-60 44-82 78-105 162l-21 83-77 24-77 23 31 45c30 45 30 45 11 67-11 12-32 36-47 53-25 29-29 30-78 24-42-6-54-4-70 12-37 37-39 61-12 148 14 45 23 85 20 88-9 9-13 2-38-83-24-79-25-80-60-83-31-3-36 0-42 23-6 22-12 26-34 23-26-3-27-2-30 55-2 34 3 79 12 105s18 82 22 124c5 76 5 78-20 89-14 7-26 16-26 20s-12 9-27 11c-22 2-30 10-37 35-9 30-11 31-65 31-107-1-117 1-152 33-19 17-44 39-57 49-23 18-23 20-6 52 9 18 30 52 46 76l30 43-54 59c-33 36-60 57-70 55-11-2-35 16-62 48-47 53-75 103-96 175-7 23-18 42-24 42-6-1-39-37-73-81zm77 25c0-8-4-12-10-9-5 3-10 10-10 16 0 5 5 9 10 9 6 0 10-7 10-16zm-18-41c31-28 27-31-60-48-25-4-24-2 17 48 17 21 20 21 43 0zm55-93c7-23 15-52 19-63 6-19 3-19-57-14-35 3-65 6-66 7-7 1-44 83-39 87 7 7 109 31 121 29 5-2 15-22 22-46zm72-78c-26-4-25-5-34 38l-7 35 31-35c30-33 30-35 10-38zm-209 17c0-5-4-9-8-9-5 0-9 7-9 15s4 12 9 9c4-3 8-9 8-15zm-72-64c-3-3-9 2-12 12-6 14-5 15 5 6 7-7 10-15 7-18zm422-36c0-3-13-4-30-1-28 4-41 28-24 45 7 6 53-32 54-44zm-170 9c0-4-12-2-26 4-23 11-24 13-7 19 16 6 32-5 33-23zm-45-18c3-5 2-10-4-10-5 0-13 5-16 10-3 6-2 10 4 10 5 0 13-4 16-10zm6-60c-25-21-44-18-34 5 3 8 17 15 32 15l26-1zm194-27c-15-27-34-55-42-64-12-15-5-24 67-88 44-39 84-71 89-71 9 0 32-101 25-111-7-13-130-29-175-24-79 10-83 13-103 57-25 59-28 94-14 157 11 49 16 56 50 70 30 13 38 21 38 42s10 33 43 53c23 14 44 25 45 26 2 0-8-21-23-47zm-493 5c-7-7-12-8-12-2s3 14 7 17c3 4 9 5 12 2 2-3-1-11-7-17zm338 17c0-2-10-9-22-15-22-11-22-10-4 4 21 17 26 19 26 11zm-310-50c-7-9-15-13-17-11-7 7 7 26 19 26 6 0 6-6-2-15zm137-104c3-49 2-51-25-52-15 0-41-2-59-5-29-3-36 1-63 40-16 25-30 48-30 52s18 25 41 46l41 38 46-34c44-32 47-37 49-85zm-197 99c0-5-4-10-10-10-5 0-10 5-10 10 0 6 5 10 10 10 6 0 10-4 10-10zm-20-72c-1-14-24-48-32-48-4 0-3 47 1 58 4 9 31 0 31-10zm-66-52c6-25 5-28-11-21-10 4-26 10-35 12-24 7-23 17 5 36 25 17 32 13 41-27zm120 4 26-40h-50c-27 0-50 3-50 6 0 8 40 74 44 74 2 0 15-18 30-40zm303 18c-3-8-6-5-6 6-1 11 2 17 5 13 3-3 4-12 1-19zm-433-77c3-4-4-17-15-27-17-16-22-16-29-4-16 26-11 40 14 40 14 0 27-4 30-9zm269-13c-18-18-24-19-37-8-25 20-19 30 21 30h37zm57 13c0-5-7-12-16-15-14-5-15-4-4 9 14 17 20 19 20 6zm-410-25c14-18 14-19-8-7-12 7-20 17-16 22 3 6 7 9 8 7s8-12 16-22zm230 19c0-16-38-22-60-9-24 13-24 13 18 14 23 0 42-2 42-5zm-90-56c0-5-15-7-32-5-18 3-37 5-42 5-4 1 2 12 15 26l24 25 18-21c9-12 17-25 17-30zm153 37c23-18 22-21-13-24-32-2-33-2-24 22 7 19 14 20 37 2zm-237-108c18-35 31-64 29-66-3-4-41-10-84-14-31-3-39 2-73 47-21 28-38 52-38 55s16 22 35 42l36 37 32-19c21-12 43-42 63-82zm457 79c25-19 29-32 39-113l12-90-32-67c-17-37-35-67-39-67s-30 13-58 28c-39 21-51 33-53 55-4 31-3 31-36 16-17-8-26-21-28-43-3-29-6-31-56-39-29-5-59-6-66-4-8 3-16 32-20 71-6 61-4 70 28 133 37 74 43 78 166 120 83 28 109 28 143 0zm364-29c-3-8-6-5-6 6-1 11 2 17 5 13 3-3 4-12 1-19zm-610 6c-3-3-12-4-19-1-8 3-5 6 6 6 11 1 17-2 13-5zm-129-19c3-2-4-23-15-47l-20-42-22 41c-29 59-28 65 16 58 20-3 39-7 41-10zm67-15c3-5-3-26-14-47l-20-38-1 48c0 34 4 47 14 47 8 0 18-4 21-10zm-57-85c-2-18-7-22-17-16-11 7-11 14 0 47 11 30 15 33 17 16 2-12 2-33 0-47zm-237 14c8-16 6-17-21-8-33 12-32 11-24 33 5 13 9 14 21 5 8-7 18-20 24-30zm971-80c7-5 23-9 35-9 23 0 29-12 38-75 4-22 8-48 11-57 6-19-28-58-51-58-8 0-18-1-22-2-5-1-23-5-40-9-23-5-33-3-33 5 0 7-42 34-92 61-82 44-96 55-115 95-27 55-27 56-5 63 9 3 69 23 132 46l115 40 7-46c4-25 13-50 20-54zm-125 85c-3-3-12-4-19-1-8 3-5 6 6 6 11 1 17-2 13-5zm-154-29c-7-21-13-19-13 6 0 11 4 18 10 14 5-3 7-12 3-20zm-634-84c17-61 12-69-49-77-44-6-45-5-77 40l-33 46 22 44 21 44 51-22c48-21 52-26 65-75zm1054 48c-10-4-26-8-36-8-14-1-15 2-5 18s16 17 36 8c22-10 22-12 5-18zm-943-13c0-6-8-29-18-50l-18-40-32 53-32 52 50-2c28-2 50-7 50-13zm31-29c-10-9-11-8-5 6 3 10 9 15 12 12s0-11-7-18zm939 19c0-3-4-16-10-31l-10-26-31 23c-30 23-30 23-7 29 28 8 58 11 58 5zm-448-68c6-14 5-16-7-12-8 4-15 18-14 33 0 15 3 20 6 11 3-8 10-23 15-32zm-778-7c-7-7-34 21-28 31 3 5 12 1 19-9s12-20 9-22zm196-4c0-16-18 3-23 25-6 22-5 22 8 4 8-11 15-24 15-29zm1000 8c0-2-7-11-16-20-20-19-34-6-34 33 0 22 1 22 25 6 14-9 25-18 25-19zm-870 13c0-7 3-23 6-35 6-21 4-22-26-13-45 13-46 17-19 39 28 24 39 26 39 9zm-329-46 22-19-33-6c-39-8-44-5-35 22 8 26 16 26 46 3zm627-48c-40-14-45-12-50 25l-4 29 43-21 44-22zm582 10c0-28-4-43-10-39-6 3-7 17-4 31 4 14 2 24-2 23-23-4-26 2-8 16 10 8 20 15 22 15 1 0 2-21 2-46zm-1069 22c-7-8-21-12-34-8-20 6-20 7 8 13 17 4 32 7 34 8 2 0-2-5-8-13zm136-7c29-11 24-19-23-33-19-6-21-3-16 19 5 29 3 28 39 14zm-374-20c6-10 3-25-12-49l-21-35v53c0 54 12 65 33 31zm555-4c-16-19-25-22-39-14-26 13-24 17 14 28 48 14 49 13 25-14zm-428-5c-11-21-19-24-44-14-25 9-19 22 12 27 15 2 31 5 35 6 4 0 3-8-3-19zm60-11c0-5-4-9-10-9-5 0-10 7-10 16 0 8 5 12 10 9 6-3 10-10 10-16zm394-3c-6-15-24-23-24-11 0 8 24 34 28 30 1-1 0-10-4-19zm65 10c9-11 6-15-14-18-28-6-27-6-19 16 8 20 18 20 33 2zm-697-41c-3-37-7-44-17-35-13 11-8 40 11 71 9 15 9 11 6-36zm582-57c14-33 26-65 26-73 0-11-98-65-119-65-6 0-102 180-105 197 0 4 26 15 59 24 58 15 61 15 87-4 15-11 38-46 52-79zm225 72c-13-35-16-36-41-13-19 17-18 18 14 29 18 7 34 13 35 13 1 1-3-12-8-29zm114 5c-7-21-13-19-13 6 0 11 4 18 10 14 5-3 7-12 3-20zm-36-7c-3-8-6-5-6 6-1 11 2 17 5 13 3-3 4-12 1-19zm-926-11c-10-9-11-8-5 6 3 10 9 15 12 12s0-11-7-18zm179-31 50-53 62 14 62 14 40-28c31-22 42-37 47-65l5-35-93-27c-51-15-125-45-163-67-101-57-132-46-99 37 16 39 11 90-12 136l-19 37 27 46c16 25 31 45 35 45s30-24 58-54zm15 34c3-5 1-10-4-10-6 0-11 5-11 10 0 6 2 10 4 10 3 0 8-4 11-10zm815-5c0-8-4-15-10-15-5 0-10 7-10 15s5 15 10 15c6 0 10-7 10-15zm-255-12c-2-10-4-24-4-30-1-10-7-10-26-1-31 14-31 22-2 36 31 15 36 14 32-5zm154-5c12-16 10-18-19-18-32 0-33 0-15 20 10 11 19 19 19 18 1-2 8-11 15-20zm546 12c-3-5-10-10-16-10-5 0-9 5-9 10 0 6 7 10 16 10 8 0 12-4 9-10zm-649-21c19-21 19-21 0-18-11 2-20 12-22 22-3 22-1 22 22-4zm590 9c9-15 14-58 6-58-15 0-50 44-45 56 6 17 29 18 39 2zm-1069-4c-3-3-12-4-19-1-8 3-5 6 6 6 11 1 17-2 13-5zm86-16c8-28 2-34-17-19-8 7-12 19-9 27 8 21 20 17 26-8zm247-9c0-6-4-7-10-4-5 3-10 11-10 16 0 6 5 7 10 4 6-3 10-11 10-16zm618-16c34-14 45-34 63-110 8-40 49-98 127-182 20-20 4-26-106-40-90-11-112-9-112 9 0 5-23 62-50 127l-51 117 22 53c23 58 28 59 107 26zm282 3c0-9-7-12-20-9-31 8-34 23-6 23 16 0 26-6 26-14zm-1560-6c0-5-5-10-11-10-5 0-7 5-4 10 3 6 8 10 11 10 2 0 4-4 4-10zm718-3c8-10 6-16-9-25-17-11-19-9-19 13 0 27 12 32 28 12zm165 3c19 0-16-20-35-20-12 0-15 5-11 16 3 8 12 13 20 10s20-6 26-6zm-73-4c0-3-4-8-10-11-5-3-10-1-10 4 0 6 5 11 10 11 6 0 10-2 10-4zm240-4c0-12-46-32-54-24-4 3 4 12 16 19 27 15 38 16 38 5zm491-17c27-14 30-14 35 0 5 13 10 11 23-12 15-24 23-27 62-25 38 1 41 0 22-9-12-6-24-19-27-28-2-9-25-61-50-116-60-132-67-132-193 19-18 22-33 44-33 51 0 6 16 24 35 39s44 43 56 62c23 39 29 40 70 19zm-611-3c0-4-15-8-32-9-27-2-29 0-13 7 26 11 45 12 45 2zm-2-50c3-20 1-21-24-12-41 16-48 22-34 30 24 15 55 6 58-18zm52 9c0-5-6-14-14-20-12-10-13-8-9 8 5 21 23 30 23 12zm45-23c6-4-3-8-19-8-24 0-27 2-16 15 7 9 16 12 19 8s11-11 16-15zm705 7c0-8-4-15-9-15-13 0-22 16-14 24 11 11 23 6 23-9zm-887-2c-7-2-19-2-25 0-7 3-2 5 12 5s19-2 13-5zm931-12c17-19 17-19-3-14-12 3-21 12-21 19 0 18 4 18 24-5zm-1151-31c-18-31-28-35-59-23-14 5-8 11 27 29 24 12 45 22 47 23s-5-12-15-29zm267-15c19-31 20-39 9-72-6-21-13-41-16-45-5-9-136 40-145 55-12 19-10 24 23 62 25 29 38 35 69 35 33 0 41-5 60-35zm230 5c0-32-3-34-82-59-31-10-42-9-68 4-34 17-34 19-20 46 9 16 22 19 73 19 34 0 69 5 77 10 20 13 20 14 20-20zm-2474-28c-11-10-15 4-8 28l7 25 3-23c2-13 1-26-2-30zm2288 40c2-4 1-14-4-21-6-11-10-9-19 8-10 17-9 21 3 21 8 0 17-4 20-8zm776-2c0-5-2-10-4-10-3 0-8 5-11 10-3 6-1 10 4 10 6 0 11-4 11-10zm-1040-20c0-5-8-10-17-10-15 0-16 2-3 10 19 12 20 12 20 0zm500-30c0-13-1-13-10 0-5 8-10 22-10 30 0 13 1 13 10 0 5-8 10-22 10-30zm605 13c-21-15-30-10-22 11 4 10 13 13 23 9 15-6 15-7-1-20zm-1726-20c-7-10-15-20-16-22-2-2-3 5-3 17 0 14 6 22 16 22 14 0 15-3 3-17zm201-57-22-21 18 35c10 21 19 30 22 21 2-7-6-23-18-35zm190 19c-7-9-15-13-18-10-3 2 1 11 8 20s15 13 18 10c3-2-1-11-8-20zm194 17c2-4-4-13-14-20-20-12-36 0-25 18 7 12 32 13 39 2zm336-14c0-6-6-5-15 2-8 7-15 14-15 16s7 1 15-2c8-4 15-11 15-16zm-1065 2c-3-5-12-7-20-3-21 7-19 13 6 13 11 0 18-4 14-10zm68-9c-3-13-10-18-20-14-14 5-13 8 3 20 23 17 23 17 17-6zm242-20c-17-35-18-35-47-20-19 10-18 12 18 34 22 13 40 22 42 20s-4-17-13-34zm-416-9c9-31 10-31-72-91-13-9-7 9 20 57 21 39 39 69 41 68 1-2 7-17 11-34zm689-27c1-56 1-57-21-42-12 7-32 20-45 28l-22 14 37 31c21 18 41 30 44 29 3-2 6-29 7-60zm599 38-10-22-28 20c-16 11-29 21-29 22s17 2 39 2c36 0 38-1 28-22zm-1197-15c0-4-9-12-20-18-18-10-20-8-18 18s4 28 20 18c10-6 18-14 18-18zm1027 10c-3-8-6-5-6 6-1 11 2 17 5 13 3-3 4-12 1-19zm-127-10c0-5-9-4-20 2s-20 12-20 14 9 2 20-1 20-9 20-15zm193 7c-3-9-8-14-10-11-3 3-2 9 2 15 9 16 15 13 8-4zm647-20c-21-26-31-16-13 11 9 15 19 21 21 15s-2-18-8-26zm-580 1c0-2-9-2-20 1s-20 9-20 15c0 5 9 4 20-2s20-12 20-14zm-516-2c3-9-1-25-9-37-14-21-15-20-15 16 0 38 13 50 24 21zm1316 5c26-10 29-13 16-21-10-6-24-3-41 8-41 27-30 32 25 13zm-1507-6c-7-2-19-2-25 0-7 3-2 5 12 5s19-2 13-5zm807-7c0-22-19-29-36-15-14 12-14 14 3 20 27 11 33 10 33-5zm-316-7c2-2-11-11-29-20-33-15-33-15-38 8-4 21-1 23 30 19 18-2 35-5 37-7zm976-11c0-6-6-5-15 2-8 7-15 14-15 16s7 1 15-2c8-4 15-11 15-16zm-1080-7c0-15-5-18-21-14-21 6-21 7-4 20 24 17 25 17 25-6zm-1944-5c1 0 5-11 8-23 10-31-2-28-44 8l-35 31 35-7c19-4 36-8 36-9zm1338 5c6-9-68-31-107-31-14 0-30 6-36 14-10 12-6 15 26 18 90 7 112 7 117-1zm302-39c-45-4-47-3-40 25l6 21 36-21 37-22zm534 7c0-3-16-20-35-39l-35-34v50c0 28 3 53 6 56 6 7 64-23 64-33zm680 26c0-9-6-12-15-9-8 4-12 10-9 15 8 14 24 10 24-6zm290-55c7-33 11-62 9-65-3-2-18-6-34-9-17-3-45-8-63-11l-34-6 4 57c3 55 4 57 47 80 24 13 47 21 51 19s13-32 20-65zm-1567 39c-4-15-9-17-17-9s-7 13 4 20c8 5 16 10 17 10 0 0-1-9-4-21zm512 4c-2-10-4-35-4-56l-1-37-35 22-35 23 35 33c40 37 44 39 40 15zm210-21c6-21 5-21-19-11-21 10-23 14-13 30 13 20 21 15 32-19zm39 7c-8-13-24-1-24 18 0 13 3 13 15 3 8-7 12-16 9-21zm46 21c0-5-5-10-11-10-5 0-7 5-4 10 3 6 8 10 11 10 2 0 4-4 4-10zm54-6c9-22 8-24-9-24-8 0-15 9-15 20 0 24 15 27 24 4zm-418-20c-30-21-45-16-16 6 14 10 27 16 30 13 3-2-4-11-14-19zm-2166-3c16-30 12-36-10-16-21 19-26 35-10 35 5 0 14-9 20-19zm1250 9c0-5-4-10-10-10-5 0-10 5-10 10 0 6 5 10 10 10 6 0 10-4 10-10zm810-30c0-4-11-17-26-31l-25-23 2 41c3 39 4 40 26 30 13-5 23-13 23-17zm460 9c0-5-7-9-15-9-15 0-20 12-9 23 8 8 24-1 24-14zm-1000 7c0-3-4-8-10-11-5-3-10-1-10 4 0 6 5 11 10 11 6 0 10-2 10-4zm1166-33c-19-16-32-21-39-14-11 11-2 45 10 38 5-3 17-1 28 3 32 12 32 0 1-27zm77-13c-4-4-26-11-48-14l-40-7 40 36c39 35 39 35 47 14 5-12 5-26 1-29zm-2870 3c-3-19-11-33-19-33-18 0-18 4 2 41 19 37 23 35 17-8zm137-30 42-48-33-8c-43-11-112-78-156-152-20-33-38-62-39-64-2-2-26 2-54 9-65 15-74 34-62 115 7 41 6 65-1 77-9 14-8 21 6 35 16 16 17 16 17-12 0-33 29-115 40-115 4 0 26 24 48 53 22 28 48 62 59 74s28 40 38 62c21 48 32 45 95-26zm2310 57c-20-13-33-13-25 0 3 6 14 10 23 10 15 0 15-2 2-10zm798-7c-4-22-22-20-26 1-2 10 3 16 13 16s15-7 13-17zm-1276-53c6-50 5-59-21-95-16-22-47-50-69-63l-41-23-35 47-36 47 33 59c23 42 39 60 57 64 14 3 36 10 50 14 46 16 55 8 62-50zm-1712-4c0-13-39 35-40 48 0 5 9-1 20-14s20-28 20-34zm75 44c3-5 2-10-4-10-5 0-13 5-16 10-3 6-2 10 4 10 5 0 13-4 16-10zm1032-31c-10-41-17-40-31 8-6 20-1 25 35 32 4 0 2-17-4-40zm70-1c-6-23-12-36-15-28-2 8-7 27-12 43-8 24-7 27 14 27 23 0 23-2 13-42zm50-51c-21-5-41-7-43-4-2 2 1 19 7 38s13 40 15 48c3 9 15-2 33-30l28-44zm46 58c-5-13-7-13-19 2-19 26-17 35 6 23 11-6 17-16 13-25zm675 20c-2-1-14-8-28-15-25-13-25-13-6 8 10 12 23 19 28 16s8-7 6-9zm-1014-16c-3-5-10-7-15-3-5 3-7 10-3 15 3 5 10 7 15 3 5-3 7-10 3-15zm124-16c10-31 10-32-8-20-25 15-34 38-18 48 7 4 13 7 14 6 0-1 6-16 12-34zm685-4c-8-29-13-23-13 14 0 22 3 28 9 18 5-7 6-22 4-32zm420 10c-11-12-27-19-34-17-9 3-3 11 16 21 40 22 43 21 18-4zm91 12c3-5-1-14-9-21-13-10-15-9-15 9 0 21 14 28 24 12zm-742-23c-7-7-12-8-12-2s3 14 7 17c3 4 9 5 12 2 2-3-1-11-7-17zm498 12c0-5-2-10-4-10-3 0-8 5-11 10-3 6-1 10 4 10 6 0 11-4 11-10zm190-10c0-11-7-20-15-20-13 0-13 3-3 20 7 11 14 20 15 20 2 0 3-9 3-20zm-1056-12c10-38 7-48-14-48-11 0-20 6-20 13 0 23 12 57 20 57 4 0 10-10 14-22zm816 18c0-2-9-6-20-9s-18-1-14 4c5 9 34 13 34 5zm661-9c-1-4-1-23-1-42s-3-35-7-35c-5 0-28 19-53 41s-40 38-35 36c6-3 26-2 45 3 39 9 52 8 51-3zm-1590-23c22-25 22-26 3-16-12 6-24 18-28 27-8 21-3 19 25-11zm736-6c-15-9-19-4-11 16 5 14 9 15 15 5 5-8 3-17-4-21zm-1643-25c-2-26-6-48-7-49-1-2-25-9-52-15-28-7-58-19-67-27-10-8-25-11-38-7-17 5-30-1-55-25-40-39-58-32-50 17 13 84 13 84 59 79 34-5 55 1 121 33 44 22 83 40 87 40 4 1 5-20 2-46zm1844 15c3-15 0-16-30-6-50 16-55 26-12 25 28-2 40-7 42-19zm57 12c3-5 2-10-4-10-5 0-13 5-16 10-3 6-2 10 4 10 5 0 13-4 16-10zm846-29c42-37 44-41 43-89-3-93-60-145-127-117-24 10-41 31-72 88l-39 75 24 21c29 24 100 61 116 61 6 0 31-17 55-39zm-396-2c21-39 14-46-24-23-29 17-29 19-14 36 21 23 20 23 38-13zm-2765 18c0-2-12-19-26-38-22-29-25-30-19-9 7 24 45 63 45 47zm2250-36c0-7-63-51-72-51-3 0-8 12-11 28-3 15-9 35-12 44-6 16-3 16 44 0 28-9 51-18 51-21zm100 29c0-5-8-10-17-10-15 0-16 2-3 10 19 12 20 12 20 0zm528-37c11-11 8-13-16-13-25 0-32 6-41 31l-11 31 28-18c15-10 33-24 40-31zm542 37c0-5-7-7-15-4-8 4-15 8-15 10s7 4 15 4 15-4 15-10zm-2971-42c1-5-3-8-9-8-5 0-10 12-9 28 0 24 1 25 9 7 5-11 9-23 9-27zm2926 27 30-7-40-18c-54-25-55-25-55 11 0 24 4 29 18 26 9-3 31-8 47-12zm-2075-47c0-4-4-9-8-12-5-3-14 11-20 32l-11 37 19-25c11-14 20-28 20-32zm44 43c3-5 0-11-8-14s-17 1-20 9c-6 15 19 20 28 5zm736-1c0-5-4-10-9-10-6 0-13 5-16 10-3 6 1 10 9 10 9 0 16-4 16-10zm1374-76c9-37 15-69 12-71-2-2-24-7-48-9-23-3-53-7-66-9-25-4-28 0-36 61l-6 40 58 26c31 15 60 27 63 27 4 1 14-29 23-65zm-1956 31c-3-3-9 2-12 12-6 14-5 15 5 6 7-7 10-15 7-18zm547 15c3-5-1-10-10-10s-13 5-10 10c3 6 8 10 10 10s7-4 10-10zm690-3c16-13 15-14-13-9-18 2-32 8-32 13 0 13 24 11 45-4zm-2602-24c-8-52-11-55-34-43-21 12-21 12 7 41 15 16 29 29 29 29 1 0 0-12-2-27zm1872 8c-3-6-11-11-17-11s-6 6 2 15c14 17 26 13 15-4zm1530-30c-17-17-29-9-40 28l-7 23 31-18c27-16 29-20 16-33zm-3693-36-8-39-24 39c-14 22-19 40-13 42 5 2 19 10 29 18 17 12 19 12 22-3 1-9-1-35-6-57zm1918 67c0-13-12-22-22-16s-1 24 13 24c5 0 9-4 9-8zm490 3c0-2-10-9-22-15-22-11-22-10-4 4 21 17 26 19 26 11zm30-5c0-5-5-10-11-10-5 0-7 5-4 10 3 6 8 10 11 10 2 0 4-4 4-10zm-571-41c8-25 8-29-2-22-6 5-25 19-41 31l-29 22h31c25 0 32-6 41-31zm335 17c-21-15-30-14-19 3 3 6 14 11 23 11 13 0 13-2-4-14zm476 6c0-5-7-9-15-9s-12 4-9 9c3 4 9 8 15 8 5 0 9-4 9-8zm396-17c2-12-2-13-18-4s-18 13-7 20c15 9 22 5 25-16zm-2519 9c-3-3-12-4-19-1-8 3-5 6 6 6 11 1 17-2 13-5zm1138-13c-3-6-11-8-17-5-6 4-5 9 3 15 16 10 23 4 14-10zm135-18c28-21 50-41 50-45 0-5-12-27-27-50-16-23-32-66-38-97-9-50-14-58-45-72l-35-17-11 31c-6 18-27 59-47 91-27 45-34 64-26 77 8 17 12 17 61 3 28-9 62-20 75-25 31-12 33-11 33 4 0 6-25 29-56 51l-55 38 32 24c18 13 34 24 36 24s26-17 53-37zm123-3c-7-8-22 24-16 34 4 5 10 1 13-10 4-10 6-21 3-24zm281 25c-4-8-11-15-16-15-6 0-5 6 2 15 7 8 14 15 16 15s1-7-2-15zm576 5c0-5-7-10-15-10s-15 5-15 10c0 6 7 10 15 10s15-4 15-10zm843-43c-7-11-9-7-17 28l-6 30 14-25c8-14 12-28 9-33zm-1654 21c12-15 11-18-3-18-10 0-16 8-16 22 0 12 1 19 3 17 1-2 9-12 16-21zm171 18c0-11-19-15-25-6-3 5 1 10 9 10 9 0 16-2 16-4zm270 0c0-2-7-6-15-10-8-3-15-1-15 4 0 6 7 10 15 10s15-2 15-4zm1374-12c3-8 2-12-4-9s-10 10-10 16c0 14 7 11 14-7zm-3271-4c8 0 8-3 1-10-12-12-44-3-44 12 0 6 7 7 16 4s21-6 27-6zm2252-15c44-13 98-26 120-27 36-4 42-8 67-53 34-62 34-71 3-88-14-7-38-31-53-54-15-22-42-57-60-77l-33-38-45 37c-28 24-47 48-51 67-5 28-8 29-40 23-19-3-40-8-46-11-7-2-30 13-51 35-34 35-38 45-42 100-3 60-2 61 32 84 45 31 99 32 199 2zm345 9c0-2-9-4-21-4-11 0-18 4-14 10 5 8 35 3 35-6zm320-11c0-19-3-24-10-17-6 6-8 18-4 27 9 24 14 21 14-10zm-3532 11c-4-3-2-18 2-34 9-30-1-40-41-40-18 0-17 3 7 40 15 22 29 40 32 40s3-3 0-6zm2202 2c0-9-30-14-35-6-4 6 3 10 14 10 12 0 21-2 21-4zm1603-16c4-17 2-18-14-9-11 5-17 14-14 20 10 15 22 10 28-11zm-3479-9c16-17 15-19-14-31-38-16-44-10-29 24 14 31 20 32 43 7zm1681 10c3-5 1-12-5-16-5-3-10 1-10 9 0 18 6 21 15 7zm1085 5c0-3-4-8-10-11-5-3-10-1-10 4 0 6 5 11 10 11 6 0 10-2 10-4zm-3040-48c0-18-23-2-32 22-9 23-8 23 12 5 11-10 20-22 20-27zm501 16c17-42 12-47-38-39-27 4-54 8-60 8-19 1-16 10 10 27 49 33 76 34 88 4zm3329 11c10-12 10-15-4-15-9 0-16 7-16 15s2 15 4 15 9-7 16-15zm-3290-35c0-13-1-13-10 0-5 8-10 22-10 30 0 13 1 13 10 0 5-8 10-22 10-30zm1653 17c15-12 27-27 27-32-1-16-87-75-108-75-15 0-23 13-35 60-16 66-15 68 49 69 29 1 49-6 67-22zm893-3c-3-9-6-20-6-25 0-14-22-11-42 8-27 24-22 33 18 33 29 0 35-3 30-16zm624 6c0-5-2-10-4-10-3 0-8 5-11 10-3 6-1 10 4 10 6 0 11-4 11-10zm-1670-4c0-3-4-8-10-11-5-3-10-1-10 4 0 6 5 11 10 11 6 0 10-2 10-4zm-410-16c0-5-7-7-15-4-8 4-15 8-15 10s7 4 15 4 15-4 15-10zm370-15c0-14-1-25-3-25s-14 11-27 25l-23 25h26c22 0 27-5 27-25zm-31-22c41-35 42-38 39-90-2-29 0-53 4-53 13 0 109 60 170 107l58 44 20-33c14-23 20-51 20-90v-57l-76-50c-42-28-80-51-84-51-5 0-21-5-35-10-23-9-25-13-15-25s9-15-6-15c-57 0-213 60-215 82 0 7-2 24-4 38-8 49 16 158 43 199 15 23 29 41 33 41 3 0 25-16 48-37zm1661 31c0-3-14-23-32-44l-32-38-23 33c-13 19-23 36-23 39s19 7 43 9c23 2 48 4 55 5 6 1 12-1 12-4zm-3350-19c-7-8-17-12-22-9-6 4-5 10 3 15 22 14 33 10 19-6zm477 9c-3-3-12-4-19-1-8 3-5 6 6 6 11 1 17-2 13-5zm1303-15c0-6-4-7-10-4-5 3-10 11-10 16 0 6 5 7 10 4 6-3 10-11 10-16zm325 11c3-6-1-7-9-4-18 7-21 14-7 14 6 0 13-4 16-10zm182-10c1-11-2-20-8-20-10 0-12 23-2 33 9 9 9 10 10-13zm488-30c-6-9-12-6-21 11-20 36-17 46 7 22 13-12 18-26 14-33zm42 18c-3-7-5-2-5 12s2 19 5 13c2-7 2-19 0-25zm614 22c22-12 26-40 6-40-8 0-19 11-25 25-13 28-10 30 19 15zm-3261-102c9-15 6-15-28-6-20 6-44 14-53 19-21 11-29 51-16 75 9 15 14 12 49-27 21-24 43-52 48-61zm28 82h19c14 0 14-2-2-20-23-26-26-25-66 9l-34 30 40-9c22-5 41-9 43-10zm1997 10c3-5 1-10-4-10-6 0-11 5-11 10 0 6 2 10 4 10 3 0 8-4 11-10zm1185-30c0-38-2-40-29-40-17 0-32 3-35 8-5 8 44 71 57 72 4 0 7-18 7-40zm-1370 14c0-14-3-14-15-4-8 7-15 14-15 16s7 4 15 4 15-7 15-16zm1234-10c3-8 2-12-4-9s-10 10-10 16c0 14 7 11 14-7zm-1184-4c0-5-5-10-11-10-5 0-7 5-4 10 3 6 8 10 11 10 2 0 4-4 4-10zm-1790-21c0-5-7-9-15-9-15 0-20 12-9 23 8 8 24-1 24-14zm105 12c3-5 1-12-5-16-5-3-10 1-10 9 0 18 6 21 15 7zm1764-22c3-24 3-24-18-5-11 10-18 23-15 28 10 16 29 2 33-23zm1268 9c-3-8-6-5-6 6-1 11 2 17 5 13 3-3 4-12 1-19zm-1303-23c19-30 18-30-29-8-24 12-31 19-23 25 22 13 35 9 52-17zm76 15c0-5-4-10-10-10-5 0-10 5-10 10 0 6 5 10 10 10 6 0 10-4 10-10zm-407-42c-20-22-32-15-26 16 4 21 8 23 24 13 17-10 17-13 2-29zm1208 14 8-22-29 22c-36 26-37 30-9 26 12-2 26-13 30-26zm35 13c11-27-2-37-14-11-7 16-8 26-1 26 5 0 12-7 15-15zm-225-32c-10-17-10-16-11 3 0 23 13 41 18 25 2-6-1-18-7-28zm98 25c0-7-4-22-9-33-7-17-9-15-9 13-1 17 4 32 9 32 6 0 10-6 9-12zm70-28c39-25 42-30 25-36-10-4-34-13-53-21-19-7-36-12-38-10-5 6 9 97 16 97 3 0 26-13 50-30zm762-26 29-51-25 5c-30 5-36 14-45 64-10 51 4 45 41-18zm-1631 27 42-18-33-12c-18-6-33-10-34-9-6 8-25 47-25 52 0 9 4 8 50-13zm951-4c-10-9-11-8-5 6 3 10 9 15 12 12s0-11-7-18zm225-3c-5-14-9-15-19-5-9 9-9 14 3 21 18 11 24 6 16-16zm-3661 6c3-6-4-10-17-10-18 0-20 2-8 10 19 12 18 12 25 0zm524-4 45-13-34-11c-45-16-47-16-52 13-3 14-5 25-4 25 0 0 21-6 45-14zm2719-26c8-35 8-40-7-40-35 0-45 16-31 49 17 41 26 39 38-9zm-2453 20c3-5 2-10-4-10-5 0-13 5-16 10-3 6-2 10 4 10 5 0 13-4 16-10zm1644-17c9-18 9-23-1-23-8 0-15 12-16 27-2 29 0 29 17-4zm1291 7c0-5-4-12-10-15-5-3-10-4-10-1 0 2-3 12-6 20-5 12-2 15 10 10 9-3 16-10 16-14zm150-15 24-25-32 11c-32 11-38 19-25 32 9 9 6 10 33-18zm-3173 1c3-3 0-12-7-20-11-14-15-13-36 2-13 9-24 20-24 24 0 8 59 2 67-6zm2921-16 11-30-30 15c-24 13-27 18-17 30 19 21 25 18 36-15zm-3632 1c-4-6-14-7-23-4-15 6-14 7 3 13 22 9 29 6 20-9zm634-31c18-27 34-50 37-50s11 7 18 16c10 15 15 13 41-21l28-38-34-29c-75-64-72-63-134-24-53 34-76 71-76 126 0 12 44 47 86 69 1 1 16-21 34-49zm148 28c-13-20-68-39-68-24 0 22 28 46 54 46 27 0 28-1 14-22zm1907 12c-3-5-15-10-26-10s-17 5-14 10c3 6 15 10 26 10s17-4 14-10zm445 0c0-5-2-10-4-10-3 0-8 5-11 10-3 6-1 10 4 10 6 0 11-4 11-10zm528-15c-3-3-9 2-12 12-6 14-5 15 5 6 7-7 10-15 7-18zm-3613 5c3-5 4-10 1-10-2 0-12-3-20-6-12-5-15-2-10 10 7 18 20 21 29 6zm835-10c9-18 8-20-15-20s-24 2-13 20c7 11 14 20 15 20s7-9 13-20zm144-9c-2-3-12 3-22 13-16 17-16 18 5 5 12-7 20-15 17-18zm1841 19c3-5 1-10-4-10-6 0-11 5-11 10 0 6 2 10 4 10 3 0 8-4 11-10zm-2507-12c13-13 17-74 5-81-5-3-31-12-60-20l-52-16-48 43-47 43 63-10 63-10 26 31c29 36 33 37 50 20zm600-9c-20-13-28-11-22 5 3 8 12 12 21 9 12-5 12-7 1-14zm2448-51c-3-59-7-74-26-88-20-15-26-15-86 4-70 22-71 24-32 82 17 25 100 69 140 73 5 1 6-31 4-71zm144 63c0-6-4-13-10-16-5-3-10 1-10 9 0 9 5 16 10 16 6 0 10-4 10-9zm320-7c0-2-9-4-20-4s-20 4-20 9 9 7 20 4 20-7 20-9zm-3901-3c8-5 9-11 3-15-5-3-15 1-22 9-14 16-3 20 19 6zm121-1c13-8 13-10-2-10-9 0-25-3-35-7-16-6-16-5-4 10 16 20 20 20 41 7zm135 0c3-5 1-10-4-10-6 0-11 5-11 10 0 6 2 10 4 10 3 0 8-4 11-10zm2455-12c0-9-3-23-6-31-5-14-8-13-26 1-11 9-24 24-28 33-8 14-4 16 25 15 26-1 35-6 35-18zm-2005 3c3-5 1-12-4-15s-11 1-15 9c-6 16 9 21 19 6zm1248-11c-6-21-18-26-28-11-4 7 17 28 32 31 0 0-1-9-4-20zm1687 5c23-13 23-14 5-15-11-1-33-4-48-6-26-4-27-3-15 16 15 23 24 24 58 5zm-999-12c13-15 12-15-8-4-24 12-29 21-14 21 5 0 15-7 22-17zm473 8c3-5-1-11-9-14-9-4-12-1-8 9 6 16 10 17 17 5zm-2664-11c0-5-2-10-4-10-3 0-8 5-11 10-3 6-1 10 4 10 6 0 11-4 11-10zm340 0c0-5-5-10-11-10-5 0-7 5-4 10 3 6 8 10 11 10 2 0 4-4 4-10zm230-5c0-13-4-14-20-5-11 6-20 13-20 15 0 3 9 5 20 5s20-7 20-15zm65 1c26-14 27-14 6-25-17-9-22-8-31 8-18 35-15 37 25 17zm1838-46 15-60-55 2c-30 1-57 6-59 10-7 11 17 92 30 100 6 4 21 8 32 8 18 0 24-10 37-60zm1015 54c31-6 31-7 16-35-8-16-16-29-17-29-2 0-18 16-37 35-30 31-32 35-13 35 11 0 34-3 51-6zm-3058-14c-19-13-30-13-30 0 0 6 10 10 23 10 18 0 19-2 7-10zm1616-17c-2-16-5-37-6-48-1-14-7-9-20 20-14 29-16 42-7 47 25 16 38 8 33-19zm784 20c0-2-8-15-17-30-16-23-17-24-24-7-13 33-10 42 16 42 14 0 25-2 25-5zm538-23c-2-26-4-28-17-16-12 12-12 18-1 30 18 22 21 20 18-14zm-2835-39 35-60-43-35c-47-39-97-53-113-33-19 22-52 116-46 131 5 13 94 54 120 55 7 1 28-26 47-58zm1575 41 22-17-38-38-37-37 3 43c6 73 11 79 50 49zm91-10c-14-5-39 6-39 17 0 5 11 4 25-2 13-7 20-14 14-15zm321 3c23-24 23-25 5-45-19-21-19-21-32 22-15 52-15 48-5 48 5 0 19-11 32-25zm244 9c10-27-3-30-26-6l-22 22h21c11 0 24-7 27-16zm251 7c3-5 2-12-3-15s-9 1-9 9c0 17 3 19 12 6zm215-10c0-17-4-18-42-8l-43 11 30 7c49 11 55 10 55-10zm230-35c0-2-8-7-17-10-19-8-33 9-33 41 0 22 0 22 25-3 14-14 25-26 25-28zm-4010 40c0-2-9-6-20-9s-18-1-14 4c5 9 34 13 34 5zm3230-33-1-38-19 24c-25 29-25 38-2 44 9 3 18 5 20 6 1 0 2-16 2-36zm-3207-16-6-37-28 17c-16 10-29 20-29 23 0 6 63 39 67 36 1-1 0-19-4-39zm97 22c-9-16-14-18-26-8-21 17-17 29 11 29 23 0 24-2 15-21zm470 5c0-8-5-12-10-9-6 4-8 11-5 16 9 14 15 11 15-7zm651-5c10-19 9-20-13-14-32 10-35 15-18 25 19 12 18 13 31-11zm1243-4c-16-25-34-29-41-9-2 6 7 16 19 22 36 17 40 14 22-13zm82-40c14-34 14-35-8-35-41 0-48 11-35 58 12 45 15 44 43-23zm728 36 28-29-30-16c-41-21-41-21-37 22 5 64 2 62 39 23zm-3044 15c0-11-19-15-25-6-3 5 1 10 9 10 9 0 16-2 16-4zm3487-13 65-16 29-61c16-33 25-63 21-67-4-3-22-11-41-17-28-10-41-8-85 10-28 12-56 25-62 30-15 11-19 138-4 138 6 0 40-7 77-17zm-3677-43c-20-12-24-5-15 27l7 28 11-23c8-18 8-25-3-32zm160 20c0-5-9-6-20-3-20 5-25 15-13 26 7 8 33-11 33-23zm2953 11c4-17 2-18-13-8-10 6-16 15-14 19 9 14 22 9 27-11zm460-25c2-20 2-36 0-36-1 0-9 13-17 29-11 21-12 31-4 39 15 15 18 11 21-32zm-3133 24c0-5-10-10-22-9-22 0-22 1-3 9 11 5 21 9 23 9 1 1 2-3 2-9zm2003-18c-3-12-9-22-14-22-12 0-11 7 2 32s20 19 12-10zm216-28 20-52-32 9c-18 4-45 11-61 14l-29 6 38 39c21 22 40 39 41 37 1-1 11-25 23-53zm61 24c0-5-5-18-11-30-11-20-11-20-23 3-28 54-27 58 5 47 16-5 29-14 29-20zm-1545 6c19-5 45-46 45-71 0-2-16-3-36-1-32 3-38 7-50 43-17 50-17 48 2 41 9-3 26-9 39-12zm1155-9c0-9-6-12-15-9-8 4-12 10-9 15 8 14 24 10 24-6zm810-72c0-5-82-45-85-41-1 2-14 21-28 44l-25 41 26 21 27 20 43-41c23-23 42-42 42-44zm410 32c0-5-10 0-21 12-13 12-18 26-14 33 6 9 12 6 21-11 7-13 13-28 14-34zm-795 35c3-5 1-10-4-10-6 0-11 5-11 10 0 6 2 10 4 10 3 0 8-4 11-10zm1073 0c15 0 15-16-1-53l-12-29-23 47-23 48 23-7c13-3 29-6 36-6zm-3396-25c-5-29-6-29-34-14-21 11-21 12 8 24 16 8 30 14 30 14 1 1-1-10-4-24zm2973-16c2-3-11-13-30-24-40-21-39-21-59 27l-16 36 50-17c28-10 52-20 55-22zm575 20c0-11-4-18-10-14-5 3-7 12-3 20 7 21 13 19 13-6zm-4113 5c-3-3-12-4-19-1-8 3-5 6 6 6 11 1 17-2 13-5zm923-34c-20-40-33-49-45-30-5 7 50 68 63 70 1 0-7-18-18-40zm1530 14c0-20-7-17-20 6-9 16-8 18 5 14 8-4 15-12 15-20zm975-4c8-16 15-31 15-33 0-3-20 3-45 12l-45 16 22 17c31 24 35 23 53-12zm234-4c10-12 6-13-29-4-32 8-38 13-29 24 12 15 36 7 58-20zm591-7c0-36-2-39-15-25-12 12-13 20-3 40 15 35 18 33 18-15zm-3980 27c0-2-7-7-16-10-8-3-12-2-9 4 6 10 25 14 25 6zm37-16c1-15-4-20-24-20-25 0-26 0-8 20 10 11 21 20 24 20 4 0 7-9 8-20zm292-1c-16-10-23-4-14 10 3 6 11 8 17 5 6-4 5-9-3-15zm403-50c2-7-9-13-24-14-25-2-27 1-22 24 15 67 16 68 30 34 8-18 15-38 16-44zm2071 62 28-1-33-40-32-41-18 33c-24 45-23 59 5 54 12-3 35-5 50-5zm-2673-5c0-3-4-8-10-11-5-3-10-1-10 4 0 6 5 11 10 11 6 0 10-2 10-4zm410-33c0-7-39 17-46 28-3 6 5 3 20-6 14-10 26-19 26-22zm1477 31c-3-3-12-4-19-1-8 3-5 6 6 6 11 1 17-2 13-5zm142-48c0-12-6-38-12-59-11-35-14-37-31-24s-18 18-6 68c7 30 15 58 18 63 8 13 32-25 31-48zm535 27c-1-16-2-45-3-66l-1-39-42 33c-24 18-47 36-52 40-7 6 75 57 95 59 3 0 5-12 3-27zm1476 15c0-7 3-23 6-35 6-20 3-23-25-23-36 0-37 2-14 41 18 30 33 38 33 17zm-4380-11c0 7 42-19 71-44l28-25-32-49c-30-46-34-49-77-49-53 0-62 5-83 46-16 32-13 113 5 125 5 3 27 3 49-1 21-4 39-6 39-3zm290 3c0-5-5-10-11-10-5 0-7 5-4 10 3 6 8 10 11 10 2 0 4-4 4-10zm360 0c12-8 11-10-7-10-12 0-25 5-28 10-8 13 15 13 35 0zm-774-32c-1-17-7-33-12-35-10-3-50 25-43 30 9 7 54 37 55 37 2 0 1-14 0-32zm593 7c9-4 1-15-24-35-21-17-39-30-41-30s-4 20-4 45c0 44 0 44 28 34 15-5 33-12 41-14zm2091 21c0-2-7-6-15-10-8-3-15-1-15 4 0 6 7 10 15 10s15-2 15-4zm514-48c6-26 4-28-28-28h-34l21 39c22 41 29 39 41-11zm558-29c-1-25-6-56-10-71l-7-26-47 31c-45 30-46 33-50 85-2 29-2 55 0 57 2 1 29-5 60-14l57-18zm-3266 45c-5-14-9-15-19-5-9 9-9 14 3 21 18 11 24 6 16-16zm509-4c-4-12-9-19-12-17-3 3-2 15 2 27s9 19 12 17c3-3 2-15-2-27zm305 0c0-4-9-18-20-31l-20-24 4 30c2 17 5 36 5 44 1 11 4 11 16 1 8-7 15-16 15-20zm1127 13c-3-10-8-30-11-45-7-29-21-34-46-18-13 8-9 15 20 44 41 41 43 42 37 19zm160 11c-3-3-12-4-19-1-8 3-5 6 6 6 11 1 17-2 13-5zm193-66c0-10 1-10-54 8l-47 16 22 24 23 24 27-32c16-18 28-36 29-40zm48 57c37-8 40-15 12-40-20-18-21-18-50 15-35 39-36 43-12 36 9-2 32-7 50-11zm238-62c-12-29-26-10-26 35l1 47 15-34c8-19 12-41 10-48zm-2288 60 53-6-4-89c-2-48-6-90-8-92s-31-10-64-16c-54-11-64-10-105 8-25 12-63 39-85 62l-40 42 40 35c69 61 103 70 213 56zm468-30c-3-21-5-41-6-46 0-9-40 15-40 24 0 8 40 59 47 59 2 0 2-17-1-37zm1134 33c0-8-31-36-41-36-17 0-9 17 14 28 27 13 27 13 27 8zm1198-16c-13-21-28-27-28-10 0 5 8 14 18 19 23 14 24 14 10-9zm-120-2 50-11-15-32c-11-23-27-36-54-45-22-7-41-11-43-9s-9 28-14 57c-11 60-10 60 76 40zm162-25c0-34-1-36-16-21-13 12-14 20-5 37 16 30 21 26 21-16zm-2420 23c0-2-8-10-17-17-16-13-17-12-4 4s21 21 21 13zm175-14c-3-3-11 0-18 7-9 10-8 11 6 5 10-3 15-9 12-12zm1251-6c1-1 5-11 8-23 10-32-2-29-49 12l-40 34 40-11c22-7 41-12 41-12zm604-11c0-5-5-3-10 5s-10 20-10 25c0 6 5 3 10-5s10-19 10-25zm-2360 18c0-5-5-15-10-23-8-12-10-11-10 8 0 12 5 22 10 22 6 0 10-3 10-7zm2108-46 33-26-45-21c-25-11-47-20-50-20-4 0-6 28-6 62 0 57 1 60 18 46 9-8 32-26 50-41zm1187 43c3-5-1-10-9-10-9 0-16 5-16 10 0 6 4 10 9 10 6 0 13-4 16-10zm105 0c12-8 11-10-7-10-13 0-23 5-23 10 0 13 11 13 30 0zm-2933-17c2-6-10-16-27-21-31-11-33-7-7 26 11 14 29 12 34-5zm1238-14 40-30-45 5c-25 2-51 5-57 5-10 1-10 7-1 26 6 14 14 25 17 25s24-14 46-31zm794-41c1-4-10-2-24 4-28 13-30 20-13 48 12 19 13 18 25-12 6-18 12-36 12-40zm-3438 19c-15-15-24-2-16 24 7 20 8 21 17 5 7-12 7-21-1-29zm37 18c-3-3-9 2-12 12-6 14-5 15 5 6 7-7 10-15 7-18zm2921-35 1-24-21 20c-18 19-19 24-8 43 13 19 14 19 21 3 3-9 7-28 7-42zm415 45c-4-8-11-15-16-15-6 0-5 6 2 15 7 8 14 15 16 15s1-7-2-15zm1063 9c-3-3-12-4-19-1-8 3-5 6 6 6 11 1 17-2 13-5zm143-3c0-18-17-20-36-6-18 14-18 14 9 15 15 0 27-4 27-9zm87 3c-3-3-12-4-19-1-8 3-5 6 6 6 11 1 17-2 13-5zm-3450-26c7-8 14-35 15-62 3-53 4-53-79-69-31-6-33-5-60 56-15 34-27 64-25 67 1 3 17 10 35 17 37 14 95 9 114-9zm1608-3 30-12-44-12c-23-7-44-11-46-9s-7 16-11 32c-6 26-5 28 17 21 13-4 38-13 54-20zm775 15c0-5-4-10-10-10-5 0-10 5-10 10 0 6 5 10 10 10 6 0 10-4 10-10zm333 0c7-1 1-7-13-14-28-16-42-12-33 10 3 8 12 13 20 10s20-6 26-6zm310 0c13 0 17-9 17-39 0-22-4-42-9-45s-29 1-55 10c-43 15-46 18-46 51 0 36 0 36 38 29 20-3 45-6 55-6zm261-30c24-61 22-66-39-77l-55-10v53c0 48 2 53 28 62 44 16 49 14 66-28zm-3994 26c0-3-4-8-10-11-5-3-10-1-10 4 0 6 5 11 10 11 6 0 10-2 10-4zm3838-23c-7-16-20-41-30-58-10-16-18-41-18-55-1-24-1-24-12-5-12 20-14 117-3 135 3 5 22 10 40 10 34 0 34-1 23-27zm-4038-16c0-29-3-33-31-35l-30-2 27 35c14 19 28 35 30 35s4-15 4-33zm697 27c-3-3-12-4-19-1-8 3-5 6 6 6 11 1 17-2 13-5zm3543-37c0-26-15-12-25 23-7 22-6 23 9 11 9-7 16-23 16-34zm-4493 11c-3-8-6-5-6 6-1 11 2 17 5 13 3-3 4-12 1-19zm1241-9c-6-17-22-12-30 10-7 19-5 20 13 11 11-6 19-16 17-21zm102 11c-6-11-16-17-25-14-28 11-15 27 28 33 4 0 3-8-3-19zm223-5 18-25-26 12c-14 6-25 17-25 25 0 20 13 15 33-12zm1657 5c0-5-7-7-15-4-8 4-12 10-9 15 6 11 24 2 24-11zm1380 16c0-3-4-8-10-11-5-3-10-1-10 4 0 6 5 11 10 11 6 0 10-2 10-4zm-4627-20c4-10 0-12-15-8s-17 7-6 13c17 11 15 11 21-5zm332 5c3-5 1-12-5-16-5-3-10 1-10 9 0 18 6 21 15 7zm709-50c14-32 26-61 26-64s-24-11-54-18c-50-11-55-10-87 12-19 13-36 25-37 26-2 1-5 18-7 37-3 35-2 36 43 50 80 25 86 23 116-43zm1399 19c7-28 2-25-24 11-21 30-21 31-2 20 11-5 23-20 26-31zm1207 30c0-8-49-90-54-90-1 0-2 23-3 50-1 49 0 50 28 50 16 0 29-5 29-10zm171-13c-10-9-11-8-5 6 3 10 9 15 12 12s0-11-7-18zm84 13c-3-5-14-10-23-10-15 0-15 2-2 10 20 13 33 13 25 0zm31-27c-11-11-19 6-11 24 8 17 8 17 12 0 3-10 2-21-1-24zm60 26c3-6 2-15-4-21s-11-2-15 11c-5 22 7 29 19 10zm368-4c-4-8-8-15-10-15s-4 7-4 15 4 15 10 15c5 0 7-7 4-15zm-3785-37c17-15 31-30 31-35 0-4-21-23-45-41l-44-34-35 21c-43 27-42 63 3 103 34 31 38 30 90-14zm2014 35c-7-2-21-2-30 0-10 3-4 5 12 5 17 0 24-2 18-5zm617-9c0-2-9-4-20-4s-20 4-20 9 9 7 20 4 20-7 20-9zm367-34c2-28-1-50-5-49-4 0-18 14-31 31l-24 30 24 19c13 10 26 19 29 19s6-23 7-50zm155-63c-19-27-41-51-47-53-7-3-29 5-49 17l-37 21 22 37c12 20 29 48 37 62l16 27 46-31 47-31zm986 88c-3-3-9 2-12 12-6 14-5 15 5 6 7-7 10-15 7-18zm-4653 5c3-5 1-10-4-10-6 0-11 5-11 10 0 6 2 10 4 10 3 0 8-4 11-10zm3275 6c0-2-7-7-16-10-8-3-12-2-9 4 6 10 25 14 25 6zm160-6c0-5-8-10-17-10-15 0-16 2-3 10 19 12 20 12 20 0zm-2163-8c7-5 9-13 4-21-7-11-11-9-20 8-12 21-6 27 16 13zm-1343-71c9-11 5-12-24-6-48 10-56 19-41 51l12 26 21-28c12-16 26-35 32-43zm24 54c2-2 2-15 0-29-3-25-3-25-26 10l-23 36 23-7c13-4 24-9 26-10zm2597-5c-10-11-22-17-26-14-15 9-10 22 9 27 33 9 35 7 17-13zm660-3c27-14 95-69 95-76 0-3-14-21-31-40l-31-34-57 16c-61 17-160 75-161 93 0 6 9 23 20 37 20 25 25 26 83 20 34-3 71-10 82-16zm1075-3c0-8-7-14-15-14-17 0-18 2-9 24 7 18 24 12 24-10zm-4460 12c0-3-4-8-10-11-5-3-10-1-10 4 0 6 5 11 10 11 6 0 10-2 10-4zm1383-11c-3-9-8-14-10-11-3 3-2 9 2 15 9 16 15 13 8-4zm312 5c3-5-1-10-9-10-9 0-16 5-16 10 0 6 4 10 9 10 6 0 13-4 16-10zm905-5c0-8-2-15-4-15s-6 7-10 15c-3 8-1 15 4 15 6 0 10-7 10-15zm215-22c10-21 22-46 27-55 7-14-1-22-41-43-28-14-52-25-55-25-2 0-7 12-10 26-5 18 2 42 21 80 15 30 30 54 34 54s15-17 24-37zm648 15c8-29 6-30-25-4l-28 22 24 2c17 1 25-5 29-20zm57 15c-1-5-6-18-13-30l-13-23-11 30c-11 28-10 30 13 30 13 0 24-3 24-7zm440-9c0-8-5-12-10-9-6 4-8 11-5 16 9 14 15 11 15-7zm80 6c13-8 13-10-2-10-9 0-20 5-23 10-8 13 5 13 25 0zm231 0c6 0 7-4 4-10-10-16-45-12-45 6 0 11 5 14 16 10 9-3 20-6 25-6zm-3856-10c4-6-5-9-19-8-15 1-26 6-26 10 0 12 38 10 45-2zm992-12c-3-8-6-5-6 6-1 11 2 17 5 13 3-3 4-12 1-19zm1338-8c-16-31-35-40-35-16 0 11 34 43 48 45 1 1-4-12-13-29zm-2567 8c-2-6-10-14-16-16-7-2-10 2-6 12 7 18 28 22 22 4zm218-16c51-16 58-21 70-55l13-38-56-36-56-36-70 13c-75 13-117 42-117 78 0 33 29 90 47 94 33 7 111-2 169-20zm3154 19c0-5-7-11-14-14-10-4-13-1-9 9 6 15 23 19 23 5zm53-18c5-26 4-26-9-9-7 10-11 23-8 27 8 14 11 11 17-18zm-2019 3c27-11 38-25 59-79 35-87 36-115 7-176l-23-51-35 53c-19 28-36 53-37 55s-27-22-56-53l-54-56-43 32c-47 34-62 62-62 112 0 56 130 175 193 177 10 0 33-6 51-14zm160 3c2-2-5-24-16-49l-19-45-20 44c-10 24-19 46-19 50 0 7 67 7 74 0zm1926-41c0-13-40-9-41 5 0 6-2 20-4 31-3 16-1 15 21-5 13-12 24-26 24-31zm674 25c10-24 2-25-44-4-43 19-43 19-14 23 37 5 51 0 58-19zm240 15c-19-31-29-36-52-25s-23 11 15 23c21 7 39 12 41 13s0-5-4-11zm-1479-8c3-5 1-10-4-10-6 0-11 5-11 10 0 6 2 10 4 10 3 0 8-4 11-10zm1517-12c-7-7-12-8-12-2 0 14 12 26 19 19 2-3-1-11-7-17zm165 16c-3-3-12-4-19-1-8 3-5 6 6 6 11 1 17-2 13-5zm-2997-51c0-13-48-49-55-41-3 2 3 23 12 46 14 38 17 40 29 24 7-9 14-23 14-29zm1794 22c11-16 12-23 4-21-7 3-26 7-42 11-27 6-27 7-10 20 26 19 29 19 48-10zm1281 15c4-6-11-10-37-9-33 0-38 2-23 9 28 12 53 12 60 0zm-4141-38c-5-24-12-32-29-32-37 0-38 13-3 41 18 15 34 26 36 25 1-2-1-17-4-34zm64 15c11-8 9-13-10-23-33-19-38-17-38 9 0 39 12 42 48 14zm526-4c-12-52-17-53-58-22-22 16-33 29-25 30 24 1 63 9 68 14 13 14 21 2 15-22zm2560-7c-24-18-29-14-12 13 8 13 16 17 22 11s3-15-10-24zm405 23c34-12 42-29 14-30-10 0-30-3-45-5-22-4-28-1-28 14 0 34 11 38 59 21zm-4214-9c16-7 13-9-17-9-21-1-38 4-38 9 0 12 27 12 55 0zm953-95c-28-27-55-26-88 2l-32 27 43 39 43 39 24-47c20-40 21-50 10-60zm342 95c0-5-4-10-10-10-5 0-10 5-10 10 0 6 5 10 10 10 6 0 10-4 10-10zm3070 6c0-3-4-8-10-11-5-3-10-1-10 4 0 6 5 11 10 11 6 0 10-2 10-4zm-3521-25c-23-19-39-19-39-1 0 5 8 11 18 13 37 10 43 6 21-12zm144-27c-7-20-10-18-28 17l-16 30 25-16c14-10 23-22 19-31zm3791 36h39l-7-62c-3-34-10-66-14-70-5-5-47-1-94 8l-86 17 24 55c13 30 24 57 24 59 0 3 17 2 38-1 20-3 55-5 76-6zm-1834-16c0-2-12-4-26-4s-23 4-20 9c6 8 46 4 46-5zm192-29c19-51 15-54-26-21-24 20-27 26-17 45 17 31 25 26 43-24zm88-13c3-2-6-13-20-24l-25-20-17 39c-26 60-22 69 20 37 20-15 39-29 42-32zm1180 48c12-8 9-10-13-10-16 0-26 4-22 10 8 12 16 12 35 0zm-4345-27c-8-33-2-28-49-47-43-18-50-15-60 26-7 29-2 32 69 41 17 2 34 5 39 6 4 0 5-11 1-26zm1065 12c0-16-12-18-48-8-18 4-20 8-10 14 22 14 58 10 58-6zm-1240-15c-6-11-13-20-16-20-2 0 0 9 6 20s13 20 16 20c2 0 0-9-6-20zm590 16c0-2-7-6-15-10-8-3-15-1-15 4 0 6 7 10 15 10s15-2 15-4zm298-11c-2-1-16-5-33-9l-30-6 25 14c14 8 28 12 33 9s7-6 5-8zm403-1c12-14 11-16-5-13-11 2-21 10-24 17-5 17 13 15 29-4zm2284-34 25-50-50 20c-28 11-53 20-56 20-2 0 5 14 18 30 12 17 25 30 30 30 4 0 19-22 33-50zm59-5c-11-37-20-35-42 10l-21 44 34-17c27-13 33-21 29-37zm16 46c0-5-9-7-20-4s-20 7-20 9 9 4 20 4 20-4 20-9zm50-1c0-5-2-10-4-10-3 0-8 5-11 10-3 6-1 10 4 10 6 0 11-4 11-10zm114-29c6-9-63-76-70-69-2 3-1 27 3 56l6 51 28-14c15-8 30-19 33-24zm592 2c-8-22-11-60-9-91 5-51 5-52-28-66-19-8-37-12-41-10s-21 30-38 62c-24 43-30 65-25 89 5 28 11 33 43 38 20 4 42 8 47 10 6 2 22 4 37 4 27 1 27 1 14-36zm310 21c-3-9-6-23-6-32 0-12-6-10-25 8-24 22-24 25-8 31 31 13 46 10 39-7zm-1992-2c10-16 46-112 42-112s-63 80-80 108c-5 8-1 12 13 12 11 0 22-4 25-8zm255-53c26-70 26-90 0-174-11-37-18-69-16-71 3-3 48-17 101-31 110-30 105-21 83-148-12-69-13-70-49-79-19-5-42-7-50-4s-25 32-37 64c-21 52-32 65-89 104-70 48-77 61-86 150-3 25-12 70-20 100-24 82-23 85 44 119 84 41 95 38 119-30zm127 48c2-2-10-25-27-52l-31-48-28 48c-16 27-27 52-25 55 4 6 104 4 111-3zm616-59c-15-15-25 41-10 60 11 13 13 11 16-18 2-18-1-37-6-42zm208 57c0-10-10-15-27-15-26 0-26 1-7 15 25 19 34 19 34 0zm-2760-23c-17-6-42 7-35 18 4 6 13 5 26-3 10-6 15-13 9-15zm3358 19c13-1 17-41 4-41-5 0-19 11-31 24-20 22-21 24-5 21 11-2 25-4 32-4zm122-1c0-5-2-10-4-10-3 0-8 5-11 10-3 6-1 10 4 10 6 0 11-4 11-10zm-1502-62 22-58-48 7c-26 3-48 7-50 8-2 2 9 25 25 53 15 28 28 50 29 49s11-28 22-59zm23 55c6-59 7-57-8-38-15 22-17 45-3 45 6 0 10-3 11-7zm910-20c-8-15-10-15-11-2 0 17 10 32 18 25 2-3-1-13-7-23zm929-35c0-5-7-8-15-8s-15 9-15 19c0 11-3 28-6 38s3 5 15-12c11-16 21-33 21-37zm-4970 33c14-27 13-28-15-33-32-6-40 5-23 32 16 25 24 25 38 1zm4090-2c0-5-7-9-15-9-15 0-20 12-9 23 8 8 24-1 24-14zm328 1c11-18 10-20-12-20-19 0-23 4-19 20 3 11 8 20 12 20 3 0 12-9 19-20zm-3900-10c-14-22-24-19-15 5 4 8 11 15 17 15s6-7-2-20zm57 14c15-6 50-62 43-69-8-8-99-11-104-3-5 7 32 78 41 78 2 0 11-3 20-6zm303-71 3-72-57-29-56-29 49-36c40-29 49-42 51-69 1-19 4-44 7-56 3-19 0-22-23-18-15 3-63 7-107 11l-80 6-57 59c-31 33-61 60-67 60-11 0-28 48-37 108l-7 42h74c83 0 129 23 150 73 12 28 13 28 83 25l71-3zm2352 29c0-7-63-42-75-42-3 0-5 20-5 45v45l40-20c22-11 40-24 40-28zm163 38c9 0 17-4 17-8 0-10-61-94-65-90-2 2-6 27-10 57-7 53-6 54 17 48 12-4 31-7 41-7zm1074-29c-5-2-13 3-18 10-15 24-10 30 9 12 10-10 14-20 9-22zm143 24c37-19 37-23 3-21-26 1-42 11-43 29 0 10 7 9 40-8zm312-16c3-20 0-33-9-36-19-8-21-3-16 35 7 41 19 41 25 1zm-1605-34c3-25 3-45 1-45s-14 13-26 30c-21 28-21 31-5 49 21 26 25 22 30-34zm-3187 27c0-15-6-18-30-14-36 5-37 10-7 22 32 13 37 12 37-8zm352-11c-3-20-8-28-18-24-19 7-18 23 4 39 9 7 17 14 18 14 0 0-1-13-4-29zm798 14c0-8-4-15-10-15-5 0-10 7-10 15s5 15 10 15c6 0 10-7 10-15zm2371-14 17-29-31 9c-18 5-33 9-35 9-1 0 3 9 10 20 17 26 20 25 39-9zm173-24 16-38-53 6c-28 4-54 9-56 11-3 2 11 20 29 39 37 38 41 37 64-18zm731 43c3-5 1-10-4-10-6 0-11 5-11 10 0 6 2 10 4 10 3 0 8-4 11-10zm-3620-10c3-5 1-10-4-10-6 0-11 5-11 10 0 6 2 10 4 10 3 0 8-4 11-10zm195 6c0-2-7-6-15-10-8-3-15-1-15 4 0 6 7 10 15 10s15-2 15-4zm2387-20c33-13 83-29 110-36l49-13-6-46c-3-25-7-49-8-53-1-5-2-16-2-26s-8-27-19-38c-10-11-28-49-40-85-20-62-24-66-76-92-63-31-71-32-90-14-7 7-27 25-44 40-37 30-34 41 22 95l34 33-19 57c-17 51-18 64-7 130 7 39 18 72 24 72s38-11 72-24zm-2447-4c0-4-9-8-21-9-17-2-18 1-9 12 12 14 30 12 30-3zm174-14c-10-16-34-7-34 12 0 17 3 19 19 8 11-7 17-16 15-20zm2816 28c0-3-4-8-10-11-5-3-10-1-10 4 0 6 5 11 10 11 6 0 10-2 10-4zm130-6c0-5-7-10-15-10s-15 5-15 10c0 6 7 10 15 10s15-4 15-10zm-3040-20c-6-11-16-17-22-14-7 5-5 12 7 21 25 18 28 17 15-7zm2978-19 9-39-26 11c-65 29-72 34-59 44 15 12 38 21 54 22 6 1 16-17 22-38zm284-13c-27-18-27-18-33 10-8 39-2 43 31 24l29-17zm33 42c3-6-1-7-9-4-18 7-21 14-7 14 6 0 13-4 16-10zm187-12c-19-19-24-21-32-8-12 19-7 25 27 28l28 2zm125 2c37-9 44-16 54-48 10-34 8-44-18-97-22-47-38-64-77-88-27-15-57-29-65-29-25-1-100 12-127 22l-23 9 18 54c15 43 35 70 92 126 44 42 80 69 89 67 8-3 34-10 57-16zm-3437-5c0-8-4-15-9-15-13 0-22 16-14 24 11 11 23 6 23-9zm2081-33c-9-33-15-39-31-35-19 5-18 7 8 43 15 21 28 37 30 35s-2-21-7-43zm1169 38c0-5-2-10-4-10-3 0-8 5-11 10-3 6-1 10 4 10 6 0 11-4 11-10zm-4610-15c-27-14-36-13-25 4 3 6 16 11 28 11 21-1 21-1-3-15zm110-16c34-36 36-42 15-66-8-10-21-26-28-37-15-20-37-17-75 12l-22 17 35 53c20 28 38 52 40 52 3 0 18-14 35-31zm3176-14 2-44-39 20c-22 11-39 23-39 27 0 7 55 40 70 41 3 1 6-19 6-44zm917 8c-6-14-8-14-14 3-12 30-10 37 5 24 8-6 12-19 9-27zm-4185-9c-15-26-23-32-29-22-6 9 0 20 19 35 15 13 28 23 29 23s-7-16-19-36zm132 26c8-5 11-12 7-16s-15 0-24 9c-18 18-8 23 17 7zm250-20c0-16-2-30-4-30-3 0-14 14-26 30l-21 30h25c22 0 26-4 26-30zm4720-51c0-4-22-21-49-38l-49-30 9 32c5 18 9 52 9 76v45l40-39c22-21 40-42 40-46zm-5210 31c-26-16-30-9-21 40 1 2 9-4 19-13 15-16 15-19 2-27zm457-2c21-24 68-59 105-78l66-34-15-31c-9-16-32-55-52-85-19-30-45-80-57-110-17-44-25-54-42-53-12 0-35 1-51 2-26 1-31 7-54 69l-26 67 40 35 40 35-51 38c-31 23-59 55-72 83-20 40-21 46-7 60 19 18 84 43 116 44 13 0 36-17 60-42zm123 36c0-8-32-33-43-34-4 0-2 9 5 20 12 19 38 28 38 14zm612-10c32-9 58-22 59-28 0-6 2-24 3-40 1-18-8-43-26-67-22-31-37-39-81-50-49-10-59-10-93 7-41 20-41 23-30 99 2 16 89 95 105 95 3 0 31-7 63-16zm2236-9 22-25-26-10c-14-6-26-10-27-10s-2 16-3 35c-1 42 5 43 34 10zm937 14c11-17-1-21-15-4-8 9-8 15-2 15s14-5 17-11zm322 5c-3-3-12-4-19-1-8 3-5 6 6 6 11 1 17-2 13-5zm303-9c0-1-6-8-14-14-11-9-15-7-19 8-3 14 0 17 14 14 11-3 19-7 19-8zm-3581-24c-15-5-22 6-14 19 6 9 10 9 16-1 5-8 4-15-2-18zm591 25c0-3-4-8-10-11-5-3-10-1-10 4 0 6 5 11 10 11 6 0 10-2 10-4zm2220-23c14-7 23-13 20-14-42-8-70-8-70 0 0 5-3 17-6 25-7 17 6 15 56-11zm-3596-57c4-21 4-37-1-35-46 20-93 45-93 51 0 4 17 19 37 33 42 28 43 27 57-49zm1223 47c-3-16-9-36-12-45-6-14-2-18 14-18 13 0 21-6 21-16 0-11-5-14-16-10-9 3-24 6-35 6-23 0-24 17-3 70 18 46 39 54 31 13zm1387 2c-9-22-36-26-50-8-20 26-17 29 20 25 24-3 33-8 30-17zm132-46c3-6 3-26 0-45-6-27-15-38-47-55-22-11-45-19-51-17s-20 28-33 58l-22 55 29 31 30 32 44-25c24-14 47-29 50-34zm598 50c3-2-3-14-12-26l-17-22-35 31-35 30 48-5c26-2 49-6 51-8zm136 1c0-5-4-10-10-10-5 0-10 5-10 10 0 6 5 10 10 10 6 0 10-4 10-10zm47-12c-3-8-6-5-6 6-1 11 2 17 5 13 3-3 4-12 1-19zm208 6c19-14 19-15-10-10-16 2-31 5-33 5-6 2 9 21 16 21 4 0 16-8 27-16zm-452-45c17-16 17-17-14-28-47-16-49-15-49 36v46l22-19c12-10 31-26 41-35zm1122 41c3-5 1-10-4-10-6 0-11 5-11 10 0 6 2 10 4 10 3 0 8-4 11-10zm-5107-29c-7-11-19-23-26-26-8-3-4 8 8 26 24 33 39 34 18 0zm117 19c-3-5-14-10-23-10-15 0-15 2-2 10 20 13 33 13 25 0zm1682-41c23-44 37-55 90-81l62-29 42 21c28 15 45 18 51 12 17-17-23-100-75-156-26-28-63-76-82-107l-35-56-65 15c-65 16-66 16-61 46 2 17 8 53 12 80 8 55 15 54-84 18-32-12-84-20-133-21-50-1-94-8-115-18-18-9-35-15-38-12-2 2-6 28-10 58l-7 53 68-7c133-14 255-4 318 28 22 10 42 21 44 23 2 1-11 18-28 36s-31 37-31 41c0 10 41 107 46 107 1 0 15-23 31-51zm1453 21c8-15 2-22-40-44l-51-27 26 50c26 52 45 58 65 21zm1417 24c-3-3-12-4-19-1-8 3-5 6 6 6 11 1 17-2 13-5zm-3152-14c8-13-25-13-45 0-12 8-9 10 12 10 15 0 30-4 33-10zm104-26c2-2-5-4-16-4-12 0-23 7-27 15-5 13-2 14 17 4 12-6 24-13 26-15zm461 17c0-12-26-32-33-25-9 10 4 34 19 34 8 0 14-4 14-9zm2221-14c-18-19-23-20-31-7-12 19-7 25 25 27l27 1zm159 7c2-3-5-7-17-10-17-5-22-16-26-67-6-67-4-142 8-253l7-71-31-13c-28-11-34-11-54 7-12 11-32 29-45 40-22 19-23 28-20 95l4 73 33-3 34-4-7 62c-5 40-3 80 5 111l13 49 45-6c25-3 48-8 51-10zm180 6c8-5 11-12 7-16s-15 0-24 9c-18 18-8 23 17 7zm-4301-57c1-8-11-13-29-13-36 0-36 3-8 43l22 31 7-24c4-14 7-31 8-37zm743 17c-5-45-7-47-42-20-27 21-27 21 15 43 17 9 30 16 30 17 0 0-1-18-3-40zm386 19c-20-13-38-11-32 5 3 8 13 12 25 9 16-5 18-8 7-14zm249-9c-9-23-14-27-25-17-12 9-10 14 8 29 29 24 30 23 17-12zm2458-6c-8-20-15-38-15-40s-4-4-8-4-14 15-22 33c-7 17-15 35-18 40-2 4 15 7 37 7h41zm345 21c-7-8-22-15-34-15-20 1-20 2 4 15 33 19 46 19 30 0zm43-5c-3-11-12-20-19-20-12 0-12 4-2 20 7 11 16 20 19 20 4 0 5-9 2-20zm522-2c38-25 38-33 2-79-17-22-28-27-47-23-14 3-28 9-33 13-7 7 30 111 39 111 3 0 20-10 39-22zm-845-23c0-5-14-18-31-28-28-15-31-15-25-1 3 9 9 26 12 39 5 21 9 22 25 12 10-6 19-16 19-22zm94 8c-9-37-11-38-29-23-14 12-14 15 2 31 26 26 34 23 27-8zm-715-27c1-6-5-1-13 9-8 11-12 24-8 29 5 9 20-17 21-38zm478 7c-11-10-26 8-20 23 5 15 7 14 15-1 6-9 7-19 5-22zm-4007 11c0-8-4-12-10-9-5 3-10 10-10 16 0 5 5 9 10 9 6 0 10-7 10-16zm60-8c0-18-5-24-19-23-17 1-18 3-4 24 19 29 23 29 23-1zm1240 20c0-3-4-8-10-11-5-3-10-1-10 4 0 6 5 11 10 11 6 0 10-2 10-4zm108-23c-16-16-48-12-48 6 0 9 49 20 59 13 3-1-2-10-11-19zm120 6c-19-13-28-11-28 5 0 9 7 12 21 9 16-4 17-8 7-14zm1682-26c11-25 19-48 17-49-2-2-33 5-70 15s-69 16-72 13-5-2-5 1c0 8 90 66 102 67 4 0 16-21 28-47zm2028 20c10-16 24-38 31-50l11-22-72 25c-39 13-73 26-76 28-4 4 67 45 80 46 4 0 15-12 26-27zm-5122-11c-15-14-36-9-36 9 0 17 3 18 21 9 11-7 18-14 15-18zm3314 24c0-3-4-8-10-11-5-3-10-1-10 4 0 6 5 11 10 11 6 0 10-2 10-4zm-557-28c-3-13-9-40-14-60l-10-38h-59c-33 0-60 3-60 8 1 6 138 112 146 112 1 0 0-10-3-22zm1050 2c5-21-14-27-48-13-15 5-14 8 6 19 32 18 36 17 42-6zm-2493-5c0-8-4-15-10-15-5 0-7 7-4 15 4 8 8 15 10 15s4-7 4-15zm35 6c3-5 1-12-5-16-5-3-10 1-10 9 0 18 6 21 15 7zm-130-11c3-5 2-10-4-10-5 0-13 5-16 10-3 6-2 10 4 10 5 0 13-4 16-10zm2836-12c0-13 3-35 5-50l5-27-46 25c-25 14-45 28-45 30 0 6 63 44 73 44 4 0 7-10 8-22zm35-34-15-29-1 45c0 41 1 43 16 28 14-14 14-18 0-44zm864 51c0-2-10-10-22-16-21-11-22-11-9 4 13 16 31 23 31 12zm-2160-40c0-19-4-35-10-35-5 0-8 10-6 23 3 12 5 28 5 35 2 28 11 9 11-23zm609 4c-22-14-29-11-29 11 0 18 3 19 21 9 17-9 19-13 8-20zm-3654 11c-3-5-12-10-18-10-7 0-6 4 3 10 19 12 23 12 15 0zm195 0c0-5-4-10-10-10-5 0-10 5-10 10 0 6 5 10 10 10 6 0 10-4 10-10zm40 6c0-3-4-8-10-11-5-3-10-1-10 4 0 6 5 11 10 11 6 0 10-2 10-4zm570-11c0-2-7-5-15-9-9-3-15 0-15 9s6 12 15 9c8-4 15-7 15-9zm610 8c0-5-5-15-10-23-8-12-10-11-10 8 0 12 5 22 10 22 6 0 10-3 10-7zm837 1c-3-3-12-4-19-1-8 3-5 6 6 6 11 1 17-2 13-5zm3002-33 31-39-48-35-48-34-27 38c-15 20-27 40-27 43 0 4 78 63 87 66 1 0 15-18 32-39zm-4899 9c0-4-7-10-15-13-16-7-29 8-20 23 6 10 35 2 35-10zm1115 11c18-7 15-11-23-30l-43-22 16 31c17 32 19 33 50 21zm2072 3c-3-3-12-4-19-1-8 3-5 6 6 6 11 1 17-2 13-5zm1802-47c-28-7-36-5-63 23l-31 31 63-23 64-23zm-3116 36c3-5-7-17-21-27-14-11-23-15-20-10s8 17 11 27c7 18 22 23 30 10zm1753-55 31-62-40-22c-38-20-43-20-79-6-28 11-37 20-33 31 4 9 11 35 18 58 10 38 32 60 62 62 6 1 24-27 41-61zm84 52c0-13-20-13-40 0-12 8-9 10 13 10 15 0 27-4 27-10zm-3796-15c-4-8-10-12-15-9-11 6-2 24 11 24 5 0 7-7 4-15zm924-26c-8-6-18-2-25 8-21 27-15 35 13 17 19-13 22-19 12-25zm179 19c-3-8-6-5-6 6-1 11 2 17 5 13 3-3 4-12 1-19zm175-10c-5-21-6-21-12-2-8 21-3 37 10 29 4-3 6-15 2-27zm611-6c-3-28 2-49 18-76l22-38-54 27c-30 15-56 29-58 31-4 3 67 94 73 94 2 0 1-17-1-38zm1858 21c33-20 33-20 16-51-13-22-13-21-35 23-24 50-23 52 19 28zm94 8c3-5 1-12-4-15s-11 1-15 9c-6 16 9 21 19 6zm489-5c37-16 51-44 62-133 7-59 9-58-68-42-59 13-107 45-107 71-2 36 23 107 38 111 29 8 42 7 75-7zm-3290-10c-3-8-13-12-25-9-16 5-18 8-7 14 20 13 38 11 32-5zm211-25c7-23 6-23-46-17-30 3-56 6-59 6s15 11 40 24c48 25 54 24 65-13zm56 12c-8-15-10-15-11-2 0 17 10 32 18 25 2-3-1-13-7-23zm719 17c8-5 11-10 5-11-38-3-72-12-85-21-8-6-2 1 13 16 30 28 43 31 67 16zm1940-6 25-15-25 7c-14 3-29 10-34 15-16 14 6 10 34-7zm140-14c0-20-5-30-15-30-18 0-20 31-3 48s18 16 18-18zm629-24c-6-25-13-46-16-46-8 0-57 49-53 53 13 12 75 46 77 43 2-2-1-24-8-50zm54 36c16-17 15-20-14-48l-31-29 7 30c10 45 16 65 19 65 2 0 10-8 19-18zm-4201-9c31-37 31-44 2-40-22 3-28 9-29 30-2 31 6 34 27 10zm2619-6c-10-9-11-8-5 6 3 10 9 15 12 12s0-11-7-18zm1006 1c-3-8-6-5-6 6-1 11 2 17 5 13 3-3 4-12 1-19zm-4561-15c-4-10-25-31-49-48l-42-30 45 52c45 53 57 59 46 26zm560 12c-8-8-16-15-19-15-2 0-4 7-4 15s9 15 19 15c17 0 18-2 4-15zm318-9c-3-9-10-16-15-16-6 0-5 9 1 21 13 24 24 20 14-5zm359-1c4-8 2-17-3-20-6-4-10 3-10 14 0 25 6 27 13 6zm112-3c-3-3-11 0-18 7-9 10-8 11 6 5 10-3 15-9 12-12zm2859 6c-3-7-15-21-28-30-22-16-23-16-18 7 4 21 14 29 44 34 4 0 5-5 2-11zm126-7c50-17 55-21 54-47-1-16-2-50-3-75l-1-46-35 2c-20 2-52-2-72-8-35-11-36-10-79 38-24 28-44 53-44 56 0 13 95 99 110 99 8 0 40-9 70-19zm-3830-1c0-5-5-10-11-10-5 0-7 5-4 10 3 6 8 10 11 10 2 0 4-4 4-10zm3107 4c-3-3-12-4-19-1-8 3-5 6 6 6 11 1 17-2 13-5zm1331-3c10-6 8-10-10-14-14-4-29-1-38 8-13 13-11 15 10 15 14 0 31-4 38-9zm569-26c-3-20-7-39-10-42s-24 10-46 28c-44 37-41 44 20 47l41 3zm-2351-2c-7-7-26 7-26 19 0 6 6 6 15-2 9-7 13-15 11-17zm2087-78c-12-51-6-108 18-183 12-39 21-73 18-76-2-2-47-22-99-44l-95-41-12 52c-7 29-12 64-13 78 0 15-9 47-20 72l-21 46 30 59c17 34 50 77 77 101l48 42 38-38c34-33 38-41 31-68zm-5225 70c-6-14-13-23-15-21-5 5 15 46 22 46 3 0-1-11-7-25zm2333-5c16-16 29-32 29-35 0-5-81-28-85-23-14 16-35 71-30 78 13 20 58 10 86-20zm718-1c19-55 12-63-20-23-17 22-38 42-47 46-11 4-4 7 20 7 32 1 37-3 47-30zm171-21c0-20-27-5-44 23l-19 32 32-24c17-12 31-26 31-31zm1790 11c0-5-10-5-22 0-25 9-32 11-50 11-8 1-5 7 6 15 16 12 22 12 42-2 13-8 24-19 24-24zm339-47c-3-1-25 5-48 15l-42 18 43 28 43 28 5-43c3-24 2-44-1-46zm103 6c-4-3-23-8-42-10l-35-3-3 49-3 48 45-38c24-22 41-42 38-46zm-4018 41c3-17 6-42 6-56 0-24-1-23-37 11-21 20-42 36-48 36-9 1 52 36 66 39 4 1 9-13 13-30zm-520 12c3-5-1-11-9-15-9-3-15 0-15 9 0 16 16 20 24 6zm1485-30c-6-2-21 7-33 19l-21 23 33-19c18-10 28-20 21-23zm-2444-26c-7-31-14-58-16-60-3-2-14 12-27 30l-22 34 37 26c21 14 38 25 39 25s-4-25-11-55zm495 50c0-7-30-13-34-7-3 4 4 9 15 9 10 1 19 0 19-2zm570-3c0-5-9-17-20-27-20-18-20-17-20 8 0 20 5 27 20 27 11 0 20-4 20-8zm1919-1c11-7 9-11-8-20-18-10-21-9-21 9 0 22 7 25 29 11zm557-25c3-22-1-20-21 10-16 25-16 25 1 16 10-5 19-17 20-26zm2054 3c0-5-9-9-20-9-22 0-23 1-14 24 5 13 9 14 20 5 8-6 14-15 14-20zm-5530 4c0-10-10-29-21-43l-20-25 16 39c8 21 15 40 15 42s2 4 5 4 5-8 5-17zm453-11c-4-18-8-20-20-10-13 10-13 14 3 25 22 16 25 13 17-15zm487-1c0-29-1-30-31-19l-31 11 29 18c15 10 29 19 31 19 1 0 2-13 2-29zm155 5c49-22 55-28 55-55 0-37 14-47 32-24 7 10 23 26 35 37 22 18 23 18 77-14 31-17 58-35 60-39 3-4 0-26-6-48-9-38-15-43-79-73-66-30-71-31-126-20-32 6-65 13-73 16-14 3-100 132-100 148 0 9 59 96 65 96 3 0 29-11 60-24zm65 7c0-9-7-9-30-2-16 6-30 13-30 15s14 3 30 2c17-1 30-8 30-15zm1011-13c33-17 59-35 57-39-2-5-22-25-46-45-42-34-44-35-68-19-22 14-25 22-20 57 3 23 5 49 5 59 1 22 1 22 72-13zm609 12c0-15-24-32-44-32-20 1-20 1 3 20 24 21 41 26 41 12zm158-33c-15-29-23-37-29-27-14 22-10 32 19 50 15 9 28 17 29 17 2 1-7-17-19-40zm92-29c4-30-1-36-31-38-16-1-36-3-42-5-14-2-12 13 9 70l16 43 23-28c13-15 24-34 25-42zm77 53c3-9-8-10-35-4-2 1 0 6 3 12 8 12 27 7 32-8zm349-25c17-33 17-33-12-42-20-6-22-3-21 38 1 49 9 50 33 4zm264-25c0-2-17-3-38-3-36 0-38 1-40 36l-3 36 41-33c22-18 40-34 40-36zm1262 54c10-2 20-6 23-9 7-7-42-108-52-108-3 0-23 5-44 11-38 12-38 12-32 53 3 23 6 47 6 55 0 13 18 12 99-2zm-4782-34c0-18-1-36-2-40-4-11-98-11-105 0-3 4-2 24 2 43 6 35 6 35 56 33 48-3 49-3 49-36zm1133 1 18-36-38 23c-51 30-50 29-33 39 25 16 36 11 53-26zm461-11c-4-27-7-54-7-60 0-7-1-13-2-13-5 0-55 77-55 83 0 5 46 30 68 36 1 1 0-20-4-46zm282 20c-2-16-5-34-5-42-1-11-6-10-21 4l-20 18 22 24c27 29 30 29 24-4zm1438 18c3-5-1-14-9-21-13-10-15-9-15 9 0 21 14 28 24 12zm1351-8c-2-10-4-22-5-28-1-5-5-1-9 10-9 21-5 35 9 35 4 0 7-8 5-17zm-1615-48c0-5-10 0-21 12-13 12-18 26-14 33 6 9 12 6 21-11 7-13 13-28 14-34zm674 35c40-17 51-18 88-7 68 20 82 16 127-38l41-49-32-33c-44-46-113-66-194-59-62 5-67 4-119-30-61-41-101-41-109-1-23 110-4 154 89 204 33 18 61 33 62 33s22-9 47-20zm-3680 4c12-5 13-10 5-26-9-17-13-18-20-7-9 15-12 39-5 39 2 0 11-3 20-6zm182-9c17-16 14-18-10-9-9 3-16 10-16 15 0 13 9 11 26-6zm4401-7c-3-8-6-5-6 6-1 11 2 17 5 13 3-3 4-12 1-19zm-4318-14c9-20 9-25 0-22-14 5-32 48-20 48 4 0 13-12 20-26zm880 2c18-19 20-24 7-29-10-4-20 4-30 23-18 36-8 39 23 6zm1734 3c-6-6-17-8-24-3-9 5-8 9 7 14 23 9 31 3 17-11zm2127 6c10-13 9-15-8-15-15 0-20 5-16 15 4 8 7 15 9 15 1 0 8-7 15-15zm-5380-5c0-5-2-10-4-10-3 0-8 5-11 10-3 6-1 10 4 10 6 0 11-4 11-10zm930 6c0-15-14-35-21-30-15 9-10 34 6 34 8 0 15-2 15-4zm843-18c-20-19-24-20-55-7l-33 14 50 6c28 3 52 7 55 7 2 1-5-8-17-20zm700 15c-7-2-19-2-25 0-7 3-2 5 12 5s19-2 13-5zm396-22c10-6 3-9-23-9-20 0-36 1-36 3s3 10 6 19c6 16 13 14 53-13zm801 19c0-5-8-10-17-10-15 0-16 2-3 10 19 12 20 12 20 0zm1952-17c31-29 35-43 15-43-12 0-188-198-195-220-8-23 19-7 48 28 36 41 26 16-14-37-14-19-24-36-23-38 2-1 44-5 93-8s112-7 140-10l52-6 7 38c4 21 9 49 12 63 7 39 19 43 19 7 1-17 3-68 5-112l4-80-63-14c-60-14-66-13-175 14-129 32-187 53-187 67 0 5 10 32 22 60l21 50-25 79c-30 89-31 87 49 108 23 6 68 27 100 45 32 19 60 35 62 35 3 1 18-11 33-26zm37 18c7-5 12-14 9-21-2-7-10-4-22 9-19 21-12 28 13 12zm-5524-39c-2-21-18-63-36-93-42-70-111-158-124-158-5 0-23 16-39 35-25 30-27 39-20 66l9 31 36-31c40-35 49-39 49-19s65 149 91 180c31 36 38 34 34-11zm3088 6c-5-10-33 10-33 23 0 5 9 4 19-3 11-7 17-16 14-20zm-2225-14 21-31-42 4c-23 3-43 6-45 8-1 1 7 14 19 29s22 26 23 24c2-2 12-17 24-34zm1458 24c3-4 3-12-1-18-7-12-35 4-35 20 0 9 26 7 36-2zm2484-3c12-15 4-16-38-6-7 2 10 21 17 21 5 0 14-7 21-15zm-4934-22c-7-7-26 7-26 19 0 6 6 6 15-2 9-7 13-15 11-17zm441-18c7-21 11-40 9-43-3-2-24 9-46 26l-41 30 23 16c30 21 39 17 55-29zm1158 35c-3-5-12-10-18-10-7 0-6 4 3 10 19 12 23 12 15 0zm31-47c-3-3-12 0-21 7-14 12-14 15 2 33 18 19 18 19 21-8 2-15 1-29-2-32zm544 16c0-9-61-41-67-35-2 2 4 20 13 40 17 34 19 35 36 19 10-9 18-20 18-24zm213 19c3-13 9-33 12-46 7-20 5-22-16-18-13 3-42 8-63 11l-40 7 40 33c46 40 60 43 67 13zm916-7c-15-5-22 6-14 19 6 9 10 9 16-1 5-8 4-15-2-18zm-2679 3c0-2-9-4-21-4-11 0-18 4-14 10 5 8 35 3 35-6zm220 1c10-12 10-15-4-15-9 0-16 7-16 15s2 15 4 15 9-7 16-15zm850-36c0-5-9-9-20-9-16 0-20 7-20 33l1 32 19-24c11-13 20-27 20-32zm20 41c8-5 11-12 7-16s-15 0-24 9c-18 18-8 23 17 7zm1660-15c0-12-29-3-34 10-4 13-2 14 14 5 11-6 20-13 20-15zm1381 3c46-24 40-31-34-41-36-5-37-4-31 22 7 29 13 41 19 41 3 0 23-10 46-22zm-4244-1 21-12-23-27c-25-29-35-22-35 28 0 27 5 29 37 11zm1916-28c-7-7-12-3-15 16-5 25-4 25 10 11 12-11 13-19 5-27zm287 31c-20-13-47-13-55 0-4 6 9 10 32 10 28 0 34-3 23-10zm176-2c2-3-9-16-24-30-20-20-34-25-54-21-29 5-37 30-18 49 10 10 86 11 96 2zm938-3c-7-16-24-21-24-6 0 8 7 13 27 20 1 1 0-6-3-14zm1531 6c3-5 1-12-5-16-5-3-10 1-10 9 0 18 6 21 15 7zm-5035-10c14-1 65-119 56-128-2-2-16-6-32-9-16-2-34-6-40-8-12-5-124 81-124 94 0 5 4 19 9 32 9 25 20 26 131 19zm1514-7c4-10 1-14-6-12-15 5-23 28-10 28 5 0 13-7 16-16zm916 9c-1-5-7-19-14-32-13-23-14-23-24-5-8 14-6 21 6 31 19 14 32 16 32 6zm199-19c-13-16-22-12-25 10-1 9 5 12 17 9 15-4 17-8 8-19zm711-9 33-34-36-44-36-44-55 10c-31 6-56 13-56 16s6 28 13 55c11 43 18 51 47 62 50 18 53 17 90-21zm20 25c0-5-2-10-4-10-3 0-8 5-11 10-3 6-1 10 4 10 6 0 11-4 11-10zm-3672-21c-19-13-28-11-28 5 0 9 7 12 21 9 16-4 17-8 7-14zm627-26c-10-56-18-57-47-8l-28 45h41 41zm109 25c-3-4-11-5-19-1-21 7-19 12 4 10 11 0 18-5 15-9zm2566-29c47-40 48-42 65-132 9-51 18-102 21-114 4-23-4-28-67-38-39-6-89 8-89 25 0 6 18 38 40 72 23 33 39 62 37 65-2 2-36 28-75 57-77 57-78 61-17 94 29 17 32 16 85-29zm1119 19c-13-25-93-124-122-150-10-9-17-18-16-20s-3-19-10-39c-10-32-15-36-39-31-38 7-47 16-62 62-12 36-11 42 5 60 9 10 32 24 49 30 20 6 45 28 64 54 31 45 40 49 120 54 20 2 22 0 11-20zm597 7c36-15 36-15 31-66-3-29-9-55-14-60-23-22-242-39-270-21-22 14-83 106-75 113 4 4 27 10 52 14 24 4 47 8 50 10 3 1 27 6 55 10 27 3 51 8 54 11 10 10 84 3 117-11zm644 1c0-7-9-16-21-19-20-5-20-5-3 14 20 23 24 23 24 5zm-5710-10c0-8-7-16-15-20-12-4-13-2-2 14 14 24 17 25 17 6zm490-50c0-2-11-11-25-20-24-16-24-15-45 30-11 26-20 48-20 51 0 2 20-10 45-27s45-32 45-34zm124 16 27-44-33 7c-18 4-44 12-57 17l-24 9 28 29c16 16 29 29 30 27 1-1 14-22 29-45zm125 31 21-18-36-24-37-23 6 23c4 13 7 32 7 42 0 9 4 17 9 17s18-8 30-17zm913-43c17-15 17-18 0-50-9-19-21-35-27-37-5-1-31 16-58 40l-47 42 26 33 26 32 31-22c18-12 40-30 49-38zm676-8c29-31 55-65 58-76 4-11 22-40 40-66 39-55 41-63 16-88-16-16-28-18-91-11-115 12-136 23-170 82-33 59-65 157-54 168 5 4 28 19 53 33 60 34 84 28 148-42zm787 22c-54-22-95-21-95 1 0 9 15 22 32 30 28 11 37 11 63-3l30-15zm65 34c0-4-6-8-14-8s-17 4-20 8c-2 4 4 8 15 8 10 0 19-4 19-8zm240 8c0-11-19-15-25-6-3 5 1 10 9 10 9 0 16-2 16-4zm-3368-46c-17-39-17-39-22-12-4 20-1 30 15 39 11 7 21 12 22 13 1 0-6-18-15-40zm2558 19c0-6-4-7-10-4-5 3-10 11-10 16 0 6 5 7 10 4 6-3 10-11 10-16zm64-4c-19-29-29-27-19 4 3 12 13 21 21 21 12 0 12-4-2-25zm100-45c67-102 58-120-18-35-54 59-62 72-52 87 6 10 14 18 17 18s27-31 53-70zm-1744 45c-10-12-16-13-26-4-20 16-18 19 12 19 22 0 25-2 14-15zm2506-11c-7-36-12-39-26-14-10 18-9 24 1 31 23 15 30 10 25-17zm1019 16c3-5 1-10-4-10-6 0-11 5-11 10 0 6 2 10 4 10 3 0 8-4 11-10zm-2126-17c3-2-4-12-15-23-19-19-19-18-53 11l-33 31 48-8c27-3 51-8 53-11zm-2417-22c4-26 2-29-13-20-27 14-31 27-12 38 10 6 19 11 19 11 1 0 4-13 6-29zm939-3c10-18 8-19-13-13-30 10-30 9-22 29 7 19 19 13 35-16zm1549 22c0-5-2-10-4-10-3 0-8 5-11 10-3 6-1 10 4 10 6 0 11-4 11-10zm484-157c-9-18-20-33-23-33-5 0-47 106-54 137-1 3 18 19 43 33l45 26 3-65c3-48-1-75-14-98zm821 156c11-17 0-20-21-4-17 13-17 14-2 15 9 0 20-5 23-11zm-3580-39 15-28-40 15c-38 15-39 17-24 34 20 22 29 18 49-21zm2575 20c6-11 8-20 6-20-3 0-10 9-16 20s-8 20-6 20c3 0 10-9 16-20zm1897-17c-11-10-26 8-20 23 5 15 7 14 15-1 6-9 7-19 5-22zm1033 15c0-10 1-20 2-23 6-15 13-113 7-110-7 5-89 141-89 148 0 3 18 4 40 4 32-1 40-5 40-19zm46 0c-3-13-6-36-6-52 0-43-10-26-16 28-5 39-3 46 11 46 13 0 16-6 11-22zm-4996-2c0-8 3-22 6-31 5-13 1-15-22-11-16 2-36 5-44 5-10 1-5 10 15 26 35 28 45 31 45 11zm220 4c0-5-4-10-10-10-5 0-10 5-10 10 0 6 5 10 10 10 6 0 10-4 10-10zm1590-5c10-13 9-15-8-15-15 0-20 5-16 15 4 8 7 15 9 15 1 0 8-7 15-15zm113-7c9-13 34-43 56-67 42-47 45-73 5-47-37 25-52 18-20-9 25-20 28-26 17-39-21-25-33-19-73 33-39 51-48 93-28 132 14 25 24 24 43-3zm467 1c0-15-4-19-16-15-9 3-21 6-27 6-13 1 22 30 35 30 4 0 8-9 8-21zm81-16c27-20 49-38 49-39s-25 6-55 14c-47 13-55 19-55 39 0 12 3 23 6 23 4 0 29-17 55-37zm554-21c-7-8-85-14-85-7 0 3 7 20 16 37l16 30 29-28c16-15 27-30 24-32zm-2640 38c3-5 1-10-4-10-6 0-11 5-11 10 0 6 2 10 4 10 3 0 8-4 11-10zm1305-3c0-8-6-14-14-14s-12 6-9 14c3 7 9 13 14 13s9-6 9-13zm2670-1c0-7-6-19-14-25-11-9-12-6-8 14 5 26 22 35 22 11zm544-69c26-44 45-81 43-83-6-6-147 18-147 25 0 3 9 31 20 61 12 30 23 61 26 69 6 17 1 22 58-72zm268-134c-23-47-28-52-66-56-23-2-44-1-48 2-3 3-9 67-12 141l-6 135 78-85 79-85zm-5656 160c-9-10-35 6-47 28l-11 22 31-23c18-12 30-24 27-27zm314-2c-30-15-32-14-51 9-10 14-19 28-19 31s23-1 51-10l50-16zm2249 40c9-6 10-14 4-25-8-15-11-14-21 9-12 26-7 31 17 16zm590-10c0-3-4-15-9-26-7-16-9-17-9-3-1 9-4 24-7 32-5 12-2 15 10 10 9-3 16-9 15-13zm1301-6c14-19 14-19-2-6-10 7-18 18-18 24s1 8 3 6c1-2 9-13 17-24zm-4255-6c-4-5-13-9-22-9-13 0-13 3-3 15 13 15 35 11 25-6zm988-42c-6-11-14-12-33-5l-25 9 30 25c29 23 30 23 33 4 2-11 0-26-5-33zm100-2c1-5-8-11-20-13-13-2-23-2-23 0s-4 18-10 37l-9 33 30-24c17-12 31-27 32-33zm1916 46c15-10 11-16-32-50-17-13-18-12-11 15 11 47 16 52 43 35zm1111-18c0-26-1-26-15-7-19 25-19 34 0 34 10 0 15-10 15-27zm-1980-3c0-13-5-18-15-14-12 5-13 10-4 20 15 19 19 18 19-6zm533 7c3-8 2-19-2-26-6-9-13-5-25 13-16 25-16 26 3 26 10 0 21-6 24-13zm891-9c3-13 6-25 6-28s-21-4-46-2l-45 4 33 24c41 29 44 29 52 2zm487-51c-4-22-12-42-18-44-12-4-63 42-63 57 0 4 17 19 37 33 44 32 53 22 44-46zm134 53c-10-11-22-20-27-20s-4 9 2 20 18 20 27 20c14 0 14-2-2-20zm-4823-66 3-71-44 9c-24 4-46 9-47 11-2 1 15 31 38 65 22 34 42 61 44 60 1-2 4-35 6-74zm330 64c71-15 80-23 76-72l-3-40-67-14c-63-12-70-12-117 9l-51 21 46 54c26 30 50 54 54 54 5 0 32-5 62-12zm348 2c0-5-2-10-4-10-3 0-8 5-11 10-3 6-1 10 4 10 6 0 11-4 11-10zm470-46 23-56-29-27c-38-34-110-91-117-91-3 0-3 8-1 18 3 10-13 36-41 67-24 28-45 54-45 58 0 5-17 6-37 3-42-7-236-16-231-11 2 2 37 21 79 43 48 25 86 38 105 37 16-2 43-3 59-4 27-1 31-5 33-33 3-41 8-45 31-24 18 16 129 75 142 76 4 0 17-25 29-56zm30 13c0-35-3-34-18 10-9 26-8 31 4 26 8-3 14-18 14-36zm174 28c4-10-1-15-16-15-17 0-18 2-8 15 7 8 14 15 15 15 2 0 5-7 9-15zm51-3c-3-3-11 0-18 7-9 10-8 11 6 5 10-3 15-9 12-12zm160 8c-3-5-11-10-16-10-6 0-7 5-4 10 3 6 11 10 16 10 6 0 7-4 4-10zm1859-21c3-3-17-6-44-8-43-2-50 1-50 17 0 17 4 18 45 8 24-7 46-14 49-17zm-2879 11c-3-5-14-10-23-10-15 0-15 2-2 10 20 13 33 13 25 0zm45-11c0-5-7-9-15-9-9 0-12 6-9 15 6 15 24 11 24-6zm2480-45c22-66 23-79 5-66-24 17-46 74-40 102 4 17 8 30 9 30 2 0 13-30 26-66zm1810 40c18-45 19-45-54-29l-30 6 30 24c37 31 42 31 54-1zm-3650-15c-17-31-30-32-30-1 0 25 3 29 20 25 15-4 17-9 10-24zm720 21c-8-5-19-10-25-10-5 0-3 5 5 10s20 10 25 10c6 0 3-5-5-10zm795 0c3-5-1-10-10-10s-13 5-10 10c3 6 8 10 10 10s7-4 10-10zm519-5c3-9 0-15-8-15-7 0-13 7-13 15s4 15 8 15 9-7 13-15zm455 1c10-12 8-17-8-26-19-9-21-8-21 15 0 28 12 32 29 11zm293-38c15-28 27-53 25-54-1-2-32-6-69-9l-66-7-17 46c-10 26-16 49-13 52 5 4 76 20 103 23 6 0 22-22 37-51zm738 13c0-3-9-12-20-19-19-11-20-10-20 24 0 36 0 37 20 19 11-10 20-21 20-24zm173 25c14-11 15-15 4-25-11-8-16-5-25 14-13 28-6 31 21 11zm401-41 6-30-20 24c-21 24-25 43-13 55 8 8 18-9 27-49zm389 15c-9-22-22-40-30-40-9 0-5 13 13 40 15 22 28 40 30 40 1 0-5-18-13-40zm-4046 8c-3-8-6-5-6 6-1 11 2 17 5 13 3-3 4-12 1-19zm1543 9c0-8-7-14-15-14-11 0-12 4-4 14 6 7 13 13 15 13s4-6 4-13zm460 7c0-21-22-42-40-37-19 5-19 6 3 24s37 24 37 13zm97 0c-3-3-12-4-19-1-8 3-5 6 6 6 11 1 17-2 13-5zm-3656-80c-14-6-38-14-53-17l-27-7 25 51 26 51 28-33 28-34zm339 66c0-5-2-10-4-10-3 0-8 5-11 10-3 6-1 10 4 10 6 0 11-4 11-10zm996-6c-3-9-6-21-6-27s-6-2-14 8c-16 22-12 35 11 35 10 0 13-6 9-16zm74 12c0-3-4-8-10-11-5-3-10-1-10 4 0 6 5 11 10 11 6 0 10-2 10-4zm2549-27c-13-25-16-24-21 5-4 19-1 22 13 19 15-4 16-9 8-24zm1106 21c-3-5-14-10-23-9-14 0-13 2 3 9 27 11 27 11 20 0zm65 3c-1-20-18-33-34-27-17 6-16 8 5 20 29 16 29 16 29 7zm-4740-7c0-3-4-8-10-11-5-3-10-1-10 4 0 6 5 11 10 11 6 0 10-2 10-4zm106-23c-7-7-26 7-26 19 0 6 6 6 15-2 9-7 13-15 11-17zm791-33c45-75 43-102-11-157-42-42-46-44-95-42-28 2-55 5-60 9-6 3-18 34-27 69l-16 63 34 41c60 75 61 76 102 74 37-2 42-6 73-57zm1256 25c-20-41-27-41-54 3l-21 32h46 46zm1697 5c12-23 12-24-3-11-10 7-17 20-17 29 0 18 3 16 20-18zm-3766-12c17-13 14-16-37-35l-55-20 21 43c21 45 25 45 71 12zm1026 22c12-7 11-12-5-30-18-20-20-20-26-3-17 41-3 55 31 33zm383 3c3-5 0-20-6-35l-12-27-32 29c-26 24-29 30-15 33 29 8 61 7 65 0zm768-10c-13-24-40-59-41-53 0 3-4 20-9 38-10 32-9 32 25 32 30 0 33-2 25-17zm647-18c-38-35-58-44-58-25 0 6 0 13-1 17 0 5 72 39 91 42 3 0-12-15-32-34zm794 26c4-1 0-16-9-35l-16-34-26 31c-14 18-30 36-36 40-5 4 10 6 35 3s48-5 52-5zm783-1c17-7 14-9-13-9-20-1-31 3-27 9 7 12 13 12 40 0zm82 4c-3-3-12-4-19-1-8 3-5 6 6 6 11 1 17-2 13-5zm-2907-50c30-8 56-16 58-18s-8-13-22-24c-15-11-26-27-26-35s-7-20-16-28c-11-9-14-22-9-47 6-31 4-33-14-27-12 3-33 8-48 11-39 7-39 8-62 80-14 43-20 77-15 99l6 33 46-14c26-8 72-22 102-30zm700-36c0-4-28-8-61-8-61 0-61 0-47 23 8 12 21 33 28 47l13 24 33-39c19-21 34-42 34-47zm1270 41 22-30-34 6c-42 8-48 15-37 43 10 27 20 23 49-19zm1160 26c7-9 11-18 8-20-9-10-38 7-38 21 0 18 14 18 30-1zm-4797-15c-3-12-8-19-11-16-5 6 5 36 12 36 2 0 2-9-1-20zm1036-4 23-24-36 8c-20 4-36 5-36 2s-3-2-7 1c-5 5 18 30 33 37 0 0 11-11 23-24zm1163-6c5-35-3-44-31-35-19 6-19 7-3 35 21 38 29 38 34 0zm2197 14c2-2-11-22-29-44-18-23-36-38-40-33-4 4-14 27-24 51l-16 43 52-7c29-4 55-8 57-10zm640-6c-17-34-19-34-19-5 0 18 5 27 15 27 13 0 14-4 4-22zm-3344 2c3-6-1-7-9-4-18 7-21 14-7 14 6 0 13-4 16-10zm1004-7c-7-10-15-20-16-22-2-2-3 5-3 17 0 14 6 22 16 22 14 0 15-3 3-17zm56 7c3-5-8-16-26-25l-31-17 18 26c21 27 30 31 39 16zm395 0c0-5-2-10-4-10-3 0-8 5-11 10-3 6-1 10 4 10 6 0 11-4 11-10zm79 7c-2-1-12-9-21-16-15-12-18-11-18 3 0 10 8 16 22 16 12 0 19-1 17-3zm76-47c19-37 22-52 13-55-29-11-112-34-114-32-1 1-5 21-9 44-6 40-5 42 37 67 24 14 44 26 45 26 2 0 14-23 28-50zm-175 0c-14-27-17-25-22 9-4 26-2 29 14 20 15-8 16-14 8-29zm1410 34c0-9-54-84-61-84-6 0-39 73-39 85 0 3 23 5 50 5 28 0 50-3 50-6zm219-59 18-60-23-25c-19-21-24-38-26-100l-3-75-61-3-60-3-16 57c-33 116 3 252 69 264 74 14 82 10 102-55zm231 53c-1-31-17-41-56-33l-39 7 40 19c49 22 55 22 55 7zm-4650-12c-7-10-21-11-46-6-53 12-51 18 6 18 42 1 49-2 40-12zm823-7c4-15 2-19-10-15-8 3-19 6-25 6s-6 6 2 15c17 21 27 19 33-6zm2691 12c3-5-1-12-10-15-25-10-34-7-34 9s35 21 44 6zm586-37c11-26 20-48 20-49 0-2-15-2-32 0-18 2-43 4-56 4-17 1-21 5-15 15 9 15 57 76 60 76 1 0 11-21 23-46zm-4253 6c28-16 54-34 57-39 4-5-12-24-34-41-33-26-47-31-72-26-29 6-128 73-128 87 0 6 95 46 115 48 6 0 33-13 62-29zm2273 26c0-2-7-7-16-10-8-3-12-2-9 4 6 10 25 14 25 6zm193-16c-3-11-9-20-14-20-10 0-12 24-2 33 13 13 21 7 16-13zm157 5c0-8-2-15-4-15s-6 7-10 15c-3 8-1 15 4 15 6 0 10-7 10-15zm954 0c3-9 0-15-9-15s-12 6-9 15c4 8 7 15 9 15s5-7 9-15zm508-9c3-16 1-23-7-19-7 2-11 13-8 24 7 25 10 24 15-5zm541-43-17-26-13 29c-7 16-12 37-13 47 0 17 2 17 30-3 29-21 29-22 13-47zm-5202 33c-13-14-29-22-37-19-22 8-16 18 19 30 17 5 34 11 36 12 3 0-6-10-18-23zm147-11c1-1-7-10-17-19-19-17-20-17-35 13-9 16-16 33-16 36 0 4 56-20 68-30zm515 21c15-4 25-11 22-16-6-10-62 6-71 21-3 5 1 7 8 5 7-3 26-7 41-10zm727 4c13-8 13-10-2-10-9 0-20 5-23 10-8 13 5 13 25 0zm432-1c21-11 21-12-3-25-34-19-37-17-31 11 5 29 6 29 34 14zm1356-18c15-22 15-23-14-18-16 3-37 8-48 13-17 7-17 8 5 20 30 16 38 14 57-15zm1769-25c-3-8-17-16-31-18l-25-5 27 38c23 32 27 35 30 18 2-11 1-26-1-33zm-4612 34c4-6-6-10-22-10-22 0-25 2-13 10 19 12 27 12 35 0zm520-18c-7-8-35 7-35 18 0 6 7 6 20-2 10-7 17-14 15-16zm2919 20c2-4-4-13-14-20-16-10-18-8-17 8 1 20 21 27 31 12zm193-48c20-71 0-215-30-227-9-3-12 12-12 56v61l-42 4c-34 3-49-2-78-24-20-15-38-25-40-22-2 2-7 31-11 63-3 33-8 63-10 67-5 8 53 58 69 59 36 2 102 11 105 14 2 2 11 2 20 1 10-2 21-21 29-52zm2124 9c24-27 56-61 69-76l25-29-30 7c-26 6-142 53-154 62-6 4 31 83 38 83 4 0 27-21 52-47zm-6041 12c0-16-6-25-15-25-18 0-19 4-3 30s18 25 18-5zm1391-25-19-32-18 26c-19 30-12 43 26 48 33 4 35-3 11-42zm2609 40c8-5 11-10 5-10-5 0-17 5-25 10s-10 10-5 10c6 0 17-5 25-10zm230-21c0-32 0-32-49 0l-24 15 24 7c43 12 49 10 49-22zm48 1c-12-16-23-30-24-30s-4 14-6 30c-4 27-2 30 24 30h29zm-2821 5c10-8 27-21 38-29 26-19 20-23-40-31-28-4-54-9-58-12-5-3-4 4 2 15s15 32 21 46c11 30 14 31 37 11zm2053-16c0-28-2-30-17-18-10 7-20 15-22 16-6 4 20 33 30 33 5 0 9-14 9-31zm-3470-11c0-5-4-8-10-8-5 0-10 10-10 23 0 18 2 19 10 7 5-8 10-18 10-22zm100 22c-20-13-33-13-25 0 3 6 14 10 23 10 15 0 15-2 2-10zm130 0c0-14-28-26-106-44-39-8-91-27-115-41-55-31-115-33-170-4-23 11-47 18-53 16-7-3-19-2-26 3-9 6-4 16 21 39 41 37 43 37 56 9 7-16 32-31 77-47 61-21 69-22 84-8 26 24 132 70 177 78 22 3 43 7 48 8 4 0 7-3 7-9zm1540 0c0-5-8-10-17-10-15 0-16 2-3 10 19 12 20 12 20 0zm675 0c-3-5-11-10-16-10-6 0-7 5-4 10 3 6 11 10 16 10 6 0 7-4 4-10zm225-53c-19-57-29-60-93-34-27 12-33 20-35 50l-3 36 63 3c88 4 87 5 68-55zm95 42c11-17-13-17-30 1-16 18-16 18 4 13 12-3 24-9 26-14zm94-3c7-9 9-29 5-55-6-40-17-49-40-33-15 9-23 91-9 96 19 8 33 6 44-8zm171 4c0-5-4-10-9-10-6 0-13 5-16 10-3 6 1 10 9 10 9 0 16-4 16-10zm887-9c7-10 9-22 6-25-12-12-21-6-25 19-6 30 3 32 19 6zm236-18 27-21-35-21c-19-11-35-17-36-13 0 4-3 27-5 51-4 36-3 43 8 35 7-6 25-20 41-31zm1058 16c27-12 49-26 49-31s-13-31-28-58l-28-49-48 48-48 49 23 31c12 17 24 31 27 31 2 0 26-10 53-21zm-4946 1c-3-5-11-10-16-10-6 0-7 5-4 10 3 6 11 10 16 10 6 0 7-4 4-10zm2252-5c9-24-1-27-15-5-8 13-8 20-2 20s13-7 17-15zm223-25c0-4-8-18-18-30-18-23-18-23-18 23 1 43 2 45 18 30 10-9 18-19 18-23zm1340 3v-36l-26 24c-23 22-24 24-8 36 28 20 34 16 34-24zm-3749 11c12-14 11-16-5-13-11 2-21 10-24 17-5 17 13 15 29-4zm959 1c10-12 10-15-4-15-9 0-16 7-16 15s2 15 4 15 9-7 16-15zm1086-8c1-1-10-27-24-57-34-68-66-78-87-28-14 36-26 94-19 101 4 4 125-11 130-16zm109 3c18-20 18-20-13-9-18 6-29 15-26 20 8 14 19 11 39-11zm-2781-5c-7-16-44-21-44-6 0 8 16 16 42 20 4 0 5-6 2-14zm2056 0c0-9-6-12-15-9-8 4-15 10-15 15s7 9 15 9 15-7 15-15zm1302-1c-22-15-42-12-42 7 0 5 15 9 32 9 32 0 32 0 10-16zm292 4c-8-13-45-55-116-133-21-22-38-34-38-27s18 32 40 56 40 52 40 62c0 34 22 51 63 53 12 1 16-3 11-11zm1503-8c-5-31-15-35-38-14l-21 19 28 6c16 4 30 7 31 8 2 0 2-8 0-19zm500 14c-3-3-12-4-19-1-8 3-5 6 6 6 11 1 17-2 13-5zm-4795-34c-3-23-9-30-26-30-35 0-37 10-8 36 35 31 39 30 34-6zm58 21c0-5-7-14-15-21-13-10-15-9-15 9 0 12 6 21 15 21 8 0 15-4 15-9zm275-1c-3-5-14-10-23-10-15 0-15 2-2 10 20 13 33 13 25 0zm1109-5c-4-8-8-15-10-15s-4 7-4 15 4 15 10 15c5 0 7-7 4-15zm497-26c20-8 29-23 46-79l20-70-21-5c-88-20-115-25-147-25-53 0-66 20-36 56 18 21 26 47 31 96l8 68 36-16c20-9 49-20 63-25zm434-17c6-21 4-23-21-20-29 3-29 3-25 65 1 16 3 16 20-2 10-11 22-30 26-43zm315 48c0-5-5-10-11-10-5 0-7 5-4 10 3 6 8 10 11 10 2 0 4-4 4-10zm200-5c13-16 6-50-9-41-11 7-21 56-11 56 4 0 13-7 20-15zm1242 3c-17-8-26-8-34 0-9 9-4 12 23 11 32 0 33-1 11-11zm-4552-28c-40-34-43-35-60-15-10 12-10 16 1 19 8 2 28 9 44 14 49 17 52 14 15-18zm90-12c0-4-6-8-12-9-7 0-29-2-48-4l-35-4 35 30c32 27 36 28 47 12 7-9 13-20 13-25zm3153-30c-2-39-5-73-7-75-2-3-26-10-53-17l-50-13 56 88c30 49 55 89 56 89s0-32-2-72zm-2708 42c18-20 17-20-25-20-43 0-43 0-24 19 24 25 27 25 49 1zm892 14c-3-3-12-4-19-1-8 3-5 6 6 6 11 1 17-2 13-5zm257-10c3-8 2-12-4-9s-10 10-10 16c0 14 7 11 14-7zm346 6c-20-13-43-13-35 0 3 6 16 10 28 10 18 0 19-2 7-10zm930 0c0-5-7-10-16-10-8 0-12 5-9 10 3 6 10 10 16 10 5 0 9-4 9-10zm323-81c5-78 3-86-36-105l-30-16 21 29c17 24 22 47 23 108 2 90 16 81 22-16zm150 70c-12-13-26-18-33-14-9 6-6 12 11 21 36 20 46 17 22-7zm47-15c-10-43-13-46-34-38s-20 16 7 47c30 35 36 33 27-9zm365 26c3-5 1-10-4-10-6 0-11 5-11 10 0 6 2 10 4 10 3 0 8-4 11-10zm553-10c-7-11-15-15-17-9s3 15 10 20c20 12 21 11 7-11zm202 15c0-3-9-14-19-24-14-14-22-16-30-8-21 21-16 25 42 36 4 0 7-1 7-4zm85-25c3-6 0-10-7-11-7 0-21-2-31-4-13-2-17 1-13 12 3 8 6 19 6 24 0 11 35-6 45-21zm585 21c0-5-15-20-34-35-36-27-46-22-46 25 0 16 7 19 40 19 22 0 40-4 40-9zm457-26c-6-19-13-35-17-35-10 0-40 57-33 64 3 3 19 6 34 6 26 0 27-1 16-35zm106 3c20-10 18-13-32-30-30-10-56-16-59-14-2 3 1 20 8 40 10 32 13 34 36 26 14-6 35-15 47-22zm-4737-4c-30-21-44-16-17 7 13 11 27 17 30 13 3-3-3-12-13-20zm64 22c0-2-7-6-15-10-8-3-15-1-15 4 0 6 7 10 15 10s15-2 15-4zm160-17c-9-15-15-18-23-10-6 6-19 11-29 11-36 0-17 16 23 18 38 3 40 2 29-19zm187-1c-3-8-6-5-6 6-1 11 2 17 5 13 3-3 4-12 1-19zm1127-9c-3-5-17-9-31-9-25 0-26 0-8 20 14 15 21 17 31 9 8-6 11-15 8-20zm1826 23c0-5-11-14-25-20-26-12-33-4-13 16 14 14 38 16 38 4zm-4960-23c7-11 10-22 8-23-12-7-80-36-84-36-8 0 50 80 58 80 4 0 12-9 18-21zm865-13 60-13 3-51c3-50-4-62-23-43-20 19-135 72-144 67-5-4-17-26-27-51-9-25-20-45-24-45-3 0-14 16-24 36-19 40-21 35 42 106 21 23 28 25 51 16 14-5 53-15 86-22zm1058 19c-3-9-8-14-10-11-3 3-2 9 2 15 9 16 15 13 8-4zm487-6c0-5-10-9-21-9-18 0-19 2-9 15 12 15 30 12 30-6zm1914 6c3-8 2-15-3-15s-14 7-21 15c-10 12-10 15 3 15 8 0 17-7 21-15zm99-17c-9-15-23-8-23 12 0 17 2 19 14 8 8-7 12-16 9-20zm1068 1c31-29 32-31 9-24-67 21-73 25-60 40 16 19 12 20 51-16zm358-11c22-24 37-46 33-49-4-4-33-10-65-14l-57-6 20 51c11 28 20 53 20 55 0 11 11 3 49-37zm255 18c-14-22-19-23-40-14-26 12-22 23 11 31 43 10 46 8 29-17zm38-34c-33-5-36 2-16 33l17 27 12-29c11-26 10-28-13-31zm-5952 22c0-15-25-27-77-37-42-8-35 12 14 40 38 22 63 21 63-3zm240 6c0-5-7-7-15-4-8 4-12 10-9 15 6 11 24 2 24-11zm1306-7 34-28-43-12c-23-6-64-20-90-29l-49-17-24 28c-13 16-21 32-17 36 9 9 122 47 141 48 7 1 29-11 48-26zm250-30c-3-4-18-1-33 6l-27 13 24 18c25 19 25 19 34-6 4-14 5-28 2-31zm78 39c15-18 15-19-10-31-32-14-34-13-27 22 6 32 14 34 37 9zm501 9c7-12-12-24-25-16-11 7-4 25 10 25 5 0 11-4 15-9zm1939-26c-13-20-19-23-25-13-6 8-1 19 12 31 29 23 35 15 13-18zm346 19c0-8-5-12-10-9-6 4-8 11-5 16 9 14 15 11 15-7zm194-88c-4-30-14-49-37-69l-31-27-53 52c-29 29-53 60-53 70 0 11 20 28 58 47l57 29 32-30c28-27 31-36 27-72zm582 72c-2-21-9-34-20-36-9-2-16 0-16 3 0 8 33 65 37 65 2 0 1-15-1-32zm332 26 23-7-28-17c-31-19-38-18-53 11-9 16-7 19 12 19 13 0 33-3 46-6zm-3225-36c-3-16-9-28-14-28-12 0-11 4 3 35s18 29 11-7zm1277 7c0-14-4-25-10-25-11 0-14 33-3 43 11 11 13 8 13-18zm-2220 5c8-5 11-10 5-10-5 0-17 5-25 10s-10 10-5 10c6 0 17-5 25-10zm419-43 8-47-38 31c-22 17-39 32-39 35 0 4 54 33 57 30 2-2 7-24 12-49zm91 22c0-3-13-23-29-43-32-40-33-39-46 35l-7 37 41-11c23-6 41-14 41-18zm690-3c0-2-6-6-14-9-9-4-21 5-31 19l-16 25 30-16c17-8 31-17 31-19zm1324 15c15-16 15-19 1-31-19-15-24-11-31 24-5 31 6 33 30 7zm1434-6c-6-13-15-22-20-19s-2 15 8 25c23 25 26 24 12-6zm322-10c0-2-16-13-36-24l-35-21 6 22c4 13 9 31 11 40 5 16 7 16 30 2 13-9 24-18 24-19zm-5486 13c-4-7-19-31-32-52l-24-39-24 39c-13 21-24 42-24 46 0 6 34 13 88 16 16 2 21-2 16-10zm506 3c0-13-21-27-62-40-50-16-61-34-15-26 32 6 35 5 50-32 8-21 12-39 9-40-4-1-32 3-62 10l-55 12-3 54c-3 37 0 56 10 62 17 11 128 11 128 0zm2338-81c13-14 30-38 39-55l16-30-29 25c-16 14-46 42-67 63-32 30-46 37-78 37-24 0-38 4-34 10 3 6 14 10 25 10 10 0 21 7 24 17 6 14 12 11 43-18 21-19 48-45 61-59zm2562 61c-4-16-6-32-2-35 3-3 1-6-5-6s-16 7-23 15c-10 12-8 18 11 35 13 10 25 19 26 20 1 0-2-13-7-29zm360 20c0-6-10-22-23-37-22-26-24-26-53-11l-29 15 30 11c17 6 39 15 50 20 26 12 25 12 25 2zm95-1c-3-5-13-10-21-10s-14 5-14 10c0 6 9 10 21 10 11 0 17-4 14-10zm-6155-15c-7-8-17-12-23-8s-3 9 9 14c27 11 28 11 14-6zm54 0c4-10-1-15-16-15-17 0-18 2-8 15 7 8 14 15 15 15 2 0 5-7 9-15zm76 11c0-2-9-6-20-9s-18-1-14 4c5 9 34 13 34 5zm2134-4c2-4 1-13-3-20-4-8-11-5-19 8-10 16-10 20 2 20 8 0 17-4 20-8zm556-7c-14-16-40-20-40-6 0 10 17 19 39 20 11 1 11-2 1-14zm2040 0c-7-8-18-15-24-15s-2 7 8 15c25 19 32 19 16 0zm369-66c1-6-76-29-93-29-3 0-6 25-6 55v55l49-37c28-21 50-41 50-44zm877 52c-12-19-24-12-19 10 4 13 9 17 15 11s7-15 4-21zm-5941-34c4-26 4-47 0-47s-22 16-41 35l-34 35 33 14c17 7 33 13 34 12s5-23 8-49zm152 38c0-8-9-23-19-32-18-16-18-16-12 3 7 17 24 44 29 44 1 0 2-7 2-15zm827 6c3-5-3-11-14-14-13-3-20 0-20 9 0 15 26 19 34 5zm518-29 28-25-22-36c-12-20-24-39-28-44-13-16-140 33-176 68-41 40-41 40 68 59 81 14 91 13 130-22zm465 32c-3-3-12-4-19-1-8 3-5 6 6 6 11 1 17-2 13-5zm533-36c0-4-4-8-10-8-5 0-10 4-10 9s-3 18-6 28c-5 16-4 16 10-1 9-11 16-23 16-28zm1200 32c-20-13-33-13-25 0 3 6 14 10 23 10 15 0 15-2 2-10zm111-53c-13-13-14 5-3 43l7 25 3-29c2-16-1-33-7-39zm-4282 13c-27-52-36-56-59-28l-18 23 41 22c57 30 60 29 36-17zm2606 30c3-5 1-10-4-10-6 0-11 5-11 10 0 6 2 10 4 10 3 0 8-4 11-10zm2960-20c12-20-12-16-40 6l-30 24 33-11c17-6 34-15 37-19zm920 13c-2-10-4-29-5-43l-2-25-10 28c-10 29-5 57 11 57 5 0 8-8 6-17zm-6445-13c0-10-9-24-20-30-19-10-19-10-2 20 20 35 22 36 22 10zm160-16v-35l-30 17-29 18 27 18c15 10 28 18 30 18 1 0 2-16 2-36zm58-13c-12-14-26-30-30-35-5-6-8 11-8 36v47l31-11 30-10zm906 41c3-5-4-23-15-41l-20-33-20 26c-17 22-19 29-9 41 13 16 56 20 64 7zm2966-1c0-4-19-21-42-36l-43-27 35 35c35 36 50 45 50 28zm39-38c-26-61-30-64-28-22 2 20 11 41 23 51s22 18 23 18-7-21-18-47zm1051 21c0-14-4-23-9-20s-7 15-4 26c7 28 13 25 13-6zm876-71c-5-5-65 38-65 47-1 3 14 14 32 26l32 21 3-45c2-24 1-46-2-49zm104 53c0-2-18-15-40-30l-40-26v50 50l40-20c22-11 40-22 40-24zm0 34c0-5-7-7-15-4-8 4-15 8-15 10s7 4 15 4 15-4 15-10zm364-55c26-34 40-61 33-63-7-1-32 4-57 11-35 10-45 18-43 33 1 10 3 34 5 52 1 18 5 31 10 30 4-2 27-30 52-63zm-6039-16c-14-22-30-6-32 33l-2 41 20-32c11-18 17-36 14-42zm1555 61c0-5-7-10-16-10-8 0-12 5-9 10 3 6 10 10 16 10 5 0 9-4 9-10zm3172-20c3-16 1-30-4-30-4 0-8 14-8 30 0 17 2 30 4 30s6-13 8-30zm-4885 6c-3-8-11-32-18-55-8-27-18-41-29-41-14 0-17 8-15 43 2 54 7 62 40 65 20 1 26-2 22-12zm461-27c4-40-5-35-18 10-7 24-6 31 3 28 7-2 13-19 15-38zm1398-13c-6-22-26-15-40 13-22 42-20 46 13 19 17-13 29-27 27-32zm124 35c0-19-17-38-25-29-7 7 7 48 16 48 5 0 9-9 9-19zm270-2c0-6-4-7-10-4-5 3-10 11-10 16 0 6 5 7 10 4 6-3 10-11 10-16zm3836-46c-4-4-43 12-55 23-2 2 4 13 15 25l19 21 13-32c7-18 11-34 8-37zm-5826 48c0-5-7-12-16-15-14-5-15-4-4 9 14 17 20 19 20 6zm1496-16c0-25-7-31-19-19-5 6 9 44 16 44 2 0 3-11 3-25zm537-5c4-17 3-19-9-9-8 6-14 18-14 26 0 20 16 8 23-17zm1512-59-27-26 17 40c10 22 20 49 24 60 5 16 7 12 9-14 3-26-3-40-23-60zm283 60c-7-12-16-21-20-21-10 0 3 33 16 42 17 11 18 2 4-21zm1504 18c27-9 38-19 43-38 3-14 8-34 11-43 5-17 2-16-39 1-42 18-49 19-102 5-32-8-58-14-59-12-8 15-35 78-33 79 1 0 22 3 47 6s46 6 47 7c8 7 54 4 85-5zm-5676-36c-3-21-5-39-6-41 0-1-9 2-20 8-21 11-21 11 2 40 13 16 24 29 26 29 2 1 1-16-2-36zm165-15c8-14 6-18-9-18-13 0-22 11-30 36-11 36-11 36 10 18 11-11 24-27 29-36zm354-7 13-51-26 6c-41 10-42 11-25 60 8 25 17 43 20 41 2-3 10-28 18-56zm114 21 23-16-47-23c-26-14-49-22-52-20-2 3-1 26 2 51 8 50 9 50 74 8zm741 13c-12-15-30-12-30 5 0 8 31 19 39 13 2-1-2-9-9-18zm88-4c15-21 14-22-14-17-16 2-32 5-37 5-4 1-2 10 5 21 15 24 26 22 46-9zm556 14c-4-8-11-15-16-15-6 0-5 6 2 15 7 8 14 15 16 15s1-7-2-15zm171 6c3-5 1-12-5-16-5-3-10 1-10 9 0 18 6 21 15 7zm848 2c3-5-3-16-13-26-17-17-17-17-13 8 5 24 17 33 26 18zm217-3c0-5-2-10-4-10-3 0-8 5-11 10-3 6-1 10 4 10 6 0 11-4 11-10zm582-42c-2-29-5-54-6-55 0 0-16 11-34 26l-33 28 38 26c21 14 38 26 39 26 0 1-1-23-4-51zm-3719-20c-4-8-43-11-43-4 0 1 5 18 11 36l12 33 12-29c7-16 10-32 8-36zm807 25c0-7-6-13-14-13-11 0-15 24-7 50 2 9 21-24 21-37zm953 17c3-11 1-20-4-20s-9 9-9 20 2 20 4 20 6-9 9-20zm425-28 11-33-32 18c-18 10-34 19-36 20-2 2 4 12 14 23 21 23 28 19 43-28zm45-8c8-42-20-27-31 17-10 39-9 40 8 24 10-9 20-27 23-41zm2005 44c38-3 40-10 7-32-32-21-30-21-56 15-20 29-21 31-3 25 10-3 34-7 52-8zm-4700-39c-17-11-27-2-25 21 1 18 2 18 19 3 14-12 15-18 6-24zm112 37c0-2-7-7-16-10-8-3-12-2-9 4 6 10 25 14 25 6zm80-17c11-19 10-20-9-9-22 11-29 30-11 30 5 0 14-9 20-21zm70-26c0-17-32 2-49 29-12 20-12 20 18 2 17-10 31-24 31-31zm1834 39c3-5-9-16-26-26l-30-18 17 26c18 27 30 32 39 18zm2339-7c-3-9-8-14-10-11-3 3-2 9 2 15 9 16 15 13 8-4zm458-11c14-38 6-39-42-11-33 20-38 26-23 30 41 10 55 6 65-19zm1416 0c13-20 12-24-16-44-28-19-34-20-67-8l-36 13 39 32c42 37 59 38 80 7zm-2872-4c18-19 17-20-6-21-13 0-34-2-47-5-17-3-21-1-16 8 26 43 43 47 69 18zm520 10c3-5 1-10-4-10-6 0-11 5-11 10 0 6 2 10 4 10 3 0 8-4 11-10zm1705-9c-11-21-30-37-30-25 0 8 30 44 37 44 2 0-1-9-7-19zm-4983 3c-3-3-12-4-19-1-8 3-5 6 6 6 11 1 17-2 13-5zm547-9c-4-8-10-12-15-9-11 6-2 24 11 24 5 0 7-7 4-15zm106-6c0-5-2-9-4-9s-11-3-19-6c-12-4-14 0-10 15 5 19 33 19 33 0zm2458 1c-15-23-35-33-43-20-3 5 7 16 22 24 36 19 35 20 21-4zm842-12c0-4-6-5-14-2s-12 12-9 21c5 12 7 12 14 1 5-7 9-16 9-20zm1506 1c3-6 1-16-5-22-13-13-26-2-36 31-6 21-5 23 13 13 12-6 24-16 28-22zm334 21c13-9 13-10 0-10-8 0-22 5-30 10-13 9-13 10 0 10 8 0 22-5 30-10zm-6347-19c4-16 1-17-25-7-24 9-26 12-11 18 27 10 30 9 36-11zm4460 4c-3-9-8-14-10-11-3 3-2 9 2 15 9 16 15 13 8-4zm-3958-4c3-6-3-9-14-8-11 0-17 5-15 9 7 11 22 10 29-1zm3253-15c3-14-3-16-33-14l-37 2 23 18c25 21 43 19 47-6zm-3688 4c12-8 11-10-7-10-13 0-23 5-23 10 0 13 11 13 30 0zm5272-16c-4-22-6-23-31-9-57 31-58 34-10 33 42 0 45-2 41-24zm124-1c-10-10-19 5-10 18 6 11 8 11 12 0 2-7 1-15-2-18zm-5547 3c9-11 6-12-15-8-19 3-22 7-12 13 16 11 14 11 27-5zm1101 4c24-15 7-19-20-5-15 8-19 14-10 14 8 1 22-3 30-9zm1230-9c0-5-9-11-20-14-22-6-26 3-8 21 11 11 28 7 28-7zm3135 10c3-5 1-12-5-16-5-3-10 1-10 9 0 18 6 21 15 7zm-5400-11c3-5-1-10-9-10s-18 5-21 10c-3 6 1 10 9 10s18-4 21-10zm3361 2c-5-8-66-4-66 4 0 2 16 4 36 4 19 0 33-4 30-8zm809-2c-3-5-12-10-18-10-7 0-6 4 3 10 19 12 23 12 15 0zm860 1c3-6-3-9-14-8-11 0-17 5-15 9 7 11 22 10 29-1zm414-22c-15-9-32-2-24 11 3 5 13 6 21 3 12-4 13-8 3-14zm634 14c-7-2-19-2-25 0-7 3-2 5 12 5s19-2 13-5z" transform="matrix(.1 0 0 -.1 0 700)"/></svg>