<svg height='100px' width='100px'  xmlns="http://www.w3.org/2000/svg" xmlns:xlink="http://www.w3.org/1999/xlink" version="1.1" x="0px" y="0px" viewBox="0 0 100 100" style="enable-background:new 0 0 100 100;" xml:space="preserve"><path d="M95,94V29.7c0-0.5-0.3-0.9-0.8-1c-0.4-0.1-0.9,0.1-1.1,0.5l-3.4,6.4l-6.2,3l-5.9-0.4c-0.1,0-0.2,0-0.3,0  c-0.2,0.1-0.4,0.2-0.5,0.3l-5,6.4L63.1,46l-3.8-2.5l-2.2-4.1c-0.1-0.1-0.1-0.2-0.2-0.2l-5-4.5c-0.2-0.2-0.5-0.3-0.7-0.3  c-0.3,0-0.5,0.2-0.7,0.4l-5.7,6.8L41.7,40c-0.3-0.2-0.7-0.2-1,0L32,45.7l-5.4-0.2l-4.4-2.9c-0.2-0.2-0.5-0.2-0.8-0.1l-8.6,2.1h-0.2  l-0.1,0.1c-0.1,0-0.1,0.1-0.2,0.1l-5.8,4.5L6,49.7v-2.3h1.2v-1H6V30.7h1.2v-1H6V14.1h1.2v-1H6V5H5v90h0.5H94h1L95,94L95,94z   M90.4,36.2l0.2-0.3V94h-2.4V37.3L90.4,36.2z M83.8,39.5L83.8,39.5l0,54.5h-2.4V39.3L83.8,39.5z M78,39l2.4,0.2V94H78V39z M77,39.8  V94h-2.4V42.9L77,39.8z M70.2,94h-2.4V46.3l2.4-0.3V94z M66.8,94h-2.4V46.8l2.4-0.3V94z M63.4,46.9V94H61V45.7l1.9,1.3L63.4,46.9z   M60,45.1V94h-2.4V42.2l1.1,2L60,45.1z M51.3,35.4l1.9,1.7V94h-2.4V36.1L51.3,35.4z M49.8,94h-2.4V40.2l2.4-2.9V94z M45.1,42.9  l1.3-1.5V94h-2.4V42.3L45.1,42.9z M41.2,40.8l1.7,0.9V94h-2.4V41.2L41.2,40.8z M36.1,94h-2.4V45.8l2.4-1.6V94z M32.3,46.7l0.4-0.3  V94h-2.4V46.6L32.3,46.7z M25.9,94h-2.4V44.7l2.4,1.6V94z M26.9,46.5l2.4,0.1V94h-2.4V46.5z M12.3,94H9.9V47.9l2.4-1.9V94z   M13.3,45.4l2.4-0.6V94h-2.4V45.4z M16.7,44.6l2.4-0.6v50h-2.4V44.6z M6.5,80.6h0.7v-1H6.5V64h0.7v-1H6.5V50.6l2.4-1.9V94H6.5V80.6z   M20.5,94h-0.3V43.8l1.5-0.4l0.9,0.6v50h-1.1H20.5z M37.1,94V43.5l2.4-1.6V94h-1.5H37.1z M54.2,94V38l2.1,1.9l0.3,0.5V94h-1.8H54.2z   M71.2,94V45.8l1.2-0.2l1.2-1.5V94h-2.2H71.2z M84.8,94V39l2.4-1.2V94H87H84.8z M91.6,94V34.1l2.4-4.5V94H91.6z"></path></svg>
