<svg height="100" width="100" xmlns="http://www.w3.org/2000/svg"><path d="M22.5 70h45c2.5 0 2.5 0 2.5-2.5v-45c0-2.5 0-2.5-2.5-2.5h-45C20 20 20 20 20 22.5v45c0 2.5 0 2.5 2.5 2.5zM30 57.95V37.5c0-2.05 0-2.05 2.05-2.05h3.4c2.05 0 2.05 0 2.05 2.05v20.45c0 2.05 0 2.05-2.05 2.05h-3.4C30 60 30 60 30 57.95zm11.25 0v-15c0-2.05 0-2.05 2.05-2.05h3.4c2.05 0 2.05 0 2.05 2.05v15c0 2.05 0 2.05-2.05 2.05h-3.4c-2.05 0-2.05 0-2.05-2.05zM32.5 80h45c2.5 0 2.5 0 2.5-2.5v-45c0-2.5 0-2.5-2.5-2.5H75v45H30v2.5c0 2.5 0 2.5 2.5 2.5zm20-22.05v-25.9c0-2.05 0-2.05 2.05-2.05h3.4C60 30 60 30 60 32.05v25.9C60 60 60 60 57.95 60h-3.4c-2.05 0-2.05 0-2.05-2.05zm0 0"/></svg>