<svg height='100px' width='100px' xmlns:rdf="http://www.w3.org/1999/02/22-rdf-syntax-ns#" xmlns="http://www.w3.org/2000/svg" xmlns:cc="http://creativecommons.org/ns#" xmlns:dc="http://purl.org/dc/elements/1.1/" version="1.1" viewBox="0 0 32 32" x="0px" y="0px"><g transform="translate(0 -1020.4)"><path style="color-rendering:auto;text-decoration-color:#000000;isolation:auto;mix-blend-mode:normal;shape-rendering:auto;solid-color:#000000;text-decoration-line:none;text-decoration-style:solid;image-rendering:auto;white-space:normal;text-indent:0;text-transform:none;" d="m6.4882 1022.4a0.50005 0.50005 0 0 0 -0.30078 0.1094l-1.2617 1a0.50005 0.50005 0 1 0 0.62109 0.7832l0.45117-0.3574v21.465h-2.4492l0.33789-0.418a0.50005 0.50005 0 0 0 -0.40234 -0.8203 0.50005 0.50005 0 0 0 -0.375 0.1914l-0.99609 1.2344a0.50005 0.50005 0 0 0 -0.004 0.6231l0.9961 1.2617a0.50005 0.50005 0 1 0 0.78515 -0.6192l-0.35733-0.4531h2.4648v2.4707l-0.45117-0.3574a0.50005 0.50005 0 0 0 -0.32422 -0.1133 0.50005 0.50005 0 0 0 -0.29687 0.8965l1.2617 1a0.50005 0.50005 0 0 0 0.625 0l1.2344-1a0.50005 0.50005 0 1 0 -0.63086 -0.7754l-0.41797 0.3379v-2.4551h21.457l-0.36133 0.4492a0.50011 0.50011 0 1 0 0.7793 0.627l1.0137-1.2617a0.50005 0.50005 0 0 0 -0.002 -0.6309l-1.0156-1.2344a0.50005 0.50005 0 0 0 -0.39258 -0.1875 0.50005 0.50005 0 0 0 -0.37891 0.8242l0.3418 0.4141h-21.441v-21.449l0.41797 0.3379a0.50005 0.50005 0 1 0 0.63086 -0.7754l-1.2344-1a0.50005 0.50005 0 0 0 -0.32422 -0.1133zm16.008 1a0.50005 0.50005 0 0 0 -0.5 0.5v2a0.50005 0.50005 0 0 0 0.5 0.5h2a0.50005 0.50005 0 0 0 0.5 -0.5v-2a0.50005 0.50005 0 0 0 -0.5 -0.5h-2zm3.957 0a0.50064 0.50064 0 0 0 0.05078 1h2.4941a0.50005 0.50005 0 1 0 0 -1h-2.4941a0.50005 0.50005 0 0 0 -0.05078 0zm-3.457 1h1v1h-1v-1zm3.457 1a0.50064 0.50064 0 0 0 0.05078 1h1a0.50005 0.50005 0 1 0 0 -1h-1a0.50005 0.50005 0 0 0 -0.05078 0zm-3.957 2a0.50005 0.50005 0 0 0 -0.5 0.5v2a0.50005 0.50005 0 0 0 0.5 0.5h2a0.50005 0.50005 0 0 0 0.5 -0.5v-2a0.50005 0.50005 0 0 0 -0.5 -0.5h-2zm3.957 0a0.50064 0.50064 0 0 0 0.05078 1h2.4941a0.50005 0.50005 0 1 0 0 -1h-2.4941a0.50005 0.50005 0 0 0 -0.05078 0zm-3.457 1h1v1h-1v-1zm3.457 1a0.50064 0.50064 0 0 0 0.05078 1h1a0.50005 0.50005 0 1 0 0 -1h-1a0.50005 0.50005 0 0 0 -0.05078 0zm-0.62891 3.8242a0.50005 0.50005 0 0 0 -0.37695 0.1856l-2.3027 2.789-1.5996-1.4492a0.50005 0.50005 0 0 0 -0.31836 -0.1308 0.50005 0.50005 0 0 0 -0.4043 0.1835l-1.0703 1.3106-1.9316-1.9316a0.50005 0.50005 0 0 0 -0.78516 0.1035l-2.0898 3.6211-3.1016-3.7227a0.50005 0.50005 0 0 0 -0.39454 -0.1797 0.50005 0.50005 0 0 0 -0.42187 0.25l-3.1426 5.4434a0.50005 0.50005 0 1 0 0.86524 0.5l2.7851-4.8223 2.8789 3.4551-0.48047 0.832-1.9023-2.1504a0.50005 0.50005 0 0 0 -0.82422 0.1094l-2.4141 4.8789a0.50007 0.50007 0 1 0 0.89648 0.4434l2.084-4.2129 1.8711 2.1133a0.50005 0.50005 0 0 0 0.80664 -0.08l0.64453-1.1153 1.1582 1.3907a0.50005 0.50005 0 0 0 0.77148 0l2.8027-3.4317 1.502 1.502a0.50005 0.50005 0 0 0 0.73828 -0.035l1.1797-1.4278 1.4785 1.3399a0.50005 0.50005 0 0 0 0.60156 0.055l3.4414-2.1582a0.50016 0.50016 0 0 0 -0.27539 -0.9239 0.50016 0.50016 0 0 0 -0.25586 0.076l-3.1211 1.9571-1.2324-1.1172 2.334-2.8242a0.50005 0.50005 0 0 0 -0.39453 -0.8223zm-8.25 2.125 1.543 1.543-2.4844 3.041-1.0078-1.209 1.9492-3.375zm3.6895 0.4942 1.2422 1.1269-0.85742 1.0391-1.1855-1.1856 0.80078-0.9804z"></path></g></svg>
