<svg height="100" width="100" xmlns="http://www.w3.org/2000/svg" viewBox="0 0 32 32"><path style="text-decoration-color:#000;isolation:auto;mix-blend-mode:normal;text-decoration-line:none;text-decoration-style:solid;text-indent:0;text-transform:none" d="M6.488 2a.5.5 0 0 0-.3.11l-1.262 1a.5.5 0 1 0 .62.783l.452-.358V25h-2.45l.339-.418a.5.5 0 0 0-.403-.82.5.5 0 0 0-.375.191l-.996 1.235a.5.5 0 0 0-.004.623l.996 1.262a.5.5 0 1 0 .785-.62L3.533 26h2.465v2.47l-.451-.356A.5.5 0 0 0 5.223 28a.5.5 0 0 0-.297.897l1.261 1a.5.5 0 0 0 .625 0l1.235-1a.5.5 0 1 0-.631-.776l-.418.338v-2.455h21.457l-.361.45a.5.5 0 1 0 .779.626l1.014-1.261a.5.5 0 0 0-.002-.631l-1.016-1.235a.5.5 0 0 0-.393-.187.5.5 0 0 0-.378.824l.341.414H7V3.555l.417.338a.5.5 0 1 0 .631-.775l-1.234-1a.5.5 0 0 0-.324-.114zm16.008 1a.5.5 0 0 0-.5.5v2a.5.5 0 0 0 .5.5h2a.5.5 0 0 0 .5-.5v-2a.5.5 0 0 0-.5-.5h-2zm3.957 0a.5.5 0 0 0 .051 1h2.494a.5.5 0 1 0 0-1h-2.494a.5.5 0 0 0-.05 0zm-3.457 1h1v1h-1V4zm3.457 1a.5.5 0 0 0 .051 1h1a.5.5 0 1 0 0-1h-1a.5.5 0 0 0-.05 0zm-3.957 2a.5.5 0 0 0-.5.5v2a.5.5 0 0 0 .5.5h2a.5.5 0 0 0 .5-.5v-2a.5.5 0 0 0-.5-.5h-2zm3.957 0a.5.5 0 0 0 .051 1h2.494a.5.5 0 1 0 0-1h-2.494a.5.5 0 0 0-.05 0zm-3.457 1h1v1h-1V8zm3.457 1a.5.5 0 0 0 .051 1h1a.5.5 0 1 0 0-1h-1a.5.5 0 0 0-.05 0zm-.629 3.824a.5.5 0 0 0-.377.186l-2.302 2.789-1.6-1.45a.5.5 0 0 0-.318-.13.5.5 0 0 0-.405.183l-1.07 1.31-1.932-1.93a.5.5 0 0 0-.785.103l-2.09 3.62-3.101-3.722a.5.5 0 0 0-.395-.18.5.5 0 0 0-.421.25l-3.143 5.444a.5.5 0 1 0 .865.5l2.785-4.822 2.88 3.455-.481.832-1.903-2.15a.5.5 0 0 0-.824.109L8.793 22.1a.5.5 0 1 0 .897.443l2.084-4.213 1.87 2.113a.5.5 0 0 0 .807-.08l.645-1.115 1.158 1.39a.5.5 0 0 0 .771 0l2.803-3.43 1.502 1.501a.5.5 0 0 0 .738-.035l1.18-1.428 1.479 1.34a.5.5 0 0 0 .601.055l3.442-2.158a.5.5 0 0 0-.276-.924.5.5 0 0 0-.256.076l-3.12 1.957-1.233-1.117 2.334-2.824a.5.5 0 0 0-.395-.823zm-8.25 2.125l1.543 1.543-2.484 3.041-1.008-1.209 1.95-3.375zm3.69.494l1.242 1.127-.857 1.04-1.186-1.186.8-.98z" solid-color="#000000" white-space="normal"/></svg>