<svg height='100px' width='100px'  xmlns="http://www.w3.org/2000/svg" viewBox="0 0 64 64" x="0px" y="0px"><path d="M61,60H4V3A1,1,0,0,0,2,3V61a1,1,0,0,0,1,1H61a1,1,0,0,0,0-2Z"></path><path d="M49.067,12.669a1.02,1.02,0,0,0,.365-.068l1.862-.729a1,1,0,1,0-.729-1.863l-1.862.728a1,1,0,0,0,.364,1.932Z"></path><path d="M17.4,36.7a1,1,0,1,0,1.832-.8l-.8-1.832a1,1,0,0,0-1.832.8Z"></path><path d="M27.5,38.708a1,1,0,0,0,.9-.564l.872-1.8a1,1,0,1,0-1.8-.871l-.871,1.8a1,1,0,0,0,.9,1.436Z"></path><path d="M54.655,10.482a1,1,0,0,0,.365-.068l1.862-.728a1,1,0,0,0-.729-1.864l-1.862.729a1,1,0,0,0,.364,1.931Z"></path><path d="M7.493,39.819,6.227,41.367a1,1,0,1,0,1.546,1.266L9.04,41.085a1,1,0,0,0-1.547-1.266Z"></path><path d="M11.291,35.176l-1.266,1.548a1,1,0,0,0,1.549,1.265l1.266-1.548a1,1,0,0,0-1.549-1.265Z"></path><path d="M60.242,8.3a1.022,1.022,0,0,0,.365-.069l.758-.3a1,1,0,1,0-.73-1.862l-.758.3A1,1,0,0,0,60.242,8.3Z"></path><path d="M43.48,14.855a.991.991,0,0,0,.365-.068l1.862-.728a1,1,0,0,0-.728-1.864l-1.863.729a1,1,0,0,0,.364,1.931Z"></path><path d="M19.809,42.2a1,1,0,1,0,1.832-.8l-.8-1.832a1,1,0,0,0-1.832.8Z"></path><path d="M24.447,44.009a1,1,0,0,0,1.336-.465l.871-1.8a1,1,0,1,0-1.8-.871l-.872,1.8A1,1,0,0,0,24.447,44.009Z"></path><path d="M35.308,19.269l-.871,1.8a1,1,0,1,0,1.8.871l.871-1.8a1,1,0,1,0-1.8-.871Z"></path><path d="M16.5,30.392a1,1,0,0,0-1.406.14L13.825,32.08a1,1,0,0,0,.141,1.406,1,1,0,0,0,1.406-.14L16.639,31.8A1,1,0,0,0,16.5,30.392Z"></path><path d="M22.059,47.429a1,1,0,0,0,.917.6.984.984,0,0,0,.4-.084,1,1,0,0,0,.515-1.317l-.8-1.832a1,1,0,1,0-1.832.8Z"></path><path d="M37.517,17.005a1,1,0,0,0,1.13-.185l1.472-.575a1,1,0,1,0-.728-1.863l-1.755.686a1,1,0,0,0-.537.5l-.05.1A1,1,0,0,0,37.517,17.005Z"></path><path d="M30.981,23.567,17.707,10.293a.989.989,0,0,0-.867-.28,1,1,0,0,0-.735.54l-10,20a1,1,0,0,0,1.79.894l9.379-18.759L29.567,24.981a3.935,3.935,0,0,0,.663,4.893,1,1,0,0,0-.15.2l-.871,1.8a1,1,0,1,0,1.8.871l.871-1.8a.859.859,0,0,0,.028-.111,3.774,3.774,0,0,0,3.11-.4l5.274,5.274A1,1,0,0,0,41,36a.968.968,0,0,0,.16-.013,1,1,0,0,0,.735-.54L50.464,18.31l10.122,4.6a1,1,0,0,0,.828-1.82l-11-5a.994.994,0,0,0-1.309.463L40.726,33.312l-4.293-4.293A3.947,3.947,0,0,0,37,27a4,4,0,0,0-4-4A3.947,3.947,0,0,0,30.981,23.567ZM35,27a2,2,0,1,1-2-2A2,2,0,0,1,35,27Z"></path></svg>
