<svg height='100px' width='100px'   xmlns:x="http://ns.adobe.com/Extensibility/1.0/" xmlns:i="http://ns.adobe.com/AdobeIllustrator/10.0/" xmlns:graph="http://ns.adobe.com/Graphs/1.0/" xmlns="http://www.w3.org/2000/svg" xmlns:xlink="http://www.w3.org/1999/xlink" version="1.1" x="0px" y="0px" viewBox="0 0 100 100" style="enable-background:new 0 0 100 100;" xml:space="preserve"><g><g i:extraneous="self"><path d="M70.7,68.4l-3,0.4c0.3,1.4,1.5,2.4,2.9,2.4c1.6,0,2.9-1.3,2.9-2.9c0-0.7-0.3-1.3-0.6-1.8L70.7,68.4z"></path><path d="M67.8,66c-0.5,0.6-0.8,1.4-0.8,2.2c0,0.1,0,0.3,0,0.3l3.3-0.4L67.8,66z"></path><path d="M73,66.1c-0.6-0.7-1.5-1.1-2.4-1.1s-1.8,0.4-2.4,1l2.4,2.1L73,66.1z"></path><path d="M77.7,65.1c-1,0.5-1.8,1.5-2,2.7c-0.1,0.8,0,1.5,0.3,2.1l2.9-1.7L77.7,65.1z"></path><path d="M79.8,65.4c-0.5-0.1-1,0-1.5,0.2l1.1,2.7l-2.5,1.5c0.4,0.8,1.2,1.3,2.1,1.4c1.6,0.3,3.1-0.9,3.3-2.5    C82.6,67.2,81.4,65.6,79.8,65.4z"></path><path d="M86.1,65.1c-1,0.5-1.8,1.5-2,2.7c-0.1,0.8,0,1.5,0.3,2.1l2.9-1.7L86.1,65.1z"></path><path d="M88.2,65.4c-0.5-0.1-1,0-1.5,0.2l1.1,2.7l-2.5,1.5c0.4,0.8,1.2,1.3,2.1,1.4c1.6,0.3,3.1-0.9,3.3-2.5    C91,67.2,89.8,65.6,88.2,65.4z"></path><path d="M82.8,41.7c-2.8-0.8-5.9-0.4-8.6,1.1c-5.4,3.1-7.2,10-4.1,15.4c0.1,0.2,0.3,0.4,0.3,0.6l8.6-6.7L82.8,41.7z"></path><path d="M79.9,52.5l-7.2,5.6c2.7,3.5,7.8,4.6,11.8,2.3c4.4-2.5,5.9-8.2,3.3-12.5c-1.1-2-2.8-3.3-4.8-4L79.9,52.5z"></path><rect x="80.8" y="82.5" width="2.4" height="3.6"></rect><rect x="84.3" y="78.4" width="2.4" height="7.7"></rect><rect x="87.7" y="80.6" width="2.4" height="5.4"></rect><path d="M77.4,77.7c-0.3,0-0.5,0.3-0.5,0.5c0,0.1,0,0.1,0,0.2l-2.4,2.5c-0.1,0-0.1,0-0.2,0c-0.1,0-0.3,0.1-0.3,0.1l-0.9-0.4    l-1.8,2.4h-0.1c-0.2,0-0.3,0.1-0.4,0.2l-2.1-0.4l-1,2.1c-0.3,0-0.5,0.3-0.5,0.5s0.3,0.5,0.5,0.5s0.5-0.3,0.5-0.5    c0-0.2-0.1-0.3-0.2-0.3l0.9-1.7l1.7,0.3c0.1,0.3,0.3,0.4,0.5,0.4s0.5-0.3,0.5-0.5c0-0.1,0-0.2-0.1-0.2l1.5-2.1l0.5,0.3l0,0    c0,0.3,0.3,0.5,0.5,0.5c0.3,0,0.5-0.3,0.5-0.5c0-0.1,0-0.1,0-0.2l2.4-2.5c0.1,0,0.1,0,0.2,0c0.3,0,0.5-0.3,0.5-0.5    C77.7,78,77.7,77.7,77.4,77.7z"></path><path d="M42.4,49.9c-0.7,0-1.2,0.5-1.2,1.2c0,0.1,0,0.2,0,0.2l-4.9,5.6c-0.1-0.1-0.3-0.1-0.5-0.1c-0.2,0-0.5,0.1-0.7,0.2l-1.8-1.5    c-0.1-0.1-0.3-0.1-0.5-0.1c-0.2,0-0.3,0.1-0.4,0.3l-4.1,6.7c-0.1,0-0.2-0.1-0.4-0.1c-0.3,0-0.6,0.1-0.8,0.3L22,60.4    c-0.3-0.1-0.6,0-0.7,0.3l-3.8,6.9c0,0,0,0-0.1,0c-0.7,0-1.2,0.5-1.2,1.2c0,0.7,0.5,1.2,1.2,1.2c0.7,0,1.2-0.5,1.2-1.2    c0-0.2-0.1-0.4-0.1-0.6l3.5-6.5l4.8,2.1c0.1,0.5,0.6,0.9,1.1,0.9c0.7,0,1.2-0.5,1.2-1.2c0-0.1,0-0.1,0-0.2l4-6.5l1.5,1.2    c0.1,0.6,0.6,1.1,1.2,1.1c0.7,0,1.2-0.5,1.2-1.2c0,0,0-0.1,0-0.1l5-5.7c0.1,0,0.2,0.1,0.4,0.1c0.7,0,1.2-0.5,1.2-1.2    C43.6,50.4,43.1,49.9,42.4,49.9z"></path><rect x="52.2" y="60.4" width="5.3" height="7.8"></rect><path d="M27.8,20.9c-2.8-0.8-5.9-0.4-8.6,1.1c-5.4,3.1-7.2,10-4.1,15.4c0.1,0.2,0.3,0.4,0.3,0.6l8.6-6.7L27.8,20.9z"></path><path d="M24.9,31.8l-7.2,5.6c2.7,3.5,7.8,4.6,11.8,2.3c4.4-2.5,5.9-8.2,3.3-12.5c-1.1-2-2.8-3.3-4.8-4L24.9,31.8z"></path><path d="M43.9,31.5l-4.7,0.7c0.4,2.2,2.3,3.8,4.6,3.8c2.6,0,4.6-2,4.6-4.6c0-1.1-0.4-2-0.9-2.8L43.9,31.5z"></path><path d="M39.3,27.7c-0.8,0.9-1.2,2.2-1.2,3.5c0,0.1,0,0.4,0,0.5l5.3-0.7L39.3,27.7z"></path><path d="M47.6,27.9c-0.9-1.1-2.3-1.8-3.8-1.8s-2.8,0.7-3.8,1.6l3.8,3.3L47.6,27.9z"></path><path d="M55.1,26.2c-1.6,0.8-2.8,2.4-3.1,4.3c-0.1,1.2,0,2.3,0.5,3.4l4.6-2.7L55.1,26.2z"></path><path d="M58.3,26.8c-0.8-0.1-1.6,0-2.4,0.3l1.8,4.3l-3.9,2.4c0.7,1.2,1.9,2,3.4,2.2c2.6,0.4,4.9-1.5,5.3-3.9    C62.8,29.6,60.9,27.1,58.3,26.8z"></path><path d="M91.7,29.9h-5.5V7.3c0-2.6-2.2-4.8-4.8-4.8h-72c-2.6,0-4.8,2.2-4.8,4.8v65.3c0,2.6,2.2,4.8,4.8,4.8h52.9v16.5    c0,2,1.6,3.6,3.6,3.6h25.8c2,0,3.6-1.6,3.6-3.6V33.5C95.4,31.5,93.7,29.9,91.7,29.9z M17.8,8.2h63c0.8,0,1.4,0.6,1.4,1.4    c0,0.8-0.6,1.4-1.4,1.4h-63c-0.8,0-1.4-0.6-1.4-1.4C16.4,8.8,17,8.2,17.8,8.2z M12,7.2c1.3,0,2.4,1.1,2.4,2.4s-1.1,2.4-2.4,2.4    s-2.4-1.1-2.4-2.4C9.7,8.2,10.7,7.2,12,7.2z M9.4,73.2c-0.3,0-0.6-0.3-0.6-0.6V15.9H82v14h-6.6c-0.6-1.6-2-2.9-3.8-3.1    c-0.8-0.1-1.6,0-2.4,0.3l1.2,2.8h-0.5l-1.5-3.7c-1.4,0.7-2.6,2.1-3,3.7c-1.7,0.3-3,1.8-3,3.6v17.9h-2.6v16.8h2.6v5H9.4z     M78.8,95.9c-1.3,0-2.4-1.1-2.4-2.4c0-1.3,1.1-2.4,2.4-2.4c1.3,0,2.4,1.1,2.4,2.4C81.3,94.8,80.2,95.9,78.8,95.9z M93.1,88.9    c0,0.3-0.2,0.5-0.5,0.5H65.1c-0.3,0-0.5-0.2-0.5-0.5V68.2V51.4V38.5c0-0.3,0.2-0.5,0.5-0.5h27.5c0.3,0,0.5,0.2,0.5,0.5V88.9z"></path></g></g></svg>
