<svg height="100" width="100" xmlns="http://www.w3.org/2000/svg"><path d="M70.7 68.4l-3 .4c.3 1.4 1.5 2.4 2.9 2.4 1.6 0 2.9-1.3 2.9-2.9 0-.7-.3-1.3-.6-1.8l-2.2 1.9z"/><path d="M67.8 66c-.5.6-.8 1.4-.8 2.2v.3l3.3-.4-2.5-2.1zm5.2.1c-.6-.7-1.5-1.1-2.4-1.1s-1.8.4-2.4 1l2.4 2.1 2.4-2zm4.7-1c-1 .5-1.8 1.5-2 2.7-.1.8 0 1.5.3 2.1l2.9-1.7-1.2-3.1z"/><path d="M79.8 65.4c-.5-.1-1 0-1.5.2l1.1 2.7-2.5 1.5c.4.8 1.2 1.3 2.1 1.4 1.6.3 3.1-.9 3.3-2.5.3-1.5-.9-3.1-2.5-3.3zm6.3-.3c-1 .5-1.8 1.5-2 2.7-.1.8 0 1.5.3 2.1l2.9-1.7-1.2-3.1z"/><path d="M88.2 65.4c-.5-.1-1 0-1.5.2l1.1 2.7-2.5 1.5c.4.8 1.2 1.3 2.1 1.4 1.6.3 3.1-.9 3.3-2.5.3-1.5-.9-3.1-2.5-3.3zm-5.4-23.7c-2.8-.8-5.9-.4-8.6 1.1-5.4 3.1-7.2 10-4.1 15.4.1.2.3.4.3.6l8.6-6.7 3.8-10.4z"/><path d="M79.9 52.5l-7.2 5.6c2.7 3.5 7.8 4.6 11.8 2.3 4.4-2.5 5.9-8.2 3.3-12.5-1.1-2-2.8-3.3-4.8-4l-3.1 8.6z"/><path d="M80.8 82.5H83.2V86.1H80.8z"/><path d="M84.3 78.4H86.7V86.10000000000001H84.3z"/><path d="M87.7 80.6H90.10000000000001V86H87.7z"/><path d="M77.4 77.7c-.3 0-.5.3-.5.5v.2l-2.4 2.5h-.2c-.1 0-.3.1-.3.1l-.9-.4-1.8 2.4h-.1c-.2 0-.3.1-.4.2l-2.1-.4-1 2.1c-.3 0-.5.3-.5.5s.3.5.5.5.5-.3.5-.5-.1-.3-.2-.3l.9-1.7 1.7.3c.1.3.3.4.5.4s.5-.3.5-.5c0-.1 0-.2-.1-.2l1.5-2.1.5.3c0 .3.3.5.5.5.3 0 .5-.3.5-.5v-.2l2.4-2.5h.2c.3 0 .5-.3.5-.5.1-.4.1-.7-.2-.7zm-35-27.8c-.7 0-1.2.5-1.2 1.2v.2l-4.9 5.6c-.1-.1-.3-.1-.5-.1s-.5.1-.7.2l-1.8-1.5c-.1-.1-.3-.1-.5-.1s-.3.1-.4.3l-4.1 6.7c-.1 0-.2-.1-.4-.1-.3 0-.6.1-.8.3L22 60.4c-.3-.1-.6 0-.7.3l-3.8 6.9h-.1c-.7 0-1.2.5-1.2 1.2s.5 1.2 1.2 1.2 1.2-.5 1.2-1.2c0-.2-.1-.4-.1-.6l3.5-6.5 4.8 2.1c.1.5.6.9 1.1.9.7 0 1.2-.5 1.2-1.2v-.2l4-6.5 1.5 1.2c.1.6.6 1.1 1.2 1.1.7 0 1.2-.5 1.2-1.2v-.1l5-5.7c.1 0 .2.1.4.1.7 0 1.2-.5 1.2-1.2 0-.6-.5-1.1-1.2-1.1z"/><path d="M52.2 60.4H57.5V68.2H52.2z"/><path d="M27.8 20.9c-2.8-.8-5.9-.4-8.6 1.1-5.4 3.1-7.2 10-4.1 15.4.1.2.3.4.3.6l8.6-6.7 3.8-10.4z"/><path d="M24.9 31.8l-7.2 5.6c2.7 3.5 7.8 4.6 11.8 2.3 4.4-2.5 5.9-8.2 3.3-12.5-1.1-2-2.8-3.3-4.8-4l-3.1 8.6zm19-.3l-4.7.7c.4 2.2 2.3 3.8 4.6 3.8 2.6 0 4.6-2 4.6-4.6 0-1.1-.4-2-.9-2.8l-3.6 2.9z"/><path d="M39.3 27.7c-.8.9-1.2 2.2-1.2 3.5v.5l5.3-.7-4.1-3.3zm8.3.2c-.9-1.1-2.3-1.8-3.8-1.8s-2.8.7-3.8 1.6l3.8 3.3 3.8-3.1zm7.5-1.7c-1.6.8-2.8 2.4-3.1 4.3-.1 1.2 0 2.3.5 3.4l4.6-2.7-2-5z"/><path d="M58.3 26.8c-.8-.1-1.6 0-2.4.3l1.8 4.3-3.9 2.4c.7 1.2 1.9 2 3.4 2.2 2.6.4 4.9-1.5 5.3-3.9.3-2.5-1.6-5-4.2-5.3z"/><path d="M91.7 29.9h-5.5V7.3c0-2.6-2.2-4.8-4.8-4.8h-72c-2.6 0-4.8 2.2-4.8 4.8v65.3c0 2.6 2.2 4.8 4.8 4.8h52.9v16.5c0 2 1.6 3.6 3.6 3.6h25.8c2 0 3.6-1.6 3.6-3.6V33.5c.1-2-1.6-3.6-3.6-3.6zM17.8 8.2h63c.8 0 1.4.6 1.4 1.4 0 .8-.6 1.4-1.4 1.4h-63c-.8 0-1.4-.6-1.4-1.4 0-.8.6-1.4 1.4-1.4zm-5.8-1c1.3 0 2.4 1.1 2.4 2.4S13.3 12 12 12s-2.4-1.1-2.4-2.4c.1-1.4 1.1-2.4 2.4-2.4zm-2.6 66c-.3 0-.6-.3-.6-.6V15.9H82v14h-6.6c-.6-1.6-2-2.9-3.8-3.1-.8-.1-1.6 0-2.4.3l1.2 2.8h-.5l-1.5-3.7c-1.4.7-2.6 2.1-3 3.7-1.7.3-3 1.8-3 3.6v17.9h-2.6v16.8h2.6v5h-53zm69.4 22.7c-1.3 0-2.4-1.1-2.4-2.4 0-1.3 1.1-2.4 2.4-2.4 1.3 0 2.4 1.1 2.4 2.4.1 1.3-1 2.4-2.4 2.4zm14.3-7c0 .3-.2.5-.5.5H65.1c-.3 0-.5-.2-.5-.5V38.5c0-.3.2-.5.5-.5h27.5c.3 0 .5.2.5.5v50.4z"/></svg>