<svg xmlns="http://www.w3.org/2000/svg" viewBox="0 0 24 24"><path d="M21.6.3H6.2v1.1h12.7c-2.2 1.4-3.7 3.7-4.7 6.4h-8v1.1h7.6l-1.5 4.5-.6 1.8H6.2v1.1h5.2c-1.2 3.5-2.5 6.1-5.2 6.1V24H24v-1.6H12.7c1.3-.7 2.5-1.6 3.5-2.4 2.2-1.7 4.3-3.4 7.8-3.4v-1.7c-.9 0-1.7.1-2.5.3h-4.8c2-3.2 4-6.1 7.3-6.1V7.5c-.7 0-1.3.1-1.9.3H16c1.6-3.5 3.8-6.1 8-6.1V0c-.9 0-1.7.1-2.4.3zm-8.5 16h.9c-.6 1-1.3 1.9-1.9 2.8.4-.9.7-1.8 1-2.8zm2.1 2.3c-.6.5-1.2.9-1.7 1.3.9-1.2 1.7-2.4 2.5-3.7h2.6c-1.2.7-2.3 1.6-3.4 2.4zm4.6-9.8c-2 1.5-3.5 3.9-5 6.2l-.1.1h-1.3c.1-.5.3-.9.4-1.4.5-1.7 1-3.4 1.6-5h4.4z"/></svg>