<svg height='100px' width='100px'  xmlns="http://www.w3.org/2000/svg" xmlns:xlink="http://www.w3.org/1999/xlink" xmlns:a="http://ns.adobe.com/AdobeSVGViewerExtensions/3.0/" version="1.1" x="0px" y="0px" viewBox="-75 -60 1024 1024" enable-background="new -75 -60 1024 1024" xml:space="preserve"><path display="none"  d="M599.358,0h-382.46C164.364,0,122,41.466,122,94v283h503.251  C687.271,377,738,427.068,738,489.088v210.9C738,762.008,687.271,813,625.251,813H122.239c1.516,51,43.093,92,94.659,92h558.833  C828.264,905,871,861.917,871,809.383V271.851L599.358,0z M442.653,269H241.795c-11.093,0-20.085-9.421-20.085-20.514  c0-5.552,2.246-10.773,5.879-14.407c3.634-3.633,8.655-6.08,14.206-6.08h200.858c11.094,0,20.086,9.408,20.086,20.5  C462.739,259.594,453.747,269,442.653,269z M443.565,148H242.708c-11.093,0-20.086-9.178-20.086-20.272  c0-5.551,2.246-10.394,5.88-14.027c3.633-3.633,8.655-5.701,14.206-5.701h200.857c11.094,0,20.087,8.908,20.087,20  S454.659,148,443.565,148z M581,289V67.286L803.285,289H581z"></path><path display="none"  d="M220,599h-40v-49h40C254,550,254,599,220,599z"></path><path display="none"  d="M387.286,593.79c-0.6-21.89-13.45-43.79-43.99-43.79H314v90h29.296  C375.236,640,387.896,616.69,387.286,593.79z M387.286,593.79c-0.6-21.89-13.45-43.79-43.99-43.79H314v90h29.296  C375.236,640,387.896,616.69,387.286,593.79z M689,497.33c0-39.947-32.383-72.33-72.33-72.33H72.33C32.383,425,0,457.383,0,497.33  v195.34C0,732.617,32.383,765,72.33,765h544.34c39.947,0,72.33-32.383,72.33-72.33V497.33z M220,624h-40v41h-26V524.142  c22,0,44-0.2,66-0.2C289,523.941,289,624,220,624z M343.296,665H288V525h55.296c48.21,0,69.7,34.05,70.31,68.79  C414.206,629.35,392.516,665,343.296,665z M536,550h-75v39h71v24h-71v52h-26V525h101V550z M343.296,550H314v90h29.296  c31.94,0,44.6-23.31,43.99-46.21C386.686,571.9,373.835,550,343.296,550z"></path><path display="none"  d="M599.358,0h-382.46C164.364,0,122,41.466,122,94v283h503.251  C687.271,377,738,427.068,738,489.088v210.9C738,762.008,687.271,813,625.251,813H122.239c1.516,51,43.093,92,94.659,92h558.833  C828.264,905,871,861.917,871,809.383V271.851L599.358,0z M442.653,269H241.795c-11.093,0-20.085-9.421-20.085-20.514  c0-5.552,2.246-10.773,5.879-14.407c3.634-3.633,8.655-6.08,14.206-6.08h200.858c11.094,0,20.086,9.408,20.086,20.5  C462.739,259.594,453.747,269,442.653,269z M443.565,148H242.708c-11.093,0-20.086-9.178-20.086-20.272  c0-5.551,2.246-10.394,5.88-14.027c3.633-3.633,8.655-5.701,14.206-5.701h200.857c11.094,0,20.087,8.908,20.087,20  S454.659,148,443.565,148z M581,289V67.286L803.285,289H581z"></path><path display="none"  d="M217,600h-39v-50h39C251,550,251,600,217,600z"></path><path display="none" d="M689,497.33c0-39.947-32.383-72.33-72.33-72.33H72.33C32.383,425,0,457.383,0,497.33v195.34  C0,732.617,32.383,765,72.33,765h544.34c39.947,0,72.33-32.383,72.33-72.33V497.33z M217,624h-39v41h-27V524.892c22,0,44-0.2,66-0.2  C286,524.691,286,624,217,624z M339.776,668.491c-28.59,0-50.59-8.8-60.99-34.399l22-11.4c6.19,15.4,22.39,22.2,39.39,22.2  c16.6,0,32.2-5.8,32.2-21c0-13.2-13.8-18.601-32.4-20.601c-28.6-3.399-54.99-11-54.99-42.399c0-28.8,28.39-40.601,54.19-40.8  c21.8,0,44.4,6.199,55,27.8l-21,10.8c-4.8-8-18-15.6-33.2-15.6c-19.6,0-29,8.199-29,18.6c0,12.2,14.4,15.6,31.2,17.6  c29.2,3.601,56.4,11.2,56.4,44.601C398.576,655.092,370.976,668.491,339.776,668.491z M472.176,665H417V525h55.176  c48,0,69.399,34.2,70,68.8C542.775,629.2,521.176,665,472.176,665z M472.176,550H443v90h29.176c31.8,0,44.399-23.4,43.8-46.2  C515.376,572,502.575,550,472.176,550z"></path><path display="none"  d="M599.358,0h-382.46C164.364,0,122,41.466,122,94v283h503.251  C687.271,377,738,427.068,738,489.088v210.9C738,762.008,687.271,813,625.251,813H122.239c1.516,51,43.093,92,94.659,92h558.833  C828.264,905,871,861.917,871,809.383V271.851L599.358,0z M442.653,269H241.795c-11.093,0-20.085-9.421-20.085-20.514  c0-5.552,2.246-10.773,5.879-14.407c3.634-3.633,8.655-6.08,14.206-6.08h200.858c11.094,0,20.086,9.408,20.086,20.5  C462.739,259.594,453.747,269,442.653,269z M443.565,148H242.708c-11.093,0-20.086-9.178-20.086-20.272  c0-5.551,2.246-10.394,5.88-14.027c3.633-3.633,8.655-5.701,14.206-5.701h200.857c11.094,0,20.087,8.908,20.087,20  S454.659,148,443.565,148z M581,289V67.286L803.285,289H581z"></path><path display="none"  d="M213,601h-40v-50h40C246,551,247,601,213,601z"></path><path display="none" d="M689,497.33c0-39.947-32.383-72.33-72.33-72.33H72.33C32.383,425,0,457.383,0,497.33v195.34  C0,732.617,32.383,765,72.33,765h544.34c39.947,0,72.33-32.383,72.33-72.33V497.33z M213,625h-40v41h-26V525.611c22,0,44-0.2,66-0.2  C281,525.411,281,625,213,625z M400,666h-16v-0.188l-74-94.601V666h-26V526h21.706L374,612.411V526h26V666z M549,643.611  c-14,15.8-31.146,25.2-55.748,25.2c-52.6,0-74.022-34.601-74.022-71.4c0-39.399,24.648-75.8,74.048-75.8  c18.8,0,37.619,7.2,52.019,21.4l-16.38,16.8c-9.39-9-23.365-14-35.565-14c-30,0-48.146,22.8-48.146,51.6  c0,23,13.348,46.8,48.147,46.8c11,0,20.648-2.399,31.648-11.199V609h-36v-24h60V643.611z"></path><path display="none"  d="M599.358,0h-382.46C164.364,0,122,41.466,122,94v283h503.251  C687.271,377,738,427.068,738,489.088v210.9C738,762.008,687.271,813,625.251,813H122.239c1.516,51,43.093,92,94.659,92h558.833  C828.264,905,871,861.917,871,809.383V271.851L599.358,0z M442.653,269H241.795c-11.093,0-20.085-9.421-20.085-20.514  c0-5.552,2.246-10.773,5.879-14.407c3.634-3.633,8.655-6.08,14.206-6.08h200.858c11.094,0,20.086,9.408,20.086,20.5  C462.739,259.594,453.747,269,442.653,269z M443.565,148H242.708c-11.093,0-20.086-9.178-20.086-20.272  c0-5.551,2.246-10.394,5.88-14.027c3.633-3.633,8.655-5.701,14.206-5.701h200.857c11.094,0,20.087,8.908,20.087,20  S454.659,148,443.565,148z M581,289V67.286L803.285,289H581z"></path><path display="none"  d="M357,551h-40v50h40C391,601,391,551,357,551z M357,551h-40v50h40C391,601,391,551,357,551z   M689,497.33c0-39.947-32.383-72.33-72.33-72.33H72.33C32.383,425,0,457.383,0,497.33v195.34C0,732.617,32.383,765,72.33,765h544.34  c39.947,0,72.33-32.383,72.33-72.33V497.33z M266,605.812c0,36.2-22.747,62.895-61.347,62.895c-35.8,0-61.147-21.706-61.147-60.706  h26c0,24,11.547,35.905,35.347,35.905c24,0,35.147-16.894,35.147-38.094V551h-42v-25h68V605.812z M357,625h-40v41h-26V525.611  c22,0,44-0.2,66-0.2C426,525.411,426,625,357,625z M550,643.611c-13,15.8-30.848,25.2-55.447,25.2  c-52.6,0-73.724-34.601-73.724-71.4c0-39.399,24.639-75.8,74.038-75.8c18.801,0,37.609,7.2,52.009,21.4l-16.39,16.8  c-9.4-9-23.416-14-35.615-14c-30,0-48.218,22.8-48.218,51.6c0,23,13.198,46.8,47.998,46.8c11,0,20.349-2.399,31.349-11.199V609h-36  v-24h60V643.611z M357,551h-40v50h40C391,601,391,551,357,551z"></path><path display="none"  d="M599.358,0h-382.46C164.364,0,122,41.466,122,94v283h503.251  C687.271,377,738,427.068,738,489.088v210.9C738,762.008,687.271,813,625.251,813H122.239c1.516,51,43.093,92,94.659,92h558.833  C828.264,905,871,861.917,871,809.383V271.851L599.358,0z M442.653,269H241.795c-11.093,0-20.085-9.421-20.085-20.514  c0-5.552,2.246-10.773,5.879-14.407c3.634-3.633,8.655-6.08,14.206-6.08h200.858c11.094,0,20.086,9.408,20.086,20.5  C462.739,259.594,453.747,269,442.653,269z M443.565,148H242.708c-11.093,0-20.086-9.178-20.086-20.272  c0-5.551,2.246-10.394,5.88-14.027c3.633-3.633,8.655-5.701,14.206-5.701h200.857c11.094,0,20.087,8.908,20.087,20  S454.659,148,443.565,148z M581,289V67.286L803.285,289H581z"></path><path display="none"  d="M689,497.33c0-39.947-32.383-72.33-72.33-72.33H72.33C32.383,425,0,457.383,0,497.33v195.34  C0,732.617,32.383,765,72.33,765h544.34c39.947,0,72.33-32.383,72.33-72.33V497.33z M327,642.611c-13,15.8-31.047,25.2-55.647,25.2  c-52.6,0-73.923-34.601-73.923-71.4c0-39.399,24.638-75.8,74.038-75.8c18.8,0,37.619,7.2,52.019,21.4l-16.391,16.8  c-9.4-9-23.395-14-35.595-14c-30,0-48.198,22.8-48.198,51.6c0,23,13.349,46.8,48.148,46.8c11,0,20.548-2.399,31.548-11.199V608h-36  v-24h60V642.611z M375,665h-26V525h26V665z M500,551h-74v38h70v24h-70v52h-26V525h100V551z"></path><path display="none"  d="M599.358,0h-382.46C164.364,0,122,41.466,122,94v283h503.251  C687.271,377,738,427.068,738,489.088v210.9C738,762.008,687.271,813,625.251,813H122.239c1.516,51,43.093,92,94.659,92h558.833  C828.264,905,871,861.917,871,809.383V271.851L599.358,0z M442.653,269H241.795c-11.093,0-20.085-9.421-20.085-20.514  c0-5.552,2.246-10.773,5.879-14.407c3.634-3.633,8.655-6.08,14.206-6.08h200.858c11.094,0,20.086,9.408,20.086,20.5  C462.739,259.594,453.747,269,442.653,269z M443.565,148H242.708c-11.093,0-20.086-9.178-20.086-20.272  c0-5.551,2.246-10.394,5.88-14.027c3.633-3.633,8.655-5.701,14.206-5.701h200.857c11.094,0,20.087,8.908,20.087,20  S454.659,148,443.565,148z M581,289V67.286L803.285,289H581z"></path><path display="none"  d="M360,551h-40v50h40C393,601,393,551,360,551z M360,551h-40v50h40C393,601,393,551,360,551z   M689,497.33c0-39.947-32.383-72.33-72.33-72.33H72.33C32.383,425,0,457.383,0,497.33v195.34C0,732.617,32.383,765,72.33,765h544.34  c39.947,0,72.33-32.383,72.33-72.33V497.33z M273,552h-78v32h75v24h-75v32h78v26H168V526h105V552z M360,625h-40v41h-26V525.611  c22,0,44-0.2,66-0.2C428,525.411,428,625,360,625z M482.105,669.211c-28.6,0-50.6-8.8-61-34.399l22-11.4  c6.2,15.4,22.4,22.2,39.4,22.2c16.6,0,32.2-5.8,32.2-21c0-13.2-13.801-18.6-32.4-20.6c-28.6-3.4-55-11-55-42.4  c0-28.8,28.4-40.6,54.2-40.8c21.8,0,44.399,6.2,55,27.8l-21,10.8c-4.8-8-18-15.6-33.2-15.6c-19.6,0-29,8.2-29,18.6  c0,12.2,14.4,15.601,31.2,17.601c29.2,3.6,56.399,11.199,56.399,44.6C540.905,655.812,513.306,669.211,482.105,669.211z M360,551  h-40v50h40C393,601,393,551,360,551z"></path><path display="none"  d="M599.367,0h-382.46C164.373,0,122,41.464,122,93.998V377h503.26  C687.279,377,738,427.066,738,489.086v210.9C738,762.006,687.279,813,625.26,813H122.248c1.516,51,43.093,92,94.659,92H775.74  c52.532,0,95.26-43.085,95.26-95.619V271.849L599.367,0z M442.662,269H241.804c-11.093,0-20.085-9.422-20.085-20.515  c0-5.552,2.246-10.772,5.879-14.406c3.634-3.633,8.655-6.079,14.206-6.079h200.858c11.094,0,20.086,9.408,20.086,20.5  C462.748,259.594,453.756,269,442.662,269z M443.574,148H242.717c-11.093,0-20.086-9.179-20.086-20.273  c0-5.551,2.246-10.393,5.88-14.027c3.633-3.633,8.655-5.7,14.206-5.7h200.857c11.094,0,20.087,8.908,20.087,20  S454.668,148,443.574,148z M581,289V67.284L803.294,289H581z"></path><path display="none"  d="M689,497.33c0-39.947-32.383-72.33-72.33-72.33H72.33C32.383,425,0,457.383,0,497.33v195.34  C0,732.617,32.383,765,72.33,765h544.34c39.947,0,72.33-32.383,72.33-72.33V497.33z M278,550h-45v116h-26V550h-45v-24h116V550z   M419,666h-29.304l-35.8-52.6l-35.8,52.6H288v-1.349l48.9-70l-46.9-68V526h28.896l35,52.2l35-52.2H418v0.651l-47.6,68l48.6,70V666z   M542,550h-45v116h-26V550h-45v-24h116V550z"></path><path display="none"  d="M599.376,0h-382.46C164.382,0,122,41.463,122,93.996V377h503.269  C687.288,377,738,427.065,738,489.084v210.9C738,762.004,687.288,813,625.269,813H122.256c1.516,51,43.093,92,94.659,92h558.833  C828.281,905,871,861.914,871,809.379V271.847L599.376,0z M442.671,269H241.813c-11.093,0-20.085-9.423-20.085-20.516  c0-5.552,2.246-10.772,5.879-14.406c3.634-3.633,8.655-6.079,14.206-6.079h200.858c11.094,0,20.086,9.408,20.086,20.5  C462.757,259.594,453.765,269,442.671,269z M443.583,148H242.726c-11.093,0-20.086-9.18-20.086-20.273  c0-5.551,2.246-10.393,5.88-14.027c3.633-3.633,8.655-5.7,14.206-5.7h200.857c11.094,0,20.087,8.908,20.087,20  S454.677,148,443.583,148z M581,289V67.282L803.303,289H581z"></path><path display="none"  d="M240.896,594.301c0.6,22.799-12,45.699-43.8,45.699H168v-89h29.096  C227.496,551,240.296,572.5,240.896,594.301z"></path><path display="none"  d="M352.286,546.651c-33,0-46.59,26.6-45.99,50.2c0.6,23,12.99,47.6,45.99,47.6  s45.4-24.8,45.8-47.8C398.486,573.052,385.286,546.651,352.286,546.651z M352.286,546.651c-33,0-46.59,26.6-45.99,50.2  c0.6,23,12.99,47.6,45.99,47.6s45.4-24.8,45.8-47.8C398.486,573.052,385.286,546.651,352.286,546.651z M689,497.33  c0-39.947-32.383-72.33-72.33-72.33H72.33C32.383,425,0,457.383,0,497.33v195.34C0,732.617,32.383,765,72.33,765h544.34  c39.947,0,72.33-32.383,72.33-72.33V497.33z M197.096,666H142V526h55.096c48,0,69.4,34.2,70,68.8  C267.696,630.2,246.096,666,197.096,666z M352.286,668.651c-49.19,0-71.99-35.4-71.99-72.2s23.6-73.8,71.99-73.8  c48.2,0,72.2,37,71.8,73.6C423.686,632.451,401.486,668.651,352.286,668.651z M513.686,668.651c-52,0-74-35.8-74.199-72.2  c-0.201-36.6,23.6-73.8,74.199-73.8c19,0,37,7.2,51.4,21.4l-17.601,17c-9.199-9-21.6-13.2-33.8-13.2c-33.8,0-48.399,25.2-48.2,48.6  c0.2,23.2,13.601,47.4,48.2,47.4c12.2,0,26-5,35.2-14.2l18,18.2C552.485,662.052,533.886,668.651,513.686,668.651z M352.286,546.651  c-33,0-46.59,26.6-45.99,50.2c0.6,23,12.99,47.6,45.99,47.6s45.4-24.8,45.8-47.8C398.486,573.052,385.286,546.651,352.286,546.651z"></path><path display="none"  d="M599.078,0h-382.46C164.084,0,122,41.461,122,93.994V377h502.971  C686.99,377,738,427.063,738,489.082v210.9C738,762.002,686.99,813,624.971,813H121.958c1.516,51,43.093,92,94.659,92h558.833  C827.983,905,871,861.912,871,809.377V271.845L599.078,0z M442.373,269H241.515c-11.093,0-20.085-9.424-20.085-20.517  c0-5.552,2.246-10.771,5.879-14.405c3.634-3.633,8.655-6.078,14.206-6.078h200.858c11.094,0,20.086,9.408,20.086,20.5  C462.459,259.594,453.467,269,442.373,269z M443.285,148H242.428c-11.093,0-20.086-9.181-20.086-20.274  c0-5.551,2.246-10.393,5.88-14.026c3.633-3.633,8.655-5.699,14.206-5.699h200.857c11.094,0,20.087,8.908,20.087,20  S454.379,148,443.285,148z M581,289V67.28L803.005,289H581z"></path><path display="none"  d="M689,497.33c0-39.947-32.383-72.33-72.33-72.33H72.33C32.383,425,0,457.383,0,497.33v195.34  C0,732.617,32.383,765,72.33,765h544.34c39.947,0,72.33-32.383,72.33-72.33V497.33z M299,666h-29.602l-35.8-52.6l-35.8,52.6H168  v-1.351l48.9-70l-46.9-68V526h28.598l35,52.2l35-52.2H298v0.649l-47.6,68l48.6,70V666z M413,666h-98V526h26v115h72V666z   M484.598,669.05c-28.6,0-50.6-8.801-61-34.4l22-11.4c6.2,15.4,22.4,22.2,39.4,22.2c16.6,0,32.2-5.8,32.2-21  c0-13.2-13.801-18.6-32.4-20.6c-28.6-3.4-55-11-55-42.4c0-28.8,28.4-40.6,54.2-40.8c21.8,0,44.399,6.2,55,27.8l-21,10.8  c-4.8-8-18-15.6-33.2-15.6c-19.6,0-29,8.2-29,18.6c0,12.2,14.4,15.601,31.2,17.601c29.2,3.6,56.399,11.2,56.399,44.6  C543.397,655.649,515.798,669.05,484.598,669.05z"></path><path display="none"  d="M599.384,0h-382.46C164.39,0,122,41.461,122,93.994V377h503.276  C687.296,377,738,427.063,738,489.082v210.9C738,762.002,687.296,813,625.276,813H122.264c1.516,51,43.093,92,94.659,92h558.833  C828.289,905,871,861.912,871,809.377V271.845L599.384,0z M442.679,269H241.82c-11.093,0-20.085-9.424-20.085-20.517  c0-5.552,2.246-10.771,5.879-14.405c3.634-3.633,8.655-6.078,14.206-6.078h200.858c11.094,0,20.086,9.408,20.086,20.5  C462.765,259.594,453.772,269,442.679,269z M443.591,148H242.733c-11.093,0-20.086-9.181-20.086-20.274  c0-5.551,2.246-10.393,5.88-14.026c3.633-3.633,8.655-5.699,14.206-5.699h200.857c11.094,0,20.087,8.908,20.087,20  S454.685,148,443.591,148z M581,289V67.28L803.311,289H581z"></path><path display="none"  d="M237,600h-40v-49h40C270,551,270,600,237,600z"></path><path display="none"  d="M372,551h-40v49h40C406,600,405,551,372,551z M372,551h-40v49h40C406,600,405,551,372,551z   M689,497.33c0-39.947-32.383-72.33-72.33-72.33H72.33C32.383,425,0,457.383,0,497.33v195.34C0,732.617,32.383,765,72.33,765h544.34  c39.947,0,72.33-32.383,72.33-72.33V497.33z M237,625h-40v41h-26V525.451c22,0,44-0.2,66-0.2C305,525.251,305,625,237,625z M372,625  h-40v41h-26V525.451c22,0,44-0.2,66-0.2C440,525.251,440,625,372,625z M548,550h-44v116h-27V550h-44v-24h115V550z M372,551h-40v49  h40C406,600,405,551,372,551z"></path><path display="none"  d="M599.384,0h-382.46C164.39,0,122,41.461,122,93.994V377h503.276  C687.296,377,738,427.063,738,489.082v210.9C738,762.002,687.296,813,625.276,813H122.264c1.516,51,43.093,92,94.659,92h558.833  C828.289,905,871,861.912,871,809.377V271.845L599.384,0z M442.679,269H241.82c-11.093,0-20.085-9.424-20.085-20.517  c0-5.552,2.246-10.771,5.879-14.405c3.634-3.633,8.655-6.078,14.206-6.078h200.858c11.094,0,20.086,9.408,20.086,20.5  C462.765,259.594,453.772,269,442.679,269z M443.591,148H242.733c-11.093,0-20.086-9.181-20.086-20.274  c0-5.551,2.246-10.393,5.88-14.026c3.633-3.633,8.655-5.699,14.206-5.699h200.857c11.094,0,20.087,8.908,20.087,20  S454.685,148,443.591,148z M581,289V67.28L803.311,289H581z"></path><path display="none"  d="M689,497.33c0-39.947-32.383-72.33-72.33-72.33H72.33C32.383,425,0,457.383,0,497.33v195.34  C0,732.617,32.383,765,72.33,765h544.34c39.947,0,72.33-32.383,72.33-72.33V497.33z M193,667h-26v-57H98v57H72V527h26v59h69v-59h26  V667z M325,551h-44v116h-27V551h-44v-24h115V551z M489,667h-26V565.052L417.686,626h-5.2L368,564.852V667h-27V527h30.886l43.8,60.2  l43.8-60.2H489V667z M613,667h-99V527h27v115h72V667z"></path><path display="none"  d="M599.384,0h-382.46C164.39,0,122,41.461,122,93.994V377h503.276  C687.296,377,738,427.063,738,489.082v210.9C738,762.002,687.296,813,625.276,813H122.264c1.516,51,43.093,92,94.659,92h558.833  C828.289,905,871,861.912,871,809.377V271.845L599.384,0z M442.679,269H241.82c-11.093,0-20.085-9.424-20.085-20.517  c0-5.552,2.246-10.771,5.879-14.405c3.634-3.633,8.655-6.078,14.206-6.078h200.858c11.094,0,20.086,9.408,20.086,20.5  C462.765,259.594,453.772,269,442.679,269z M443.591,148H242.733c-11.093,0-20.086-9.181-20.086-20.274  c0-5.551,2.246-10.393,5.88-14.026c3.633-3.633,8.655-5.699,14.206-5.699h200.857c11.094,0,20.087,8.908,20.087,20  S454.685,148,443.591,148z M581,289V67.28L803.311,289H581z"></path><path display="none"  d="M689,497.33c0-39.947-32.383-72.33-72.33-72.33H72.33C32.383,425,0,457.383,0,497.33v195.34  C0,732.617,32.383,765,72.33,765h544.34c39.947,0,72.33-32.383,72.33-72.33V497.33z M275,666h-29.304l-35.8-52.6l-35.8,52.6H144  v-1.349l48.9-70l-46.9-68V526h28.896l35,52.2l35-52.2H274v0.651l-47.6,68l48.6,70V666z M439,666h-26V564.052L367.286,625h-5.2  L317,563.852V666h-26V526h30.486l43.8,60.2l43.8-60.2H439V666z M562,666h-98V526h26v115h72V666z"></path><path display="none"  d="M599.384,0h-382.46C164.39,0,122,41.461,122,93.994V377h503.276  C687.296,377,738,427.063,738,489.082v210.9C738,762.002,687.296,813,625.276,813H122.264c1.516,51,43.093,92,94.659,92h558.833  C828.289,905,871,861.912,871,809.377V271.845L599.384,0z M442.679,269H241.82c-11.093,0-20.085-9.424-20.085-20.517  c0-5.552,2.246-10.771,5.879-14.405c3.634-3.633,8.655-6.078,14.206-6.078h200.858c11.094,0,20.086,9.408,20.086,20.5  C462.765,259.594,453.772,269,442.679,269z M443.591,148H242.733c-11.093,0-20.086-9.181-20.086-20.274  c0-5.551,2.246-10.393,5.88-14.026c3.633-3.633,8.655-5.699,14.206-5.699h200.857c11.094,0,20.087,8.908,20.087,20  S454.685,148,443.591,148z M581,289V67.28L803.311,289H581z"></path><path display="none"  d="M689,497.33c0-39.947-32.383-72.33-72.33-72.33H72.33C32.383,425,0,457.383,0,497.33v195.34  C0,732.617,32.383,765,72.33,765h544.34c39.947,0,72.33-32.383,72.33-72.33V497.33z M220.096,662.651c-52,0-74-35.8-74.2-72.2  c-0.2-36.6,23.6-73.8,74.2-73.8c19,0,37,7.2,51.4,21.4l-17.6,17c-9.2-9-21.6-13.2-33.8-13.2c-33.8,0-48.4,25.2-48.2,48.6  c0.2,23.2,13.6,47.4,48.2,47.4c12.2,0,26-5,35.2-14.2l18,18.2C258.896,656.052,240.296,662.651,220.096,662.651z M343.296,663.052  c-28.6,0-50.6-8.801-61-34.4l22-11.4c6.2,15.4,22.4,22.2,39.4,22.2c16.6,0,32.19-5.8,32.19-21c0-13.2-13.79-18.6-32.39-20.6  c-28.6-3.4-55-11-55-42.4c0-28.8,28.4-40.6,54.2-40.8c21.8,0,44.39,6.2,54.99,27.8l-20.99,10.8c-4.81-8-18-15.6-33.2-15.6  c-19.6,0-29,8.2-29,18.6c0,12.2,14.4,15.601,31.2,17.601c29.19,3.6,56.39,11.2,56.39,44.6  C402.085,649.651,374.496,663.052,343.296,663.052z M475.485,663.052c-28.59,0-50.59-8.801-60.99-34.4l22-11.4  c6.19,15.4,22.39,22.2,39.39,22.2c16.6,0,32.2-5.8,32.2-21c0-13.2-13.8-18.6-32.4-20.6c-28.59-3.4-54.99-11-54.99-42.4  c0-28.8,28.4-40.6,54.19-40.8c21.8,0,44.4,6.2,55,27.8l-21,10.8c-4.8-8-18-15.6-33.2-15.6c-19.59,0-29,8.2-29,18.6  c0,12.2,14.41,15.601,31.2,17.601c29.2,3.6,56.4,11.2,56.4,44.6C534.286,649.651,506.686,663.052,475.485,663.052z"></path><path display="none"  d="M599.393,0h-382.46C164.398,0,122,41.459,122,93.992V377h503.285  C687.305,377,738,427.061,738,489.08v210.9C738,762,687.305,813,625.285,813H122.273c1.516,51,43.093,92,94.659,92h558.833  C828.298,905,871,861.91,871,809.375V271.843L599.393,0z M442.688,269H241.829c-11.093,0-20.085-9.425-20.085-20.518  c0-5.552,2.246-10.771,5.879-14.405c3.634-3.633,8.655-6.078,14.206-6.078h200.858c11.094,0,20.086,9.408,20.086,20.5  C462.773,259.594,453.781,269,442.688,269z M443.6,148H242.742c-11.093,0-20.086-9.182-20.086-20.275  c0-5.551,2.246-10.392,5.88-14.026c3.633-3.633,8.655-5.699,14.206-5.699H443.6c11.094,0,20.087,8.908,20.087,20  S454.693,148,443.6,148z M581,289V67.278L803.319,289H581z"></path><path display="none"  d="M216,594h-40v-49h40C249,545,249,594,216,594z"></path><path display="none"  d="M689,497.33c0-39.947-32.383-72.33-72.33-72.33H72.33C32.383,425,0,457.383,0,497.33v195.34  C0,732.617,32.383,765,72.33,765h544.34c39.947,0,72.33-32.383,72.33-72.33V497.33z M216,619h-40v41h-26V519.451c22,0,44-0.2,66-0.2  C284,519.251,284,619,216,619z M406,660h-26v-57h-69v57h-26V520h26v59h69v-59h26V660z M497,619h-39v41h-27V519.451  c22,0,44-0.2,66-0.2C566,519.251,566,619,497,619z M497,545h-39v49h39C531,594,531,545,497,545z"></path><path display="none"  d="M599.392,0h-382.46C164.397,0,122,41.459,122,93.992V377h503.284  C687.304,377,738,427.061,738,489.08v210.9C738,762,687.304,813,625.284,813H122.272c1.516,51,43.093,92,94.659,92h558.833  C828.297,905,871,861.91,871,809.375V271.843L599.392,0z M442.687,269H241.828c-11.093,0-20.085-9.425-20.085-20.518  c0-5.552,2.246-10.771,5.879-14.405c3.634-3.633,8.655-6.078,14.206-6.078h200.858c11.094,0,20.086,9.408,20.086,20.5  C462.772,259.594,453.78,269,442.687,269z M443.599,148H242.741c-11.093,0-20.086-9.182-20.086-20.275  c0-5.551,2.246-10.392,5.88-14.026c3.633-3.633,8.655-5.699,14.206-5.699h200.857c11.094,0,20.087,8.908,20.087,20  S454.692,148,443.599,148z M581,289V67.278L803.318,289H581z"></path><path display="none"  d="M689,497.33c0-39.947-32.383-72.33-72.33-72.33H72.33C32.383,425,0,457.383,0,497.33v195.34  C0,732.617,32.383,765,72.33,765h544.34c39.947,0,72.33-32.383,72.33-72.33V497.33z M196.896,663.052c-28.6,0-50.6-8.801-61-34.4  l22-11.4c6.2,15.4,22.4,22.2,39.4,22.2c16.6,0,32.2-5.8,32.2-21c0-13.2-13.8-18.6-32.4-20.6c-28.6-3.4-55-11-55-42.4  c0-28.8,28.4-40.6,54.2-40.8c21.8,0,44.4,6.2,55,27.8l-21,10.8c-4.8-8-18-15.6-33.2-15.6c-19.6,0-29,8.2-29,18.6  c0,12.2,14.4,15.601,31.2,17.601c29.2,3.6,56.4,11.2,56.4,44.6C255.696,649.651,228.096,663.052,196.896,663.052z M352.096,660  h-27.4l-58.2-140h29.6l42.2,109l42.4-109h29.6L352.096,660z M550,637.451c-13,15.8-30.848,25.2-55.457,25.2  c-52.6,0-73.724-34.6-73.724-71.4c0-39.399,24.639-75.8,74.038-75.8c18.8,0,37.608,7.2,52.009,21.4l-16.391,16.8  c-9.399-9-23.405-14-35.604-14c-30,0-48.228,22.8-48.228,51.6c0,23,13.208,46.801,47.998,46.801c11,0,20.358-2.4,31.358-11.2V602  h-36v-23h60V637.451z"></path><path display="none"  d="M599.094,0h-382.46C164.1,0,122,41.457,122,93.99V377h502.986  C687.006,377,738,427.059,738,489.078v210.9C738,761.998,687.006,813,624.986,813H121.974c1.516,51,43.093,92,94.659,92h558.833  C827.999,905,871,861.908,871,809.373V271.841L599.094,0z M442.389,269H241.53c-11.093,0-20.085-9.426-20.085-20.519  c0-5.552,2.246-10.771,5.879-14.404c3.634-3.633,8.655-6.077,14.206-6.077h200.858c11.094,0,20.086,9.408,20.086,20.5  C462.475,259.594,453.482,269,442.389,269z M443.301,148H242.443c-11.093,0-20.086-9.183-20.086-20.276  c0-5.551,2.246-10.392,5.88-14.025c3.633-3.633,8.655-5.698,14.206-5.698h200.857c11.094,0,20.087,8.908,20.087,20  S454.395,148,443.301,148z M581,289V67.276L803.021,289H581z"></path><path display="none"  d="M689,497.33c0-39.947-32.383-72.33-72.33-72.33H72.33C32.383,425,0,457.383,0,497.33v195.34  C0,732.617,32.383,765,72.33,765h544.34c39.947,0,72.33-32.383,72.33-72.33V497.33z M333,599.651c0,36.2-23,62.975-61.6,62.975  C235.6,662.626,210,641,210,602h26c0,24,11.81,35.825,35.6,35.825c24,0,35.4-16.974,35.4-38.174V544h-43v-24h69V599.651z   M410.79,663.052c-28.59,0-50.59-8.801-60.99-34.4l22-11.4c6.2,15.4,22.39,22.2,39.39,22.2c16.6,0,32.201-5.8,32.201-21  c0-13.2-13.801-18.6-32.4-20.6c-28.59-3.4-54.99-11-54.99-42.4c0-28.8,28.4-40.6,54.19-40.8c21.8,0,44.4,6.2,55,27.8l-21,10.8  c-4.8-8-18-15.6-33.2-15.6c-19.59,0-28.99,8.2-28.99,18.6c0,12.2,14.4,15.601,31.19,17.601c29.201,3.6,56.4,11.2,56.4,44.6  C469.59,649.651,441.99,663.052,410.79,663.052z"></path><path display="none"  d="M599.398,0h-382.46C164.404,0,122,41.457,122,93.99V377h503.291  C687.311,377,738,427.059,738,489.078v210.9C738,761.998,687.311,813,625.291,813H122.279c1.516,51,43.093,92,94.659,92h558.833  C828.304,905,871,861.908,871,809.373V271.841L599.398,0z M442.693,269H241.835c-11.093,0-20.085-9.426-20.085-20.519  c0-5.552,2.246-10.771,5.879-14.404c3.634-3.633,8.655-6.077,14.206-6.077h200.858c11.094,0,20.086,9.408,20.086,20.5  C462.779,259.594,453.787,269,442.693,269z M443.605,148H242.748c-11.093,0-20.086-9.183-20.086-20.276  c0-5.551,2.246-10.392,5.88-14.025c3.633-3.633,8.655-5.698,14.206-5.698h200.857c11.094,0,20.087,8.908,20.087,20  S454.699,148,443.605,148z M581,289V67.276L803.325,289H581z"></path><polygon display="none"  points="317.706,549.4 343.706,609 291.706,609 "></polygon><path display="none"  d="M689,497.33c0-39.947-32.383-72.33-72.33-72.33H72.33C32.383,425,0,457.383,0,497.33v195.34  C0,732.617,32.383,765,72.33,765h544.34c39.947,0,72.33-32.383,72.33-72.33V497.33z M366.105,660l-11.8-27h-73.2l-12,27h-28.6  l62.8-140h28.8l62.8,140H366.105z M431,660h-26V520h26V660z"></path><path display="none"  d="M599.398,0h-382.46C164.404,0,122,41.457,122,93.99V377h503.291  C687.311,377,738,427.059,738,489.078v210.9C738,761.998,687.311,813,625.291,813H122.279c1.516,51,43.093,92,94.659,92h558.833  C828.304,905,871,861.908,871,809.373V271.841L599.398,0z M442.693,269H241.835c-11.093,0-20.085-9.426-20.085-20.519  c0-5.552,2.246-10.771,5.879-14.404c3.634-3.633,8.655-6.077,14.206-6.077h200.858c11.094,0,20.086,9.408,20.086,20.5  C462.779,259.594,453.787,269,442.693,269z M443.605,148H242.748c-11.093,0-20.086-9.183-20.086-20.276  c0-5.551,2.246-10.392,5.88-14.025c3.633-3.633,8.655-5.698,14.206-5.698h200.857c11.094,0,20.087,8.908,20.087,20  S454.699,148,443.605,148z M581,289V67.276L803.325,289H581z"></path><path display="none"  d="M232.696,622.2c0,13.199-15.4,16.8-26.2,16.8H166v-36h40.496  C217.296,603,232.696,609.6,232.696,622.2z"></path><path display="none"  d="M206.496,580H166v-32h40.496c16.8,0,22,10.699,22,17.1  C228.496,573.1,223.096,580,206.496,580z"></path><path display="none"  d="M689,497.33c0-39.947-32.383-72.33-72.33-72.33H72.33C32.383,425,0,457.383,0,497.33v195.34  C0,732.617,32.383,765,72.33,765h544.34c39.947,0,72.33-32.383,72.33-72.33V497.33z M206.496,664H140V524h66.496  c27.6,0,48.2,12.126,48.2,40.325c0,10.801-5.2,21.063-18.2,26.864c16.4,5,22.39,22.605,22.39,31.405  C258.886,653.795,235.496,664,206.496,664z M426,664h-27V562.052L353.896,623h-5.2L304,561.852V664h-27V524h31.096l43.8,60.2  l43.79-60.2H426V664z M516,623h-39v41h-27V523.451c22,0,44-0.2,66-0.2C585,523.251,585,623,516,623z M516,549h-39v49h39  C550,598,550,549,516,549z"></path><path display="none"  d="M599.399,0h-382.46C164.405,0,122,41.457,122,93.99V377h503.292  C687.312,377,738,427.059,738,489.078v210.9C738,761.998,687.312,813,625.292,813H122.28c1.516,51,43.093,92,94.659,92h558.833  C828.305,905,871,861.908,871,809.373V271.841L599.399,0z M442.694,269H241.836c-11.093,0-20.085-9.426-20.085-20.519  c0-5.552,2.246-10.771,5.879-14.404c3.634-3.633,8.655-6.077,14.206-6.077h200.858c11.094,0,20.086,9.408,20.086,20.5  C462.78,259.594,453.788,269,442.694,269z M443.606,148H242.749c-11.093,0-20.086-9.183-20.086-20.276  c0-5.551,2.246-10.392,5.88-14.025c3.633-3.633,8.655-5.698,14.206-5.698h200.857c11.094,0,20.087,8.908,20.087,20  S454.7,148,443.606,148z M581,289V67.276L803.326,289H581z"></path><path display="none"  d="M377,543h-40v49h40C411,592,410,543,377,543z M377,543h-40v49h40C411,592,410,543,377,543z   M689,497.33c0-39.947-32.383-72.33-72.33-72.33H72.33C32.383,425,0,457.383,0,497.33v195.34C0,732.617,32.383,765,72.33,765h544.34  c39.947,0,72.33-32.383,72.33-72.33V497.33z M286,658h-26V556.052L214.296,617h-5.2L164,555.852V658h-26V518h30.496l43.8,60.2  l43.8-60.2H286V658z M377,617h-40v41h-26V517.451c22,0,44-0.2,66-0.2C445,517.251,445,617,377,617z M495.886,659.726  c-26.6,0-56.99-10.726-57.19-42.726h26.601c0,14,19.39,19.166,30.8,19.166c13.39,0,31.19-5.543,31.19-20.543  c0-8.4-4.601-18.623-29.801-18.623H475v-22h20.886c14.2,0,29.2-3.885,29.4-16.885c0-8-6.4-18.393-28.801-18.393  c-12.39,0-29.199,4.277-29.199,17.277h-26.391c0-30,29.99-41.374,55.79-41.374c26.4,0,54.8,12.722,55,42.522  c0,11-7.2,23.752-19.399,27.552c13.399,4.4,22.8,17.712,22.8,29.513C555.086,649.412,522.886,659.726,495.886,659.726z M377,543h-40  v49h40C411,592,410,543,377,543z"></path><path display="none"  d="M599.398,0h-382.46C164.404,0,122,41.456,122,93.989V377h503.291  C687.311,377,738,427.058,738,489.077v210.9C738,761.997,687.311,813,625.291,813H122.279c1.516,51,43.093,92,94.659,92h558.833  C828.304,905,871,861.907,871,809.372V271.84L599.398,0z M442.693,269H241.835c-11.093,0-20.085-9.426-20.085-20.519  c0-5.552,2.246-10.771,5.879-14.404c3.634-3.633,8.655-6.077,14.206-6.077h200.858c11.094,0,20.086,9.408,20.086,20.5  C462.779,259.594,453.787,269,442.693,269z M443.605,148H242.748c-11.093,0-20.086-9.183-20.086-20.277  c0-5.551,2.246-10.392,5.88-14.025c3.633-3.633,8.655-5.698,14.206-5.698h200.857c11.094,0,20.087,8.908,20.087,20  S454.699,148,443.605,148z M581,289V67.275L803.325,289H581z"></path><polygon display="none"  points="257.696,549.4 283.696,609 231.696,609 "></polygon><path display="none"  d="M689,497.33c0-39.947-32.383-72.33-72.33-72.33H72.33C32.383,425,0,457.383,0,497.33v195.34  C0,732.617,32.383,765,72.33,765h544.34c39.947,0,72.33-32.383,72.33-72.33V497.33z M306.096,660l-11.8-27h-73.2l-12,27h-28.6  l62.8-140h28.8l62.8,140H306.096z M399.896,660h-27.4l-58.2-140h29.6l42.2,109l42.4-109h29.6L399.896,660z M500,660h-26V520h26V660z  "></path><path display="none"  d="M599.398,0h-382.46C164.404,0,122,41.457,122,93.99V377h503.291  C687.311,377,738,427.059,738,489.078v210.9C738,761.998,687.311,813,625.291,813H122.279c1.516,51,43.093,92,94.659,92h558.833  C828.304,905,871,861.908,871,809.373V271.841L599.398,0z M442.693,269H241.835c-11.093,0-20.085-9.426-20.085-20.519  c0-5.552,2.246-10.771,5.879-14.404c3.634-3.633,8.655-6.077,14.206-6.077h200.858c11.094,0,20.086,9.408,20.086,20.5  C462.779,259.594,453.787,269,442.693,269z M443.605,148H242.748c-11.093,0-20.086-9.183-20.086-20.276  c0-5.551,2.246-10.392,5.88-14.025c3.633-3.633,8.655-5.698,14.206-5.698h200.857c11.094,0,20.087,8.908,20.087,20  S454.699,148,443.605,148z M581,289V67.276L803.325,289H581z"></path><path display="none"  d="M689,497.33c0-39.947-32.383-72.33-72.33-72.33H72.33C32.383,425,0,457.383,0,497.33v195.34  C0,732.617,32.383,765,72.33,765h544.34c39.947,0,72.33-32.383,72.33-72.33V497.33z M317,534.852L244.496,638H317v25H207v-15.749  L278.696,548H209v-25h108V534.852z M359,663h-26V523h26V663z M450,622h-40v41h-26V522.451c22,0,44-0.2,66-0.2  C518,522.251,519,622,450,622z M450,548h-40v49h40C484,597,484,548,450,548z"></path><path display="none"  d="M599.404,0h-382.46C164.41,0,122,41.454,122,93.987V377h503.297  C687.316,377,738,427.056,738,489.076v210.9C738,761.996,687.316,813,625.297,813H122.285c1.516,51,43.093,92,94.659,92h558.833  C828.31,905,871,861.906,871,809.371V271.838L599.404,0z M442.699,269H241.841c-11.093,0-20.085-9.427-20.085-20.52  c0-5.552,2.246-10.77,5.879-14.404c3.634-3.633,8.655-6.077,14.206-6.077h200.858c11.094,0,20.086,9.408,20.086,20.5  C462.785,259.594,453.793,269,442.699,269z M443.611,148H242.754c-11.093,0-20.086-9.184-20.086-20.277  c0-5.551,2.246-10.391,5.88-14.025c3.633-3.633,8.655-5.698,14.206-5.698h200.857c11.094,0,20.087,8.908,20.087,20  S454.705,148,443.611,148z M581,289V67.273L803.331,289H581z"></path><path display="none"  d="M273.896,591.301c0.6,22.799-12,45.699-43.8,45.699H201v-89h29.096  C260.496,548,273.296,569.5,273.896,591.301z"></path><path display="none"  d="M689,497.33c0-39.947-32.383-72.33-72.33-72.33H72.33C32.383,425,0,457.383,0,497.33v195.34  C0,732.617,32.383,765,72.33,765h544.34c39.947,0,72.33-32.383,72.33-72.33V497.33z M230.096,663H175V523h55.096  c48,0,69.4,34.2,70,68.8C300.696,627.2,279.096,663,230.096,663z M416,663h-99V523h27v115h72V663z M533,663h-99V523h27v115h72V663z"></path><path display="none"  d="M599.404,0h-382.46C164.41,0,122,41.454,122,93.987V377h503.297  C687.316,377,738,427.056,738,489.076v210.9C738,761.996,687.316,813,625.297,813H122.285c1.516,51,43.093,92,94.659,92h558.833  C828.31,905,871,861.906,871,809.371V271.838L599.404,0z M442.699,269H241.841c-11.093,0-20.085-9.427-20.085-20.52  c0-5.552,2.246-10.77,5.879-14.404c3.634-3.633,8.655-6.077,14.206-6.077h200.858c11.094,0,20.086,9.408,20.086,20.5  C462.785,259.594,453.793,269,442.699,269z M443.611,148H242.754c-11.093,0-20.086-9.184-20.086-20.277  c0-5.551,2.246-10.391,5.88-14.025c3.633-3.633,8.655-5.698,14.206-5.698h200.857c11.094,0,20.087,8.908,20.087,20  S454.705,148,443.611,148z M581,289V67.273L803.331,289H581z"></path><path display="none"  d="M689,497.33c0-39.947-32.383-72.33-72.33-72.33H72.33C32.383,425,0,457.383,0,497.33v195.34  C0,732.617,32.383,765,72.33,765h544.34c39.947,0,72.33-32.383,72.33-72.33V497.33z M259,548h-74v39h70v24h-70v52h-26V523h100V548z   M376,663h-99V523h27v115h72V663z M505.886,663l-11.8-27h-73.2l-12,27h-28.59l62.79-140h28.8l62.8,140H505.886z M431.486,612h52  l-26-59.6L431.486,612z"></path><path display="none"  d="M599.405,0h-382.46C164.411,0,122,41.455,122,93.988V377h503.298  C687.317,377,738,427.057,738,489.076v210.9C738,761.996,687.317,813,625.298,813H122.286c1.516,51,43.093,92,94.659,92h558.833  C828.311,905,871,861.906,871,809.371V271.839L599.405,0z M442.7,269H241.842c-11.093,0-20.085-9.427-20.085-20.52  c0-5.552,2.246-10.77,5.879-14.404c3.634-3.633,8.655-6.077,14.206-6.077H442.7c11.094,0,20.086,9.408,20.086,20.5  C462.786,259.594,453.794,269,442.7,269z M443.612,148H242.755c-11.093,0-20.086-9.184-20.086-20.277  c0-5.551,2.246-10.391,5.88-14.025c3.633-3.633,8.655-5.698,14.206-5.698h200.857c11.094,0,20.087,8.908,20.087,20  S454.706,148,443.612,148z M581,289V67.274L803.332,289H581z"></path><path display="none"  d="M355.886,543.651c-33,0-46.6,26.6-46,50.2c0.6,23,13,47.6,46,47.6s45.4-24.8,45.8-47.8  C402.085,570.052,388.886,543.651,355.886,543.651z M355.886,543.651c-33,0-46.6,26.6-46,50.2c0.6,23,13,47.6,46,47.6  s45.4-24.8,45.8-47.8C402.085,570.052,388.886,543.651,355.886,543.651z M689,497.33c0-39.947-32.383-72.33-72.33-72.33H72.33  C32.383,425,0,457.383,0,497.33v195.34C0,732.617,32.383,765,72.33,765h544.34c39.947,0,72.33-32.383,72.33-72.33V497.33z M265,663  h-26V561.052L193.286,622h-5.2L143,560.852V663h-26V523h30.486l43.8,60.2l43.8-60.2H265V663z M355.886,665.651  c-49.2,0-72-35.4-72-72.2s23.6-73.8,72-73.8c48.2,0,72.2,37,71.8,73.6C427.286,629.451,405.085,665.651,355.886,665.651z   M516.686,663h-27.399l-58.201-140h29.6l42.2,109l42.4-109h29.6L516.686,663z M355.886,543.651c-33,0-46.6,26.6-46,50.2  c0.6,23,13,47.6,46,47.6s45.4-24.8,45.8-47.8C402.085,570.052,388.886,543.651,355.886,543.651z"></path><path display="none"  d="M599.409,0h-382.46C164.415,0,122,41.448,122,93.981V377h503.302  C687.321,377,738,427.05,738,489.069v210.9C738,761.989,687.321,813,625.302,813H122.29c1.516,51,43.093,92,94.659,92h558.833  C828.314,905,871,861.899,871,809.364V271.832L599.409,0z M442.704,269H241.846c-11.093,0-20.085-9.43-20.085-20.523  c0-5.552,2.246-10.769,5.879-14.402c3.634-3.633,8.655-6.075,14.206-6.075h200.858c11.094,0,20.086,9.408,20.086,20.5  C462.79,259.594,453.798,269,442.704,269z M443.616,148H242.759c-11.093,0-20.086-9.187-20.086-20.281  c0-5.551,2.246-10.39,5.88-14.023c3.633-3.633,8.655-5.696,14.206-5.696h200.857c11.094,0,20.087,8.908,20.087,20  S454.71,148,443.616,148z M581,289V67.267L803.336,289H581z"></path><path display="none"  d="M689,497.33c0-39.947-32.383-72.33-72.33-72.33H72.33C32.383,425,0,457.383,0,497.33v195.34  C0,732.617,32.383,765,72.33,765h544.34c39.947,0,72.33-32.383,72.33-72.33V497.33z M238.426,665h-22.4l-17.4-44.145l-14.8-44.268  l-14.6,44.707l-17,43.705h-22.4l-51.4-140h29.6l33,101l34-101h17.2l35,101l32-101h29.6L238.426,665z M453,665h-26V563.321  L381.426,625h-5.2L331,563.121V665h-26V525h30.625l43.8,60.2l43.8-60.2H453V665z M554.226,666h-27.4l-58.199-141h29.6l42.2,109  l42.399-109h29.601L554.226,666z"></path><path display="none"  d="M599.408,0h-382.46C164.414,0,122,41.448,122,93.981V377h503.301  C687.32,377,738,427.05,738,489.069v210.9C738,761.989,687.32,813,625.301,813H122.289c1.516,51,43.093,92,94.659,92h558.833  C828.313,905,871,861.899,871,809.364V271.832L599.408,0z M442.703,269H241.845c-11.093,0-20.085-9.43-20.085-20.523  c0-5.552,2.246-10.769,5.879-14.402c3.634-3.633,8.655-6.075,14.206-6.075h200.858c11.094,0,20.086,9.408,20.086,20.5  C462.789,259.594,453.797,269,442.703,269z M443.615,148H242.758c-11.093,0-20.086-9.187-20.086-20.281  c0-5.551,2.246-10.39,5.88-14.023c3.633-3.633,8.655-5.696,14.206-5.696h200.857c11.094,0,20.087,8.908,20.087,20  S454.709,148,443.615,148z M581,289V67.267L803.335,289H581z"></path><path display="none"  d="M362,547h-39v50h39C396,597,396,547,362,547z M362,547h-39v50h39C396,597,396,547,362,547z   M689,497.33c0-39.947-32.383-72.33-72.33-72.33H72.33C32.383,425,0,457.383,0,497.33v195.34C0,732.617,32.383,765,72.33,765h544.34  c39.947,0,72.33-32.383,72.33-72.33V497.33z M271,662h-26V560.321L199.636,622h-5.2L150,560.121V662h-27V522h30.835l43.8,60.2  l43.8-60.2H271V662z M362,621h-39v41h-27V521.722c22,0,44-0.2,66-0.2C431,521.521,431,621,362,621z M556,639.722  c-14,15.8-31.287,25.199-55.887,25.199c-52.6,0-74.154-34.6-74.154-71.399c0-39.4,24.639-75.8,74.039-75.8  c18.8,0,37.608,7.199,51.998,21.399l-16.391,16.8c-9.399-9-23.415-14-35.614-14c-30,0-48.237,22.801-48.237,51.601  c0,23,13.157,46.8,47.968,46.8c11,0,20.278-2.4,31.278-11.2V605h-35v-24h60V639.722z M362,547h-39v50h39C396,597,396,547,362,547z"></path><path  d="M599.409,0h-382.46C164.415,0,122,41.448,122,93.981V377h503.302C687.321,377,738,427.05,738,489.069v210.9  C738,761.989,687.321,813,625.302,813H122.29c1.516,51,43.093,92,94.659,92h558.833C828.314,905,871,861.899,871,809.364V271.832  L599.409,0z M442.704,269H241.846c-11.093,0-20.085-9.43-20.085-20.523c0-5.552,2.246-10.769,5.879-14.402  c3.634-3.633,8.655-6.075,14.206-6.075h200.858c11.094,0,20.086,9.408,20.086,20.5C462.79,259.594,453.798,269,442.704,269z   M443.616,148H242.759c-11.093,0-20.086-9.187-20.086-20.281c0-5.551,2.246-10.39,5.88-14.023c3.633-3.633,8.655-5.696,14.206-5.696  h200.857c11.094,0,20.087,8.908,20.087,20S454.71,148,443.616,148z M581,289V67.267L803.336,289H581z"></path><path  d="M689,497.33c0-39.947-32.383-72.33-72.33-72.33H72.33C32.383,425,0,457.383,0,497.33v195.34  C0,732.617,32.383,765,72.33,765h544.34c39.947,0,72.33-32.383,72.33-72.33V497.33z M208.436,667.921c-52,0-74-35.8-74.2-72.199  c-0.2-36.601,23.6-73.801,74.2-73.801c19,0,37,7.2,51.4,21.4l-17.6,17c-9.2-9-21.6-13.2-33.8-13.2c-33.8,0-48.4,25.2-48.2,48.601  c0.2,23.199,13.6,47.399,48.2,47.399c12.2,0,26-5,35.2-14.2l18,18.2C247.236,661.321,228.636,667.921,208.436,667.921z   M331.625,668.321c-28.59,0-50.59-8.8-60.99-34.4l22-11.399c6.2,15.399,22.4,22.2,39.4,22.2c16.59,0,32.19-5.801,32.19-21  c0-13.2-13.8-18.601-32.4-20.601c-28.59-3.399-54.99-11-54.99-42.399c0-28.801,28.4-40.601,54.2-40.801  c21.79,0,44.39,6.2,54.99,27.801l-21,10.8c-4.8-8-18-15.601-33.2-15.601c-19.59,0-28.99,8.2-28.99,18.601  c0,12.2,14.4,15.6,31.2,17.6c29.19,3.601,56.39,11.2,56.39,44.601C390.426,654.921,362.826,668.321,331.625,668.321z M486.825,666  h-27.399l-58.19-141h29.59l42.2,109l42.4-109h29.6L486.825,666z"></path><path display="none"  d="M599.409,0h-382.46C164.415,0,122,41.447,122,93.98V377h503.302  C687.321,377,738,427.049,738,489.068v210.9C738,761.988,687.321,813,625.302,813H122.29c1.516,51,43.093,92,94.659,92h558.833  C828.314,905,871,861.898,871,809.363V271.831L599.409,0z M442.704,269H241.846c-11.093,0-20.085-9.431-20.085-20.523  c0-5.552,2.246-10.768,5.879-14.402c3.634-3.633,8.655-6.075,14.206-6.075h200.858c11.094,0,20.086,9.408,20.086,20.5  C462.79,259.594,453.798,269,442.704,269z M443.616,148H242.759c-11.093,0-20.086-9.188-20.086-20.281  c0-5.551,2.246-10.389,5.88-14.023c3.633-3.633,8.655-5.696,14.206-5.696h200.857c11.094,0,20.087,8.908,20.087,20  S454.71,148,443.616,148z M581,289V67.266L803.336,289H581z"></path><path display="none"  d="M205.036,592H165v-45h40.036c16.6,0,24,11.301,24,22.5S221.835,592,205.036,592z"></path><path display="none"  d="M336.036,551.4l-26,59.6h52L336.036,551.4z M336.036,551.4l-26,59.6h52L336.036,551.4z   M689,497.33c0-39.947-32.383-72.33-72.33-72.33H72.33C32.383,425,0,457.383,0,497.33v195.34C0,732.617,32.383,765,72.33,765h544.34  c39.947,0,72.33-32.383,72.33-72.33V497.33z M384.436,662l-11.8-26h-73.2l-12,26H262v-2.079l-1.597-1.905L258.835,662h-27.8  l-40.8-47H165v47h-27V521.521c22,0,44.613,0.2,66.823,0.2c33,0.199,50.506,22.199,50.506,46.399c0,19.2-8.751,38.601-35.352,44  l40.569,45.641l0.029,0.154L321.636,522h28.8l62.8,140H384.436z M549,662h-31.175l-40.8-47H451v47h-26V521.521  c22,0,44.523,0.2,66.713,0.2c33,0.199,50.457,22.199,50.457,46.399c0,19.2-8.896,38.601-35.496,44l42.326,47.8V662z M515.825,569.5  c0-11.2-7.399-22.5-24-22.5H451v45h40.825C508.626,592,515.825,580.7,515.825,569.5z M310.036,611h52l-26-59.6L310.036,611z"></path><path display="none" d="M260.403,657.821l0.067-0.01l0.008,0.154L258.835,662H262v-2.079L260.403,657.821z"></path><path display="none" d="M260.403,657.821l0.333-0.05l0.265-0.01v0.05L258.835,662H262v-2.079L260.403,657.821z"></path><path display="none"  d="M599.409,0h-382.46C164.415,0,122,41.447,122,93.98V377h503.302  C687.321,377,738,427.049,738,489.068v210.9C738,761.988,687.321,813,625.302,813H122.29c1.516,51,43.093,92,94.659,92h558.833  C828.314,905,871,861.898,871,809.363V271.831L599.409,0z M442.704,269H241.846c-11.093,0-20.085-9.431-20.085-20.523  c0-5.552,2.246-10.768,5.879-14.402c3.634-3.633,8.655-6.075,14.206-6.075h200.858c11.094,0,20.086,9.408,20.086,20.5  C462.79,259.594,453.798,269,442.704,269z M443.616,148H242.759c-11.093,0-20.086-9.188-20.086-20.281  c0-5.551,2.246-10.389,5.88-14.023c3.633-3.633,8.655-5.696,14.206-5.696h200.857c11.094,0,20.087,8.908,20.087,20  S454.71,148,443.616,148z M581,289V67.266L803.336,289H581z"></path><path display="none"  d="M689,497.33c0-39.947-32.383-72.33-72.33-72.33H72.33C32.383,425,0,457.383,0,497.33v195.34  C0,732.617,32.383,765,72.33,765h544.34c39.947,0,72.33-32.383,72.33-72.33V497.33z M254,551h-78v32h76v25h-76v31h78v26H150V525h104  V551z M400,665h-29.165l-35.8-52.6l-35.8,52.6H269v-1.079l48.9-70l-46.9-68V525h29.036l35,52.2l35-52.2H399v0.921l-47.6,68l48.6,70  V665z M520,551h-78v32h75v25h-75v31h78v26H415V525h105V551z"></path><path display="none"  d="M599.408,0h-382.46C164.414,0,122,41.447,122,93.98V377h503.301  C687.32,377,738,427.049,738,489.068v210.9C738,761.988,687.32,813,625.301,813H122.289c1.516,51,43.093,92,94.659,92h558.833  C828.313,905,871,861.898,871,809.363V271.831L599.408,0z M442.703,269H241.845c-11.093,0-20.085-9.431-20.085-20.523  c0-5.552,2.246-10.768,5.879-14.402c3.634-3.633,8.655-6.075,14.206-6.075h200.858c11.094,0,20.086,9.408,20.086,20.5  C462.789,259.594,453.797,269,442.703,269z M443.615,148H242.758c-11.093,0-20.086-9.188-20.086-20.281  c0-5.551,2.246-10.389,5.88-14.023c3.633-3.633,8.655-5.696,14.206-5.696h200.857c11.094,0,20.087,8.908,20.087,20  S454.709,148,443.615,148z M581,289V67.266L803.335,289H581z"></path><path display="none"  d="M368,547h-39v50h39C402,597,402,547,368,547z M368,547h-39v50h39C402,597,402,547,368,547z   M689,497.33c0-39.947-32.383-72.33-72.33-72.33H72.33C32.383,425,0,457.383,0,497.33v195.34C0,732.617,32.383,765,72.33,765h544.34  c39.947,0,72.33-32.383,72.33-72.33V497.33z M277,662h-26V560.321L205.636,622h-5.2L156,560.121V662h-27V522h30.835l43.8,60.2  l43.8-60.2H277V662z M368,621h-39v41h-27V521.722c22,0,44-0.2,66-0.2C437,521.521,437,621,368,621z M553,636h-16v26h-26v-26h-74.564  l-2.4-27.2l63-86.8H537v88h16V636z M511,610v-65.278L463.836,610H511z M368,547h-39v50h39C402,597,402,547,368,547z"></path><path display="none"  d="M599.408,0h-382.46C164.414,0,122,41.447,122,93.98V377h503.301  C687.32,377,738,427.049,738,489.068v210.9C738,761.988,687.32,813,625.301,813H122.289c1.516,51,43.093,92,94.659,92h558.833  C828.313,905,871,861.898,871,809.363V271.831L599.408,0z M442.703,269H241.845c-11.093,0-20.085-9.431-20.085-20.523  c0-5.552,2.246-10.768,5.879-14.402c3.634-3.633,8.655-6.075,14.206-6.075h200.858c11.094,0,20.086,9.408,20.086,20.5  C462.789,259.594,453.797,269,442.703,269z M443.615,148H242.758c-11.093,0-20.086-9.188-20.086-20.281  c0-5.551,2.246-10.389,5.88-14.023c3.633-3.633,8.655-5.696,14.206-5.696h200.857c11.094,0,20.087,8.908,20.087,20  S454.709,148,443.615,148z M581,289V67.266L803.335,289H581z"></path><path display="none"  d="M689,497.33c0-39.947-32.383-72.33-72.33-72.33H72.33C32.383,425,0,457.383,0,497.33v195.34  C0,732.617,32.383,765,72.33,765h544.34c39.947,0,72.33-32.383,72.33-72.33V497.33z M314,549h-44v116h-27V549h-44v-24h115V549z   M356,665h-26V525h26V665z M482,551h-74v38h70v24h-70v52h-27V525h101V551z"></path><path display="none"  d="M599.408,0h-382.46C164.414,0,122,41.504,122,94.038V377h503.301  C687.32,377,738,427.106,738,489.126v210.9C738,762.046,687.32,813,625.301,813H122.289c1.516,51,43.093,92,94.659,92h558.833  C828.313,905,871,861.956,871,809.421V271.889L599.408,0z M442.703,269H241.845c-11.093,0-20.085-9.402-20.085-20.495  c0-5.552,2.246-10.782,5.879-14.416c3.634-3.634,8.655-6.089,14.206-6.089h200.858c11.094,0,20.086,9.408,20.086,20.5  C462.789,259.594,453.797,269,442.703,269z M443.615,148H242.758c-11.093,0-20.086-9.159-20.086-20.252  c0-5.551,2.246-10.403,5.88-14.037c3.633-3.634,8.655-5.71,14.206-5.71h200.857c11.094,0,20.087,8.908,20.087,20  S454.709,148,443.615,148z M581,289V67.324L803.335,289H581z"></path><path display="none"  d="M391.826,554.4l-26,59.6h52L391.826,554.4z M391.826,554.4l-26,59.6h52L391.826,554.4z   M689,497.33c0-39.947-32.383-72.33-72.33-72.33H72.33C32.383,425,0,457.383,0,497.33v195.34C0,732.617,32.383,765,72.33,765h544.34  c39.947,0,72.33-32.383,72.33-72.33V497.33z M262.426,665h-22.4l-17.4-44.145l-14.8-44.268l-14.59,44.707l-17,43.705h-22.4  l-51.4-140h29.6l33,101l34-101h17.19l35,101l32-101h29.6L262.426,665z M440.226,665l-11.8-26h-73.2l-12,26h-28.6l62.8-140h28.8  l62.8,140H440.226z M534.025,666h-27.399l-58.2-141h29.6l42.2,109l42.4-109h29.6L534.025,666z M365.826,614h52l-26-59.6L365.826,614  z"></path><path display="none"  d="M599.408,0h-382.46C164.414,0,122,41.439,122,93.973V377h503.301  C687.32,377,738,427.042,738,489.061v210.9C738,761.98,687.32,813,625.301,813H122.289c1.516,51,43.093,92,94.659,92h558.833  C828.313,905,871,861.891,871,809.355V271.824L599.408,0z M442.703,269H241.845c-11.093,0-20.085-9.435-20.085-20.527  c0-5.552,2.246-10.766,5.879-14.4c3.634-3.633,8.655-6.073,14.206-6.073h200.858c11.094,0,20.086,9.408,20.086,20.5  C462.789,259.594,453.797,269,442.703,269z M443.615,148H242.758c-11.093,0-20.086-9.191-20.086-20.285  c0-5.551,2.246-10.387,5.88-14.021c3.633-3.633,8.655-5.694,14.206-5.694h200.857c11.094,0,20.087,8.908,20.087,20  S454.709,148,443.615,148z M581,289V67.259L803.335,289H581z"></path><path display="none"  d="M689,497.33c0-39.947-32.383-72.33-72.33-72.33H72.33C32.383,425,0,457.383,0,497.33v195.34  C0,732.617,32.383,765,72.33,765h544.34c39.947,0,72.33-32.383,72.33-72.33V497.33z M241.426,665h-22.4l-17.4-44.145l-14.8-44.268  l-14.6,44.707l-17,43.705h-22.4l-51.4-140h29.6l33,101l34-101h17.2l35,101l32-101h29.6L241.426,665z M456,665h-26V563.321  L384.426,625h-5.2L334,563.121V665h-26V525h30.625l43.8,60.2l43.8-60.2H456V665z M592.426,665l-11.8-26h-73.2l-12,26h-28.601  l62.801-140h28.8l62.8,140H592.426z M518.025,614h52l-26-59.6L518.025,614z"></path><path display="none"  d="M599.408,0h-382.46C164.414,0,122,41.44,122,93.973V377h503.301  C687.32,377,738,427.042,738,489.062v210.9C738,761.981,687.32,813,625.301,813H122.289c1.516,51,43.093,92,94.659,92h558.833  C828.313,905,871,861.892,871,809.356V271.824L599.408,0z M442.703,269H241.845c-11.093,0-20.085-9.434-20.085-20.527  c0-5.552,2.246-10.767,5.879-14.4c3.634-3.633,8.655-6.073,14.206-6.073h200.858c11.094,0,20.086,9.408,20.086,20.5  C462.789,259.594,453.797,269,442.703,269z M443.615,148H242.758c-11.093,0-20.086-9.191-20.086-20.285  c0-5.551,2.246-10.388,5.88-14.021c3.633-3.633,8.655-5.694,14.206-5.694h200.857c11.094,0,20.087,8.908,20.087,20  S454.709,148,443.615,148z M581,289V67.259L803.335,289H581z"></path><path display="none"  d="M377.426,593.8c-0.6-21.8-13.39-43.8-43.79-43.8H305v90h28.636  C365.426,640,378.036,616.6,377.426,593.8z M377.426,593.8c-0.6-21.8-13.39-43.8-43.79-43.8H305v90h28.636  C365.426,640,378.036,616.6,377.426,593.8z M689,497.33c0-39.947-32.383-72.33-72.33-72.33H72.33C32.383,425,0,457.383,0,497.33  v195.34C0,732.617,32.383,765,72.33,765h544.34c39.947,0,72.33-32.383,72.33-72.33V497.33z M214.436,667.921  c-52,0-74-35.8-74.2-72.199c-0.2-36.601,23.6-73.801,74.2-73.801c19,0,37,7.2,51.4,21.4l-17.6,17c-9.2-9-21.6-13.2-33.8-13.2  c-33.8,0-48.4,25.2-48.2,48.601c0.2,23.199,13.6,47.399,48.2,47.399c12.2,0,26-5,35.2-14.2l18,18.2  C253.236,661.321,234.636,667.921,214.436,667.921z M333.636,665H278V525h55.636c48,0,69.39,34.2,69.99,68.8  C404.226,629.2,382.636,665,333.636,665z M545,665h-31.175l-40.8-47H447v47h-26V524.521c22,0,44.523,0.2,66.723,0.2  c33,0.199,50.447,22.199,50.447,46.399c0,19.2-8.896,38.601-35.496,44l42.326,47.8V665z M511.825,572.5c0-11.2-7.399-22.5-24-22.5  H447v45h40.825C504.626,595,511.825,583.7,511.825,572.5z M333.636,550H305v90h28.636c31.79,0,44.4-23.4,43.79-46.2  C376.826,572,364.036,550,333.636,550z"></path><path display="none"  d="M599.408,0h-382.46C164.414,0,122,41.439,122,93.973V377h503.301  C687.32,377,738,427.042,738,489.061v210.9C738,761.98,687.32,813,625.301,813H122.289c1.516,51,43.093,92,94.659,92h558.833  C828.313,905,871,861.891,871,809.355V271.824L599.408,0z M442.703,269H241.845c-11.093,0-20.085-9.435-20.085-20.527  c0-5.552,2.246-10.766,5.879-14.4c3.634-3.633,8.655-6.073,14.206-6.073h200.858c11.094,0,20.086,9.408,20.086,20.5  C462.789,259.594,453.797,269,442.703,269z M443.615,148H242.758c-11.093,0-20.086-9.191-20.086-20.285  c0-5.551,2.246-10.387,5.88-14.021c3.633-3.633,8.655-5.694,14.206-5.694h200.857c11.094,0,20.087,8.908,20.087,20  S454.709,148,443.615,148z M581,289V67.259L803.335,289H581z"></path><path display="none"  d="M351.436,545.921c-33,0-46.6,26.601-46,50.2c0.6,23,13,47.601,46,47.601  s45.4-24.801,45.8-47.801C397.636,572.321,384.436,545.921,351.436,545.921z M351.436,545.921c-33,0-46.6,26.601-46,50.2  c0.6,23,13,47.601,46,47.601s45.4-24.801,45.8-47.801C397.636,572.321,384.436,545.921,351.436,545.921z M689,497.33  c0-39.947-32.383-72.33-72.33-72.33H72.33C32.383,425,0,457.383,0,497.33v195.34C0,732.617,32.383,765,72.33,765h544.34  c39.947,0,72.33-32.383,72.33-72.33V497.33z M211.236,666h-27.4l-58.2-141h29.6l42.2,109l42.4-109h29.6L211.236,666z   M351.436,667.921c-49.2,0-72-35.399-72-72.199c0-36.801,23.6-73.801,72-73.801c48.2,0,72.2,37,71.8,73.601  C422.835,631.722,400.636,667.921,351.436,667.921z M508.226,665H442V525h66.226c27.6,0,48.2,12.266,48.2,40.456  c0,10.81-5.2,21.163-18.2,26.962c16.4,5,22.4,22.486,22.4,31.297C560.626,654.904,537.226,665,508.226,665z M530.226,566.1  c0-6.399-5.2-17.1-22-17.1H468v32h40.226C524.825,581,530.226,574.1,530.226,566.1z M508.226,605H468v36h40.226  c10.8,0,26.2-3.6,26.2-16.8C534.426,611.6,519.025,605,508.226,605z M351.436,545.921c-33,0-46.6,26.601-46,50.2  c0.6,23,13,47.601,46,47.601s45.4-24.801,45.8-47.801C397.636,572.321,384.436,545.921,351.436,545.921z"></path><path display="none"  d="M599.408,0h-382.46C164.414,0,122,41.439,122,93.972V377h503.301  C687.32,377,738,427.041,738,489.061v210.9C738,761.98,687.32,813,625.301,813H122.289c1.516,51,43.093,92,94.659,92h558.833  C828.313,905,871,861.891,871,809.355V271.823L599.408,0z M442.703,269H241.845c-11.093,0-20.085-9.435-20.085-20.527  c0-5.552,2.246-10.766,5.879-14.4c3.634-3.633,8.655-6.073,14.206-6.073h200.858c11.094,0,20.086,9.408,20.086,20.5  C462.789,259.594,453.797,269,442.703,269z M443.615,148H242.758c-11.093,0-20.086-9.191-20.086-20.285  c0-5.551,2.246-10.387,5.88-14.021c3.633-3.633,8.655-5.694,14.206-5.694h200.857c11.094,0,20.087,8.908,20.087,20  S454.709,148,443.615,148z M581,289V67.258L803.335,289H581z"></path><path display="none"  d="M264.835,595.921c-0.4,23-12.8,47.801-45.8,47.801s-45.4-24.601-46-47.601  c-0.6-23.6,13-50.2,46-50.2S265.236,572.321,264.835,595.921z"></path><path display="none"  d="M689,497.33c0-39.947-32.383-72.33-72.33-72.33H72.33C32.383,425,0,457.383,0,497.33v195.34  C0,732.617,32.383,765,72.33,765h544.34c39.947,0,72.33-32.383,72.33-72.33V497.33z M219.036,667.921c-49.2,0-72-35.399-72-72.199  c0-36.801,23.6-73.801,72-73.801c48.2,0,72.2,37,71.8,73.601C290.436,631.722,268.236,667.921,219.036,667.921z M409,549h-45v116  h-26V549h-44v-24h115V549z M525,551h-74v38h70v24h-70v52h-26V525h100V551z"></path></svg>
