<svg id="Layer_1" xmlns="http://www.w3.org/2000/svg" viewBox="0 0 24 24"><style>.st0{fill:none}</style><path class="st0" d="M0 0h24v24H0V0z"/><path d="M22.9 14.8c-2.9 0-3.8-3-4.8-6.3C17 4.9 15.9 1.1 12 1.1S7 4.9 5.9 8.5c-1 3.2-1.9 6.3-4.8 6.3v-1.1c2.1 0 2.8-2.5 3.7-5.5C5.9 4.5 7.2 0 12 0s6.1 4.5 7.2 8.2c.9 2.9 1.6 5.5 3.7 5.5v1.1z"/><path d="M10.4 21.4l-5.5-1 .3-1.4 3.8.7 1.2-5.8-1.4.5v2.4H7.4v-3.3l4.1-1.6h.6c.5 0 1 .2 1.3.7l.8 1.1c.7 1.1 1.8 1.7 3.4 1.7v1.4c-1.7 0-3.2-.6-4.3-1.8l-.5 2.1 1.6 1.4V24h-1.6v-4.3l-1.6-1.4-.8 3.1zm3.9-10.3c-.3.3-.7.4-1.1.4-.4 0-.8-.1-1.1-.4-.3-.3-.5-.6-.5-1s.2-.7.5-1 .7-.4 1.1-.4c.4 0 .8.1 1.1.4.3.3.5.6.5 1s-.2.8-.5 1z"/></svg>