<svg id="Layer_1" xmlns="http://www.w3.org/2000/svg" viewBox="0 0 24 24"><style>.st0{fill:none}</style><path class="st0" d="M0 0h24v24H0V0z"/><path d="M22.9 14.8c-2.9 0-3.8-3-4.8-6.3C17 4.9 15.9 1.1 12 1.1S7 4.9 5.9 8.5c-1 3.2-1.9 6.3-4.8 6.3v-1.1c2 0 2.8-2.5 3.7-5.5C5.9 4.5 7.3 0 12 0s6.1 4.5 7.2 8.2c.9 2.9 1.6 5.5 3.7 5.5v1.1z"/><path d="M17 16.5l-.7 1.1c.7 1.4.7 3.1-.1 4.5H7.9c-1.3-2.3-.5-5.2 1.8-6.5 1.4-.8 3.1-.9 4.5-.1l1.1-.7c-2.8-1.8-6.5-1-8.3 1.8-1.2 1.9-1.3 4.3-.2 6.2.2.4.6.6 1 .6h8.3c.4 0 .8-.2 1-.6 1.2-2 1.1-4.4-.1-6.3z"/><path d="M11.2 20.6c.5.5 1.2.5 1.7 0l3.4-5.1-5.1 3.4c-.5.4-.5 1.2 0 1.7z"/></svg>