<svg height="100" width="100" xmlns="http://www.w3.org/2000/svg"><path d="M26.8 55h4.7l2.7 4h-6.9c-.5 0-.8-.3-.9-.7l-.5-2.1c-.1-.4.1-.7.2-.8.1-.2.3-.4.7-.4zM39 72v-8c0-.5-.4-1-1-1H27.3c-2.3 0-4.3-1.5-4.8-3.8l-.5-2c-.4-1.5 0-3 .9-4.3.9-1.2 2.4-1.9 3.9-1.9h1.9l-2.4-3.5c-3-4.3-3.4-10-1-14.7 1.2-2.5 3.1-4.5 5.3-5.8H16.1C11.6 33.6 9 41.5 9 50c0 14.9 8 28 19.9 35.1l9.9-12.6c.1-.1.2-.3.2-.5zm7.7-52l13.1-6.1c.2-.1.2-.2.2-.4v-3.2C56.8 9.4 53.5 9 50 9c-3.2 0-6.2.4-9.2 1l5.2 9.7c.2.3.4.4.7.3zm33.4 2.2l-20 10.4c-.7.4-1.1 1-1.1 1.8V40c0 1.1.9 2 2 2h1c3.3 0 6 2.7 6 6v17.5c0 .5.2.9.5 1.3L78.9 79C86.4 71.6 91 61.3 91 50c0-10.7-4.1-20.5-10.9-27.8zM64 65.5V48c0-1.1-.9-2-2-2h-1c-3.3 0-6-2.7-6-6v-5.6c0-2.2 1.2-4.3 3.2-5.3l18.9-9.8c-3.8-3.4-8.2-6-13.1-7.8v2c0 1.7-1 3.3-2.6 4l-13.1 6.1c-.6.3-1.2.4-1.9.4-1.6 0-3.1-.9-3.9-2.3l-5.7-10.5c-6.9 2.3-13 6.5-17.7 11.8h12.6c1.3 0 2.6.5 3.5 1.5l.7.7c.4-.1.9-.1 1.3-.1h1.4c5.2.2 9.6 3.2 12 7.8 2.4 4.7 2 10.4-1 14.7L41 60.1c1.2.9 2 2.3 2 3.9v8c0 1.1-.4 2.2-1.1 3.1l-9.5 12C37.8 89.6 43.7 91 50 91c9.8 0 18.9-3.5 26-9.3L65.4 69.4c-.9-1.1-1.4-2.4-1.4-3.9zm-26-8l-8.4-12.2c-2.2-3.2-2.5-7.2-.7-10.6 1.7-3.4 4.9-5.5 8.6-5.6h1.1c3.7.2 6.9 2.3 8.6 5.6 1.7 3.5 1.5 7.5-.7 10.6L38 57.5zM38 45c3.3 0 6-2.7 6-6s-2.7-6-6-6-6 2.7-6 6 2.7 6 6 6zm2-6c0-1.1-.9-2-2-2s-2 .9-2 2 .9 2 2 2 2-.9 2-2z"/></svg>