<svg height='100px' width='100px' xmlns="http://www.w3.org/2000/svg" xmlns:xlink="http://www.w3.org/1999/xlink" version="1.1" x="0px" y="0px" viewBox="0 0 100 100" style="enable-background:new 0 0 100 100;" xml:space="preserve"><path d="M26.8,55h4.7l2.7,4h-6.9c-0.5,0-0.8-0.3-0.9-0.7l-0.5-2.1c-0.1-0.4,0.1-0.7,0.2-0.8C26.2,55.2,26.4,55,26.8,55z M39,72v-8  c0-0.5-0.4-1-1-1H27.3c-2.3,0-4.3-1.5-4.8-3.8L22,57.2c-0.4-1.5,0-3,0.9-4.3c0.9-1.2,2.4-1.9,3.9-1.9h1.9l-2.4-3.5  c-3-4.3-3.4-10-1-14.7c1.2-2.5,3.1-4.5,5.3-5.8H16.1C11.6,33.6,9,41.5,9,50c0,14.9,8,28,19.9,35.1l9.9-12.6C38.9,72.4,39,72.2,39,72  z M46.7,20l13.1-6.1c0.2-0.1,0.2-0.2,0.2-0.4v-3.2C56.8,9.4,53.5,9,50,9c-3.2,0-6.2,0.4-9.2,1l5.2,9.7C46.2,20,46.4,20.1,46.7,20z   M80.1,22.2l-20,10.4c-0.7,0.4-1.1,1-1.1,1.8V40c0,1.1,0.9,2,2,2h1c3.3,0,6,2.7,6,6v17.5c0,0.5,0.2,0.9,0.5,1.3L78.9,79  C86.4,71.6,91,61.3,91,50C91,39.3,86.9,29.5,80.1,22.2z M64,65.5V48c0-1.1-0.9-2-2-2h-1c-3.3,0-6-2.7-6-6v-5.6  c0-2.2,1.2-4.3,3.2-5.3l18.9-9.8c-3.8-3.4-8.2-6-13.1-7.8v2c0,1.7-1,3.3-2.6,4l-13.1,6.1c-0.6,0.3-1.2,0.4-1.9,0.4  c-1.6,0-3.1-0.9-3.9-2.3l-5.7-10.5c-6.9,2.3-13,6.5-17.7,11.8h12.6c1.3,0,2.6,0.5,3.5,1.5l0.7,0.7c0.4-0.1,0.9-0.1,1.3-0.1  c0.5,0,1,0,1.4,0c5.2,0.2,9.6,3.2,12,7.8c2.4,4.7,2,10.4-1,14.7l-8.6,12.5C42.2,61,43,62.4,43,64v8c0,1.1-0.4,2.2-1.1,3.1l-9.5,12  C37.8,89.6,43.7,91,50,91c9.8,0,18.9-3.5,26-9.3L65.4,69.4C64.5,68.3,64,67,64,65.5z M38,57.5l-8.4-12.2c-2.2-3.2-2.5-7.2-0.7-10.6  c1.7-3.4,4.9-5.5,8.6-5.6c0.4,0,0.7,0,1.1,0c3.7,0.2,6.9,2.3,8.6,5.6c1.7,3.5,1.5,7.5-0.7,10.6L38,57.5z M38,45c3.3,0,6-2.7,6-6  s-2.7-6-6-6s-6,2.7-6,6S34.7,45,38,45z M40,39c0-1.1-0.9-2-2-2s-2,0.9-2,2c0,1.1,0.9,2,2,2S40,40.1,40,39z"></path></svg>
