<?xml version="1.0" encoding="UTF-8" standalone="no"?>
<svg
   xmlns:dc="http://purl.org/dc/elements/1.1/"
   xmlns:cc="http://creativecommons.org/ns#"
   xmlns:rdf="http://www.w3.org/1999/02/22-rdf-syntax-ns#"
   xmlns:svg="http://www.w3.org/2000/svg"
   xmlns="http://www.w3.org/2000/svg"
   id="svg14"
   preserveAspectRatio="xMidYMid meet"
   viewBox="0 0 1150.000000 1150.000000"
   height="1150.000000pt"
   width="1150.000000pt"
   version="1.0">
  <defs
     id="defs18" />
  <metadata
     id="metadata2">
Created by potrace 1.15, written by Peter Selinger 2001-2017
<rdf:RDF>
  <cc:Work
     rdf:about="">
    <dc:format>image/svg+xml</dc:format>
    <dc:type
       rdf:resource="http://purl.org/dc/dcmitype/StillImage" />
  </cc:Work>
</rdf:RDF>
</metadata>
  <g
     id="g12"
     stroke="none"
     fill="#000000"
     transform="translate(0.000000,1150.000000) scale(0.100000,-0.100000)">
    <path
       id="path4"
       d="M4040 9444 c-391 -25 -657 -71 -978 -170 -1064 -329 -1948 -1131 -2383 -2165 -139 -331 -230 -683 -276 -1069 -23 -200 -23 -619 1 -825 86 -740 360 -1406 815 -1974 482 -603 1138 -1046 1881 -1270 606 -183 1282 -210 1905 -75 l70 15 558 928 c306 511 557 931 557 934 0 4 -320 539 -711 1189 -391 651 -714 1189 -716 1196 -4 9 321 12 1606 12 l1612 0 -6 38 c-146 888 -549 1641 -1200 2240 -593 546 -1363 893 -2167 976 -145 15 -468 27 -568 20z m-716 -2222 c30 -21 176 -228 623 -887 321 -473 590 -875 598 -893 29 -68 37 -145 21 -222 -19 -90 -50 -143 -121 -208 -87 -79 -204 -114 -313 -91 -99 20 -183 72 -232 144 -28 40 -877 1839 -907 1920 -19 52 -10 116 23 172 63 107 204 137 308 65z" />
    <path
       id="path6"
       d="M5530 5730 c0 -5 264 -447 586 -983 l585 -974 -581 -968 c-320 -532 -584 -974 -587 -981 -4 -12 94 -14 588 -14 l594 0 588 981 c324 539 586 985 584 992 -3 7 -268 449 -589 982 l-584 970 -592 3 c-378 1 -592 -1 -592 -8z" />
    <path
       id="path8"
       d="M7252 5728 c2 -7 266 -450 587 -985 l583 -971 -586 -975 c-322 -536 -586 -977 -586 -981 0 -3 267 -6 593 -6 l592 0 589 979 c323 539 587 984 585 989 -2 5 -267 449 -589 986 l-585 975 -593 1 c-470 0 -593 -3 -590 -12z" />
    <path
       id="path10"
       d="M8974 5723 c4 -9 268 -451 587 -981 319 -531 578 -970 576 -976 -3 -6 -266 -446 -586 -979 -319 -532 -581 -969 -581 -972 0 -3 267 -5 594 -5 l593 0 584 973 c321 534 585 978 587 985 2 7 -261 453 -585 992 l-588 979 -594 1 c-555 0 -593 -1 -587 -17z" />
  </g>
</svg>
