<svg xmlns="http://www.w3.org/2000/svg" viewBox="0 0 1150 1150" height="1533.333" width="1533.333" version="1"><g transform="matrix(.1 0 0 -.1 0 1150)"><path d="M4040 9444c-391-25-657-71-978-170-1064-329-1948-1131-2383-2165-139-331-230-683-276-1069-23-200-23-619 1-825 86-740 360-1406 815-1974 482-603 1138-1046 1881-1270 606-183 1282-210 1905-75l70 15 558 928c306 511 557 931 557 934 0 4-320 539-711 1189-391 651-714 1189-716 1196-4 9 321 12 1606 12h1612l-6 38c-146 888-549 1641-1200 2240-593 546-1363 893-2167 976-145 15-468 27-568 20zm-716-2222c30-21 176-228 623-887 321-473 590-875 598-893 29-68 37-145 21-222-19-90-50-143-121-208-87-79-204-114-313-91-99 20-183 72-232 144-28 40-877 1839-907 1920-19 52-10 116 23 172 63 107 204 137 308 65z"/><path d="M5530 5730c0-5 264-447 586-983l585-974-581-968c-320-532-584-974-587-981-4-12 94-14 588-14h594l588 981c324 539 586 985 584 992-3 7-268 449-589 982l-584 970-592 3c-378 1-592-1-592-8z"/><path d="M7252 5728c2-7 266-450 587-985l583-971-586-975c-322-536-586-977-586-981 0-3 267-6 593-6h592l589 979c323 539 587 984 585 989s-267 449-589 986l-585 975-593 1c-470 0-593-3-590-12z"/><path d="M8974 5723c4-9 268-451 587-981 319-531 578-970 576-976-3-6-266-446-586-979-319-532-581-969-581-972s267-5 594-5h593l584 973c321 534 585 978 587 985s-261 453-585 992l-588 979-594 1c-555 0-593-1-587-17z"/></g></svg>