<svg xmlns="http://www.w3.org/2000/svg" viewBox="0 0 24 30"><path fill-rule="evenodd" d="M8.83 20a3.001 3.001 0 1 1 0-2h8.67a2.5 2.5 0 1 0 0-5h-11a4.5 4.5 0 1 1 0-9h3.086L8.293 2.707l1.414-1.414L13.414 5 9.707 8.707 8.293 7.293 9.586 6H6.5a2.5 2.5 0 0 0 0 5h11a4.5 4.5 0 1 1 0 9H8.83zM6 18a1 1 0 1 0 0 2 1 1 0 0 0 0-2zM18 2a3 3 0 1 1 0 6 3 3 0 0 1 0-6zm0 2a1 1 0 1 0 0 2 1 1 0 0 0 0-2z"/><text y="39" font-size="5" font-weight="bold" font-family="'Helvetica Neue', Helvetica, Arial-Unicode, Arial, Sans-serif">Created by iconbox89</text><text y="44" font-size="5" font-weight="bold" font-family="'Helvetica Neue', Helvetica, Arial-Unicode, Arial, Sans-serif">from the Noun Project</text></svg>