<svg height='100px' width='100px'  fill="#000000" xmlns="http://www.w3.org/2000/svg" xmlns:xlink="http://www.w3.org/1999/xlink" version="1.1" x="0px" y="0px" viewBox="0 0 100 100" enable-background="new 0 0 100 100" xml:space="preserve"><path fill="none" stroke="#000000" stroke-width="3" d="M24.675,42.466c5.6-13.106,20.764-19.191,33.87-13.592  C72.485,34.831,78.958,50.96,73.001,64.9c-6.335,14.828-23.489,21.713-38.318,15.377c-15.771-6.738-23.094-24.986-16.355-40.759  c7.167-16.774,26.576-24.563,43.352-17.396c17.843,7.624,26.127,28.27,18.504,46.114c-8.108,18.977-30.068,27.789-49.046,19.68  c-20.187-8.625-29.56-31.98-20.935-52.169C19.377,14.275,44.22,4.306,65.692,13.48c22.838,9.758,33.441,36.183,23.683,59.022"></path></svg>