<svg height="100" width="100" xmlns="http://www.w3.org/2000/svg"><path d="M95 94L95 95 5 95 5 5 6 5 6 13.1 7.2 13.1 7.2 14.1 6 14.1 6 29.7 7.2 29.7 7.2 30.7 6 30.7 6 46.4 7.2 46.4 7.2 47.4 6 47.4 6 63 7.2 63 7.2 64 6 64 6 79.6 7.2 79.6 7.2 80.6 6 80.6 6 94 20.5 94 20.5 92.8 21.5 92.8 21.5 94 37.1 94 37.1 92.8 38.1 92.8 38.1 94 53.7 94 53.7 92.8 54.7 92.8 54.7 94 70.3 94 70.3 92.8 71.3 92.8 71.3 94 87 94 87 92.8 88 92.8 88 94z"/><path d="M94 42.5L94 94 6 94 6 64 7.2 63 12.9 58.5 21.6 56.4 26.2 59.5 32.3 59.7 41.2 53.8 45.1 55.9 51.3 48.4 56.3 52.9 58.6 57.2 62.9 60 72.4 58.7 77.6 52 83.8 52.5 90.4 49.2z"/><path d="M94 94.5H6c-.3 0-.5-.2-.5-.5V64c0-.1.1-.3.2-.4l1.2-1 5.8-4.5c.1 0 .1-.1.2-.1l8.7-2.1c.1 0 .3 0 .4.1l4.5 3 5.7.2 8.8-5.8c.2-.1.4-.1.5 0l3.5 1.9 6-7.2c.2-.2.5-.2.7 0l5 4.5.1.1 2.2 4.1 4 2.6 9.1-1.2 5.1-6.5c.1-.1.3-.2.4-.2l6 .4 6.4-3.1 3.5-6.5c.1-.2.4-.3.7-.2.2.1.3.3.3.4V94c0 .3-.2.5-.5.5zm-87.5-1h87v-49l-2.6 4.9c-.1.1-.1.2-.2.2L84 52.9c-.1 0-.2.1-.3 0l-5.9-.4-5 6.5c-.1.1-.2.2-.3.2L63 60.5c-.1 0-.2 0-.3-.1l-4.3-2.8c-.1 0-.1-.1-.2-.2l-2.3-4.2-4.5-4.1-5.9 7.1c-.2.2-.4.2-.6.1l-3.6-2-8.7 5.8c-.1.1-.2.1-.3.1l-6.1-.2c-.1 0-.2 0-.3-.1l-4.5-3-8.3 2-5.7 4.5-1 .8.1 29.3z"/><path d="M12.1 56.1H6c-.3 0-.5-.2-.5-.5v-9.9c0-.2.1-.4.3-.5.2-.1.4 0 .6.2l5.1 6.3 9.3-9.5c.2-.2.4-.2.6-.1l5.2 2.9 6.8.8 7.3-11.4c.1-.1.2-.2.3-.2.1 0 .3 0 .4.1l4.9 4.6 7.1-7c.1-.1.3-.2.4-.1.2 0 .3.1.4.2l4.9 7.5 4.9 7 6.6-1.5 5.6-4.1c.1-.1.3-.1.4-.1l6.4 2 6.4-6.1 4.2-12.2c.1-.2.3-.4.6-.3.2 0 .4.2.4.5v7.2l-4.4 11.4c0 .1-.1.1-.1.1l-6.2 7.3c-.2.3-.4.3-.6.3l-6.1-1.7-5 3.8c-.1.1-.2.1-.3.1l-9.8-.8c-.1 0-.2 0-.2-.1l-5.7-3.7c-.1-.1-.1-.1-.1-.2l-3.7-7-6.4 3.7c-.1.1-.3.1-.4 0l-3.7-1.3-7.9 9.3-.2.2-7.7 2.2c-.2 0-.4 0-.5-.1l-4.8-4.7-8.4 5.3c-.1.1-.2.1-.3.1zm-5.6-1h5.4l8.5-5.5c.2-.1.5-.1.6.1l4.8 4.7 7.2-2 8-9.5c.1-.2.4-.2.5-.2l3.8 1.4 6.7-3.8c.1-.1.3-.1.4 0 .1 0 .2.1.3.2l3.8 7.3 5.5 3.5 9.4.8 5.1-3.8c.1-.1.3-.1.4-.1l6.1 1.7 5.9-7 4.4-11.3v-3.9l-3.2 9.5c0 .1-.1.1-.1.2l-6.7 6.4c-.1.1-.3.2-.5.1l-6.4-2L71 46c-.1 0-.1.1-.2.1l-7 1.5c-.2 0-.4 0-.5-.2l-5-7.2-4.6-7-7 6.9c-.2.2-.5.2-.7 0l-4.8-4.6L34 46.7c-.1.2-.3.2-.5.2l-7.2-.9c-.1 0-.1 0-.2-.1l-4.9-2.7-9.4 9.6c-.1.1-.2.2-.4.2-.1 0-.3-.1-.4-.2l-4.6-5.7v8z"/><path d="M7.2 63.5H6c-.3 0-.5-.2-.5-.5v-7.4c0-.3.2-.5.5-.5h5.9l8.5-5.5c.2-.1.5-.1.6.1l4.8 4.7 7.2-2 8-9.5c.1-.2.4-.2.5-.2l3.8 1.4 6.7-3.8c.1-.1.3-.1.4 0 .1 0 .2.1.3.2l3.8 7.3 5.5 3.5 9.5.8 5.1-3.8c.1-.1.3-.1.4-.1l6.1 1.7 5.9-7 1.9-4.1 2.4-7.2c.1-.2.3-.4.6-.3.2 0 .4.2.4.5V42.7l-2.4 5-1.2 1.7c0 .1-.1.1-.2.2L84 52.9c-.1 0-.2.1-.3 0l-5.9-.4-5 6.5c-.1.1-.2.2-.3.2L63 60.5c-.1 0-.2 0-.3-.1l-4.3-2.8c-.1 0-.1-.1-.2-.2l-2.3-4.2-4.5-4.1-5.9 7.1c-.2.2-.4.2-.6.1l-3.6-2-8.7 5.8c-.1.1-.2.1-.3.1l-6.1-.2c-.1 0-.2 0-.3-.1l-4.4-3-8.4 2-5.7 4.5c0 .1-.1.1-.2.1zm-.7-1H7l5.6-4.4c.1 0 .1-.1.2-.1l8.7-2.1c.1 0 .3 0 .4.1l4.5 3 5.7.2 8.8-5.8c.2-.1.4-.1.5 0l3.5 1.9 6-7.2c.1-.1.2-.2.3-.2.1 0 .3 0 .4.1l5 4.5.1.1 2.2 4.2 4 2.6 9.1-1.2 5.1-6.5c.1-.1.3-.2.4-.2l6 .4 6.4-3.1 1.1-1.6 2.3-4.8v-7.6L92 39.2l-2 4.2s0 .1-.1.1l-6.2 7.3c-.1.2-.3.2-.5.2l-6.1-1.7-5 3.8c-.1.1-.2.1-.3.1l-9.8-.9c-.1 0-.2 0-.2-.1l-5.7-3.7c0-.1-.1-.1-.1-.2l-3.7-7-6.4 3.7c-.1.1-.3.1-.4 0l-3.7-1.3-7.9 9.3c-.1.1-.2.1-.3.2L26 55.4c-.2 0-.4 0-.5-.1l-4.8-4.7-8.3 5.4c-.1.1-.2.1-.3.1H6.5v6.4z"/><g><path d="M7.2 63.5H6c-.3 0-.5-.2-.5-.5v-7.4c0-.3.2-.5.5-.5h5.9l8.5-5.5c.2-.1.5-.1.6.1l4.8 4.7 7.2-2 8-9.5c.1-.2.4-.2.5-.2l3.8 1.4 6.7-3.8c.1-.1.3-.1.4 0 .1 0 .2.1.3.2l3.8 7.3 5.5 3.5 9.5.8 5.1-3.8c.1-.1.3-.1.4-.1l6.1 1.7 5.9-7 1.9-4.1 2.4-7.2c.1-.2.3-.4.6-.3.2 0 .4.2.4.5V42.7l-2.4 5-1.2 1.7c0 .1-.1.1-.2.2L84 52.9c-.1 0-.2.1-.3 0l-5.9-.4-5 6.5c-.1.1-.2.2-.3.2L63 60.5c-.1 0-.2 0-.3-.1l-4.3-2.8c-.1 0-.1-.1-.2-.2l-2.3-4.2-4.5-4.1-5.9 7.1c-.2.2-.4.2-.6.1l-3.6-2-8.7 5.8c-.1.1-.2.1-.3.1l-6.1-.2c-.1 0-.2 0-.3-.1l-4.4-3-8.4 2-5.7 4.5c0 .1-.1.1-.2.1zm-.7-1H7l5.6-4.4c.1 0 .1-.1.2-.1l8.7-2.1c.1 0 .3 0 .4.1l4.5 3 5.7.2 8.8-5.8c.2-.1.4-.1.5 0l3.5 1.9 6-7.2c.1-.1.2-.2.3-.2.1 0 .3 0 .4.1l5 4.5.1.1 2.2 4.2 4 2.6 9.1-1.2 5.1-6.5c.1-.1.3-.2.4-.2l6 .4 6.4-3.1 1.1-1.6 2.3-4.8v-7.6L92 39.2l-2 4.2s0 .1-.1.1l-6.2 7.3c-.1.2-.3.2-.5.2l-6.1-1.7-5 3.8c-.1.1-.2.1-.3.1l-9.8-.9c-.1 0-.2 0-.2-.1l-5.7-3.7c0-.1-.1-.1-.1-.2l-3.7-7-6.4 3.7c-.1.1-.3.1-.4 0l-3.7-1.3-7.9 9.3c-.1.1-.2.1-.3.2L26 55.4c-.2 0-.4 0-.5-.1l-4.8-4.7-8.3 5.4c-.1.1-.2.1-.3.1H6.5v6.4z"/><path d="M91.6 48.1c-.3 0-.5-.2-.5-.5v-8.5c0-.3.2-.5.5-.5s.5.2.5.5v8.5c0 .2-.2.5-.5.5zm-3.4 2.7c-.3 0-.5-.2-.5-.5V45c0-.3.2-.5.5-.5s.5.2.5.5v5.4c-.1.2-.3.4-.5.4zm-3.5 1.7c-.3 0-.5-.2-.5-.5v-3c0-.3.2-.5.5-.5s.5.2.5.5v3c0 .3-.2.5-.5.5zm-3.4.3c-.3 0-.5-.2-.5-.5v-2.4c0-.3.2-.5.5-.5s.5.2.5.5v2.4c0 .2-.2.5-.5.5zm-3.4-.3c-.3 0-.5-.2-.5-.5v-3c0-.3.2-.5.5-.5s.5.2.5.5v3c0 .3-.2.5-.5.5zm-3.4 4c-.3 0-.5-.2-.5-.5v-5.3c0-.3.2-.5.5-.5s.5.2.5.5V56c0 .3-.2.5-.5.5zM71 59.4c-.3 0-.5-.2-.5-.5v-6.3c0-.3.2-.5.5-.5s.5.2.5.5v6.3c0 .2-.2.5-.5.5zm-3.4.4c-.3 0-.5-.2-.5-.5v-7c0-.3.2-.5.5-.5s.5.2.5.5v7c0 .3-.2.5-.5.5zm-3.4.5c-.3 0-.5-.2-.5-.5V52c0-.3.2-.5.5-.5s.5.2.5.5v7.8c0 .3-.2.5-.5.5zm-3.4-1.2c-.3 0-.5-.2-.5-.5V51c0-.3.2-.5.5-.5s.5.2.5.5v7.6c0 .3-.3.5-.5.5zm-3.5-3.8c-.3 0-.5-.2-.5-.5v-6c0-.3.2-.5.5-.5s.5.2.5.5v6c0 .3-.2.5-.5.5zm-3.4-4c-.3 0-.5-.2-.5-.5v-7.3c0-.3.2-.5.5-.5s.5.2.5.5v7.3c0 .2-.2.5-.5.5zm-3.4-1.4c-.3 0-.5-.2-.5-.5v-7.5c0-.3.2-.5.5-.5s.5.2.5.5v7.5c0 .3-.2.5-.5.5zM47.1 54c-.3 0-.5-.2-.5-.5v-9.7c0-.3.2-.5.5-.5s.5.2.5.5v9.7c0 .3-.3.5-.5.5zm-3.4 1.6c-.3 0-.5-.2-.5-.5V44c0-.3.2-.5.5-.5s.5.2.5.5v11.1c0 .3-.3.5-.5.5zm-3.5-.6c-.3 0-.5-.2-.5-.5v-9.7c0-.3.2-.5.5-.5s.5.2.5.5v9.7c.1.2-.2.5-.5.5.1 0 0 0 0 0zm-3.4 2.2c-.3 0-.5-.2-.5-.5v-7.9c0-.3.2-.5.5-.5s.5.2.5.5v7.9c0 .3-.2.5-.5.5zm-3.4 2.3c-.3 0-.5-.2-.5-.5v-6.2c0-.3.2-.5.5-.5s.5.2.5.5V59c0 .3-.2.5-.5.5zm-3.4.6c-.3 0-.5-.2-.5-.5v-5.9c0-.3.2-.5.5-.5s.5.2.5.5v5.9c0 .3-.2.5-.5.5zm-3.5-.1c-.3 0-.5-.2-.5-.5v-4.8c0-.3.2-.5.5-.5s.5.2.5.5v4.8c0 .3-.2.5-.5.5zm-3.4-2.1c-.3 0-.5-.2-.5-.5v-5.1c0-.3.2-.5.5-.5s.5.2.5.5v5.1c0 .3-.2.5-.5.5zm-3.4-.5c-.3 0-.5-.2-.5-.5v-6.2c0-.3.2-.5.5-.5s.5.2.5.5v6.2c0 .2-.2.5-.5.5zm-3.4.8c-.3 0-.5-.2-.5-.5v-4.8c0-.3.2-.5.5-.5s.5.2.5.5v4.8c0 .3-.3.5-.5.5zm-3.4.9c-.3 0-.5-.2-.5-.5v-3.5c0-.3.2-.5.5-.5s.5.2.5.5v3.5c0 .3-.3.5-.5.5zm-3.5 2.7c-.3 0-.5-.2-.5-.5v-5.7c0-.3.2-.5.5-.5s.5.2.5.5v5.7c0 .2-.2.5-.5.5z"/></g></svg>