<svg height='100px' width='100px'  fill="#000000" xmlns="http://www.w3.org/2000/svg" xmlns:xlink="http://www.w3.org/1999/xlink" version="1.1" x="0px" y="0px" viewBox="0 0 100 100" style="enable-background:new 0 0 100 100;" xml:space="preserve"><polygon points="95,94 95,95 5,95 5,5 6,5 6,13.1 7.2,13.1 7.2,14.1 6,14.1 6,29.7 7.2,29.7 7.2,30.7 6,30.7 6,46.4 7.2,46.4   7.2,47.4 6,47.4 6,63 7.2,63 7.2,64 6,64 6,79.6 7.2,79.6 7.2,80.6 6,80.6 6,94 20.5,94 20.5,92.8 21.5,92.8 21.5,94 37.1,94   37.1,92.8 38.1,92.8 38.1,94 53.7,94 53.7,92.8 54.7,92.8 54.7,94 70.3,94 70.3,92.8 71.3,92.8 71.3,94 87,94 87,92.8 88,92.8   88,94 "></polygon><g><polygon points="94,42.5 94,94 6,94 6,64 7.2,63 12.9,58.5 21.6,56.4 26.2,59.5 32.3,59.7 41.2,53.8 45.1,55.9 51.3,48.4    56.3,52.9 58.6,57.2 62.9,60 72.4,58.7 77.6,52 83.8,52.5 90.4,49.2  "></polygon><path d="M94,94.5H6c-0.3,0-0.5-0.2-0.5-0.5V64c0-0.1,0.1-0.3,0.2-0.4l1.2-1l5.8-4.5c0.1,0,0.1-0.1,0.2-0.1l8.7-2.1   c0.1,0,0.3,0,0.4,0.1l4.5,3l5.7,0.2l8.8-5.8c0.2-0.1,0.4-0.1,0.5,0l3.5,1.9l6-7.2c0.2-0.2,0.5-0.2,0.7,0c0,0,0,0,0,0l5,4.5   c0,0,0.1,0.1,0.1,0.1l2.2,4.1l4,2.6l9.1-1.2l5.1-6.5c0.1-0.1,0.3-0.2,0.4-0.2l6,0.4l6.4-3.1l3.5-6.5c0.1-0.2,0.4-0.3,0.7-0.2   c0.2,0.1,0.3,0.3,0.3,0.4V94C94.5,94.3,94.3,94.5,94,94.5z M6.5,93.5h87v-49l-2.6,4.9c-0.1,0.1-0.1,0.2-0.2,0.2L84,52.9   c-0.1,0-0.2,0.1-0.3,0l-5.9-0.4L72.8,59c-0.1,0.1-0.2,0.2-0.3,0.2L63,60.5c-0.1,0-0.2,0-0.3-0.1l-4.3-2.8c-0.1,0-0.1-0.1-0.2-0.2   l-2.3-4.2l-4.5-4.1l-5.9,7.1c-0.2,0.2-0.4,0.2-0.6,0.1l-3.6-2l-8.7,5.8c-0.1,0.1-0.2,0.1-0.3,0.1L26.2,60c-0.1,0-0.2,0-0.3-0.1   l-4.5-3l-8.3,2l-5.7,4.5l-1,0.8L6.5,93.5z"></path></g><path d="M12.1,56.1H6c-0.3,0-0.5-0.2-0.5-0.5v-9.9c0-0.2,0.1-0.4,0.3-0.5c0.2-0.1,0.4,0,0.6,0.2l5.1,6.3l9.3-9.5  c0.2-0.2,0.4-0.2,0.6-0.1l5.2,2.9l6.8,0.8l7.3-11.4c0.1-0.1,0.2-0.2,0.3-0.2c0.1,0,0.3,0,0.4,0.1l4.9,4.6l7.1-7  c0.1-0.1,0.3-0.2,0.4-0.1c0.2,0,0.3,0.1,0.4,0.2l4.9,7.5l4.9,7l6.6-1.5l5.6-4.1c0.1-0.1,0.3-0.1,0.4-0.1l6.4,2l6.4-6.1l4.2-12.2  c0.1-0.2,0.3-0.4,0.6-0.3c0.2,0,0.4,0.2,0.4,0.5v7c0,0.1,0,0.1,0,0.2l-4.4,11.4c0,0.1-0.1,0.1-0.1,0.1l-6.2,7.3  C83.7,51,83.5,51,83.3,51l-6.1-1.7l-5,3.8c-0.1,0.1-0.2,0.1-0.3,0.1l-9.8-0.8c-0.1,0-0.2,0-0.2-0.1l-5.7-3.7  c-0.1-0.1-0.1-0.1-0.1-0.2l-3.7-7l-6.4,3.7c-0.1,0.1-0.3,0.1-0.4,0l-3.7-1.3l-7.9,9.3c-0.1,0.1-0.1,0.1-0.2,0.2l-7.7,2.2  c-0.2,0-0.4,0-0.5-0.1l-4.8-4.7L12.4,56C12.3,56.1,12.2,56.1,12.1,56.1z M6.5,55.1h5.4l8.5-5.5c0.2-0.1,0.5-0.1,0.6,0.1l4.8,4.7  l7.2-2l8-9.5c0.1-0.2,0.4-0.2,0.5-0.2l3.8,1.4l6.7-3.8c0.1-0.1,0.3-0.1,0.4,0c0.1,0,0.2,0.1,0.3,0.2l3.8,7.3l5.5,3.5l9.4,0.8  l5.1-3.8c0.1-0.1,0.3-0.1,0.4-0.1l6.1,1.7l5.9-7l4.4-11.3v-3.9l-3.2,9.5c0,0.1-0.1,0.1-0.1,0.2l-6.7,6.4c-0.1,0.1-0.3,0.2-0.5,0.1  l-6.4-2L71,46c-0.1,0-0.1,0.1-0.2,0.1l-7,1.5c-0.2,0-0.4,0-0.5-0.2l-5-7.2l-4.6-7l-7,6.9c-0.2,0.2-0.5,0.2-0.7,0l-4.8-4.6L34,46.7  c-0.1,0.2-0.3,0.2-0.5,0.2l-7.2-0.9c-0.1,0-0.1,0-0.2-0.1l-4.9-2.7l-9.4,9.6c-0.1,0.1-0.2,0.2-0.4,0.2c-0.1,0-0.3-0.1-0.4-0.2  l-4.6-5.7V55.1z"></path><path d="M7.2,63.5H6c-0.3,0-0.5-0.2-0.5-0.5v-7.4c0-0.3,0.2-0.5,0.5-0.5h5.9l8.5-5.5c0.2-0.1,0.5-0.1,0.6,0.1l4.8,4.7l7.2-2l8-9.5  c0.1-0.2,0.4-0.2,0.5-0.2l3.8,1.4l6.7-3.8c0.1-0.1,0.3-0.1,0.4,0c0.1,0,0.2,0.1,0.3,0.2l3.8,7.3l5.5,3.5l9.5,0.8l5.1-3.8  c0.1-0.1,0.3-0.1,0.4-0.1l6.1,1.7l5.9-7l1.9-4.1l2.4-7.2c0.1-0.2,0.3-0.4,0.6-0.3c0.2,0,0.4,0.2,0.4,0.5v10.7c0,0.1,0,0.1,0,0.2  l-2.4,5l-1.2,1.7c0,0.1-0.1,0.1-0.2,0.2L84,52.9c-0.1,0-0.2,0.1-0.3,0l-5.9-0.4L72.8,59c-0.1,0.1-0.2,0.2-0.3,0.2L63,60.5  c-0.1,0-0.2,0-0.3-0.1l-4.3-2.8c-0.1,0-0.1-0.1-0.2-0.2l-2.3-4.2l-4.5-4.1l-5.9,7.1c-0.2,0.2-0.4,0.2-0.6,0.1l-3.6-2l-8.7,5.8  c-0.1,0.1-0.2,0.1-0.3,0.1L26.2,60c-0.1,0-0.2,0-0.3-0.1l-4.4-3l-8.4,2l-5.7,4.5C7.4,63.5,7.3,63.5,7.2,63.5z M6.5,62.5H7l5.6-4.4  c0.1,0,0.1-0.1,0.2-0.1l8.7-2.1c0.1,0,0.3,0,0.4,0.1l4.5,3l5.7,0.2l8.8-5.8c0.2-0.1,0.4-0.1,0.5,0l3.5,1.9l6-7.2  c0.1-0.1,0.2-0.2,0.3-0.2c0.1,0,0.3,0,0.4,0.1l5,4.5c0,0,0.1,0.1,0.1,0.1l2.2,4.2l4,2.6l9.1-1.2l5.1-6.5c0.1-0.1,0.3-0.2,0.4-0.2  l6,0.4l6.4-3.1l1.1-1.6l2.3-4.8v-7.6L92,39.2l-2,4.2c0,0,0,0.1-0.1,0.1l-6.2,7.3C83.6,51,83.4,51,83.2,51l-6.1-1.7l-5,3.8  c-0.1,0.1-0.2,0.1-0.3,0.1L62,52.3c-0.1,0-0.2,0-0.2-0.1l-5.7-3.7c0-0.1-0.1-0.1-0.1-0.2l-3.7-7l-6.4,3.7c-0.1,0.1-0.3,0.1-0.4,0  l-3.7-1.3l-7.9,9.3c-0.1,0.1-0.2,0.1-0.3,0.2L26,55.4c-0.2,0-0.4,0-0.5-0.1l-4.8-4.7L12.4,56c-0.1,0.1-0.2,0.1-0.3,0.1H6.5V62.5z"></path><g><path d="M7.2,63.5H6c-0.3,0-0.5-0.2-0.5-0.5v-7.4c0-0.3,0.2-0.5,0.5-0.5h5.9l8.5-5.5c0.2-0.1,0.5-0.1,0.6,0.1l4.8,4.7l7.2-2l8-9.5   c0.1-0.2,0.4-0.2,0.5-0.2l3.8,1.4l6.7-3.8c0.1-0.1,0.3-0.1,0.4,0c0.1,0,0.2,0.1,0.3,0.2l3.8,7.3l5.5,3.5l9.5,0.8l5.1-3.8   c0.1-0.1,0.3-0.1,0.4-0.1l6.1,1.7l5.9-7l1.9-4.1l2.4-7.2c0.1-0.2,0.3-0.4,0.6-0.3c0.2,0,0.4,0.2,0.4,0.5v10.7c0,0.1,0,0.1,0,0.2   l-2.4,5l-1.2,1.7c0,0.1-0.1,0.1-0.2,0.2L84,52.9c-0.1,0-0.2,0.1-0.3,0l-5.9-0.4L72.8,59c-0.1,0.1-0.2,0.2-0.3,0.2L63,60.5   c-0.1,0-0.2,0-0.3-0.1l-4.3-2.8c-0.1,0-0.1-0.1-0.2-0.2l-2.3-4.2l-4.5-4.1l-5.9,7.1c-0.2,0.2-0.4,0.2-0.6,0.1l-3.6-2l-8.7,5.8   c-0.1,0.1-0.2,0.1-0.3,0.1L26.2,60c-0.1,0-0.2,0-0.3-0.1l-4.4-3l-8.4,2l-5.7,4.5C7.4,63.5,7.3,63.5,7.2,63.5z M6.5,62.5H7l5.6-4.4   c0.1,0,0.1-0.1,0.2-0.1l8.7-2.1c0.1,0,0.3,0,0.4,0.1l4.5,3l5.7,0.2l8.8-5.8c0.2-0.1,0.4-0.1,0.5,0l3.5,1.9l6-7.2   c0.1-0.1,0.2-0.2,0.3-0.2c0.1,0,0.3,0,0.4,0.1l5,4.5c0,0,0.1,0.1,0.1,0.1l2.2,4.2l4,2.6l9.1-1.2l5.1-6.5c0.1-0.1,0.3-0.2,0.4-0.2   l6,0.4l6.4-3.1l1.1-1.6l2.3-4.8v-7.6L92,39.2l-2,4.2c0,0,0,0.1-0.1,0.1l-6.2,7.3C83.6,51,83.4,51,83.2,51l-6.1-1.7l-5,3.8   c-0.1,0.1-0.2,0.1-0.3,0.1L62,52.3c-0.1,0-0.2,0-0.2-0.1l-5.7-3.7c0-0.1-0.1-0.1-0.1-0.2l-3.7-7l-6.4,3.7c-0.1,0.1-0.3,0.1-0.4,0   l-3.7-1.3l-7.9,9.3c-0.1,0.1-0.2,0.1-0.3,0.2L26,55.4c-0.2,0-0.4,0-0.5-0.1l-4.8-4.7L12.4,56c-0.1,0.1-0.2,0.1-0.3,0.1H6.5V62.5z"></path><path d="M91.6,48.1c-0.3,0-0.5-0.2-0.5-0.5v-8.5c0-0.3,0.2-0.5,0.5-0.5s0.5,0.2,0.5,0.5v8.5C92.1,47.8,91.9,48.1,91.6,48.1z"></path><path d="M88.2,50.8c-0.3,0-0.5-0.2-0.5-0.5V45c0-0.3,0.2-0.5,0.5-0.5s0.5,0.2,0.5,0.5v5.4C88.6,50.6,88.4,50.8,88.2,50.8z"></path><path d="M84.7,52.5c-0.3,0-0.5-0.2-0.5-0.5v-3c0-0.3,0.2-0.5,0.5-0.5s0.5,0.2,0.5,0.5v3C85.2,52.3,85,52.5,84.7,52.5z"></path><path d="M81.3,52.8c-0.3,0-0.5-0.2-0.5-0.5v-2.4c0-0.3,0.2-0.5,0.5-0.5s0.5,0.2,0.5,0.5v2.4C81.8,52.5,81.6,52.8,81.3,52.8z"></path><path d="M77.9,52.5c-0.3,0-0.5-0.2-0.5-0.5v-3c0-0.3,0.2-0.5,0.5-0.5s0.5,0.2,0.5,0.5v3C78.4,52.3,78.2,52.5,77.9,52.5   C77.9,52.5,77.9,52.5,77.9,52.5z"></path><path d="M74.5,56.5c-0.3,0-0.5-0.2-0.5-0.5v-5.3c0-0.3,0.2-0.5,0.5-0.5s0.5,0.2,0.5,0.5V56C75,56.3,74.8,56.5,74.5,56.5   C74.5,56.5,74.5,56.5,74.5,56.5z"></path><path d="M71,59.4c-0.3,0-0.5-0.2-0.5-0.5v-6.3c0-0.3,0.2-0.5,0.5-0.5s0.5,0.2,0.5,0.5v6.3C71.5,59.1,71.3,59.4,71,59.4z"></path><path d="M67.6,59.8c-0.3,0-0.5-0.2-0.5-0.5v-7c0-0.3,0.2-0.5,0.5-0.5s0.5,0.2,0.5,0.5v7C68.1,59.6,67.9,59.8,67.6,59.8z"></path><path d="M64.2,60.3c-0.3,0-0.5-0.2-0.5-0.5V52c0-0.3,0.2-0.5,0.5-0.5c0.3,0,0.5,0.2,0.5,0.5v7.8C64.7,60.1,64.5,60.3,64.2,60.3z"></path><path d="M60.8,59.1c-0.3,0-0.5-0.2-0.5-0.5V51c0-0.3,0.2-0.5,0.5-0.5s0.5,0.2,0.5,0.5v7.6C61.3,58.9,61,59.1,60.8,59.1z"></path><path d="M57.3,55.3c-0.3,0-0.5-0.2-0.5-0.5v-6c0-0.3,0.2-0.5,0.5-0.5s0.5,0.2,0.5,0.5v6C57.8,55.1,57.6,55.3,57.3,55.3z"></path><path d="M53.9,51.3c-0.3,0-0.5-0.2-0.5-0.5v-7.3c0-0.3,0.2-0.5,0.5-0.5s0.5,0.2,0.5,0.5v7.3C54.4,51,54.2,51.3,53.9,51.3z"></path><path d="M50.5,49.9c-0.3,0-0.5-0.2-0.5-0.5v-7.5c0-0.3,0.2-0.5,0.5-0.5s0.5,0.2,0.5,0.5v7.5C51,49.7,50.8,49.9,50.5,49.9z"></path><path d="M47.1,54c-0.3,0-0.5-0.2-0.5-0.5v-9.7c0-0.3,0.2-0.5,0.5-0.5s0.5,0.2,0.5,0.5v9.7C47.6,53.8,47.3,54,47.1,54z"></path><path d="M43.7,55.6c-0.3,0-0.5-0.2-0.5-0.5V44c0-0.3,0.2-0.5,0.5-0.5s0.5,0.2,0.5,0.5v11.1C44.2,55.4,43.9,55.6,43.7,55.6z"></path><path d="M40.2,55c-0.3,0-0.5-0.2-0.5-0.5v-9.7c0-0.3,0.2-0.5,0.5-0.5s0.5,0.2,0.5,0.5v9.7C40.8,54.7,40.5,55,40.2,55   C40.3,55,40.2,55,40.2,55z"></path><path d="M36.8,57.2c-0.3,0-0.5-0.2-0.5-0.5v-7.9c0-0.3,0.2-0.5,0.5-0.5s0.5,0.2,0.5,0.5v7.9C37.3,57,37.1,57.2,36.8,57.2z"></path><path d="M33.4,59.5c-0.3,0-0.5-0.2-0.5-0.5v-6.2c0-0.3,0.2-0.5,0.5-0.5s0.5,0.2,0.5,0.5V59C33.9,59.3,33.7,59.5,33.4,59.5z"></path><path d="M30,60.1c-0.3,0-0.5-0.2-0.5-0.5v-5.9c0-0.3,0.2-0.5,0.5-0.5s0.5,0.2,0.5,0.5v5.9C30.5,59.9,30.3,60.1,30,60.1   C30,60.1,30,60.1,30,60.1z"></path><path d="M26.5,60c-0.3,0-0.5-0.2-0.5-0.5v-4.8c0-0.3,0.2-0.5,0.5-0.5s0.5,0.2,0.5,0.5v4.8C27,59.8,26.8,60,26.5,60z"></path><path d="M23.1,57.9c-0.3,0-0.5-0.2-0.5-0.5v-5.1c0-0.3,0.2-0.5,0.5-0.5s0.5,0.2,0.5,0.5v5.1C23.6,57.7,23.4,57.9,23.1,57.9z"></path><path d="M19.7,57.4c-0.3,0-0.5-0.2-0.5-0.5v-6.2c0-0.3,0.2-0.5,0.5-0.5s0.5,0.2,0.5,0.5v6.2C20.2,57.1,20,57.4,19.7,57.4z"></path><path d="M16.3,58.2c-0.3,0-0.5-0.2-0.5-0.5v-4.8c0-0.3,0.2-0.5,0.5-0.5s0.5,0.2,0.5,0.5v4.8C16.8,58,16.5,58.2,16.3,58.2z"></path><path d="M12.9,59.1c-0.3,0-0.5-0.2-0.5-0.5v-3.5c0-0.3,0.2-0.5,0.5-0.5s0.5,0.2,0.5,0.5v3.5C13.4,58.9,13.1,59.1,12.9,59.1z"></path><path d="M9.4,61.8c-0.3,0-0.5-0.2-0.5-0.5v-5.7c0-0.3,0.2-0.5,0.5-0.5s0.5,0.2,0.5,0.5v5.7C9.9,61.5,9.7,61.8,9.4,61.8z"></path></g></svg>