<svg viewBox="0 0 595.3 226" xmlns="http://www.w3.org/2000/svg"><path d="M297.8 66.8l-15.4 21.4h31z" fill="#ed1c24"/><path d="M245.3 113.4c0-.1-.1-.1-.2-.2-.1 0-.2-.1-.2-.1h-8.1c-.1 0-.2.1-.3.1s-.2.1-.2.1c-.1.1-.1.2-.2.3 0 .1-.1.3-.1.6v27.5c0 .1-.1 1-.2 1.6s-.1 1.1-.2 1.6c-.1.6-.3 1.2-.7 1.8s-.9 1.2-1.5 1.7c-.5.4-1 .8-1.6 1.1-.7.4-1.5.8-2.4 1.1s-1.9.4-2.8.5c-.8.1-1.5.1-2.3 0-.8 0-1.7-.2-2.6-.3-.8-.2-1.5-.4-2.2-.8s-1.4-.8-2-1.3c-.5-.5-.9-1-1.2-1.5-.3-.4-.4-.7-.6-1.3-.3-.7-.6-1.7-.6-2.4v-29.4c0-.1 0-.4-.1-.6 0-.1-.1-.2-.1-.3s-.1-.1-.2-.2c-.1 0-.2-.1-.2-.1h-8.1c-.1 0-.2 0-.3.1-.1 0-.2.1-.3.2s-.1.2-.2.4-.1.5-.1.6v30c0 .7.1 1.5.2 2.2.1.8.4 1.7.6 2.5.3.8.6 1.4 1 2.1.5.7 1.1 1.5 1.8 2.2s1.5 1.4 2.4 2 1.8 1.1 2.7 1.5 1.9.8 3 1.1 2.3.6 3.4.8 2.3.3 3.3.4c1 0 1.9 0 3-.2 1.1-.1 2.4-.3 3.4-.5.9-.2 1.6-.3 2.4-.5.9-.2 1.8-.5 2.8-.9 1.1-.4 2.2-1 3.2-1.6s1.8-1.4 2.6-2.2 1.5-1.6 2.1-2.5c.5-.7.8-1.4 1.1-2.2.3-.9.4-2 .5-3 .1-.9.2-1.6.2-2.6.1-1 .1-2.2.1-2.3v-26.3c0-.1 0-.4-.1-.6.2 0 .1-.1.1-.2m-48.7 27.5c-.1-.5-.3-1-.6-1.5s-.6-.9-.9-1.3-.5-.7-.9-1.1c-.3-.4-.8-.7-1.3-1.1s-1.1-.8-1.6-1.1-1-.6-1.6-.8c-.5-.2-1.1-.5-1.7-.7s-1.3-.4-2.1-.7c-.8-.2-1.8-.4-2.8-.6s-2.1-.4-3.1-.6c-1.1-.2-2.2-.4-3.3-.5-1.1-.2-2.2-.3-3.1-.5s-1.7-.3-2.4-.5-1.5-.3-2.1-.5-1.1-.4-1.6-.6-.9-.5-1.1-.7c-.3-.2-.4-.3-.5-.5s-.3-.4-.4-.7-.2-.6-.2-.9-.1-.7 0-1.1c0-.4.1-.8.2-1.1s.2-.6.4-.9.4-.5.7-.8.6-.5.9-.7.7-.4 1.1-.6 1-.5 1.6-.7 1.2-.4 1.8-.5l2.1-.3h1.9c.7 0 1.5.1 2.2.2s1.3.3 1.9.5 1.3.5 1.9.7 1.1.5 1.6.8 1.1.8 1.6 1.2.9.8 1.2 1.1l.8.8c.2.2.3.3.4.3.1.1.2.1.3.1s.3 0 .6-.1c2-1.4 4.1-2.9 6.1-4.3l.3-.3c.1-.1.1-.2 0-.4-.3-.6-1.9-1.9-3.2-2.9-1.4-1-2.6-1.7-3.7-2.2-1-.5-1.8-.8-2.9-1.2-1.3-.4-2.9-.8-4.4-1-1.4-.2-2.7-.3-4.2-.3-1.6 0-3.3.2-4.8.4-1.4.2-2.5.3-3.8.6-1.4.3-2.8.8-4.3 1.5s-3 1.5-4.2 2.5c-1 .9-1.8 1.9-2.4 2.8-.5.7-.8 1.4-1.1 2-.2.5-.4 1-.5 1.6s-.2 1.3-.3 1.8c0 .4-.1.6-.1 1.1 0 .7.1 1.9.3 2.8.2.8.4 1.3.8 2 .5.8 1.1 1.7 1.9 2.5 1 .9 2.2 1.8 3.3 2.3 1 .5 1.9.8 3 1.1 1.3.4 2.8.8 4.4 1.1 1.7.3 3.5.5 5.1.7 1.4.2 2.7.4 4 .6 1.1.2 2.2.4 3.2.6.8.2 1.5.5 2.2.7.5.2 1 .5 1.4.8.5.4 1.1 1 1.5 1.6.3.6.4 1.2.4 1.8s0 1.1-.1 1.6-.3 1.1-.7 1.6c-.5.7-1.3 1.4-2.1 1.8-.8.5-1.6.8-2.5 1-1 .3-2.2.5-3.2.6-.8.1-1.5.1-2.3.1-1 0-2.2-.2-3.1-.3-.8-.1-1.3-.2-2.1-.3-.9-.2-2.1-.5-2.9-.8-.7-.3-1.2-.5-1.7-.8-.6-.3-1.4-.7-2.2-1.3-.9-.8-2-1.9-2.4-2.3l-.2-.2c-.1 0-.2 0-.3-.1h-.4l-7 4.6c-.1.2-.1.3-.1.4s.1.2.3.5.7.8 1.1 1.2.8.7 1.3 1.2c.5.4 1.2.9 2 1.4s1.7 1 2.7 1.4 2.1.8 3.3 1.2 2.3.7 3.5.9 2.4.3 3.6.4 2.5.2 3.6.1c1.1 0 2.2-.1 3.3-.2 1.2-.1 2.4-.3 3.7-.6 1.2-.2 2.4-.6 3.5-.9 1.1-.4 2.2-.8 3.1-1.2 1-.5 1.9-1 2.5-1.4.7-.4 1.2-.8 1.7-1.3l1.6-1.6c.5-.5.8-1 1.2-1.5.3-.5.6-1 .8-1.6s.4-1.2.5-1.8.2-1.1.2-1.6.1-.9.1-1.4 0-1-.1-1.6c.2-.5.1-1-.1-1.5m145.3-27.2c0-.2-.1-.3-.3-.4s-.4-.2-.5-.2h-7.4c-.3 0-.5 0-.7.1-.1.1-.2.2-.3.4-.1.3-.1.6-.1.8v26.9c0 .4-.1.5-.2.6 0 0-.1.1-.2.1s-.2 0-.3-.1c-.2-.1-.3-.3-.4-.4-6.8-9.2-13.6-18.5-20.4-27.7-.1 0-.2-.3-.5-.5s-.9-.2-1.1-.2h-6.3c-.2 0-.4 0-.6.1s-.4.2-.5.4c-.2.3-.2.7-.2 1.1v42.1c0 .3-.1.6.2.9.2.2.6.3.6.3h7.2c.3 0 .9.1 1.1-.2s.3-.8.3-.8v-28c0-.2 0-.6.1-.8 0-.1.1-.2.2-.2s.2 0 .3.1c.2.2.5.6.5.6 6.9 9.6 13.9 19.1 20.8 28.7.1.2.4.5.6.6s.4.1.4.1h6.9c.1 0 .3 0 .4-.1s.2-.1.3-.3.2-.6.2-.7v-42.8c0 .1 0-.3-.1-.5m45.8-.5H350c-.2 0-.6 0-.9.2-.2.2-.3.5-.3.5v5.6c0 .3.1.6.3.7s.5.1.9.1h12.3c.5 0 1.1.1 1.4.5s.4 1.1.4 1.2v35.1c0 .2-.1.6.2.8.2.1.5.1.5.1h7.8c.2 0 .5 0 .7-.3.2-.2.2-.7.2-.7v-35.2s0-.7.3-1.1c.4-.5 1.2-.4 1.7-.4h11.9c1.3 0 1.4-.4 1.4-1.1V114c.1-.6-.1-.8-1.1-.8m-94.1.2l-.2-.2c-.1 0-.2-.1-.2-.1h-8.1c-.1 0-.2.1-.3.1s-.2.1-.2.1c-.1.1-.1.2-.2.3 0 .1-.1.3-.1.6v27.5c0 .1-.1 1-.2 1.6s-.1 1.1-.2 1.6c-.1.6-.3 1.2-.7 1.8s-.9 1.2-1.5 1.7c-.5.4-1 .8-1.6 1.1-.7.4-1.5.8-2.4 1.1s-1.9.4-2.8.5c-.8.1-1.5.1-2.3 0-.8 0-1.7-.2-2.6-.3-.8-.2-1.5-.4-2.2-.8s-1.4-.8-2-1.3c-.5-.5-.9-1-1.2-1.5-.3-.4-.4-.7-.6-1.3-.3-.7-.6-1.7-.6-2.4v-29.4c0-.1 0-.4-.1-.6 0-.1-.1-.2-.1-.3s-.1-.1-.2-.2c-.1 0-.2-.1-.2-.1h-8.1c-.1 0-.2.1-.3.1s-.2.1-.2.1c-.1.1-.1.2-.2.4s-.1.5-.1.6v30c0 .7.1 1.5.2 2.2.1.8.4 1.7.6 2.5.3.8.6 1.4 1 2.1.5.7 1.1 1.5 1.8 2.2s1.6 1.4 2.4 2c.9.6 1.8 1.1 2.7 1.5s1.9.8 3 1.1 2.3.6 3.4.8 2.3.3 3.3.4c1 0 1.9 0 3-.2 1.1-.1 2.4-.3 3.4-.5.9-.2 1.6-.3 2.4-.5.9-.2 1.8-.5 2.8-.9 1.1-.4 2.2-1 3.2-1.6s1.8-1.4 2.6-2.2 1.5-1.6 2.1-2.5c.5-.7.8-1.4 1.1-2.2.3-.9.4-2 .5-3 .1-.9.2-1.6.2-2.6.1-1 .1-2.2.1-2.3v-26.3c0-.1 0-.4-.1-.6.1.1 0 0 0-.1M430.2 141c-.9 3-2.6 5.6-5.2 7.5s-6.1 3-9.4 3.1-6.3-1-8.7-2.7c-2.4-1.8-4.2-4.4-5.2-7.6-.9-3.2-1-6.9-.3-10.2.6-3.3 2-6.1 4.5-8.3 2.5-2.1 6.2-3.6 9.8-3.6s7.1 1.3 9.7 3.5 4.3 5.4 5.1 8.6c.7 3.3.6 6.7-.3 9.7m9.3-12.3c-1.5-5.5-4.9-9.7-9.2-12.5s-9.5-4.3-15-4.2c-5.4.1-11.1 1.9-15.4 5.1s-7.1 7.8-8.4 13c-1.3 5.1-.9 10.8 1.2 15.5s6 8.6 10.2 10.8 8.6 2.8 12.6 2.8 7.5-.5 11.5-2.4c4-2 8.5-5.4 10.9-10.6 2.6-5.1 3.1-12 1.6-17.5"/></svg>