<?xml version="1.0" encoding="utf-8"?>
<!-- Generator: Adobe Illustrator 22.1.0, SVG Export Plug-In . SVG Version: 6.00 Build 0)  -->
<svg version="1.1" id="Layer_1" xmlns="http://www.w3.org/2000/svg" xmlns:xlink="http://www.w3.org/1999/xlink" x="0px" y="0px"
	 viewBox="0 0 595.3 226" style="enable-background:new 0 0 595.3 226;" xml:space="preserve">
<style type="text/css">
	.st0{fill:#ED1C24;}
</style>
<g>
	<polygon class="st0" points="297.8,66.8 282.4,88.2 313.4,88.2 	"/>
	<path d="M245.3,113.4c0-0.1-0.1-0.1-0.2-0.2c-0.1,0-0.2-0.1-0.2-0.1h-8.1c-0.1,0-0.2,0.1-0.3,0.1c-0.1,0-0.2,0.1-0.2,0.1
		c-0.1,0.1-0.1,0.2-0.2,0.3c0,0.1-0.1,0.3-0.1,0.6v27.5c0,0.1-0.1,1-0.2,1.6c-0.1,0.6-0.1,1.1-0.2,1.6c-0.1,0.6-0.3,1.2-0.7,1.8
		c-0.4,0.6-0.9,1.2-1.5,1.7c-0.5,0.4-1,0.8-1.6,1.1c-0.7,0.4-1.5,0.8-2.4,1.1c-0.9,0.3-1.9,0.4-2.8,0.5c-0.8,0.1-1.5,0.1-2.3,0
		c-0.8,0-1.7-0.2-2.6-0.3c-0.8-0.2-1.5-0.4-2.2-0.8c-0.7-0.4-1.4-0.8-2-1.3c-0.5-0.5-0.9-1-1.2-1.5c-0.3-0.4-0.4-0.7-0.6-1.3
		c-0.3-0.7-0.6-1.7-0.6-2.4v-29.4c0-0.1,0-0.4-0.1-0.6c0-0.1-0.1-0.2-0.1-0.3c0-0.1-0.1-0.1-0.2-0.2c-0.1,0-0.2-0.1-0.2-0.1h-8.1
		c-0.1,0-0.2,0-0.3,0.1c-0.1,0-0.2,0.1-0.3,0.2c-0.1,0.1-0.1,0.2-0.2,0.4c-0.1,0.2-0.1,0.5-0.1,0.6v30c0,0.7,0.1,1.5,0.2,2.2
		c0.1,0.8,0.4,1.7,0.6,2.5c0.3,0.8,0.6,1.4,1,2.1c0.5,0.7,1.1,1.5,1.8,2.2c0.7,0.7,1.5,1.4,2.4,2c0.9,0.6,1.8,1.1,2.7,1.5
		c0.9,0.4,1.9,0.8,3,1.1c1.1,0.3,2.3,0.6,3.4,0.8c1.1,0.2,2.3,0.3,3.3,0.4c1,0,1.9,0,3-0.2c1.1-0.1,2.4-0.3,3.4-0.5
		c0.9-0.2,1.6-0.3,2.4-0.5c0.9-0.2,1.8-0.5,2.8-0.9c1.1-0.4,2.2-1,3.2-1.6c1-0.6,1.8-1.4,2.6-2.2c0.8-0.8,1.5-1.6,2.1-2.5
		c0.5-0.7,0.8-1.4,1.1-2.2c0.3-0.9,0.4-2,0.5-3c0.1-0.9,0.2-1.6,0.2-2.6c0.1-1,0.1-2.2,0.1-2.3v-26.3c0-0.1,0-0.4-0.1-0.6
		C245.4,113.6,245.3,113.5,245.3,113.4 M196.6,140.9c-0.1-0.5-0.3-1-0.6-1.5c-0.3-0.5-0.6-0.9-0.9-1.3c-0.3-0.4-0.5-0.7-0.9-1.1
		c-0.3-0.4-0.8-0.7-1.3-1.1c-0.5-0.4-1.1-0.8-1.6-1.1c-0.5-0.3-1-0.6-1.6-0.8c-0.5-0.2-1.1-0.5-1.7-0.7c-0.6-0.2-1.3-0.4-2.1-0.7
		c-0.8-0.2-1.8-0.4-2.8-0.6c-1-0.2-2.1-0.4-3.1-0.6c-1.1-0.2-2.2-0.4-3.3-0.5c-1.1-0.2-2.2-0.3-3.1-0.5c-0.9-0.2-1.7-0.3-2.4-0.5
		c-0.7-0.2-1.5-0.3-2.1-0.5c-0.6-0.2-1.1-0.4-1.6-0.6c-0.5-0.2-0.9-0.5-1.1-0.7c-0.3-0.2-0.4-0.3-0.5-0.5c-0.1-0.2-0.3-0.4-0.4-0.7
		c-0.1-0.3-0.2-0.6-0.2-0.9c0-0.3-0.1-0.7,0-1.1c0-0.4,0.1-0.8,0.2-1.1c0.1-0.3,0.2-0.6,0.4-0.9c0.2-0.3,0.4-0.5,0.7-0.8
		c0.3-0.3,0.6-0.5,0.9-0.7c0.3-0.2,0.7-0.4,1.1-0.6c0.4-0.2,1-0.5,1.6-0.7c0.6-0.2,1.2-0.4,1.8-0.5c0.7-0.1,1.4-0.2,2.1-0.3
		c0.7,0,1.2,0,1.9,0c0.7,0,1.5,0.1,2.2,0.2c0.7,0.1,1.3,0.3,1.9,0.5c0.6,0.2,1.3,0.5,1.9,0.7c0.6,0.2,1.1,0.5,1.6,0.8
		c0.5,0.3,1.1,0.8,1.6,1.2c0.5,0.4,0.9,0.8,1.2,1.1c0.3,0.3,0.6,0.6,0.8,0.8c0.2,0.2,0.3,0.3,0.4,0.3c0.1,0.1,0.2,0.1,0.3,0.1
		c0.1,0,0.3,0,0.6-0.1c2-1.4,4.1-2.9,6.1-4.3c0.1-0.1,0.2-0.2,0.3-0.3c0.1-0.1,0.1-0.2,0-0.4c-0.3-0.6-1.9-1.9-3.2-2.9
		c-1.4-1-2.6-1.7-3.7-2.2c-1-0.5-1.8-0.8-2.9-1.2c-1.3-0.4-2.9-0.8-4.4-1c-1.4-0.2-2.7-0.3-4.2-0.3c-1.6,0-3.3,0.2-4.8,0.4
		c-1.4,0.2-2.5,0.3-3.8,0.6c-1.4,0.3-2.8,0.8-4.3,1.5c-1.5,0.7-3,1.5-4.2,2.5c-1,0.9-1.8,1.9-2.4,2.8c-0.5,0.7-0.8,1.4-1.1,2
		c-0.2,0.5-0.4,1-0.5,1.6c-0.1,0.6-0.2,1.3-0.3,1.8c0,0.4-0.1,0.6-0.1,1.1c0,0.7,0.1,1.9,0.3,2.8c0.2,0.8,0.4,1.3,0.8,2
		c0.5,0.8,1.1,1.7,1.9,2.5c1,0.9,2.2,1.8,3.3,2.3c1,0.5,1.9,0.8,3,1.1c1.3,0.4,2.8,0.8,4.4,1.1c1.7,0.3,3.5,0.5,5.1,0.7
		c1.4,0.2,2.7,0.4,4,0.6c1.1,0.2,2.2,0.4,3.2,0.6c0.8,0.2,1.5,0.5,2.2,0.7c0.5,0.2,1,0.5,1.4,0.8c0.5,0.4,1.1,1,1.5,1.6
		c0.3,0.6,0.4,1.2,0.4,1.8c0,0.6,0,1.1-0.1,1.6c-0.1,0.5-0.3,1.1-0.7,1.6c-0.5,0.7-1.3,1.4-2.1,1.8c-0.8,0.5-1.6,0.8-2.5,1
		c-1,0.3-2.2,0.5-3.2,0.6c-0.8,0.1-1.5,0.1-2.3,0.1c-1,0-2.2-0.2-3.1-0.3c-0.8-0.1-1.3-0.2-2.1-0.3c-0.9-0.2-2.1-0.5-2.9-0.8
		c-0.7-0.3-1.2-0.5-1.7-0.8c-0.6-0.3-1.4-0.7-2.2-1.3c-0.9-0.8-2-1.9-2.4-2.3c-0.1-0.1-0.1-0.1-0.2-0.2c-0.1,0-0.2,0-0.3-0.1
		c-0.1,0-0.3,0-0.4,0l-7,4.6c-0.1,0.2-0.1,0.3-0.1,0.4c0,0.1,0.1,0.2,0.3,0.5c0.2,0.3,0.7,0.8,1.1,1.2c0.4,0.4,0.8,0.7,1.3,1.2
		c0.5,0.4,1.2,0.9,2,1.4c0.8,0.5,1.7,1,2.7,1.4c1,0.4,2.1,0.8,3.3,1.2c1.2,0.4,2.3,0.7,3.5,0.9c1.2,0.2,2.4,0.3,3.6,0.4
		c1.2,0.1,2.5,0.2,3.6,0.1c1.1,0,2.2-0.1,3.3-0.2c1.2-0.1,2.4-0.3,3.7-0.6c1.2-0.2,2.4-0.6,3.5-0.9c1.1-0.4,2.2-0.8,3.1-1.2
		c1-0.5,1.9-1,2.5-1.4c0.7-0.4,1.2-0.8,1.7-1.3c0.5-0.5,1.1-1.1,1.6-1.6c0.5-0.5,0.8-1,1.2-1.5c0.3-0.5,0.6-1,0.8-1.6
		c0.2-0.6,0.4-1.2,0.5-1.8c0.1-0.6,0.2-1.1,0.2-1.6c0-0.5,0.1-0.9,0.1-1.4c0-0.5,0-1-0.1-1.6C196.9,141.9,196.8,141.4,196.6,140.9
		 M341.9,113.7c0-0.2-0.1-0.3-0.3-0.4c-0.2-0.1-0.4-0.2-0.5-0.2h-7.4c-0.3,0-0.5,0-0.7,0.1c-0.1,0.1-0.2,0.2-0.3,0.4
		c-0.1,0.3-0.1,0.6-0.1,0.8v26.9c0,0.4-0.1,0.5-0.2,0.6c0,0-0.1,0.1-0.2,0.1c-0.1,0-0.2,0-0.3-0.1c-0.2-0.1-0.3-0.3-0.4-0.4
		c-6.8-9.2-13.6-18.5-20.4-27.7c-0.1,0-0.2-0.3-0.5-0.5c-0.3-0.2-0.9-0.2-1.1-0.2h-6.3c-0.2,0-0.4,0-0.6,0.1
		c-0.2,0.1-0.4,0.2-0.5,0.4c-0.2,0.3-0.2,0.7-0.2,1.1v42.1c0,0.3-0.1,0.6,0.2,0.9c0.2,0.2,0.6,0.3,0.6,0.3h7.2
		c0.3,0,0.9,0.1,1.1-0.2c0.2-0.3,0.3-0.8,0.3-0.8v-28c0-0.2,0-0.6,0.1-0.8c0-0.1,0.1-0.2,0.2-0.2c0.1,0,0.2,0,0.3,0.1
		c0.2,0.2,0.5,0.6,0.5,0.6c6.9,9.6,13.9,19.1,20.8,28.7c0.1,0.2,0.4,0.5,0.6,0.6c0.2,0.1,0.4,0.1,0.4,0.1h6.9c0.1,0,0.3,0,0.4-0.1
		c0.1-0.1,0.2-0.1,0.3-0.3c0.1-0.2,0.2-0.6,0.2-0.7c0-14.2,0-28.6,0-42.8C342,114.3,342,113.9,341.9,113.7 M387.7,113.2h-37.7
		c-0.2,0-0.6,0-0.9,0.2c-0.2,0.2-0.3,0.5-0.3,0.5v5.6c0,0.3,0.1,0.6,0.3,0.7c0.2,0.1,0.5,0.1,0.9,0.1h12.3c0.5,0,1.1,0.1,1.4,0.5
		c0.3,0.4,0.4,1.1,0.4,1.2v35.1c0,0.2-0.1,0.6,0.2,0.8c0.2,0.1,0.5,0.1,0.5,0.1h7.8c0.2,0,0.5,0,0.7-0.3c0.2-0.2,0.2-0.7,0.2-0.7
		v-35.2c0,0,0-0.7,0.3-1.1c0.4-0.5,1.2-0.4,1.7-0.4h11.9c1.3,0,1.4-0.4,1.4-1.1V114C388.9,113.4,388.7,113.2,387.7,113.2
		 M293.6,113.4c-0.1-0.1-0.1-0.1-0.2-0.2c-0.1,0-0.2-0.1-0.2-0.1h-8.1c-0.1,0-0.2,0.1-0.3,0.1c-0.1,0-0.2,0.1-0.2,0.1
		c-0.1,0.1-0.1,0.2-0.2,0.3c0,0.1-0.1,0.3-0.1,0.6v27.5c0,0.1-0.1,1-0.2,1.6c-0.1,0.6-0.1,1.1-0.2,1.6c-0.1,0.6-0.3,1.2-0.7,1.8
		c-0.4,0.6-0.9,1.2-1.5,1.7c-0.5,0.4-1,0.8-1.6,1.1c-0.7,0.4-1.5,0.8-2.4,1.1c-0.9,0.3-1.9,0.4-2.8,0.5c-0.8,0.1-1.5,0.1-2.3,0
		c-0.8,0-1.7-0.2-2.6-0.3c-0.8-0.2-1.5-0.4-2.2-0.8c-0.7-0.4-1.4-0.8-2-1.3c-0.5-0.5-0.9-1-1.2-1.5c-0.3-0.4-0.4-0.7-0.6-1.3
		c-0.3-0.7-0.6-1.7-0.6-2.4v-29.4c0-0.1,0-0.4-0.1-0.6c0-0.1-0.1-0.2-0.1-0.3c0-0.1-0.1-0.1-0.2-0.2c-0.1,0-0.2-0.1-0.2-0.1h-8.1
		c-0.1,0-0.2,0.1-0.3,0.1c-0.1,0-0.2,0.1-0.2,0.1c-0.1,0.1-0.1,0.2-0.2,0.4c-0.1,0.2-0.1,0.5-0.1,0.6v30c0,0.7,0.1,1.5,0.2,2.2
		c0.1,0.8,0.4,1.7,0.6,2.5c0.3,0.8,0.6,1.4,1,2.1c0.5,0.7,1.1,1.5,1.8,2.2c0.7,0.7,1.6,1.4,2.4,2c0.9,0.6,1.8,1.1,2.7,1.5
		c0.9,0.4,1.9,0.8,3,1.1c1.1,0.3,2.3,0.6,3.4,0.8c1.1,0.2,2.3,0.3,3.3,0.4c1,0,1.9,0,3-0.2c1.1-0.1,2.4-0.3,3.4-0.5
		c0.9-0.2,1.6-0.3,2.4-0.5c0.9-0.2,1.8-0.5,2.8-0.9c1.1-0.4,2.2-1,3.2-1.6c1-0.6,1.8-1.4,2.6-2.2c0.8-0.8,1.5-1.6,2.1-2.5
		c0.5-0.7,0.8-1.4,1.1-2.2c0.3-0.9,0.4-2,0.5-3c0.1-0.9,0.2-1.6,0.2-2.6c0.1-1,0.1-2.2,0.1-2.3v-26.3c0-0.1,0-0.4-0.1-0.6
		C293.7,113.6,293.6,113.5,293.6,113.4 M430.2,141c-0.9,3-2.6,5.6-5.2,7.5c-2.6,1.9-6.1,3-9.4,3.1c-3.3,0.1-6.3-1-8.7-2.7
		c-2.4-1.8-4.2-4.4-5.2-7.6c-0.9-3.2-1-6.9-0.3-10.2c0.6-3.3,2-6.1,4.5-8.3c2.5-2.1,6.2-3.6,9.8-3.6c3.6,0,7.1,1.3,9.7,3.5
		c2.6,2.2,4.3,5.4,5.1,8.6C431.2,134.6,431.1,138,430.2,141 M439.5,128.7c-1.5-5.5-4.9-9.7-9.2-12.5c-4.3-2.8-9.5-4.3-15-4.2
		c-5.4,0.1-11.1,1.9-15.4,5.1c-4.3,3.2-7.1,7.8-8.4,13c-1.3,5.1-0.9,10.8,1.2,15.5c2.1,4.7,6,8.6,10.2,10.8
		c4.2,2.2,8.6,2.8,12.6,2.8c4,0,7.5-0.5,11.5-2.4c4-2,8.5-5.4,10.9-10.6C440.5,141.1,441,134.2,439.5,128.7"/>
</g>
</svg>
