<svg height="32pt" viewBox="0 0 99 32" width="132" xmlns="http://www.w3.org/2000/svg"><path d="m49.879 0-5.313 7.445h10.696zm0 0" fill="#ed1c24"/><path d="m31.77 16.207c0-.031-.036-.031-.07-.066-.032 0-.067-.036-.067-.036h-2.797c-.031 0-.066.036-.102.036-.035 0-.07.035-.07.035-.035.031-.035.066-.066.101 0 .035-.035.106-.035.211v9.563c0 .035-.036.347-.07.558-.036.207-.036.383-.071.555-.031.211-.102.418-.238.629-.141.207-.313.414-.52.59-.172.14-.344.277-.55.383-.243.14-.52.277-.829.382-.312.106-.656.137-.965.172-.277.035-.52.035-.793 0-.277 0-.59-.066-.898-.101-.277-.07-.516-.14-.758-.282a4.668 4.668 0 0 1 -.691-.449 2.855 2.855 0 0 1 -.414-.523c-.102-.14-.137-.242-.207-.453-.102-.242-.207-.59-.207-.832v-10.227c0-.035 0-.14-.036-.21 0-.036-.03-.067-.03-.102 0-.036-.036-.036-.071-.07-.035 0-.07-.036-.07-.036h-2.793c-.036 0-.07 0-.106.035-.031 0-.066.035-.101.07-.036.036-.036.067-.07.137-.036.07-.036.176-.036.211v10.434c0 .242.035.523.07.765.036.278.137.59.207.868.106.28.207.488.344.73.176.246.383.524.621.766.242.246.52.488.828.695a6.916 6.916 0 0 0 1.969.906c.379.106.793.207 1.172.278.379.07.793.105 1.137.14.347 0 .656 0 1.035-.07a11.71 11.71 0 0 0 1.172-.176c.312-.066.554-.101.828-.172a6.59 6.59 0 0 0 .969-.312c.379-.14.757-.348 1.101-.559.348-.207.621-.484.899-.765a5.79 5.79 0 0 0 .722-.868 3.11 3.11 0 0 0 .38-.765c.105-.313.14-.695.175-1.043.031-.313.066-.559.066-.906.036-.348.036-.766.036-.797v-9.149c0-.035 0-.14-.036-.21.07 0 .036-.036.036-.071m-16.797 9.566a1.7 1.7 0 0 0 -.207-.52 4.55 4.55 0 0 0 -.313-.452c-.101-.14-.172-.246-.308-.383-.106-.14-.278-.242-.45-.383a4.864 4.864 0 0 0 -.554-.383 2.693 2.693 0 0 0 -.551-.277c-.172-.07-.38-.176-.586-.246-.207-.067-.45-.137-.723-.242-.277-.07-.62-.14-.969-.207-.343-.07-.722-.14-1.066-.211-.383-.07-.762-.137-1.14-.172-.38-.07-.758-.106-1.07-.176-.31-.07-.587-.105-.825-.172-.242-.07-.52-.105-.727-.176a9.316 9.316 0 0 1 -.55-.207 1.17 1.17 0 0 1 -.38-.246c-.105-.066-.14-.101-.175-.172-.031-.07-.102-.14-.137-.242a1.019 1.019 0 0 1 -.066-.316c0-.102-.035-.242 0-.383 0-.137.031-.277.066-.383.035-.101.07-.207.137-.312.07-.102.14-.172.242-.278.106-.105.207-.172.313-.242.101-.07.242-.14.378-.21.137-.067.344-.173.551-.243s.414-.14.621-.176l.727-.101h.652c.242 0 .52.035.762.07.238.031.445.102.652.172s.45.176.657.242c.207.07.379.176.554.281.172.102.38.278.551.418.172.137.309.278.414.38l.274.28c.07.07.105.102.14.102.035.035.067.035.102.035s.105 0 .207-.035c.691-.484 1.414-1.008 2.105-1.492l.102-.106c.035-.035.035-.07 0-.14-.102-.207-.653-.66-1.102-1.008a7.886 7.886 0 0 0 -1.277-.766 9.243 9.243 0 0 0 -1-.418c-.45-.136-1-.277-1.52-.347-.48-.07-.93-.106-1.445-.106-.555 0-1.14.07-1.656.14-.485.071-.863.106-1.313.212a6.82 6.82 0 0 0 -1.484.52c-.516.241-1.035.523-1.445.87-.348.313-.621.66-.829.973-.175.242-.277.488-.382.695-.067.176-.137.348-.172.559-.035.207-.067.45-.102.625 0 .137-.035.207-.035.383 0 .242.035.66.102.972.07.278.14.454.277.696.172.277.379.593.656.87.344.313.758.626 1.137.802.348.172.656.277 1.035.382.45.137.965.278 1.52.383.586.102 1.207.172 1.757.242.485.07.934.137 1.38.207.378.07.761.141 1.105.211.277.07.515.172.758.243.172.07.347.175.484.277.172.14.379.348.516.559.105.207.14.418.14.625s0 .382-.035.554a1.34 1.34 0 0 1 -.242.559c-.172.242-.45.488-.723.625a2.657 2.657 0 0 1 -.863.347 6.19 6.19 0 0 1 -1.105.211c-.274.036-.516.036-.793.036-.344 0-.758-.07-1.07-.106-.274-.035-.446-.07-.723-.105a8.105 8.105 0 0 1 -1-.278c-.243-.105-.414-.175-.586-.277-.207-.106-.485-.246-.762-.453-.309-.278-.688-.66-.828-.801l-.067-.07c-.035 0-.07 0-.105-.035h-.137l-2.414 1.601c-.035.07-.035.106-.035.14 0 .036.035.067.102.173.07.105.242.277.382.418.137.14.274.242.446.418.175.136.414.312.691.488.277.172.586.348.93.484.347.14.726.278 1.14.418s.793.242 1.207.313c.415.07.829.105 1.243.14s.863.07 1.242.035c.379 0 .758-.035 1.137-.07a8.784 8.784 0 0 0 1.277-.21c.414-.067.828-.208 1.207-.313.379-.137.758-.278 1.07-.418.344-.172.656-.348.864-.485.238-.14.41-.277.585-.453l.551-.554c.172-.176.278-.348.414-.524.102-.172.207-.348.278-.555.066-.21.136-.418.171-.628.036-.207.067-.383.067-.555 0-.176.035-.313.035-.488 0-.172 0-.348-.035-.555.07-.176.035-.348-.031-.524m50.117-9.46c0-.07-.031-.106-.102-.137-.07-.035-.136-.07-.172-.07h-2.554c-.102 0-.172 0-.239.035-.035.035-.07.066-.105.136-.035.106-.035.211-.035.278v9.36c0 .136-.035.17-.067.206 0 0-.035.035-.07.035s-.07 0-.105-.035c-.067-.035-.102-.105-.137-.137-2.344-3.203-4.691-6.437-7.035-9.636-.035 0-.07-.106-.176-.172-.102-.07-.309-.07-.379-.07h-2.172a.43.43 0 0 0 -.207.035c-.07.035-.137.066-.172.136-.07.106-.07.246-.07.383v14.645c0 .105-.035.207.07.312.07.07.207.106.207.106h2.485c.101 0 .308.035.379-.07.066-.106.101-.278.101-.278v-9.738c0-.07 0-.211.035-.282 0-.035.035-.07.07-.07.036 0 .067 0 .102.035.07.07.172.211.172.211 2.383 3.34 4.797 6.645 7.176 9.98a.63.63 0 0 0 .207.212.35.35 0 0 0 .14.035h2.38c.035 0 .101 0 .136-.035s.07-.035.106-.106a.997.997 0 0 0 .066-.242v-14.887c0 .035 0-.105-.035-.175m15.8-.172h-13.002c-.07 0-.207 0-.313.066-.066.07-.101.176-.101.176v1.949c0 .102.035.207.101.242.07.035.172.035.313.035h4.242c.172 0 .379.036.484.172.102.14.137.383.137.418v12.211c0 .067-.035.207.07.277.067.036.172.036.172.036h2.688c.07 0 .175 0 .242-.106.07-.07.07-.242.07-.242v-12.246s0-.242.102-.383c.14-.172.414-.137.59-.137h4.101c.45 0 .485-.14.485-.382v-1.809c.035-.211-.036-.277-.38-.277m-32.46.066-.067-.066c-.035 0-.07-.036-.07-.036h-2.794c-.035 0-.07.036-.105.036-.036 0-.07.035-.07.035-.032.031-.032.066-.067.101 0 .035-.035.106-.035.211v9.563c0 .035-.035.347-.07.558-.032.207-.032.383-.067.555-.035.211-.106.418-.242.629a2.817 2.817 0 0 1 -.52.59c-.172.14-.344.277-.55.383-.243.14-.516.277-.829.382-.308.106-.656.137-.965.172-.277.035-.52.035-.792 0-.278 0-.586-.066-.899-.101-.273-.07-.516-.14-.758-.282a4.668 4.668 0 0 1 -.691-.449 2.855 2.855 0 0 1 -.414-.523c-.102-.14-.137-.242-.207-.453-.102-.242-.207-.59-.207-.832v-10.227c0-.035 0-.14-.032-.21 0-.036-.035-.067-.035-.102 0-.036-.035-.036-.07-.07-.035 0-.07-.036-.07-.036h-2.793c-.035 0-.07.035-.102.035-.035 0-.07.035-.07.035-.035.036-.035.07-.07.137-.036.07-.036.176-.036.211v10.434c0 .242.036.523.07.765.036.278.137.59.208.871.105.278.207.485.343.73.176.243.383.52.622.763.242.246.554.488.828.699a7.08 7.08 0 0 0 1.969.902c.378.106.792.207 1.171.278.38.07.793.105 1.137.14.348 0 .656 0 1.035-.07.38-.035.828-.106 1.172-.172.313-.07.555-.105.828-.176.313-.07.621-.172.969-.312.379-.14.758-.348 1.102-.559.347-.207.62-.484.898-.762.277-.28.516-.558.723-.87a3.11 3.11 0 0 0 .379-.766c.105-.313.14-.696.175-1.043.032-.313.067-.559.067-.907.035-.347.035-.761.035-.796v-9.149c0-.035 0-.14-.035-.21.035.034 0 0 0-.036m47.12 9.602c-.312 1.043-.898 1.949-1.792 2.609-.899.66-2.106 1.043-3.242 1.078-1.141.035-2.176-.348-3.004-.941-.828-.625-1.446-1.528-1.793-2.64a7.73 7.73 0 0 1 -.102-3.552c.207-1.144.688-2.12 1.551-2.886.863-.73 2.14-1.25 3.379-1.25a5.21 5.21 0 0 1 3.348 1.218c.898.762 1.484 1.875 1.757 2.989.243 1.148.207 2.332-.101 3.375m3.207-4.278c-.516-1.914-1.692-3.375-3.172-4.347-1.484-.977-3.277-1.497-5.176-1.461-1.863.035-3.828.66-5.312 1.773-1.48 1.113-2.45 2.711-2.899 4.52-.445 1.777-.308 3.757.414 5.394.727 1.633 2.07 2.988 3.52 3.754 1.449.766 2.969.977 4.347.977 1.38 0 2.586-.176 3.965-.836 1.383-.696 2.934-1.88 3.762-3.688.895-1.773 1.07-4.172.55-6.086"/></svg>