<svg xmlns="http://www.w3.org/2000/svg" viewBox="0 0 24 24"><path d="M20.9 8.3l2.3-.7C21.5 3.4 17.5.3 12.7 0v2.4c3.7.3 6.8 2.7 8.2 5.9zM12 21.6c-1.9 0-3.6-.5-5.1-1.5L5.5 22c1.9 1.3 4.1 2 6.5 2 2.4 0 4.6-.7 6.4-1.9l-1.4-2c-1.5 1-3.2 1.5-5 1.5zM24 12c0-1-.1-2-.4-3l-2.3.7c.2.7.3 1.5.3 2.3 0 2.9-1.3 5.6-3.4 7.3l1.4 2c2.7-2.2 4.4-5.6 4.4-9.3zM11.3 1.8V.6C6.8.9 3 3.7 1.4 7.7l1.1.4c1.5-3.5 4.8-6 8.8-6.3zM2.9 15.2l-.6.2c-.3-1.1-.5-2.2-.5-3.4 0-.9.1-1.7.3-2.5L.9 9.1C.7 10 .6 11 .6 12c0 1.3.2 2.6.7 3.8l-.7.2c.7 2.1 2 3.9 3.7 5.3l1.4-1.9c-1.2-1.2-2.2-2.6-2.8-4.2z"/></svg>