<svg viewBox="0 0 29 37.5" xmlns="http://www.w3.org/2000/svg"><g transform="translate(-390 -500)" xmlns="http://www.w3.org/2000/svg" xmlns:xlink="http://www.w3.org/1999/xlink"><path d="m399 501c0-.552-.447-1-1-1h-7c-.553 0-1 .448-1 1v13c0 .552.447 1 1 1h7c.553 0 1-.448 1-1zm-1 13h-7v-1h7zm0-2h-7v-9h7zm0-10h-7v-1h7z"/><path d="m404 501h1v1h-1z"/><path d="m402 501h1v1h-1z"/><path d="m400 501h1v1h-1z"/><path d="m406 501h1v1h-1z"/><path d="m408 501h1v1h-1z"/><path d="m410 501h1v1h-1z"/><path d="m412 503h1v1h-1z"/><path d="m412 501h1v1h-1z"/><path d="m412 522h1v1h-1z"/><path d="m414 522h1v1h-1z"/><path d="m414 520h1v1h-1z"/><path d="m414 518h1v1h-1z"/><path d="m414 516h1v1h-1z"/><path d="m410 522h1v1h-1z"/><path d="m408 522h1v1h-1z"/><path d="m395 522h1v1h-1z"/><path d="m397 522h1v1h-1z"/><path d="m393 520h1v1h-1z"/><path d="m393 522h1v1h-1z"/><path d="m393 518h1v1h-1z"/><path d="m393 516h1v1h-1z"/><path d="m406 520c0-.55-.45-1-1-1v-2c0-.55-.45-1-1-1h-3c-.55 0-1 .45-1 1v2c-.55 0-1 .45-1 1v6c0 .55.45 1 1 1v2c0 .55.45 1 1 1h3c.55 0 1-.45 1-1v-2c.55 0 1-.45 1-1v-3h1v-2h-1zm-5-3h3v2h-3zm3 12h-3v-2h3zm1-3h-5v-6h5z"/><path d="m418 505h-10v8h10zm-1 7h-8v-6h8z"/><path d="m407 514h12v1h-12z"/></g><g font-family="'Helvetica Neue', Helvetica, Arial-Unicode, Arial, Sans-serif" font-size="5" font-weight="bold"><text y="45">Created by Hea Poh Lin</text><text y="50">from the Noun Project</text></g></svg>