<svg xmlns="http://www.w3.org/2000/svg" viewBox="0 0 86 50"><path fill="none" stroke="#3CABFF" stroke-width="2" stroke-linejoin="round" stroke-miterlimit="10" d="M1.7 25h11.2"/><path fill="none" stroke="#474758" stroke-width="2" stroke-linecap="round" stroke-linejoin="round" stroke-miterlimit="10" d="M83.4 25h-31C37 25 39.5 4.4 28.4 4.4S18.9 24.2 4.3 25H1.7"/><path fill="none" stroke="#3CABFF" stroke-width="2" stroke-linecap="round" stroke-linejoin="round" stroke-miterlimit="10" d="M13 25h13.6c3.4 0 6 0 10.3-4.3s5.2-12 8.6-12c3.4 0 4.3 8.6 7.7 8.6M83.4 25H80c-3.4 0-6 0-10.3-4.3s-5.2-12-8.6-12-4.3 8.6-7.7 8.6"/><path fill="#474758" d="M6.4 40.3h.9l.9-2h4.5l.8 2h.9L10.9 32H10l-3.6 8.3zm4-7.4l2 4.7h-4l2-4.7zm13.9 7.4h.9V32h-.8l-3.6 4.4-3.7-4.4h-.8v8.2h.9v-6.9l3.4 4.1h.2l3.4-4.1c.1 0 .1 7 .1 7zm5.1-4.1c0-1.3.9-2.3 2.3-2.3 1 0 1.7.4 2.2.8l.9-1.5c-.9-.8-1.9-1.2-3.3-1.2-2.5 0-4.3 1.8-4.3 4.2s1.9 4.2 4.3 4.2c1.3 0 2.4-.4 3.3-1.2l-.8-1.5c-.5.4-1.2.8-2.2.8-1.4 0-2.4-1.1-2.4-2.3zm13.3 4.1h2.1V32h-2.1v3.2h-3.9V32h-2.1v8.2h2.1V37h3.9v3.3zm3.5 0h2.1l.6-1.5h3.4l.5 1.5h2.1l-3.1-8.2h-2.4c0-.1-3.2 8.2-3.2 8.2zm4.4-6.2l1.2 3.2h-2.4c-.1 0 1.2-3.2 1.2-3.2zm5.7 6.2h2.1v-2.9h.9l2.5 2.9H64v-.4l-2.4-2.7c1.1-.3 2-1.2 2-2.5 0-1.8-1.3-2.8-3.2-2.8h-4l-.1 8.4zm3.9-6.5c.7 0 1.1.3 1.1 1 0 .6-.4 1-1.1 1h-1.8v-2.1l1.8.1zm11.5 0V32h-7v1.8h2.5v6.5h2.1v-6.5h2.4zm1.4 5.9c.5.3 1.8.7 3 .7 2.1 0 3.4-1.1 3.4-2.7 0-1.1-.7-1.9-2.2-2.3l-1.4-.4c-.5-.2-.8-.3-.8-.7s.3-.7 1.1-.7c.9 0 1.8.3 2.5.7l.6-1.7c-.7-.3-1.8-.6-3-.6-2.2 0-3.3 1.1-3.3 2.5 0 1.1.7 1.9 2.1 2.2l1.4.4c.7.2.9.3.9.8s-.5.8-1.3.8c-1 0-2-.4-2.6-.9l-.4 1.9z"/></svg>