<svg version="1.1" id="Layer_1" xmlns="http://www.w3.org/2000/svg" xmlns:xlink="http://www.w3.org/1999/xlink" x="0px" y="0px"
	 viewBox="0 0 985.3 239.4" style="enable-background:new 0 0 985.3 239.4;" xml:space="preserve" shape-rendering="geometricPrecision" text-rendering="geometricPrecision">
<g>
	<g>
		<path fill="#F8283B" d="M22.6,153.2l72.6,41.8l73.6-31.2v14.9l-82.7,47.6L0,176.7V81.5l13.5-8.3L22.6,153.2z M127.5,31.4L55,73.4
			l-9.8,79.3l-12.9-7.5l0.1-95.4L118.4,0l82.4,47.6l0.5,15.8L127.5,31.4z M180.5,184l-0.1-83.8l-63.8-48.1l12.9-7.5l82.6,47.8
			l0.1,99.3l-82.4,47.6l-13.9-7.5L180.5,184z"/>
	</g>
</g>
<g>
	<g>
		<g>
			<path fill="currentColor" d="M261.2,108.3v39.5c0,8.3,6.7,15,15,15h116.3v-14.3H285.1v-40.8h107.5V93.3H276.2
				C267.9,93.3,261.2,100.1,261.2,108.3z"/>
			<path fill="currentColor" d="M525.8,93.3H424.3c-8.3,0-15,6.7-15,15v39.5c0,8.3,6.7,15,15,15h101.5c8.3,0,15-6.7,15-15v-39.5
				C540.8,100.1,534.1,93.3,525.8,93.3z M518.7,148h-87.3v-40.3h87.3V148z"/>
			<path fill="currentColor" d="M673.9,140.2c8.3,0,15-6.7,15-15v-16.9c0-8.3-6.7-15-15-15H572.6c-8.3,0-15,6.7-15,15v54.5h22.1v-55.1h87.1
				v18.2h-80.5v14.3h40.8l34,22.6h28.4l-33.7-22.6H673.9z"/>
			<path fill="currentColor" d="M822.2,93.3H720.7c-8.3,0-15,6.7-15,15v39.5c0,8.3,6.7,15,15,15h101.5c8.3,0,15-6.7,15-15v-39.5
				C837.2,100.1,830.5,93.3,822.2,93.3z M815.1,148h-87.3v-39.8h87.3V148z"/>
			<path fill="currentColor" d="M985.3,107.7V93.3H869c-8.3,0-15,6.7-15,15v10.8c0,8.3,6.7,15,15,15h94.2v14.3H854v14.3h116.3
				c8.3,0,15-6.7,15-15v-13c0-8.3-6.7-15-15-15h-94.1v-12.1H985.3z"/>
		</g>
	</g>
</g>
</svg>
