<?xml version="1.0" encoding="UTF-8"?>
<!-- Generator: Adobe Illustrator 12.0.1, SVG Export Plug-In . SVG Version: 6.00 Build 51448)  -->
<!DOCTYPE svg PUBLIC "-//W3C//DTD SVG 1.1//EN" "http://www.w3.org/Graphics/SVG/1.1/DTD/svg11.dtd" [
	<!ENTITY ns_svg "http://www.w3.org/2000/svg">
	<!ENTITY ns_xlink "http://www.w3.org/1999/xlink">
]>
<svg version="1.1" id="Layer_1" xmlns="http://www.w3.org/2000/svg" xmlns:xlink="http://www.w3.org/1999/xlink" width="289.124" height="77.842" viewBox="0 0 289.124 77.842" overflow="visible" enable-background="new 0 0 289.124 77.842" xml:space="preserve">
<g>
	<g>
		<path d="M75.2,39.37c-0.479-0.964-1.754-1.751-2.833-1.751h-2.193c-1.077,0-2.337,0.796-2.803,1.767L49.985,75.708    c-0.483,0.961,0.042,1.649,1.121,1.649h4.018c1.586,0,2.313-0.721,2.742-1.605c0.431-0.884,1.389-2.805,1.572-3.197    c0.248-0.53,1.012-0.855,2.089-0.854l18.707,0.01c1.078,0.002,1.771,0.207,2.09,0.844c0.208,0.415,1.164,2.143,1.634,3.086    c0.474,0.943,1.27,1.716,2.815,1.716h5.83c1.078,0,1.55-0.818,1.162-1.578C93.375,75.017,75.2,39.37,75.2,39.37z M64.216,66.091    c-1.077,0-1.584-0.802-1.131-1.777l6.851-14.677c0.456-0.978,1.193-0.971,1.638,0.006l6.67,14.677    c0.445,0.979-0.072,1.781-1.148,1.781L64.216,66.091z M209.543,39.651c0,0.351,0,35.328,0,36.034c0,0.992,0.881,1.672,1.96,1.672    h4.751c1.077,0,1.959-0.688,1.959-1.766V39.578c0-1.079-0.696-1.958-1.773-1.958h-4.937    C210.424,37.619,209.543,38.282,209.543,39.651z M129.927,62.221c-0.619-0.882-0.279-1.856,0.752-2.164    c0,0,4.105-1.229,6.07-2.991c1.966-1.767,2.954-4.318,2.954-7.643c0-2.174-0.38-4.002-1.137-5.489    c-0.757-1.483-1.842-2.697-3.254-3.626c-1.412-0.934-3.102-1.619-5.07-2.048c-1.971-0.427-4.63-0.552-4.63-0.552    c-1.078-0.049-2.839-0.089-3.915-0.089h-19.73c-1.076,0-1.958,0.879-1.958,1.958v36.014c0,1.079,0.881,1.766,1.958,1.766h4.669    c1.078,0,1.959-0.688,1.959-1.766c0,0,0.003-14.324,0.012-14.324c0.008,0,0.013-0.008,0.013-0.018    c0-0.012,8.851-0.022,8.851-0.022c1.076,0,2.466,0.72,3.089,1.602l9.188,12.937c0.854,1.146,1.666,1.591,2.743,1.591h6.103    c1.078,0,1.247-1.016,0.874-1.544C139.099,75.288,129.927,62.221,129.927,62.221z M126.212,54.907    c-1.209,0.278-2.57,0.334-2.57,0.334c-1.076,0.047-2.837,0.085-3.915,0.085h-9.146c-1.078,0-1.959-0.882-1.959-1.959V46.07    c0-1.078,0.881-1.959,1.959-1.959h9.146c1.078,0,2.839,0.039,3.915,0.084c0,0,1.361,0.054,2.57,0.333    c1.209,0.279,2.168,0.668,2.87,1.171c0.705,0.506,1.208,1.099,1.512,1.781c0.3,0.682,0.453,1.425,0.453,2.236    c0,0.807-0.153,1.554-0.453,2.235c-0.304,0.682-0.807,1.275-1.512,1.781C128.38,54.238,127.421,54.632,126.212,54.907z     M267.875,37.619c-1.077,0-1.948,0.71-1.948,1.748c0,0.498,0.012,23.036,0.012,23.036c0,1.08-0.61,1.325-1.358,0.549    l-23.066-23.925c-0.749-0.776-1.845-1.408-3.321-1.408h-4.338c-1.364,0-1.961,0.728-1.961,1.465c0,0.734,0,36.099,0,36.837    c0,0.735,0.7,1.436,1.779,1.436h4.345c1.075,0,1.829-0.586,1.829-1.578c0-0.498,0.022-24.268,0.022-24.268    c0-1.077,0.609-1.323,1.355-0.545l24.051,25.003c0.764,0.765,1.692,1.388,3.343,1.388h3.264c1.079,0,1.96-0.881,1.96-1.959V39.578    c0-1.079-0.881-1.958-1.96-1.958H267.875z M173.832,60.081c-0.523,0.941-1.384,0.938-1.9-0.005L160.657,39.37    c-0.479-0.961-1.462-1.751-2.832-1.751h-6.115c-1.078,0-1.961,0.879-1.961,1.958v35.968c0,1.076,0.708,1.812,1.961,1.812h3.801    c1.079,0,1.856-0.68,1.856-1.719c0-0.498,0.016-26.16,0.057-26.16c0.042,0,14.073,26.153,14.073,26.153    c0.508,0.949,1.755,0.953,2.273,0.008c0,0,14.146-26.086,14.188-26.086c0.044,0,0.028,25.336,0.028,26.085    c0,1.04,0.831,1.719,1.91,1.719h4.378c1.079,0,1.958-0.537,1.958-1.959V39.578c0-1.079-0.879-1.958-1.958-1.958h-5.862    c-1.496,0-2.396,0.763-2.931,1.7L173.832,60.081z"/>
	</g>
	<g>
		<path d="M0,57.453c0,19.405,19.848,20.389,23.828,20.389c13.171,0,18.737-3.559,18.968-3.713c0.824-0.466,1.827-1.406,1.827-3.167    V57.568c0-1.234-1.005-2.239-2.24-2.239H25.836c-1.237,0-2.049,1.005-2.049,2.239v1.387c0,1.236,0.812,2.244,2.049,2.244h9.571    c0.924,0,1.675,0.75,1.675,1.674c0,0-0.009,5.871-0.009,6.243c-1.891,0.772-10.503,3.288-17.423,1.638    C9.612,68.353,8.83,60.072,8.83,57.591c0-2.082,0.624-12.512,12.952-13.567c9.979-0.854,16.55,3.175,16.615,3.214    c1.173,0.608,2.387,0.175,3.041-1.067c0.003-0.01,1.245-2.523,1.245-2.523c0.517-1.034,0.343-2.106-0.919-2.962    c-0.084-0.048-7.079-3.841-17.934-3.841C0.668,36.846,0,55.344,0,57.453z"/>
	</g>
	<g>
		<path d="M280.067,72.41h-1.705v-0.615h4.15v0.615h-1.713v4.989h-0.732V72.41z"/>
		<path d="M288.275,74.938c-0.042-0.782-0.092-1.73-0.092-2.42h-0.017c-0.199,0.648-0.424,1.355-0.706,2.129l-0.99,2.718h-0.549    l-0.915-2.668c-0.266-0.798-0.481-1.514-0.64-2.179h-0.017c-0.017,0.698-0.059,1.63-0.108,2.478l-0.149,2.402h-0.69l0.391-5.604    h0.923l0.957,2.711c0.232,0.69,0.415,1.306,0.565,1.887h0.017c0.149-0.565,0.349-1.18,0.599-1.887l0.998-2.711h0.923l0.35,5.604    h-0.716L288.275,74.938z"/>
	</g>
	<g>
		<g>
			<defs>
				<path id="XMLID_1_" d="M265.682,27.688l-25.992-0.001c-0.953,0-1.771-0.474-2.247-1.299c-0.476-0.825-0.476-1.769,0.001-2.594      l12.997-22.498C250.917,0.472,251.734,0,252.687,0c0.952,0,1.77,0.472,2.246,1.296l12.995,22.499      c0.478,0.825,0.478,1.77,0.001,2.595C267.453,27.214,266.635,27.688,265.682,27.688z"/>
			</defs>
			<use xlink:href="#XMLID_1_" fill-rule="evenodd" clip-rule="evenodd" fill="#007CC2"/>
			<clipPath id="XMLID_3_">
				<use xlink:href="#XMLID_1_"/>
			</clipPath>
		</g>
	</g>
</g>
</svg>