<svg aria-hidden="true" class="h-full w-auto" fill="none" height="26" viewBox="0 0 273 67" width="108" xmlns="http://www.w3.org/2000/svg">
<path d="M26.3106 46.6057L36.5976 24.8261H45.2064L55.4935 46.6057L65.7805 24.8261H81.804L60.4393 65.0099H51.0317L40.9061 43.0032L30.7804 65.0099H21.3728L0 24.8261H16.1042L26.3106 46.6057ZM124.364 65.0099H109.849V60.5459H109.688C107.138 64.54 102.112 66.3412 97.3274 66.3412C85.2088 66.3412 76.6726 56.3951 76.6726 44.8827C76.6726 33.3703 85.0475 23.5025 97.166 23.5025C101.87 23.5025 106.816 25.2255 109.841 28.7497V24.8339H124.356V65.0177L124.364 65.0099ZM91.6715 44.961C91.6715 50.0516 95.1005 53.9674 100.998 53.9674C106.896 53.9674 110.325 50.0516 110.325 44.961C110.325 39.8705 106.904 35.8686 100.998 35.8686C95.0924 35.8686 91.6715 40.0272 91.6715 44.961ZM141.203 0V29.9244H141.364C144.712 25.5388 148.779 23.5025 154.443 23.5025C164.81 23.5025 169.829 30.2377 169.829 40.4266V65.0177H155.322V44.4207C155.322 39.7217 154.604 34.8662 148.787 34.8662C142.969 34.8662 141.211 39.7217 141.211 44.4207V65.0177H126.696V0H141.211H141.203ZM220.868 44.961C220.868 58.588 209.379 66.3412 196.228 66.3412C183.077 66.3412 171.588 58.6663 171.588 44.961C171.588 31.2558 183.069 23.5025 196.228 23.5025C209.387 23.5025 220.868 31.2558 220.868 44.961ZM186.901 44.961C186.901 50.0516 190.33 53.9674 196.236 53.9674C202.142 53.9674 205.563 50.0516 205.563 44.961C205.563 39.8705 202.134 35.8686 196.236 35.8686C190.338 35.8686 186.901 40.0272 186.901 44.961ZM272.07 44.961C272.07 58.588 260.589 66.3412 247.429 66.3412C234.27 66.3412 222.789 58.6663 222.789 44.961C222.789 31.2558 234.27 23.5025 247.429 23.5025C260.589 23.5025 272.07 31.2558 272.07 44.961ZM238.102 44.961C238.102 50.0516 241.531 53.9674 247.429 53.9674C253.327 53.9674 256.764 50.0516 256.764 44.961C256.764 39.8705 253.335 35.8686 247.429 35.8686C241.523 35.8686 238.102 40.0272 238.102 44.961Z" fill="black"></path>
</svg>