<svg xmlns="http://www.w3.org/2000/svg" viewBox="-140 150 620 175" role="img" aria-labelledby="title">
  <title id="title">Wahoo</title>
  <path fill="currentColor" d="M146.8,158.3c6.5,0,12.9,0,19.4,0c4.3,0,8.6,0,12.9,0c0,8,0,16,0,24v0v0v0v0v0v0v0v0v0v0v0v0v0
 c0,16,0,32,0,48c4.8-7,11.9-12.9,20.5-14.7c10.2-1.9,21.9-0.9,30.1,6c5.8,4.7,9.3,11.7,11,18.8c1.8,7.4,1.8,15.1,1.7,22.7v0v0v0v0v0
 v0v0v0v0v0v0v0v0v0c0,2,0,3.9,0,5.8c0,5.8,0,11.6,0,17.5l0,0.1c0,9.4,0,18.7-0.1,28.1c-6.4-0.1-12.9,0-19.3,0c-4.3,0-8.6,0-12.9,0
 c0-7.2,0-14.3,0-21.5V293c0-10,0-19.9,0-29.9c-0.3-6-0.7-12.6-5-17.3c-6-5.8-17.3-4.1-21.7,2.9c-3,4.6-4,10.1-4,15.5
 c0,7.7,0,15.4,0,23c0,9.2,0,18.4,0,27.6c-7.1,0.1-14.1,0.1-21.2,0.1c-3.7,0-7.4,0-11.1,0c-0.1-10.1,0-20.1,0-30.2
 c0-18.3,0.1-36.6-0.3-55l0-11.9v0v0v0v0v0v0v0v0v0v0v0v0v0C146.8,198,146.9,178.2,146.8,158.3z M292,215.1
 c16.2-2.1,33.6,1.8,46.1,12.5c20,17,22.2,49.7,6.7,70.3c-18.9,24-58.4,26.5-81.6,7.3c-11.4-9.3-17.4-24.1-17.1-38.5
 c-0.3-12.1,3.5-24.4,11.4-33.7C265.9,222.8,278.8,216.7,292,215.1z M453.1,229.5c-13-12.6-32.5-17-50.2-14.2
 c-13.9,2.1-27.3,9.3-35.3,20.9c-8.2,11.6-10.3,26.5-8,40.2c2,12,8.7,23.3,18.7,30.5c13.9,10.2,32.5,12.9,49.2,9.2
 c14.3-3.1,27.6-12.1,34.3-25.2C471.7,271.4,469.2,245.2,453.1,229.5z M-132,218.4c7.4,0.1,14.8,0.1,22.2,0.1c4.5,0,9.1,0,13.6,0
 c3,6.8,5.9,13.6,8.8,20.3l0,0l0,0l0,0l0,0l0,0l0,0l0,0l0,0l0,0l0,0l0,0c4.5,10.5,9,20.9,13.7,31.3c5.2-12.4,10.5-24.7,15.9-37.1
 l0-0.1c2.2-5,4.3-9.9,6.5-14.9l4.8,0h0.1c4.7,0,9.5,0,14.2,0c3.9,9,7.8,18,11.8,27.1l0,0.1l0,0l0,0.1l0,0l0,0.1l0.1,0.2l0.1,0.2
 c3.5,8,7,16,10.5,24.1c4.9-10.8,9.6-21.7,14.2-32.6l0,0c2.8-6.4,5.5-12.8,8.3-19.2c4.9,0,9.8,0,14.7,0c7,0,14,0,20.9,0.1
 c-7.8,16.1-15.6,32.1-23.4,48.1l-0.1,0.1c-7.8,16.1-15.7,32.2-23.5,48.3c-7.1,0.1-14.2,0.1-21.3,0c-2.5-5.8-4.9-11.6-7.3-17.3
 c-4.8-11.6-9.7-23.2-15-34.6c-4,9.8-8.1,19.6-12.3,29.3l0,0c-3.2,7.6-6.4,15.3-9.6,22.9c-3.8,0.1-7.6,0.1-11.4,0h0
 c-3.2,0-6.3,0-9.5,0c-4-8.1-7.9-16.2-11.9-24.3l-0.2-0.4l0,0l0,0l0,0l0,0l0,0l0,0l0,0l0,0l0,0l0,0l0,0
 C-108.7,266.5-120.5,242.5-132,218.4z M110,227c-13.7-16.2-40.7-15.6-55.9-1.7c-22.4,20.1-23.1,58.5-2.2,79.9
 c10,10.3,25.6,15.3,39.8,11.7c7.5-1.8,14.6-6.3,18.4-13.1c0,1.8,0,3.7,0,5.5c0,1.8,0,3.6,0,5.5c7.3,0.1,14.7,0.1,22,0.1h0
 c3.4,0,6.8,0,10.3,0c0.1-20,0-40-0.1-60v0v0v0v0v0v0v0v0v0l0,0c-0.1-12.2-0.2-24.4-0.2-36.7l-5.9,0c-8.8,0-17.6,0-26.3,0
 C109.7,221.1,109.8,224.1,110,227z" />
</svg>
