<svg viewBox="0 0 24 24" xmlns="http://www.w3.org/2000/svg" xmlns:xlink="http://www.w3.org/1999/xlink"><linearGradient id="a"><stop offset="0" stop-color="#fb3653"/><stop offset=".502" stop-color="#3563b0"/><stop offset="1" stop-color="#15e5d9"/></linearGradient><linearGradient id="b" gradientUnits="userSpaceOnUse" x1="7.494" x2="7.494" xlink:href="#a" y1="5.018" y2="18.569"/><linearGradient id="c" gradientUnits="userSpaceOnUse" x1="19.479" x2="19.479" xlink:href="#a" y1="5.018" y2="18.569"/><path d="m0 0h24v24h-24z" fill="none"/><path d="m12.7 18.8-1.4-1.3c-1.1.7-2.4 1.1-3.9 1.1-4 0-6.9-3-6.9-6.7s2.9-6.7 7-6.7c4 0 6.9 3 6.9 6.7 0 1.4-.4 2.7-1.2 3.7l1.3 1.1zm-1.4-6.9c0-2.2-1.6-4.1-4-4.1-2.3 0-3.9 1.8-3.9 4.1 0 2.2 1.6 4.1 4 4.1.6 0 1.2-.1 1.7-.4l-2.1-1.7 1.8-2 2.1 1.9c.3-.6.4-1.2.4-1.9z" fill="url(#b)"/><path d="m19.7 18.6c-1.4 0-3-.5-4.3-1.5l1.2-1.9c1.1.8 2.2 1.2 3.1 1.2.8 0 1.2-.3 1.2-.7 0-.6-1-.8-2.1-1.2-1.4-.4-3-1.1-3-3 0-2 1.6-3.2 3.7-3.2 1.3 0 2.6.4 3.7 1.2l-1.1 2c-1-.6-2-.9-2.7-.9s-1 .3-1 .7c0 .6 1 .8 2 1.2 1.4.5 3 1.1 3 3 .1 2.1-1.5 3.1-3.7 3.1z" fill="url(#c)"/></svg>