<svg height='100px' width='100px'  fill="#000000" xmlns="http://www.w3.org/2000/svg" viewBox="0 0 68 52" x="0px" y="0px"><path fill="#000000" d="M92,698 L92,708 L98.5584816,708 L100.102633,703.367544 C100.374861,702.55086 101.139139,702 102,702 L122,702 C123.104569,702 124,702.895431 124,704 C124,705.104569 123.104569,706 122,706 L103.441518,706 L101.897367,710.632456 C101.625139,711.44914 100.860861,712 100,712 L80,712 C79.1391392,712 78.3748615,711.44914 78.1026334,710.632456 L76.5584816,706 L58,706 C56.8954305,706 56,705.104569 56,704 C56,702.895431 56.8954305,702 58,702 L78,702 C78.8608608,702 79.6251385,702.55086 79.8973666,703.367544 L81.4415184,708 L88,708 L88,698 L82,698 C80.8954305,698 80,697.104569 80,696 C80,694.895431 80.8954305,694 82,694 L98,694 C99.1045695,694 100,694.895431 100,696 C100,697.104569 99.1045695,698 98,698 L92,698 L92,698 Z M88,679.171573 L88,662 C88,660.895431 88.8954305,660 90,660 C91.1045695,660 92,660.895431 92,662 L92,679.171573 L94.5857864,676.585786 C95.366835,675.804738 96.633165,675.804738 97.4142136,676.585786 C98.1952621,677.366835 98.1952621,678.633165 97.4142136,679.414214 L91.4142136,685.414214 C90.633165,686.195262 89.366835,686.195262 88.5857864,685.414214 L82.5857864,679.414214 C81.8047379,678.633165 81.8047379,677.366835 82.5857864,676.585786 C83.366835,675.804738 84.633165,675.804738 85.4142136,676.585786 L88,679.171573 Z" transform="translate(-56 -660)"></path></svg>